<svg width="20" height="20" viewBox="0 0 20 20" fill="none" xmlns="http://www.w3.org/2000/svg">
<path d="M18.125 3.75H17.5C17.4997 3.41858 17.3679 3.10083 17.1335 2.86648C16.8992 2.63213 16.5814 2.50033 16.25 2.5H10C9.66858 2.50033 9.35083 2.63213 9.11648 2.86648C8.88213 3.10083 8.75033 3.41858 8.75 3.75H7.5V2.5H2.5V3.75H1.875C1.37792 3.75066 0.901393 3.94842 0.549905 4.29991C0.198418 4.65139 0.000661448 5.12792 0 5.625L0 15.625C0.000661448 16.1221 0.198418 16.5986 0.549905 16.9501C0.901393 17.3016 1.37792 17.4993 1.875 17.5H18.125C18.6221 17.4993 19.0986 17.3016 19.4501 16.9501C19.8016 16.5986 19.9993 16.1221 20 15.625V5.625C19.9993 5.12792 19.8016 4.65139 19.4501 4.29991C19.0986 3.94842 18.6221 3.75066 18.125 3.75ZM18.75 15.625C18.75 15.7908 18.6842 15.9497 18.5669 16.0669C18.4497 16.1842 18.2908 16.25 18.125 16.25H1.875C1.70924 16.25 1.55027 16.1842 1.43306 16.0669C1.31585 15.9497 1.25 15.7908 1.25 15.625V5.625C1.25 5.45924 1.31585 5.30027 1.43306 5.18306C1.55027 5.06585 1.70924 5 1.875 5H3.75V3.75H6.25V5H8.75C9.08142 4.99967 9.39917 4.86787 9.63352 4.63352C9.86787 4.39917 9.99967 4.08142 10 3.75H16.25C16.2503 4.08142 16.3821 4.39917 16.6165 4.63352C16.8508 4.86787 17.1686 4.99967 17.5 5H18.125C18.2908 5 18.4497 5.06585 18.5669 5.18306C18.6842 5.30027 18.75 5.45924 18.75 5.625V15.625ZM13.4263 11.25H14.6862C14.5751 11.9954 14.2608 12.6959 13.7778 13.2744C13.2947 13.853 12.6617 14.2873 11.948 14.5297C11.2344 14.7721 10.4678 14.8132 9.73229 14.6485C8.99681 14.4839 8.32091 14.1198 7.77875 13.5962L6.25 15.125V11.25H10.125L8.6625 12.7125C9.03048 13.0606 9.48427 13.3049 9.97752 13.4203C10.4708 13.5358 10.9858 13.5182 11.4701 13.3695C11.9543 13.2208 12.3904 12.9462 12.7339 12.5739C13.0773 12.2015 13.3158 11.7447 13.425 11.25H13.4263ZM13.4713 7.65375L15 6.125V10H11.125L12.5875 8.5375C12.2195 8.18936 11.7657 7.9451 11.2725 7.82967C10.7792 7.71425 10.2642 7.73178 9.77993 7.88049C9.29568 8.0292 8.85956 8.30375 8.51611 8.67612C8.17265 9.04849 7.93417 9.50533 7.825 10H6.5625C6.67362 9.25455 6.98794 8.55412 7.47097 7.97557C7.95401 7.39702 8.58708 6.96272 9.30072 6.72032C10.0144 6.47792 10.781 6.43679 11.5165 6.60145C12.2519 6.76611 12.9278 7.1302 13.47 7.65375H13.4713Z" fill="white"/>
</svg>
