<svg width="51" height="46" viewBox="0 0 51 46" fill="none" xmlns="http://www.w3.org/2000/svg">
<path d="M46.0006 4.65809C44.7666 3.42411 43.3015 2.4454 41.6891 1.77788C40.0767 1.11035 38.3486 0.767114 36.6035 0.76777C34.8584 0.768425 33.1305 1.11296 31.5186 1.78169C29.9067 2.45043 28.4424 3.43024 27.2094 4.66514L25.5998 6.29432L24.0036 4.66867L23.9932 4.65829C22.7599 3.4249 21.2956 2.44651 19.6841 1.779C18.0726 1.11149 16.3454 0.767927 14.6011 0.767927C12.8568 0.767927 11.1296 1.11149 9.51813 1.779C7.90662 2.44651 6.44237 3.4249 5.20898 4.65829L4.49194 5.37534C2.00101 7.86628 0.601624 11.2447 0.601624 14.7674C0.601624 18.2901 2.00101 21.6686 4.49194 24.1595L23.4166 43.0839L25.5537 45.3231L25.6047 45.272L25.66 45.3273L27.6623 43.2147L46.7176 24.1592C49.2048 21.6663 50.6016 18.2886 50.6016 14.7671C50.6016 11.2456 49.2048 7.86794 46.7176 5.37503L46.0006 4.65809ZM44.3691 21.8112L25.6047 40.5761L6.83982 21.8112C4.97163 19.943 3.92209 17.4092 3.92209 14.7672C3.92209 12.1251 4.97163 9.59131 6.83982 7.72311L7.55696 7.00607C9.42425 5.1388 11.9565 4.08934 14.5973 4.08834C17.238 4.08735 19.7711 5.13491 21.6398 7.00078L25.5926 11.0257L29.5643 7.00607C30.4893 6.08102 31.5875 5.34723 32.7961 4.8466C34.0048 4.34596 35.3002 4.08829 36.6084 4.08829C37.9166 4.08829 39.212 4.34596 40.4206 4.8466C41.6293 5.34723 42.7274 6.08102 43.6525 7.00607L44.3695 7.72301C46.2349 9.59275 47.2825 12.1261 47.2824 14.7672C47.2823 17.4083 46.2346 19.9416 44.3691 21.8112Z" fill="black"/>
</svg>
