<svg width="49" height="54" viewBox="0 0 49 54" fill="none" xmlns="http://www.w3.org/2000/svg">
<path d="M39.5 18C39.5 13.7565 37.9197 9.68688 35.1065 6.6863C32.2935 3.6857 28.4783 2 24.5 2C20.5217 2 16.7064 3.6857 13.8934 6.6863C11.0804 9.68688 9.5 13.7565 9.5 18C9.5 36.6667 2 42 2 42H47C47 42 39.5 36.6667 39.5 18Z" stroke="black" stroke-width="3.75" stroke-linecap="round" stroke-linejoin="round"/>
<path d="M28.825 49.5C28.3855 50.2577 27.7548 50.8867 26.9955 51.3237C26.2365 51.761 25.376 51.9913 24.5 51.9913C23.624 51.9913 22.7635 51.761 22.0045 51.3237C21.2455 50.8867 20.6145 50.2577 20.175 49.5" stroke="black" stroke-width="3.75" stroke-linecap="round" stroke-linejoin="round"/>
</svg>
