<svg width="26" height="21" viewBox="0 0 26 21" fill="none" xmlns="http://www.w3.org/2000/svg">
<path d="M20.3125 3.34106H5.68752C4.53841 3.34106 3.59824 4.05697 3.59824 4.93197V16.0683C3.59824 16.9433 4.53841 17.6592 5.68752 17.6592H20.3125C21.4616 17.6592 22.4018 16.9433 22.4018 16.0683V4.93197C22.4018 4.05697 21.4616 3.34106 20.3125 3.34106ZM8.82145 14.4774C8.2469 14.4774 7.77681 14.1195 7.77681 13.682V9.7047C7.77681 9.2672 8.2469 8.90925 8.82145 8.90925C9.396 8.90925 9.86609 9.2672 9.86609 9.7047V13.682C9.86609 14.1195 9.396 14.4774 8.82145 14.4774ZM13 14.4774C12.4255 14.4774 11.9554 14.1195 11.9554 13.682V7.31834C11.9554 6.88084 12.4255 6.52288 13 6.52288C13.5746 6.52288 14.0447 6.88084 14.0447 7.31834V13.682C14.0447 14.1195 13.5746 14.4774 13 14.4774ZM17.1786 14.4774C16.604 14.4774 16.1339 14.1195 16.1339 13.682V12.0911C16.1339 11.6536 16.604 11.2956 17.1786 11.2956C17.7531 11.2956 18.2232 11.6536 18.2232 12.0911V13.682C18.2232 14.1195 17.7531 14.4774 17.1786 14.4774Z" fill="#FF001F"/>
</svg>
