<svg width="46" height="45" viewBox="0 0 46 45" fill="none" xmlns="http://www.w3.org/2000/svg">
<path d="M14.2045 22.0588C14.2045 20.536 12.9326 19.3015 11.3636 19.3015C9.79462 19.3015 8.52271 20.536 8.52271 22.0588C8.52271 23.5817 9.79462 24.8162 11.3636 24.8162C12.9326 24.8162 14.2045 23.5817 14.2045 22.0588Z" fill="white"/>
<path d="M25.5682 22.0588C25.5682 20.536 24.2963 19.3015 22.7273 19.3015C21.1583 19.3015 19.8864 20.536 19.8864 22.0588C19.8864 23.5817 21.1583 24.8162 22.7273 24.8162C24.2963 24.8162 25.5682 23.5817 25.5682 22.0588Z" fill="white"/>
<path d="M36.9318 22.0588C36.9318 20.536 35.6599 19.3015 34.0909 19.3015C32.5219 19.3015 31.25 20.536 31.25 22.0588C31.25 23.5817 32.5219 24.8162 34.0909 24.8162C35.6599 24.8162 36.9318 23.5817 36.9318 22.0588Z" fill="white"/>
</svg>
