<svg width="45" height="45" viewBox="0 0 45 45" fill="none" xmlns="http://www.w3.org/2000/svg">
<path d="M4.84419 4.50029L9.02239 29.5785C9.09869 30.1038 9.35951 30.5847 9.75813 30.9352C10.1786 31.3082 10.7239 31.5098 11.2859 31.5H35.9996C36.472 31.5001 36.9325 31.3515 37.3157 31.0753C37.6989 30.799 37.9855 30.4092 38.1348 29.961L44.8847 9.71123C44.9974 9.37299 45.028 9.01281 44.9742 8.66039C44.9203 8.30797 44.7835 7.97339 44.575 7.68422C44.3665 7.39505 44.0922 7.15957 43.7748 6.99719C43.4574 6.83481 43.106 6.75018 42.7495 6.75027H9.78063L8.97739 1.91282C8.89493 1.36012 8.60834 0.858389 8.17415 0.506592C7.76264 0.170377 7.24523 -0.0090031 6.71392 0.000347976H2.24997C1.65324 0.000347976 1.08095 0.237398 0.659002 0.65935C0.23705 1.0813 0 1.65359 0 2.25032C0 2.84705 0.23705 3.41934 0.659002 3.84129C1.08095 4.26324 1.65324 4.50029 2.24997 4.50029H4.84419ZM13.1556 27L10.5299 11.2502H39.6288L34.3773 27H13.1556ZM17.9998 40.4999C17.9998 41.6933 17.5257 42.8379 16.6818 43.6818C15.8379 44.5257 14.6933 44.9998 13.4998 44.9998C12.3064 44.9998 11.1618 44.5257 10.3179 43.6818C9.47399 42.8379 8.99989 41.6933 8.99989 40.4999C8.99989 39.3064 9.47399 38.1618 10.3179 37.3179C11.1618 36.474 12.3064 35.9999 13.4998 35.9999C14.6933 35.9999 15.8379 36.474 16.6818 37.3179C17.5257 38.1618 17.9998 39.3064 17.9998 40.4999ZM38.2495 40.4999C38.2495 41.6933 37.7754 42.8379 36.9315 43.6818C36.0876 44.5257 34.9431 44.9998 33.7496 44.9998C32.5561 44.9998 31.4116 44.5257 30.5677 43.6818C29.7238 42.8379 29.2496 41.6933 29.2496 40.4999C29.2496 39.3064 29.7238 38.1618 30.5677 37.3179C31.4116 36.474 32.5561 35.9999 33.7496 35.9999C34.9431 35.9999 36.0876 36.474 36.9315 37.3179C37.7754 38.1618 38.2495 39.3064 38.2495 40.4999Z" fill="#0D0D0D"/>
</svg>
