<svg width="23" height="29" viewBox="0 0 23 29" fill="none" xmlns="http://www.w3.org/2000/svg">
<path d="M21.9865 21.4452L20.116 19.5747V12.3248C20.116 7.8734 17.7381 4.14695 13.5911 3.16096V2.17497C13.5911 0.971487 12.6196 0 11.4161 0C10.2127 0 9.24117 0.971487 9.24117 2.17497V3.16096C5.07972 4.14695 2.71626 7.8589 2.71626 12.3248V19.5747L0.84578 21.4452C-0.0677081 22.3587 0.570283 23.9247 1.86077 23.9247H20.957C22.262 23.9247 22.9 22.3587 21.9865 21.4452ZM17.2161 21.0247H5.61622V12.3248C5.61622 8.72889 7.80569 5.79992 11.4161 5.79992C15.0266 5.79992 17.2161 8.72889 17.2161 12.3248V21.0247ZM11.4161 28.2746C13.0111 28.2746 14.3161 26.9696 14.3161 25.3747H8.51618C8.51618 26.9696 9.80666 28.2746 11.4161 28.2746Z" fill="black"/>
</svg>
