<svg width="25" height="25" viewBox="0 0 25 25" fill="none" xmlns="http://www.w3.org/2000/svg">
<path d="M24.2188 9.69531L23.1172 8.59375L20.3125 11.3984L17.5078 8.59375L16.4062 9.69531L19.2109 12.5L16.4062 15.3047L17.5078 16.4062L20.3125 13.6016L23.1172 16.4062L24.2188 15.3047L21.4141 12.5L24.2188 9.69531Z" fill="white"/>
<path d="M14.0625 23.4375C13.9591 23.4371 13.8569 23.4161 13.7617 23.3759C13.6665 23.3357 13.5802 23.2769 13.5078 23.2031L7.55469 17.1875H2.34375C2.13655 17.1875 1.93784 17.1052 1.79132 16.9587C1.64481 16.8122 1.5625 16.6135 1.5625 16.4063V8.59375C1.5625 8.38655 1.64481 8.18784 1.79132 8.04132C1.93784 7.89481 2.13655 7.8125 2.34375 7.8125H7.55469L13.5078 1.79688C13.6542 1.65137 13.8522 1.56969 14.0586 1.56969C14.265 1.56969 14.463 1.65137 14.6094 1.79688C14.7566 1.94112 14.8408 2.13768 14.8438 2.34375V22.6563C14.8438 22.8635 14.7614 23.0622 14.6149 23.2087C14.4684 23.3552 14.2697 23.4375 14.0625 23.4375Z" fill="white"/>
</svg>
