<svg width="26" height="24" viewBox="0 0 26 24" fill="none" xmlns="http://www.w3.org/2000/svg">
<path d="M14.5161 23.5209C14.0968 23.5209 13.6935 23.3596 13.371 23.0532L6.91935 16.6015H1.6129C0.725806 16.6015 0 15.8757 0 14.9886V8.53703C0 7.64993 0.725806 6.92413 1.6129 6.92413H6.91935L13.371 0.472515C13.5972 0.24664 13.8853 0.0929225 14.1989 0.0308056C14.5124 -0.0313114 14.8374 0.000962423 15.1326 0.123545C15.4279 0.246127 15.6801 0.453512 15.8575 0.719468C16.0348 0.985425 16.1293 1.29801 16.129 1.61768V21.9241C16.1299 22.1354 16.0887 22.3448 16.0077 22.54C15.9268 22.7352 15.8077 22.9122 15.6576 23.0609C15.5074 23.2096 15.3291 23.3268 15.1332 23.4058C14.9372 23.4848 14.7274 23.5239 14.5161 23.5209Z" fill="white"/>
<path d="M18.9839 14.6177C19.7097 13.8919 20.1613 12.8757 20.1613 11.7628C20.1613 10.6499 19.7097 9.64994 18.9839 8.908M22.4839 17.9403C24.0484 16.3435 25 14.1661 25 11.7628C25 9.31123 24 7.10155 22.4033 5.48865" stroke="white" stroke-width="2" stroke-linecap="round"/>
</svg>
