<svg width="24" height="25" viewBox="0 0 24 25" fill="none" xmlns="http://www.w3.org/2000/svg">
<path d="M14.08 15.967L16.67 13.377H7V11.377H16.67L14.08 8.78695L15.5 7.37695L20.5 12.377L15.5 17.377L14.08 15.967ZM19 3.37695C19.5304 3.37695 20.0391 3.58767 20.4142 3.96274C20.7893 4.33781 21 4.84652 21 5.37695V10.047L19 8.04695V5.37695H5V19.377H19V16.707L21 14.707V19.377C21 19.9074 20.7893 20.4161 20.4142 20.7912C20.0391 21.1662 19.5304 21.377 19 21.377H5C3.89 21.377 3 20.477 3 19.377V5.37695C3 4.26695 3.89 3.37695 5 3.37695H19Z" fill="black"/>
</svg>