<svg width="145" height="129" viewBox="0 0 145 129" fill="none" xmlns="http://www.w3.org/2000/svg">
<g id="Group 1171276003">
<path id="Vector" d="M136.579 128.295H8.45228C5.6497 128.295 2.84712 126.7 1.6457 124.308C0.0445326 121.916 0.0445326 118.726 1.6457 116.333L65.709 4.6909C67.3108 2.29882 69.713 0.704346 72.5155 0.704346C75.3188 0.704346 78.1214 2.29882 79.3221 4.6909L143.385 116.333C144.987 118.726 144.987 121.916 143.385 124.308C141.784 126.7 139.381 128.295 136.579 128.295Z" fill="#E1740F"/>
<path id="Vector_2" d="M65.9912 104.77C65.9912 103.574 65.9912 102.777 66.3917 101.979C66.7922 101.182 67.1926 100.385 67.9936 99.5872C68.7945 98.7896 69.5947 98.3908 70.3957 97.992C71.1966 97.5932 72.398 97.5932 73.5987 97.5932C74.8002 97.5932 76.0016 97.5932 76.8018 97.992C78.0032 98.3908 78.8042 98.7896 79.2046 99.5872C80.0056 100.385 80.406 101.182 80.8058 101.979C81.2063 102.777 81.2063 103.973 81.2063 104.77C81.2063 105.967 81.2063 106.764 80.8058 107.562C80.406 108.359 80.0056 109.156 79.2046 109.954C78.4037 110.751 77.6027 111.15 76.8018 111.549C76.402 112.346 75.2006 112.346 73.9992 112.346C72.7985 112.346 71.5971 112.346 70.7962 111.947C69.9952 111.549 68.7945 111.15 68.394 110.353C67.5931 109.555 67.1926 108.757 66.7922 107.961C65.9912 107.163 65.9912 105.967 65.9912 104.77ZM80.0056 88.423H67.9936L66.3917 40.5764H81.6067L80.0056 88.423Z" fill="white"/>
</g>
</svg>
