<svg width="22" height="20" viewBox="0 0 22 20" fill="none" xmlns="http://www.w3.org/2000/svg">
<path id="Vector" d="M14.9155 4.0665C15.7818 4.0665 16.4905 3.36213 16.4905 2.4915C16.4905 1.62088 15.7818 0.916504 14.9155 0.916504C14.0449 0.916504 13.3405 1.62088 13.3405 2.4915C13.3405 3.36213 14.0449 4.0665 14.9155 4.0665ZM17.5405 10.3665C15.1255 10.3665 13.1655 12.3265 13.1655 14.7415C13.1655 17.1565 15.1255 19.1165 17.5405 19.1165C19.9555 19.1165 21.9155 17.1565 21.9155 14.7415C21.9155 12.3265 19.9555 10.3665 17.5405 10.3665ZM17.5405 17.804C15.8474 17.804 14.478 16.4346 14.478 14.7415C14.478 13.0484 15.8474 11.679 17.5405 11.679C19.2337 11.679 20.603 13.0484 20.603 14.7415C20.603 16.4346 19.2337 17.804 17.5405 17.804ZM13.8655 8.6165H17.5405V7.0415H14.7405L13.0474 4.18463C12.7893 3.74713 12.3124 3.454 11.7655 3.454C11.3543 3.454 10.9824 3.62025 10.7155 3.8915L7.47803 7.12463C7.20678 7.39588 7.04053 7.76775 7.04053 8.179C7.04053 8.73025 7.33365 9.194 7.78428 9.46525L10.7155 11.2415V15.6165H12.2905V9.9465L10.3218 8.48525L12.3518 6.4465L13.8655 8.6165ZM5.29053 10.3665C2.87553 10.3665 0.915527 12.3265 0.915527 14.7415C0.915527 17.1565 2.87553 19.1165 5.29053 19.1165C7.70553 19.1165 9.66553 17.1565 9.66553 14.7415C9.66553 12.3265 7.70553 10.3665 5.29053 10.3665ZM5.29053 17.804C3.5974 17.804 2.22803 16.4346 2.22803 14.7415C2.22803 13.0484 3.5974 11.679 5.29053 11.679C6.98365 11.679 8.35303 13.0484 8.35303 14.7415C8.35303 16.4346 6.98365 17.804 5.29053 17.804Z" fill="#3D3D3D"/>
</svg>
