<svg width="17" height="15" viewBox="0 0 17 15" fill="none" xmlns="http://www.w3.org/2000/svg">
<path id="Vector" d="M9.27858 5.83417L6.9619 4.10804V10.892L9.27858 9.16583L11.5193 7.5L9.27858 5.83417ZM9.27858 5.83417L6.9619 4.10804V10.892L9.27858 9.16583L11.5193 7.5L9.27858 5.83417ZM9.27858 5.83417L6.9619 4.10804V10.892L9.27858 9.16583L11.5193 7.5L9.27858 5.83417ZM7.72146 1.52261V0C6.19473 0.150754 4.80473 0.753769 3.68057 1.66583L4.75915 2.74372C5.60227 2.09548 6.6125 1.65829 7.72146 1.52261ZM3.68816 3.80653L2.60198 2.73618C1.68291 3.85176 1.07525 5.23116 0.92334 6.74623H2.45767C2.59439 5.64573 3.03494 4.64322 3.68816 3.80653ZM2.45767 8.25377H0.92334C1.07525 9.76884 1.68291 11.1482 2.60198 12.2638L3.68816 11.1859C3.03494 10.3568 2.59439 9.35427 2.45767 8.25377ZM3.68057 13.3342C4.80473 14.2462 6.20233 14.8492 7.72146 15V13.4774C6.6125 13.3417 5.60227 12.9045 4.75915 12.2563L3.68057 13.3342ZM16.0767 7.5C16.0767 11.3894 13.0992 14.6005 9.27858 15V13.4774C12.2561 13.0854 14.5576 10.5528 14.5576 7.5C14.5576 4.44724 12.2561 1.91457 9.27858 1.52261V0C13.0992 0.399497 16.0767 3.61055 16.0767 7.5Z" fill="white"/>
</svg>
