
<svg width="22" height="27" viewBox="0 0 22 27" fill="none" xmlns="http://www.w3.org/2000/svg">
<g id="Layer 21">
<path id="Vector" d="M11.0265 26.5518C10.6645 26.5486 10.3072 26.4699 9.97737 26.3206C9.64755 26.1714 9.35253 25.9549 9.1112 25.6851C5.94787 22.2184 0.626535 15.6231 0.626535 11.2638C0.58716 8.46471 1.66028 5.76446 3.61024 3.75601C5.56019 1.74756 8.22755 0.595113 11.0265 0.551758C13.8255 0.595113 16.4929 1.74756 18.4428 3.75601C20.3928 5.76446 21.4659 8.46471 21.4265 11.2638C21.4265 15.5971 16.1052 22.1751 12.9419 25.6938C12.6998 25.962 12.4044 26.1769 12.0746 26.3246C11.7448 26.4723 11.3879 26.5497 11.0265 26.5518ZM11.0265 2.28509C8.68799 2.33066 6.46282 3.30118 4.8384 4.98407C3.21398 6.66697 2.32273 8.92506 2.35987 11.2638C2.35987 13.9851 5.3672 18.9424 10.4025 24.5324C10.4834 24.6163 10.5803 24.683 10.6875 24.7286C10.7947 24.7742 10.91 24.7976 11.0265 24.7976C11.143 24.7976 11.2583 24.7742 11.3655 24.7286C11.4728 24.683 11.5697 24.6163 11.6505 24.5324C16.6859 18.9424 19.6932 13.9851 19.6932 11.2638C19.7303 8.92506 18.8391 6.66697 17.2147 4.98407C15.5903 3.30118 13.3651 2.33066 11.0265 2.28509Z" fill="#3D3D3D"/>
<path id="Vector_2" d="M11.0262 16.1515C9.99771 16.1515 8.99234 15.8465 8.13721 15.2751C7.28207 14.7037 6.61558 13.8916 6.222 12.9414C5.82842 11.9912 5.72545 10.9457 5.92609 9.937C6.12673 8.9283 6.62199 8.00175 7.34922 7.27451C8.07645 6.54728 9.003 6.05203 10.0117 5.85138C11.0204 5.65074 12.066 5.75372 13.0161 6.14729C13.9663 6.54087 14.7784 7.20737 15.3498 8.0625C15.9212 8.91764 16.2262 9.923 16.2262 10.9515C16.2262 12.3306 15.6783 13.6532 14.7031 14.6284C13.7279 15.6036 12.4053 16.1515 11.0262 16.1515ZM11.0262 7.4848C10.3405 7.4848 9.67029 7.68812 9.1002 8.06904C8.53011 8.44996 8.08578 8.99138 7.82339 9.62483C7.56101 10.2583 7.49236 10.9553 7.62612 11.6278C7.75988 12.3002 8.09005 12.9179 8.57487 13.4028C9.05969 13.8876 9.67739 14.2178 10.3499 14.3515C11.0223 14.4853 11.7194 14.4166 12.3528 14.1543C12.9863 13.8919 13.5277 13.4475 13.9086 12.8774C14.2895 12.3074 14.4928 11.6371 14.4928 10.9515C14.4928 10.0321 14.1276 9.15029 13.4775 8.50016C12.8274 7.85004 11.9456 7.4848 11.0262 7.4848Z" fill="#3D3D3D"/>
</g>
</svg>
