<svg width="316" height="190" viewBox="0 0 316 190" fill="none" xmlns="http://www.w3.org/2000/svg">
<g clip-path="url(#clip0_3704_2407)">
<path d="M122.689 170.236C120.989 170.835 119.163 170.986 117.388 170.672C115.613 170.358 113.949 169.591 112.555 168.444C109.005 165.455 107.892 160.53 106.987 155.97L104.309 142.481L109.916 146.355C113.948 149.141 118.072 152.017 120.864 156.052C123.656 160.088 124.875 165.597 122.631 169.964" fill="#E6E6E6"/>
<path d="M122.209 186.566C122.777 182.418 123.361 178.217 122.962 174.024C122.609 170.301 121.477 166.664 119.172 163.682C117.949 162.102 116.46 160.749 114.773 159.682C114.333 159.404 113.928 160.103 114.366 160.38C117.285 162.232 119.543 164.965 120.814 168.187C122.217 171.769 122.443 175.674 122.201 179.48C122.055 181.782 121.745 184.068 121.432 186.351C121.408 186.455 121.423 186.564 121.475 186.656C121.527 186.748 121.613 186.817 121.714 186.849C121.817 186.877 121.927 186.863 122.019 186.81C122.112 186.757 122.18 186.67 122.209 186.566Z" fill="#F2F2F2"/>
<path d="M116.743 179.226C116.014 180.338 115.011 181.243 113.832 181.854C112.653 182.464 111.337 182.76 110.012 182.712C106.604 182.55 103.763 180.164 101.206 177.898L93.6426 171.197L98.6485 170.957C102.248 170.784 105.941 170.622 109.37 171.736C112.799 172.85 115.961 175.531 116.588 179.093" fill="#E6E6E6"/>
<path d="M123.813 188.951C121.081 184.101 117.913 178.711 112.251 176.988C110.677 176.51 109.027 176.339 107.388 176.484C106.872 176.529 107.001 177.327 107.516 177.283C110.262 177.054 113.003 177.782 115.277 179.343C117.465 180.838 119.169 182.915 120.611 185.119C121.494 186.468 122.286 187.875 123.077 189.28C123.33 189.729 124.069 189.405 123.813 188.951Z" fill="#F2F2F2"/>
<path d="M197.03 91.7915L137.475 141.32C136.725 141.942 135.761 142.24 134.793 142.149C133.825 142.058 132.932 141.585 132.311 140.835L107.205 110.44C106.586 109.688 106.289 108.721 106.379 107.749C106.47 106.778 106.941 105.882 107.689 105.259L167.244 55.7301C167.993 55.1083 168.958 54.8102 169.926 54.9011C170.894 54.9921 171.786 55.4646 172.408 56.2151L197.513 86.6098C198.133 87.3617 198.43 88.3295 198.339 89.3009C198.248 90.2724 197.777 91.1681 197.03 91.7915Z" fill="#CCCCCC"/>
<path d="M194.643 90.3001L136.457 138.69C136.071 139.01 135.574 139.164 135.076 139.117C134.577 139.07 134.117 138.827 133.797 138.44L109.826 109.419C109.507 109.032 109.354 108.533 109.401 108.033C109.448 107.532 109.69 107.071 110.075 106.75L168.261 58.36C168.647 58.0397 169.144 57.8861 169.643 57.9329C170.142 57.9798 170.601 58.2232 170.922 58.6099L194.892 87.6308C195.211 88.0181 195.364 88.5167 195.318 89.0171C195.271 89.5176 195.028 89.979 194.643 90.3001Z" fill="white"/>
<path d="M197.326 100.43L185.358 99.3056L193.924 92.5412L198.538 98.1275C198.718 98.3407 198.829 98.6035 198.858 98.8814C198.887 99.1592 198.831 99.4393 198.698 99.6849C198.611 99.8517 198.492 99.9996 198.348 100.12C198.207 100.237 198.043 100.325 197.868 100.378C197.692 100.431 197.508 100.449 197.326 100.43Z" fill="#CCCCCC"/>
<path d="M173.293 78.9204L143.858 103.4C143.678 103.55 143.471 103.662 143.248 103.731C143.025 103.8 142.79 103.825 142.558 103.803C142.325 103.781 142.099 103.713 141.893 103.604C141.686 103.494 141.503 103.345 141.354 103.165C141.205 102.984 141.093 102.776 141.024 102.552C140.956 102.329 140.931 102.093 140.953 101.86C140.975 101.627 141.042 101.4 141.151 101.193C141.26 100.986 141.409 100.802 141.589 100.653L171.024 76.1729C171.204 76.0234 171.411 75.9108 171.634 75.8417C171.857 75.7726 172.092 75.7483 172.324 75.7702C172.557 75.792 172.783 75.8596 172.989 75.969C173.196 76.0785 173.379 76.2277 173.528 76.4081C173.677 76.5885 173.789 76.7966 173.858 77.0205C173.927 77.2444 173.951 77.4797 173.929 77.713C173.907 77.9463 173.84 78.173 173.731 78.3801C173.622 78.5873 173.473 78.7709 173.293 78.9204Z" fill="#CCCCCC"/>
<path d="M158.887 81.052L139.035 97.5615C138.672 97.8635 138.204 98.0083 137.735 97.9642C137.265 97.9201 136.832 97.6907 136.531 97.3263C136.23 96.962 136.086 96.4926 136.13 96.0214C136.174 95.5503 136.402 95.1159 136.766 94.814L156.617 78.3045C156.98 78.0025 157.448 77.8576 157.918 77.9017C158.387 77.9458 158.82 78.1753 159.121 78.5396C159.422 78.904 159.566 79.3734 159.522 79.8445C159.478 80.3157 159.25 80.75 158.887 81.052Z" fill="#CCCCCC"/>
<path d="M128.127 114.816C131.196 114.816 133.684 112.32 133.684 109.24C133.684 106.161 131.196 103.665 128.127 103.665C125.058 103.665 122.57 106.161 122.57 109.24C122.57 112.32 125.058 114.816 128.127 114.816Z" fill="#FD7A33"/>
<path d="M172.329 98.0637C173.311 98.0637 174.107 97.2649 174.107 96.2795C174.107 95.294 173.311 94.4952 172.329 94.4952C171.347 94.4952 170.551 95.294 170.551 96.2795C170.551 97.2649 171.347 98.0637 172.329 98.0637Z" fill="#E6E6E6"/>
<path d="M177.121 94.0787C178.103 94.0787 178.899 93.2798 178.899 92.2944C178.899 91.309 178.103 90.5101 177.121 90.5101C176.139 90.5101 175.343 91.309 175.343 92.2944C175.343 93.2798 176.139 94.0787 177.121 94.0787Z" fill="#E6E6E6"/>
<path d="M181.913 90.0936C182.895 90.0936 183.691 89.2948 183.691 88.3094C183.691 87.3239 182.895 86.5251 181.913 86.5251C180.931 86.5251 180.135 87.3239 180.135 88.3094C180.135 89.2948 180.931 90.0936 181.913 90.0936Z" fill="#E6E6E6"/>
<path d="M153.571 185.844L157.653 185.844L159.595 170.044L153.57 170.044L153.571 185.844Z" fill="#FFB8B8"/>
<path d="M152.529 184.507L160.569 184.506H160.569C161.242 184.506 161.908 184.639 162.53 184.898C163.151 185.156 163.716 185.535 164.192 186.012C164.668 186.489 165.045 187.056 165.303 187.68C165.56 188.303 165.693 188.972 165.693 189.647V189.814L152.53 189.815L152.529 184.507Z" fill="#2F2E41"/>
<path d="M138.92 185.844L143.002 185.844L144.944 170.044L138.919 170.044L138.92 185.844Z" fill="#FFB8B8"/>
<path d="M137.878 184.507L145.917 184.506H145.918C146.591 184.506 147.257 184.639 147.878 184.898C148.5 185.156 149.065 185.535 149.541 186.012C150.016 186.489 150.394 187.056 150.651 187.68C150.909 188.303 151.041 188.972 151.041 189.647V189.814L137.878 189.815L137.878 184.507Z" fill="#2F2E41"/>
<path d="M143.016 181.01H143.015L139.543 181.009C139.155 181.01 138.782 180.859 138.502 180.589C138.223 180.318 138.059 179.949 138.047 179.559L137.937 176.512C137.06 152.141 136.152 126.94 141.773 115.613L141.817 115.524L160.424 114.848L164.159 149.233C164.319 150.7 164.26 152.182 163.986 153.631L159.048 179.743C158.981 180.097 158.79 180.415 158.509 180.639C158.228 180.863 157.876 180.979 157.517 180.965L153.618 180.838C153.413 180.83 153.213 180.78 153.029 180.691C152.845 180.603 152.68 180.477 152.546 180.322C152.412 180.168 152.311 179.987 152.249 179.792C152.187 179.596 152.165 179.39 152.185 179.186L155.248 155.036C155.353 153.994 155.258 152.941 154.97 151.934L151.161 138.571C151.129 138.461 151.061 138.364 150.967 138.298C150.873 138.232 150.76 138.201 150.646 138.209C150.531 138.217 150.423 138.264 150.34 138.343C150.256 138.421 150.202 138.526 150.186 138.64L144.5 179.713C144.449 180.072 144.271 180.4 143.998 180.638C143.726 180.876 143.377 181.008 143.016 181.01Z" fill="#2F2E41"/>
<path d="M145.241 80.4708C149.758 80.4708 153.419 76.7966 153.419 72.2644C153.419 67.7321 149.758 64.058 145.241 64.058C140.724 64.058 137.062 67.7321 137.062 72.2644C137.062 76.7966 140.724 80.4708 145.241 80.4708Z" fill="#FFB8B8"/>
<path d="M159.552 117.386H142.629C142.414 117.386 142.201 117.34 142.006 117.25C141.81 117.16 141.636 117.029 141.495 116.866C141.355 116.703 141.251 116.511 141.19 116.304C141.13 116.097 141.115 115.879 141.146 115.665L141.982 109.92L137.073 96.3697C136.566 94.9709 136.378 93.476 136.522 91.9946C136.666 90.5132 137.138 89.083 137.905 87.8088C138.671 86.5346 139.713 85.4488 140.952 84.631C142.191 83.8132 143.598 83.2842 145.067 83.0828C147.161 82.7897 149.294 83.1771 151.152 84.1881C153.011 85.1991 154.498 86.7807 155.397 88.7012L156.475 91.0035L161.025 115.609C161.066 115.826 161.058 116.049 161.002 116.262C160.947 116.476 160.845 116.674 160.704 116.844C160.564 117.014 160.387 117.15 160.188 117.244C159.989 117.338 159.772 117.386 159.552 117.386Z" fill="#FD7A33"/>
<path d="M123.827 131.799C124.337 131.68 124.814 131.451 125.225 131.127C125.637 130.803 125.973 130.393 126.209 129.925C126.445 129.457 126.577 128.942 126.593 128.418C126.61 127.893 126.512 127.372 126.306 126.889L139.493 96.9945L131.95 95.088L121.359 125.073C120.575 125.474 119.964 126.15 119.643 126.972C119.321 127.795 119.312 128.707 119.616 129.536C119.92 130.365 120.517 131.053 121.293 131.47C122.069 131.887 122.971 132.004 123.827 131.799Z" fill="#FFB8B8"/>
<path d="M137.708 102.341L130.371 98.895C130.162 98.7969 129.977 98.6549 129.828 98.4785C129.679 98.3022 129.57 98.0956 129.507 97.873C129.445 97.6503 129.431 97.4168 129.467 97.1883C129.502 96.9598 129.587 96.7417 129.714 96.5489L134.173 89.792C134.679 88.7239 135.587 87.9007 136.697 87.5029C137.807 87.105 139.029 87.165 140.095 87.6696C141.161 88.1742 141.985 89.0823 142.385 90.1949C142.785 91.3076 142.729 92.534 142.23 93.6055L139.924 101.345C139.858 101.566 139.745 101.771 139.593 101.945C139.441 102.119 139.254 102.258 139.044 102.352C138.833 102.447 138.605 102.495 138.375 102.493C138.144 102.491 137.917 102.439 137.708 102.341Z" fill="#FD7A33"/>
<path d="M178.836 54.871C178.995 55.3708 179.043 55.8995 178.977 56.42C178.91 56.9405 178.731 57.4401 178.451 57.8835C178.172 58.3269 177.799 58.7034 177.358 58.9864C176.918 59.2695 176.421 59.4522 175.903 59.5217L157.066 86.1963L151.571 80.6711L171.815 56.1883C171.756 55.3068 172.022 54.4343 172.561 53.7361C173.101 53.038 173.877 52.5627 174.742 52.4003C175.608 52.2379 176.502 52.3998 177.257 52.8551C178.011 53.3105 178.573 54.0277 178.836 54.871Z" fill="#FFB8B8"/>
<path d="M161.423 83.0653C161.45 83.295 161.427 83.5278 161.356 83.7479C161.285 83.9679 161.168 84.17 161.012 84.3404L155.568 90.2908C154.907 91.2707 153.885 91.9475 152.728 92.1728C151.57 92.3982 150.37 92.1536 149.392 91.4929C148.414 90.8321 147.736 89.8091 147.509 88.648C147.281 87.487 147.521 86.2827 148.177 85.2992L151.678 77.9961C151.778 77.7877 151.921 77.6034 152.098 77.4556C152.276 77.3079 152.483 77.2002 152.705 77.14C152.928 77.0797 153.161 77.0683 153.388 77.1065C153.615 77.1447 153.832 77.2316 154.022 77.3613L160.729 81.9198C160.92 82.0495 161.081 82.2189 161.201 82.4166C161.321 82.6143 161.396 82.8356 161.423 83.0653Z" fill="#FD7A33"/>
<path d="M155.987 68.8293C155.982 68.0866 155.879 67.3479 155.681 66.6322C154.364 61.7465 149.499 58.8141 144.618 59.55C143.669 59.2769 142.686 59.1388 141.698 59.1398C139.186 59.1398 136.756 60.0412 134.848 61.6813C132.94 63.3215 131.679 65.5921 131.294 68.0832L127.351 93.5544H148.661L152.102 71.3267C152.23 70.5007 152.26 69.6624 152.192 68.8293H155.987Z" fill="#2F2E41"/>
<path d="M182.474 190H112.215C112.127 190 112.042 189.965 111.979 189.902C111.917 189.84 111.882 189.755 111.882 189.666C111.882 189.577 111.917 189.492 111.979 189.43C112.042 189.367 112.127 189.332 112.215 189.332H182.474C182.562 189.332 182.647 189.367 182.709 189.43C182.772 189.492 182.807 189.577 182.807 189.666C182.807 189.755 182.772 189.84 182.709 189.902C182.647 189.965 182.562 190 182.474 190Z" fill="#CCCCCC"/>
<path d="M253.256 25.9505C253.743 25.9035 254.235 25.9642 254.696 26.1284C255.158 26.2926 255.578 26.5564 255.926 26.901C256.275 27.2457 256.544 27.6629 256.715 28.1232C256.886 28.5836 256.954 29.0759 256.914 29.5655L267.805 34.3752L262.61 37.7401L253.065 32.6568C252.249 32.5359 251.507 32.119 250.977 31.4853C250.448 30.8515 250.168 30.0449 250.192 29.2183C250.215 28.3916 250.54 27.6024 251.105 27.0001C251.67 26.3979 252.435 26.0244 253.256 25.9505Z" fill="#A0616A"/>
<path d="M297.187 19.9507C301.704 19.9507 305.366 16.2766 305.366 11.7443C305.366 7.21204 301.704 3.5379 297.187 3.5379C292.67 3.5379 289.009 7.21204 289.009 11.7443C289.009 16.2766 292.67 19.9507 297.187 19.9507Z" fill="#A0616A"/>
<path d="M282.386 128.759L278.303 128.759L276.361 112.959L282.386 112.959L282.386 128.759Z" fill="#A0616A"/>
<path d="M283.427 132.73L270.264 132.729V132.562C270.264 131.887 270.396 131.218 270.654 130.595C270.911 129.971 271.289 129.404 271.764 128.927C272.24 128.45 272.805 128.071 273.426 127.812C274.048 127.554 274.714 127.421 275.387 127.421L283.427 127.422L283.427 132.73Z" fill="#2F2E41"/>
<path d="M299.367 128.759L295.285 128.759L293.343 112.959L299.368 112.959L299.367 128.759Z" fill="#A0616A"/>
<path d="M300.409 132.73L287.246 132.729V132.562C287.246 131.887 287.379 131.218 287.636 130.595C287.894 129.971 288.271 129.404 288.747 128.927C289.222 128.45 289.787 128.071 290.409 127.812C291.03 127.554 291.697 127.421 292.37 127.421L300.409 127.422L300.409 132.73Z" fill="#2F2E41"/>
<path d="M299.174 125.394C299.113 125.394 299.052 125.39 298.991 125.382L293.016 124.644C292.666 124.601 292.342 124.436 292.102 124.177C291.861 123.918 291.72 123.582 291.702 123.229L289.961 83.8815C289.955 83.7699 289.912 83.6634 289.839 83.5791C289.766 83.4948 289.667 83.4374 289.557 83.4162C289.448 83.3949 289.335 83.4109 289.235 83.4617C289.136 83.5125 289.057 83.5952 289.009 83.6965L284.536 98.6599L283.615 122.696C283.607 122.903 283.556 123.106 283.466 123.293C283.376 123.48 283.249 123.646 283.092 123.78C282.935 123.915 282.751 124.016 282.554 124.076C282.356 124.136 282.148 124.155 281.942 124.131L276.768 123.519C276.398 123.477 276.057 123.297 275.812 123.016C275.567 122.734 275.436 122.371 275.445 121.997L275.884 99.3722L279.39 63.8576L279.547 63.8635L300.865 64.688L300.673 123.895C300.671 124.293 300.513 124.674 300.232 124.955C299.951 125.236 299.571 125.394 299.174 125.394Z" fill="#2F2E41"/>
<path d="M300.057 67.9334C300.043 67.9334 300.03 67.9334 300.017 67.933L278.547 67.3685C278.337 67.363 278.13 67.3131 277.94 67.2219C277.75 67.1308 277.581 67.0005 277.445 66.8396C277.308 66.6787 277.207 66.4907 277.148 66.288C277.089 66.0853 277.073 65.8723 277.102 65.663L281.227 35.1939C281.485 33.1365 282.172 31.1569 283.244 29.3841C284.316 27.6113 285.748 26.0852 287.447 24.9056C288.942 23.873 290.64 23.1733 292.427 22.8537C294.213 22.534 296.047 22.6017 297.806 23.0522C305.3 24.9578 309.796 33.0325 307.828 41.0521L301.512 66.7894C301.43 67.1151 301.243 67.4044 300.979 67.6115C300.716 67.8186 300.391 67.9319 300.057 67.9334Z" fill="#3F3D56"/>
<path d="M271.89 43.7382C270.475 43.7399 269.091 43.3271 267.906 42.5504L255.386 34.3077C255.202 34.187 255.048 34.0275 254.932 33.8404C254.817 33.6532 254.744 33.443 254.719 33.2246C254.694 33.0061 254.716 32.7847 254.786 32.576C254.855 32.3673 254.969 32.1764 255.12 32.0168L257.006 30.0185C257.211 29.7995 257.478 29.6477 257.771 29.5829C258.064 29.5181 258.369 29.5434 258.648 29.6554L272.634 35.2438L285.59 25.9598C286.195 25.5257 286.884 25.2225 287.613 25.0694C288.342 24.9164 289.094 24.9167 289.823 25.0704C290.551 25.2241 291.24 25.5279 291.845 25.9625C292.451 26.3971 292.96 26.9531 293.34 27.5952C293.72 28.2374 293.963 28.9518 294.054 29.6931C294.145 30.4345 294.082 31.1868 293.868 31.9023C293.654 32.6178 293.295 33.281 292.813 33.85C292.33 34.4189 291.735 34.8812 291.066 35.2076L275.053 43.0118C274.067 43.491 272.986 43.7393 271.89 43.7382Z" fill="#3F3D56"/>
<path d="M300.021 19.5922C301.417 19.9228 303.1 20.1765 304.097 19.1429C304.274 18.9478 304.431 18.7363 304.568 18.5114L305.872 16.5142C306.871 14.9843 307.887 13.4144 308.31 11.6354C308.553 10.6131 308.591 9.55261 308.422 8.51547C308.252 7.47834 307.88 6.48524 307.325 5.59387C306.77 4.70251 306.045 3.93064 305.19 3.3231C304.335 2.71556 303.369 2.28446 302.347 2.05485C300.4 1.61755 298.496 0.865118 296.506 1.00237C294.516 1.13962 292.182 1.09456 290.512 0C290.616 0.487973 291.179 2.64405 291.179 2.64405C291.179 2.64405 288.668 4.95574 288.164 5.53215C288.823 5.2389 289.541 5.10122 290.261 5.12967C290.982 5.15812 291.686 5.35196 292.321 5.69628C292.955 6.04061 293.502 6.52626 293.92 7.11591C294.338 7.70556 294.615 8.38351 294.731 9.09766C294.874 9.97501 294.79 10.948 295.31 11.6681C295.804 12.353 296.69 12.593 297.435 12.9884C298.508 13.6022 299.328 14.5807 299.746 15.7474C300.164 16.9142 300.153 18.1925 299.715 19.3517L300.021 19.5922Z" fill="#2F2E41"/>
<path d="M290.201 70.8725H222.41C221.557 70.8715 220.74 70.5314 220.138 69.9267C219.535 69.3221 219.196 68.5023 219.195 67.6472V33.0488C219.196 32.1937 219.535 31.3739 220.138 30.7692C220.74 30.1646 221.557 29.8245 222.41 29.8235H290.201C291.053 29.8245 291.87 30.1646 292.473 30.7692C293.076 31.3739 293.415 32.1937 293.415 33.0488V67.6472C293.415 68.5023 293.076 69.3221 292.473 69.9267C291.87 70.5314 291.053 70.8715 290.201 70.8725Z" fill="#CCCCCC"/>
<path d="M289.422 68.5268H223.189C222.75 68.5263 222.329 68.3511 222.019 68.0396C221.708 67.7281 221.534 67.3058 221.533 66.8653V33.8307C221.534 33.3902 221.708 32.9679 222.019 32.6564C222.329 32.3449 222.75 32.1697 223.189 32.1692H289.422C289.861 32.1697 290.282 32.3449 290.593 32.6564C290.903 32.9679 291.078 33.3902 291.078 33.8307V66.8653C291.078 67.3058 290.903 67.7281 290.593 68.0396C290.282 68.3511 289.861 68.5263 289.422 68.5268Z" fill="white"/>
<path d="M285.587 76.8673L278.138 69.3929L287.688 69.6351V75.994C287.69 76.2389 287.619 76.4788 287.483 76.6823C287.348 76.8859 287.154 77.0437 286.928 77.135C286.776 77.1987 286.613 77.2317 286.449 77.2322C286.288 77.2316 286.129 77.1991 285.981 77.1365C285.833 77.0738 285.699 76.9823 285.587 76.8673Z" fill="#CCCCCC"/>
<path d="M281.358 48.8666H247.851C247.438 48.8666 247.042 48.7018 246.749 48.4086C246.457 48.1153 246.293 47.7175 246.293 47.3028C246.293 46.8881 246.457 46.4903 246.749 46.1971C247.042 45.9038 247.438 45.739 247.851 45.739H281.358C281.771 45.739 282.167 45.9038 282.46 46.1971C282.752 46.4903 282.916 46.8881 282.916 47.3028C282.916 47.7175 282.752 48.1153 282.46 48.4086C282.167 48.7018 281.771 48.8666 281.358 48.8666Z" fill="#CCCCCC"/>
<path d="M270.449 42.2206H247.852C247.647 42.2209 247.444 42.1806 247.255 42.1022C247.065 42.0237 246.893 41.9086 246.748 41.7634C246.603 41.6181 246.488 41.4456 246.41 41.2557C246.331 41.0659 246.291 40.8623 246.291 40.6568C246.291 40.4512 246.331 40.2477 246.41 40.0578C246.488 39.868 246.603 39.6955 246.748 39.5502C246.893 39.405 247.065 39.2899 247.255 39.2114C247.444 39.1329 247.647 39.0927 247.852 39.093H270.449C270.862 39.093 271.259 39.2578 271.551 39.551C271.843 39.8443 272.007 40.242 272.007 40.6568C272.007 41.0715 271.843 41.4693 271.551 41.7625C271.259 42.0558 270.862 42.2206 270.449 42.2206Z" fill="#CCCCCC"/>
<path d="M233.981 48.8666C236.671 48.8666 238.852 46.6787 238.852 43.9798C238.852 41.2809 236.671 39.093 233.981 39.093C231.292 39.093 229.111 41.2809 229.111 43.9798C229.111 46.6787 231.292 48.8666 233.981 48.8666Z" fill="#FD7A33"/>
<path d="M271.032 61.6029C271.893 61.6029 272.59 60.9028 272.59 60.0392C272.59 59.1755 271.893 58.4754 271.032 58.4754C270.171 58.4754 269.474 59.1755 269.474 60.0392C269.474 60.9028 270.171 61.6029 271.032 61.6029Z" fill="#E6E6E6"/>
<path d="M276.487 61.6029C277.348 61.6029 278.046 60.9028 278.046 60.0392C278.046 59.1755 277.348 58.4754 276.487 58.4754C275.626 58.4754 274.929 59.1755 274.929 60.0392C274.929 60.9028 275.626 61.6029 276.487 61.6029Z" fill="#E6E6E6"/>
<path d="M281.941 61.6029C282.802 61.6029 283.5 60.9028 283.5 60.0392C283.5 59.1755 282.802 58.4754 281.941 58.4754C281.081 58.4754 280.383 59.1755 280.383 60.0392C280.383 60.9028 281.081 61.6029 281.941 61.6029Z" fill="#E6E6E6"/>
<path d="M289.152 66.7579C289.206 66.2697 289.365 65.7993 289.62 65.3798C289.875 64.9602 290.218 64.6018 290.625 64.3298C291.033 64.0578 291.495 63.8787 291.979 63.8052C292.463 63.7318 292.957 63.7657 293.427 63.9046L300.347 54.1918L302.567 59.983L295.655 68.3185C295.37 69.0945 294.811 69.7388 294.085 70.1291C293.358 70.5195 292.514 70.6288 291.712 70.4364C290.911 70.2441 290.207 69.7634 289.736 69.0854C289.264 68.4074 289.056 67.5793 289.152 66.7579Z" fill="#A0616A"/>
<path d="M297.079 66.2338C296.97 66.243 296.861 66.2402 296.752 66.2256C296.535 66.1964 296.327 66.1197 296.142 66.0007C295.958 65.8818 295.802 65.7236 295.685 65.5373L294.223 63.209C294.062 62.9548 293.981 62.6579 293.991 62.357C294.001 62.0561 294.101 61.7652 294.279 61.5223L303.137 49.3089L297.379 34.4151C296.865 33.1047 296.884 31.6439 297.433 30.3477C297.982 29.0515 299.017 28.0236 300.314 27.4856C301.047 27.1771 301.839 27.0355 302.633 27.0709C303.427 27.1062 304.203 27.3177 304.906 27.6901C305.609 28.0625 306.221 28.5866 306.697 29.2246C307.174 29.8626 307.504 30.5987 307.664 31.38L311.236 48.8792C311.484 50.1133 311.411 51.3908 311.023 52.5882C310.635 53.7855 309.946 54.862 309.021 55.7135L297.963 65.8459C297.719 66.0698 297.408 66.2062 297.079 66.2338Z" fill="#3F3D56"/>
<path d="M315.667 133.533H245.408C245.32 133.533 245.235 133.498 245.173 133.435C245.11 133.373 245.075 133.288 245.075 133.199C245.075 133.11 245.11 133.026 245.173 132.963C245.235 132.9 245.32 132.865 245.408 132.865H315.667C315.756 132.865 315.84 132.9 315.903 132.963C315.965 133.026 316 133.11 316 133.199C316 133.288 315.965 133.373 315.903 133.435C315.84 133.498 315.756 133.533 315.667 133.533Z" fill="#CCCCCC"/>
<path d="M85.4493 50.3778H17.6576C16.8055 50.3769 15.9884 50.0368 15.3859 49.4321C14.7833 48.8275 14.4443 48.0076 14.4434 47.1525V12.5542C14.4443 11.6991 14.7833 10.8793 15.3859 10.2746C15.9884 9.66996 16.8055 9.32985 17.6576 9.32889H85.4493C86.3015 9.32985 87.1185 9.66997 87.721 10.2746C88.3236 10.8793 88.6626 11.6991 88.6635 12.5542V47.1526C88.6626 48.0077 88.3236 48.8275 87.721 49.4321C87.1185 50.0368 86.3015 50.3769 85.4493 50.3778Z" fill="#CCCCCC"/>
<path d="M84.6703 48.0322H18.4371C17.9981 48.0317 17.5772 47.8565 17.2668 47.545C16.9563 47.2335 16.7817 46.8112 16.7812 46.3707V13.3361C16.7817 12.8956 16.9563 12.4732 17.2668 12.1617C17.5772 11.8503 17.9981 11.6751 18.4371 11.6746H84.6703C85.1093 11.6751 85.5302 11.8503 85.8406 12.1617C86.151 12.4732 86.3256 12.8956 86.3261 13.3361V46.3707C86.3256 46.8112 86.151 47.2335 85.8406 47.545C85.5302 47.8565 85.1093 48.0317 84.6703 48.0322Z" fill="white"/>
<path d="M80.8337 56.3726L73.3848 48.8983L82.9347 49.1405V55.4994C82.9373 55.7442 82.8661 55.9841 82.7305 56.1877C82.595 56.3913 82.4013 56.5491 82.1749 56.6404C82.0233 56.7041 81.8606 56.7371 81.6961 56.7375C81.5355 56.737 81.3765 56.7045 81.2285 56.6418C81.0804 56.5792 80.9463 56.4877 80.8337 56.3726Z" fill="#CCCCCC"/>
<path d="M76.6057 28.372H43.0994C42.6861 28.372 42.2897 28.2072 41.9975 27.9139C41.7052 27.6207 41.541 27.2229 41.541 26.8082C41.541 26.3934 41.7052 25.9957 41.9975 25.7024C42.2897 25.4092 42.6861 25.2444 43.0994 25.2444H76.6057C77.019 25.2444 77.4154 25.4092 77.7076 25.7024C77.9999 25.9957 78.1641 26.3934 78.1641 26.8082C78.1641 27.2229 77.9999 27.6207 77.7076 27.9139C77.4154 28.2072 77.019 28.372 76.6057 28.372Z" fill="#CCCCCC"/>
<path d="M65.6967 21.7259H43.0994C42.6861 21.7259 42.2897 21.5612 41.9975 21.2679C41.7052 20.9746 41.541 20.5769 41.541 20.1622C41.541 19.7474 41.7052 19.3497 41.9975 19.0564C42.2897 18.7631 42.6861 18.5984 43.0994 18.5984H65.6967C66.11 18.5984 66.5064 18.7631 66.7986 19.0564C67.0909 19.3497 67.2551 19.7474 67.2551 20.1622C67.2551 20.5769 67.0909 20.9746 66.7986 21.2679C66.5064 21.5612 66.11 21.7259 65.6967 21.7259Z" fill="#CCCCCC"/>
<path d="M29.2295 28.3719C31.9191 28.3719 34.0996 26.1841 34.0996 23.4852C34.0996 20.7863 31.9191 18.5984 29.2295 18.5984C26.5398 18.5984 24.3594 20.7863 24.3594 23.4852C24.3594 26.1841 26.5398 28.3719 29.2295 28.3719Z" fill="#FD7A33"/>
<path d="M66.2801 41.1083C67.1408 41.1083 67.8385 40.4082 67.8385 39.5445C67.8385 38.6809 67.1408 37.9808 66.2801 37.9808C65.4194 37.9808 64.7217 38.6809 64.7217 39.5445C64.7217 40.4082 65.4194 41.1083 66.2801 41.1083Z" fill="#E6E6E6"/>
<path d="M71.7342 41.1083C72.5949 41.1083 73.2926 40.4082 73.2926 39.5445C73.2926 38.6809 72.5949 37.9808 71.7342 37.9808C70.8735 37.9808 70.1758 38.6809 70.1758 39.5445C70.1758 40.4082 70.8735 41.1083 71.7342 41.1083Z" fill="#E6E6E6"/>
<path d="M77.1893 41.1083C78.05 41.1083 78.7477 40.4082 78.7477 39.5445C78.7477 38.6809 78.05 37.9808 77.1893 37.9808C76.3286 37.9808 75.6309 38.6809 75.6309 39.5445C75.6309 40.4082 76.3286 41.1083 77.1893 41.1083Z" fill="#E6E6E6"/>
<path d="M82.638 6.00466C82.1774 6.17103 81.7588 6.43672 81.4116 6.78299C81.0644 7.12927 80.7971 7.54772 80.6285 8.00887C80.46 8.47001 80.3942 8.96264 80.4359 9.45205C80.4776 9.94145 80.6257 10.4157 80.8698 10.8415L73.0713 19.8595L79.2011 20.6744L85.667 11.9858C86.3526 11.5268 86.8466 10.8315 87.0554 10.0315C87.2642 9.23154 87.1733 8.38248 86.8 7.64524C86.4266 6.90799 85.7967 6.33378 85.0296 6.03142C84.2625 5.72905 83.4116 5.71953 82.638 6.00466Z" fill="#FFB8B8"/>
<path d="M30.5673 9.61504C30.7336 10.077 30.797 10.5699 30.7529 11.0591C30.7089 11.5483 30.5585 12.0219 30.3123 12.4464C30.0661 12.871 29.7302 13.2362 29.3281 13.5164C28.926 13.7966 28.4676 13.9849 27.9852 14.0681L26.0446 25.8481L21.5068 21.6333L24.0454 11.093C23.9598 10.2705 24.1779 9.44503 24.6584 8.7731C25.1388 8.10117 25.8482 7.62943 26.6521 7.44725C27.456 7.26507 28.2986 7.38513 29.0202 7.78466C29.7418 8.1842 30.2923 8.83547 30.5673 9.61504Z" fill="#FFB8B8"/>
<path d="M42.7546 128.759L46.8369 128.759L48.7789 112.959L42.7539 112.959L42.7546 128.759Z" fill="#FFB8B8"/>
<path d="M41.7129 127.422L49.7523 127.421H49.7527C50.4255 127.421 51.0917 127.554 51.7133 127.812C52.3349 128.071 52.8997 128.449 53.3755 128.927C53.8513 129.404 54.2286 129.971 54.4861 130.595C54.7436 131.218 54.8761 131.887 54.8761 132.562V132.729L41.7131 132.73L41.7129 127.422Z" fill="#2F2E41"/>
<path d="M21.777 128.759L25.8594 128.759L27.8013 112.959L21.7764 112.959L21.777 128.759Z" fill="#FFB8B8"/>
<path d="M20.7354 127.422L28.7748 127.421H28.7751C29.448 127.421 30.1142 127.554 30.7358 127.812C31.3574 128.071 31.9222 128.449 32.398 128.927C32.8737 129.404 33.2511 129.971 33.5086 130.595C33.766 131.218 33.8986 131.887 33.8986 132.562V132.729L20.7356 132.73L20.7354 127.422Z" fill="#2F2E41"/>
<path d="M41.902 20.8854C46.4188 20.8854 50.0804 17.2113 50.0804 12.679C50.0804 8.14673 46.4188 4.4726 41.902 4.4726C37.3852 4.4726 33.7236 8.14673 33.7236 12.679C33.7236 17.2113 37.3852 20.8854 41.902 20.8854Z" fill="#FFB8B8"/>
<path d="M40.9224 123.51L40.2462 80.2725C40.2445 80.1503 40.1983 80.0329 40.1163 79.9425C40.0344 79.852 39.9223 79.7948 39.8012 79.7814C39.6801 79.7681 39.5583 79.7997 39.4588 79.8702C39.3593 79.9407 39.2889 80.0452 39.2608 80.1642L28.1755 122.456C28.0921 122.795 27.8954 123.094 27.6184 123.304C27.3413 123.515 27.0007 123.623 26.6535 123.612L20.5632 123.351C20.3562 123.342 20.1532 123.29 19.9672 123.198C19.7812 123.106 19.6161 122.977 19.4824 122.818C19.3487 122.659 19.2493 122.474 19.1905 122.275C19.1317 122.075 19.1148 121.866 19.1407 121.66L28.547 67.3119L28.5663 67.1585L54.7661 68.4023L54.9369 68.4102L49.3187 123.601C49.2892 123.978 49.1192 124.331 48.8424 124.589C48.5656 124.847 48.2022 124.991 47.8245 124.992H42.4207C42.0274 124.991 41.6504 124.835 41.3703 124.558C41.0903 124.281 40.9295 123.905 40.9224 123.51Z" fill="#2F2E41"/>
<path d="M61.6147 72.0649L23.5955 68.9342C23.3661 68.9153 23.144 68.8436 22.9466 68.7247C22.7492 68.6057 22.5818 68.4427 22.4574 68.2484C22.3329 68.054 22.2548 67.8334 22.2291 67.6038C22.2034 67.3742 22.2307 67.1418 22.3091 66.9245L28.2963 50.3146L28.6408 30.6004C28.6533 29.8848 28.8073 29.1787 29.0939 28.5233C29.3804 27.8678 29.7938 27.2759 30.3101 26.782C30.8263 26.2881 31.4352 25.902 32.1014 25.646C32.7675 25.3901 33.4777 25.2694 34.1907 25.291L36.719 22.9913H45.9824L46.789 24.0524L53.2346 25.0463C54.3827 25.2281 55.4421 25.7756 56.2563 26.6078C57.0706 27.4401 57.5965 28.513 57.7565 29.6682L63.2222 70.3659C63.2507 70.5783 63.2336 70.7942 63.1721 70.9994C63.1107 71.2045 63.0062 71.3941 62.8658 71.5555C62.7254 71.7169 62.5522 71.8462 62.3579 71.935C62.1636 72.0238 61.9527 72.0699 61.7392 72.0702C61.6979 72.0702 61.6563 72.0685 61.6147 72.0649Z" fill="#2F2E41"/>
<path d="M54.208 26.9574L70.4188 22.1915L77.7553 12.4993C77.9572 12.2324 78.2423 12.0408 78.5653 11.9551C78.8882 11.8694 79.2304 11.8944 79.5375 12.0262L84.1181 13.9908C84.3134 14.0746 84.4887 14.199 84.6324 14.3559C84.7761 14.5128 84.885 14.6986 84.9517 14.9009C85.0184 15.1032 85.0415 15.3175 85.0195 15.5294C84.9974 15.7414 84.9307 15.9462 84.8237 16.1303L79.341 25.5713C78.4482 27.1156 77.0893 28.3352 75.4605 29.0538L56.3935 37.5113L54.208 26.9574Z" fill="#2F2E41"/>
<path d="M23.1063 34.0865C22.1375 33.3862 21.365 32.4472 20.8631 31.3601C20.3613 30.273 20.1472 29.0744 20.2414 27.8801L20.9528 18.4219C20.9821 18.0441 21.1522 17.6913 21.4291 17.4336C21.706 17.176 22.0694 17.0324 22.4471 17.0316H22.4603L27.8319 17.0795C28.052 17.0815 28.2689 17.1322 28.4673 17.2278C28.6656 17.3234 28.8406 17.4617 28.9796 17.6328C29.1187 17.8039 29.2186 18.0037 29.272 18.2179C29.3255 18.4321 29.3313 18.6555 29.2891 18.8722L28.2924 23.9747L35.4049 26.9903L29.4156 38.6823L23.1063 34.0865Z" fill="#2F2E41"/>
<path d="M46.6604 2.83874C46.6604 2.83874 38.1078 -1.78225 33.446 3.67151C28.7843 9.12527 35.2221 17.6538 35.2221 17.6538L44.3951 18.8146C44.3951 18.8146 44.7281 12.5577 46.9121 12.6792C49.0961 12.8006 55.879 4.90529 46.6604 2.83874Z" fill="#2F2E41"/>
<path d="M70.5922 133.199H0.332982C0.24467 133.199 0.159974 133.164 0.0975279 133.101C0.0350817 133.039 0 132.954 0 132.865C0 132.776 0.0350817 132.691 0.0975279 132.629C0.159974 132.566 0.24467 132.531 0.332982 132.531H70.5922C70.6805 132.531 70.7652 132.566 70.8277 132.629C70.8901 132.691 70.9252 132.776 70.9252 132.865C70.9252 132.954 70.8901 133.039 70.8277 133.101C70.7652 133.164 70.6805 133.199 70.5922 133.199Z" fill="#CCCCCC"/>
</g>
<defs>
<clipPath id="clip0_3704_2407">
<rect width="316" height="190" fill="white"/>
</clipPath>
</defs>
</svg>
