<svg width="300" height="233" viewBox="0 0 300 233" fill="none" xmlns="http://www.w3.org/2000/svg">
<g clip-path="url(#clip0_4154_3154)">
<path d="M4.61474 214.595C6.5752 221.401 12.2995 226.165 18.2707 230.212C19.1044 230.778 19.9384 231.33 20.7727 231.869C20.7783 231.872 20.7842 231.877 20.7899 231.879C20.83 231.905 20.8702 231.931 20.9076 231.957C21.0798 232.068 21.2521 232.179 21.4228 232.289L21.329 232.331C21.329 232.331 21.2369 232.38 21.3377 232.339C21.3677 232.326 21.3991 232.315 21.429 232.303C24.8979 230.902 28.4284 229.399 31.0868 226.776C33.8445 224.053 35.456 219.781 33.9628 216.203C33.7665 215.734 33.5186 215.289 33.2236 214.875C33.1025 214.702 32.972 214.536 32.8362 214.373C32.0125 213.367 30.9359 212.598 29.7172 212.147C28.4984 211.695 27.1814 211.577 25.9016 211.803C24.6219 212.03 23.4255 212.593 22.4355 213.436C21.4456 214.279 20.6978 215.37 20.269 216.598C19.8303 212.51 23.1983 209.086 26.4395 206.56C29.6821 204.035 33.3667 201.285 33.9936 197.22C34.3436 194.959 33.5578 192.767 32.1262 191.008C32.0819 190.954 32.0376 190.901 31.9919 190.849C30.2493 188.8 27.7983 187.484 25.1285 187.164C20.1563 186.647 15.3266 189.281 11.7145 192.74C5.90074 198.306 2.38608 206.856 4.61474 214.595Z" fill="#F1F1F1"/>
<path d="M13.9605 205.692C13.0062 207.178 12.2736 208.795 11.7857 210.493C11.3731 212.01 11.1894 213.58 11.2409 215.151C11.374 218.385 12.2811 221.539 13.8859 224.349C15.0948 226.48 16.568 228.451 18.2706 230.212C19.1043 230.778 19.9383 231.33 20.7726 231.869C20.7783 231.871 20.7841 231.877 20.7898 231.879C20.8299 231.905 20.8702 231.931 20.9076 231.957C21.0797 232.068 21.252 232.179 21.4227 232.289C21.4227 232.289 21.2369 232.38 21.3376 232.339C21.3676 232.326 21.399 232.315 21.4289 232.302C21.118 229.752 21.4226 227.163 22.3171 224.755C23.2117 222.346 24.6701 220.187 26.5702 218.458C28.4749 216.756 30.7546 215.528 33.2235 214.875C33.1024 214.702 32.9719 214.536 32.8361 214.373C31.8826 214.64 30.9545 214.992 30.0629 215.423C26.8754 216.955 24.2655 219.473 22.6194 222.605C21.1423 225.448 20.5065 228.655 20.7868 231.847C20.6443 231.718 20.5016 231.586 20.3632 231.455C17.7272 228.996 15.386 226.173 13.8015 222.915C12.4268 220.156 11.7512 217.101 11.8341 214.019C11.9634 210.659 13.3013 207.546 15.2385 204.837C17.3615 201.946 19.8696 199.359 22.6931 197.148C25.5385 194.868 28.652 192.944 31.9644 191.42C32.0391 191.385 32.0975 191.323 32.1276 191.246C32.1577 191.17 32.1572 191.084 32.1261 191.008C32.104 190.939 32.0558 190.882 31.9918 190.849C31.959 190.835 31.9233 190.828 31.8875 190.83C31.8518 190.831 31.8168 190.841 31.7852 190.858C31.3763 191.046 30.9702 191.237 30.5673 191.436C27.2118 193.096 24.0753 195.166 21.2299 197.6C18.4814 199.945 15.8939 202.624 13.9605 205.692Z" fill="white"/>
<path d="M92.4588 227.17H97.6683L100.146 207.062L92.458 207.062L92.4588 227.17Z" fill="#FFB7B7"/>
<path d="M91.1299 225.468L101.389 225.468H101.389C103.123 225.468 104.786 226.157 106.012 227.384C107.238 228.611 107.927 230.275 107.927 232.01V232.223L91.1302 232.223L91.1299 225.468Z" fill="#2F2E41"/>
<path d="M64.2537 227.17H69.4633L71.9413 207.062L64.2529 207.062L64.2537 227.17Z" fill="#FFB7B7"/>
<path d="M62.9248 225.468L73.1838 225.468H73.1842C74.9181 225.468 76.581 226.157 77.807 227.384C79.0331 228.611 79.7219 230.275 79.7221 232.01V232.223L62.9251 232.223L62.9248 225.468Z" fill="#2F2E41"/>
<path d="M62.1309 136.037V189.128L63.4739 223.402H74.5542L78.2481 158.886L85.635 185.432L90.3358 222.73L103.767 222.058L94.7009 136.037H62.1309Z" fill="#2F2E41"/>
<path d="M75.0117 88.3219C79.4623 88.3219 83.0702 84.7113 83.0702 80.2574C83.0702 75.8035 79.4623 72.1929 75.0117 72.1929C70.5611 72.1929 66.9531 75.8035 66.9531 80.2574C66.9531 84.7113 70.5611 88.3219 75.0117 88.3219Z" fill="#FFB8B8"/>
<path d="M71.6632 90.423L69.5177 92.6901L67.5029 138.053L91.3431 137.381L85.6349 97.7307L80.5984 92.9006L78.0427 90.423H71.6632Z" fill="#FD7A33"/>
<path d="M67.8391 95.3783L69.6487 92.4391L70.1896 98.7385C70.1896 98.7385 74.5546 112.851 74.2188 125.284C73.8831 137.717 75.8977 166.951 73.2115 167.287C70.5253 167.623 59.1091 168.295 59.1091 165.942C59.1091 163.59 58.4375 101.091 58.4375 101.091L67.8391 95.3783Z" fill="#2F2E41"/>
<path d="M80.0577 92.4391L84.6278 96.0503L94.701 99.7466C94.701 99.7466 94.701 142.757 96.7156 152.838C98.7302 162.918 102.424 163.926 97.7229 164.262C93.0221 164.598 93.3579 162.918 93.3579 162.918C93.3579 162.918 79.5912 119.908 80.2627 109.155C80.9343 98.4025 79.3861 92.4391 80.0577 92.4391Z" fill="#2F2E41"/>
<path d="M67.3883 82.7805C67.3883 82.7805 68.073 81.5772 67.9138 77.5574C67.7546 73.5376 73.8714 75.8112 78.9825 75.4277C84.0936 75.0442 83.0117 82.1389 83.0117 82.1389C83.0117 82.1389 83.3805 81.7171 84.1699 78.293C84.9594 74.869 83.1669 71.4567 83.1669 71.4567C82.639 67.8587 79.7938 69.0119 79.7938 69.0119C81.164 69.5456 80.9008 70.687 80.9008 70.687C79.741 68.6521 76.8959 69.8052 76.8959 69.8052C73.1014 67.4223 69.2556 70.5603 69.2556 70.5603C64.6716 71.6015 67.3599 75.2496 67.3599 75.2496C62.7499 77.581 67.3883 82.7805 67.3883 82.7805Z" fill="#2F2E41"/>
<path d="M59.1206 161.084C59.4621 160.722 59.7204 160.291 59.8772 159.819C60.0339 159.347 60.0854 158.846 60.0279 158.352C59.9705 157.858 59.8055 157.383 59.5445 156.96C59.2836 156.536 58.9332 156.175 58.5178 155.902L59.9694 148.266L55.5471 146.251L53.6485 157.064C53.2363 157.793 53.1056 158.648 53.2811 159.466C53.4566 160.285 53.926 161.011 54.6006 161.506C55.2751 162.002 56.1077 162.232 56.9408 162.155C57.7739 162.077 58.5495 161.696 59.1206 161.084Z" fill="#FFB7B7"/>
<path d="M60.1162 101.091L59.2246 100.612C59.2246 100.612 54.408 102.435 54.7438 103.779C55.0796 105.123 52.0576 152.166 53.065 153.846C54.0723 155.526 62.1308 154.182 62.1308 154.182L60.1162 101.091Z" fill="#2F2E41"/>
<path d="M98.4479 157.917C98.0597 157.606 97.7442 157.214 97.5237 156.768C97.3032 156.323 97.183 155.834 97.1716 155.337C97.1603 154.84 97.2579 154.346 97.4578 153.891C97.6577 153.435 97.9549 153.03 98.3285 152.702L95.835 145.339L99.9362 142.732L103.312 153.178C103.821 153.843 104.068 154.671 104.008 155.506C103.947 156.341 103.582 157.125 102.983 157.709C102.383 158.293 101.591 158.637 100.755 158.675C99.9189 158.713 99.0981 158.443 98.4479 157.917Z" fill="#FFB7B7"/>
<path d="M94.5121 151.498C94.5121 151.498 102.679 151.713 103.444 149.91C104.21 148.106 94.7127 101.934 94.8594 100.557C95.0061 99.1792 89.9838 98.0412 89.9838 98.0412L89.167 98.6384L94.5121 151.498Z" fill="#2F2E41"/>
<path d="M148.235 233H0.388048C0.285132 233 0.18643 232.959 0.113656 232.886C0.0408833 232.813 0 232.715 0 232.612C0 232.509 0.0408833 232.41 0.113656 232.337C0.18643 232.264 0.285132 232.223 0.388048 232.223H148.235C148.337 232.223 148.436 232.264 148.509 232.337C148.582 232.41 148.623 232.509 148.623 232.612C148.623 232.715 148.582 232.813 148.509 232.886C148.436 232.959 148.337 233 148.235 233Z" fill="#CBCBCB"/>
<path d="M300 119.607H163.54V34.5886H300V119.607ZM166.715 116.429H296.825V37.766H166.715V116.429Z" fill="#E5E5E5"/>
<path d="M298.412 36.1773H165.127V118.018H298.412V36.1773Z" fill="white"/>
<path d="M298.412 56.9194V51.8944H279.923V36.1773H274.901V51.8944H241.984V36.1773H236.962V51.8944H186.191V36.1773H181.17V51.8944H165.127V56.9194H181.17V76.4611H165.127V81.4861H181.17V102.424H165.127V107.449H208.229V118.018H213.251V107.449H236.962V118.018H241.984V107.449H298.412V102.424H241.984V81.4861H298.412V76.4611H279.923V56.9194L298.412 56.9194ZM236.962 56.9194V63.0611H186.191V56.9194H236.962ZM186.191 68.0861H236.962V76.4611H186.191V68.0861ZM186.191 102.424V81.4861H208.229V102.424L186.191 102.424ZM236.962 102.424H213.251V81.4861H236.962V102.424ZM274.901 76.4611H241.984V56.9194H274.901V76.4611Z" fill="#E6E6E6"/>
<path d="M258.089 24.0951C258.089 37.4024 234.012 67.0472 234.012 67.0472C234.012 67.0472 209.935 37.4024 209.935 24.0951C209.935 17.7047 212.471 11.576 216.987 7.05728C221.502 2.53858 227.626 0 234.012 0C240.398 0 246.522 2.53858 251.037 7.05728C255.553 11.576 258.089 17.7047 258.089 24.0951Z" fill="#FD7A33"/>
<path d="M204.926 53.9967C204.926 67.3041 180.849 96.9488 180.849 96.9488C180.849 96.9488 156.771 67.3041 156.771 53.9967C156.771 47.6063 159.308 41.4777 163.824 36.959C168.339 32.4403 174.463 29.9017 180.849 29.9017C187.235 29.9017 193.359 32.4403 197.874 36.959C202.39 41.4777 204.926 47.6063 204.926 53.9967Z" fill="#FD7A33"/>
<path d="M298.446 59.4334C298.446 72.7407 274.368 102.385 274.368 102.385C274.368 102.385 250.291 72.7407 250.291 59.4334C250.291 53.043 252.828 46.9143 257.343 42.3956C261.858 37.8769 267.983 35.3383 274.368 35.3383C280.754 35.3383 286.878 37.8769 291.394 42.3956C295.909 46.9143 298.446 53.043 298.446 59.4334Z" fill="#FD7A33"/>
<path d="M245.019 23.0475C245.019 25.226 244.373 27.3556 243.164 29.167C241.954 30.9784 240.235 32.3902 238.224 33.2239C236.213 34.0576 233.999 34.2757 231.864 33.8507C229.729 33.4257 227.768 32.3766 226.229 30.8362C224.689 29.2957 223.641 27.333 223.216 25.1964C222.792 23.0597 223.01 20.845 223.843 18.8322C224.676 16.8195 226.087 15.0992 227.897 13.8889C229.707 12.6786 231.835 12.0326 234.012 12.0326C235.457 12.0319 236.889 12.3164 238.225 12.8697C239.56 13.423 240.774 14.2343 241.796 15.2573C242.818 16.2802 243.629 17.4948 244.182 18.8315C244.735 20.1681 245.019 21.6008 245.019 23.0475Z" fill="white"/>
<path d="M191.855 52.9491C191.855 55.1276 191.21 57.2573 190 59.0687C188.791 60.88 187.072 62.2919 185.061 63.1255C183.05 63.9592 180.836 64.1774 178.701 63.7524C176.566 63.3273 174.605 62.2783 173.066 60.7378C171.526 59.1973 170.478 57.2347 170.053 55.098C169.629 52.9613 169.847 50.7466 170.68 48.7339C171.513 46.7212 172.923 45.0009 174.734 43.7906C176.544 42.5802 178.672 41.9342 180.849 41.9342C182.294 41.9335 183.726 42.218 185.062 42.7713C186.397 43.3246 187.611 44.136 188.633 45.1589C189.655 46.1819 190.466 47.3964 191.019 48.7331C191.572 50.0698 191.856 51.5024 191.855 52.9491Z" fill="white"/>
<path d="M285.375 58.3858C285.375 60.5643 284.729 62.6939 283.52 64.5053C282.311 66.3167 280.592 67.7285 278.58 68.5622C276.569 69.3959 274.356 69.614 272.221 69.189C270.086 68.764 268.124 67.7149 266.585 66.1745C265.046 64.634 263.998 62.6714 263.573 60.5347C263.148 58.398 263.366 56.1833 264.199 54.1706C265.032 52.1579 266.443 50.4376 268.253 49.2272C270.063 48.0169 272.191 47.3709 274.368 47.3709C275.814 47.3702 277.245 47.6547 278.581 48.208C279.917 48.7613 281.13 49.5726 282.153 50.5956C283.175 51.6185 283.986 52.8331 284.538 54.1698C285.091 55.5065 285.376 56.9391 285.375 58.3858Z" fill="white"/>
<path d="M234.012 84.4375C237.596 84.4375 240.502 81.5295 240.502 77.9423C240.502 74.3551 237.596 71.4471 234.012 71.4471C230.427 71.4471 227.521 74.3551 227.521 77.9423C227.521 81.5295 230.427 84.4375 234.012 84.4375Z" fill="#FD7A33"/>
<path d="M180.849 114.339C184.433 114.339 187.339 111.431 187.339 107.844C187.339 104.257 184.433 101.349 180.849 101.349C177.264 101.349 174.358 104.257 174.358 107.844C174.358 111.431 177.264 114.339 180.849 114.339Z" fill="#FD7A33"/>
<path d="M274.368 119.776C277.953 119.776 280.859 116.868 280.859 113.281C280.859 109.693 277.953 106.785 274.368 106.785C270.784 106.785 267.878 109.693 267.878 113.281C267.878 116.868 270.784 119.776 274.368 119.776Z" fill="#FD7A33"/>
</g>
<defs>
<clipPath id="clip0_4154_3154">
<rect width="300" height="233" fill="white"/>
</clipPath>
</defs>
</svg>
