<svg width="342" height="158" viewBox="0 0 342 158" fill="none" xmlns="http://www.w3.org/2000/svg">
<g clip-path="url(#clip0_3741_2586)">
<path d="M72.5287 149.208C64.3401 143.864 58.3862 134.258 59.6047 124.546C66.9781 132.213 76.8217 137.02 87.394 138.119C91.4728 138.527 96.0519 138.557 98.9485 141.461C100.751 143.269 101.517 145.91 101.556 148.464C101.595 151.018 100.983 153.532 100.374 156.012L100.523 156.632C90.756 156.271 80.7174 154.552 72.5287 149.208Z" fill="#F0F0F0"/>
<path d="M59.81 124.544C62.8732 132.043 68.2178 138.384 75.0847 142.667C76.5467 143.616 78.1487 144.328 79.832 144.776C81.4858 145.16 83.2122 145.094 84.8317 144.584C86.3513 144.139 87.8542 143.507 89.4554 143.44C90.2755 143.418 91.0911 143.569 91.8486 143.885C92.6062 144.2 93.2886 144.672 93.8511 145.27C95.2914 146.724 96.1242 148.609 96.8747 150.481C97.708 152.56 98.5405 154.732 100.238 156.271C100.443 156.458 100.142 156.767 99.9368 156.58C96.9843 153.902 96.6593 149.605 94.3386 146.497C93.2556 145.048 91.7298 143.916 89.8645 143.868C88.2333 143.826 86.6829 144.476 85.1482 144.94C83.5756 145.461 81.8996 145.588 80.2666 145.31C78.5659 144.949 76.9391 144.3 75.4558 143.392C72.0839 141.401 69.0455 138.891 66.4521 135.955C63.4736 132.62 61.0867 128.8 59.3947 124.659C59.29 124.403 59.7061 124.29 59.81 124.544Z" fill="white"/>
<path d="M72.7921 141.419C71.9181 142.475 70.6976 143.185 69.3486 143.424C67.9997 143.662 66.61 143.412 65.4279 142.719C65.1892 142.578 65.3969 142.2 65.6359 142.341C66.7355 142.989 68.03 143.221 69.2857 142.997C70.5414 142.772 71.6756 142.106 72.4837 141.117C72.6596 140.903 72.967 141.205 72.7921 141.419Z" fill="white"/>
<path d="M84.0903 144.911C83.8541 142.117 82.575 139.515 80.5079 137.623C80.303 137.436 80.604 137.127 80.8087 137.315C82.956 139.287 84.2817 141.998 84.521 144.906C84.5437 145.183 84.1128 145.187 84.0903 144.911Z" fill="white"/>
<path d="M64.0148 132.44C64.438 132.101 64.7708 131.663 64.9832 131.165C65.1955 130.666 65.2809 130.122 65.2316 129.582C65.2055 129.306 65.6364 129.302 65.6623 129.577C65.7141 130.174 65.619 130.774 65.3856 131.326C65.1522 131.877 64.7874 132.363 64.3233 132.741C64.2825 132.78 64.2283 132.802 64.1717 132.803C64.1152 132.804 64.0604 132.783 64.0187 132.745C63.978 132.704 63.9548 132.65 63.9541 132.593C63.9534 132.536 63.9752 132.481 64.0148 132.44Z" fill="white"/>
<path d="M87.5363 106.774C87.5575 106.947 87.5788 107.119 87.6032 107.293C87.9004 109.609 88.3851 111.897 89.0524 114.134C89.1012 114.308 89.1533 114.483 89.207 114.655C90.872 120.028 93.5185 125.045 97.0122 129.45C98.404 131.202 99.9268 132.845 101.568 134.365C103.834 136.465 106.457 138.561 107.857 141.209C108.006 141.484 108.139 141.768 108.253 142.059L101.266 156.401C101.234 156.426 101.205 156.452 101.173 156.477L100.92 157.062C100.83 156.99 100.738 156.913 100.648 156.84C100.596 156.798 100.545 156.753 100.492 156.712C100.458 156.683 100.423 156.654 100.391 156.63C100.379 156.62 100.368 156.61 100.359 156.602C100.327 156.578 100.299 156.552 100.269 156.53C99.7546 156.1 99.2419 155.666 98.7314 155.228C98.7281 155.226 98.7281 155.226 98.7264 155.221C94.8448 151.871 91.2085 148.166 88.2493 144.027C88.1603 143.902 88.0679 143.776 87.9821 143.645C86.6586 141.772 85.4901 139.793 84.4884 137.729C83.9436 136.598 83.4563 135.439 83.0284 134.258C81.9288 131.203 81.3157 127.995 81.2117 124.75C81.0053 118.281 82.8671 111.818 87.2017 107.129C87.3126 107.01 87.4221 106.893 87.5363 106.774Z" fill="#F0F0F0"/>
<path d="M87.7026 106.895C85.6402 114.729 86.0951 123.015 89.0027 130.575C89.5998 132.214 90.4511 133.748 91.5253 135.122C92.6148 136.425 94.0331 137.413 95.6328 137.983C97.1137 138.543 98.6934 138.945 100.012 139.857C100.681 140.333 101.241 140.946 101.656 141.655C102.071 142.363 102.332 143.152 102.422 143.969C102.698 145.998 102.229 148.005 101.703 149.952C101.119 152.114 100.478 154.35 100.907 156.603C100.959 156.876 100.533 156.941 100.481 156.668C99.734 152.749 102.058 149.122 102.073 145.242C102.08 143.432 101.542 141.608 100.082 140.445C98.8046 139.428 97.176 139.012 95.6716 138.457C94.1029 137.925 92.6883 137.016 91.5513 135.81C90.4108 134.496 89.5019 132.997 88.8635 131.378C87.3683 127.755 86.4511 123.919 86.1457 120.011C85.7725 115.552 86.1636 111.063 87.302 106.737C87.3726 106.469 87.7728 106.629 87.7026 106.895Z" fill="white"/>
<path d="M87.9238 128.196C86.591 128.512 85.1892 128.344 83.9689 127.721C82.7486 127.098 81.7892 126.061 81.262 124.794C81.1562 124.538 81.5494 124.361 81.6553 124.618C82.144 125.798 83.0378 126.764 84.1753 127.342C85.3129 127.92 86.6192 128.072 87.8586 127.77C88.128 127.704 88.1917 128.131 87.9238 128.196Z" fill="white"/>
<path d="M94.8445 137.797C96.3358 135.424 96.8791 132.575 96.3659 129.818C96.3149 129.545 96.7407 129.48 96.7917 129.753C97.3204 132.622 96.749 135.586 95.1917 138.053C95.0431 138.288 94.6967 138.031 94.8445 137.797Z" fill="white"/>
<path d="M86.3135 115.735C86.8547 115.72 87.3837 115.571 87.8531 115.301C88.3225 115.031 88.7176 114.648 89.0028 114.187C89.1484 113.951 89.4946 114.208 89.35 114.443C89.0325 114.95 88.5957 115.372 88.0778 115.672C87.5598 115.972 86.9765 116.14 86.3787 116.162C86.3225 116.168 86.2659 116.153 86.2203 116.12C86.1747 116.086 86.1435 116.037 86.1332 115.981C86.1248 115.924 86.1391 115.867 86.1729 115.821C86.2066 115.775 86.2572 115.744 86.3135 115.735Z" fill="white"/>
<path d="M322.427 149.208C330.615 143.864 336.569 134.258 335.351 124.546C327.977 132.213 318.134 137.02 307.561 138.119C303.482 138.527 298.903 138.557 296.007 141.461C294.204 143.269 293.439 145.91 293.399 148.464C293.36 151.018 293.973 153.532 294.581 156.012L294.432 156.632C304.199 156.271 314.238 154.552 322.427 149.208Z" fill="#F0F0F0"/>
<path d="M335.146 124.544C332.083 132.043 326.738 138.384 319.871 142.667C318.409 143.616 316.807 144.328 315.124 144.776C313.47 145.16 311.744 145.094 310.124 144.584C308.604 144.139 307.102 143.507 305.5 143.44C304.68 143.418 303.865 143.569 303.107 143.885C302.35 144.2 301.667 144.672 301.105 145.27C299.664 146.724 298.832 148.609 298.081 150.481C297.248 152.56 296.415 154.732 294.718 156.271C294.513 156.458 294.814 156.767 295.019 156.58C297.971 153.902 298.296 149.605 300.617 146.497C301.7 145.048 303.226 143.916 305.091 143.868C306.722 143.826 308.273 144.476 309.808 144.94C311.38 145.461 313.056 145.588 314.689 145.31C316.39 144.949 318.017 144.3 319.5 143.392C322.872 141.401 325.91 138.891 328.504 135.955C331.482 132.62 333.869 128.8 335.561 124.659C335.666 124.403 335.25 124.29 335.146 124.544Z" fill="white"/>
<path d="M322.163 141.419C323.037 142.475 324.258 143.185 325.607 143.424C326.956 143.662 328.345 143.412 329.528 142.719C329.766 142.578 329.559 142.2 329.32 142.341C328.22 142.989 326.926 143.221 325.67 142.997C324.414 142.772 323.28 142.106 322.472 141.117C322.296 140.903 321.989 141.205 322.163 141.419Z" fill="white"/>
<path d="M310.864 144.911C311.1 142.117 312.38 139.515 314.447 137.623C314.652 137.436 314.351 137.127 314.146 137.315C311.998 139.287 310.673 141.998 310.433 144.906C310.411 145.183 310.842 145.187 310.864 144.911Z" fill="white"/>
<path d="M330.94 132.44C330.516 132.101 330.184 131.663 329.971 131.165C329.759 130.666 329.673 130.122 329.723 129.582C329.749 129.306 329.318 129.302 329.292 129.577C329.24 130.174 329.335 130.774 329.569 131.326C329.802 131.877 330.167 132.363 330.631 132.741C330.672 132.78 330.726 132.802 330.783 132.803C330.839 132.804 330.894 132.783 330.936 132.745C330.976 132.704 331 132.65 331 132.593C331.001 132.536 330.979 132.481 330.94 132.44Z" fill="white"/>
<path d="M307.418 106.774C307.397 106.947 307.376 107.119 307.352 107.293C307.054 109.609 306.57 111.897 305.902 114.134C305.854 114.308 305.801 114.483 305.748 114.655C304.083 120.028 301.436 125.045 297.943 129.45C296.551 131.202 295.028 132.845 293.387 134.365C291.121 136.465 288.497 138.561 287.097 141.209C286.948 141.484 286.816 141.768 286.702 142.059L293.688 156.401C293.721 156.426 293.75 156.452 293.782 156.477L294.035 157.062C294.125 156.99 294.217 156.913 294.307 156.84C294.359 156.798 294.41 156.753 294.463 156.712C294.497 156.683 294.531 156.654 294.564 156.629C294.576 156.62 294.587 156.61 294.595 156.602C294.628 156.578 294.656 156.552 294.685 156.53C295.2 156.1 295.713 155.666 296.223 155.228C296.227 155.226 296.227 155.226 296.228 155.221C300.11 151.871 303.746 148.166 306.706 144.027C306.795 143.902 306.887 143.776 306.973 143.645C308.296 141.772 309.465 139.793 310.466 137.729C311.011 136.598 311.499 135.439 311.926 134.258C313.026 131.203 313.639 127.995 313.743 124.75C313.95 118.281 312.088 111.818 307.753 107.129C307.642 107.009 307.533 106.893 307.418 106.774Z" fill="#F0F0F0"/>
<path d="M307.252 106.895C309.314 114.729 308.86 123.015 305.952 130.575C305.355 132.214 304.504 133.748 303.429 135.122C302.34 136.425 300.922 137.413 299.322 137.983C297.841 138.543 296.261 138.945 294.942 139.857C294.274 140.333 293.714 140.946 293.299 141.655C292.883 142.363 292.623 143.152 292.533 143.969C292.257 145.998 292.725 148.005 293.252 149.952C293.836 152.114 294.477 154.35 294.048 156.603C293.996 156.876 294.422 156.941 294.474 156.668C295.221 152.749 292.897 149.122 292.881 145.242C292.874 143.432 293.412 141.608 294.873 140.445C296.15 139.428 297.779 139.012 299.283 138.457C300.852 137.925 302.266 137.016 303.403 135.81C304.544 134.496 305.453 132.997 306.091 131.378C307.586 127.755 308.504 123.919 308.809 120.011C309.182 115.552 308.791 111.063 307.653 106.737C307.582 106.469 307.182 106.629 307.252 106.895Z" fill="white"/>
<path d="M307.031 128.196C308.364 128.512 309.766 128.344 310.986 127.721C312.206 127.098 313.166 126.061 313.693 124.794C313.799 124.538 313.406 124.361 313.3 124.618C312.811 125.798 311.917 126.764 310.78 127.342C309.642 127.92 308.336 128.072 307.096 127.77C306.827 127.704 306.763 128.131 307.031 128.196Z" fill="white"/>
<path d="M300.11 137.797C298.619 135.424 298.076 132.575 298.589 129.818C298.64 129.545 298.214 129.48 298.163 129.753C297.634 132.622 298.206 135.586 299.763 138.053C299.911 138.288 300.258 138.031 300.11 137.797Z" fill="white"/>
<path d="M308.641 115.735C308.1 115.72 307.571 115.571 307.102 115.301C306.632 115.031 306.237 114.648 305.952 114.187C305.807 113.951 305.46 114.208 305.605 114.443C305.922 114.95 306.359 115.372 306.877 115.672C307.395 115.972 307.978 116.14 308.576 116.162C308.632 116.168 308.689 116.153 308.735 116.12C308.78 116.086 308.811 116.037 308.822 115.981C308.83 115.924 308.816 115.867 308.782 115.821C308.748 115.775 308.698 115.744 308.641 115.735Z" fill="white"/>
<path d="M88.6565 102.081C88.3467 101.894 88.0815 101.642 87.8797 101.341C87.6779 101.041 87.5443 100.7 87.4883 100.342C87.4324 99.9842 87.4554 99.6185 87.5559 99.2706C87.6563 98.9227 87.8317 98.6012 88.0697 98.3285L83.7139 90.6831L88.272 90.978L91.7096 98.193C92.1404 98.6237 92.3986 99.1978 92.4351 99.8064C92.4715 100.415 92.2838 101.016 91.9075 101.495C91.5312 101.974 90.9923 102.299 90.3932 102.407C89.794 102.515 89.1761 102.399 88.6565 102.081Z" fill="#FFB6B6"/>
<path d="M55.1254 154.201H58.1412L59.5758 142.553L55.125 142.553L55.1254 154.201Z" fill="#FFB6B6"/>
<path d="M54.3564 153.215L60.2952 153.215C61.2989 153.215 62.2618 153.614 62.9715 154.325C63.6812 155.036 64.08 156 64.0801 157.005V157.128L54.3566 157.129L54.3564 153.215Z" fill="#2F2E41"/>
<path d="M75.7869 154.201H78.8023L80.2369 142.553L75.7861 142.553L75.7869 154.201Z" fill="#FFB6B6"/>
<path d="M75.0176 153.215L80.9563 153.215C81.9601 153.215 82.9229 153.614 83.6326 154.325C84.3424 155.036 84.7412 156 84.7412 157.005V157.128L75.0178 157.129L75.0176 153.215Z" fill="#2F2E41"/>
<path d="M83.5419 91.0116C83.5419 91.0116 84.3714 102.84 82.7378 108.798C81.1042 114.755 80.8124 150.781 80.8124 150.781H75.3367L70.5907 101.742L59.6493 150.954L54.4336 150.595L57.294 92.6049L83.5419 91.0116Z" fill="#2F2E41"/>
<path d="M59.5562 51.1374L63.7423 48.0783L70.7568 49.6078L72.6555 54.126L75.9273 55.7504C77.0031 56.2846 77.9333 57.0723 78.638 58.046C79.3426 59.0196 79.8007 60.15 79.9728 61.3401L84.647 93.6638L57.2934 92.6049L53.9819 54.5375C53.9474 54.1398 53.9928 53.7392 54.1155 53.3595C54.2382 52.9797 54.4358 52.6285 54.6965 52.3265C54.9572 52.0246 55.2757 51.7781 55.6333 51.6016C55.9908 51.4251 56.38 51.3223 56.7779 51.2991L59.5562 51.1374Z" fill="#3F3D56"/>
<path d="M77.6582 58.2754L80.1846 61.6858L91.1884 95.2954L86.0305 97.3634L77.7713 81.7022L77.6582 58.2754Z" fill="#3F3D56"/>
<path d="M68.5001 46.4812C71.8742 46.4812 74.6095 43.742 74.6095 40.3631C74.6095 36.9841 71.8742 34.2449 68.5001 34.2449C65.1259 34.2449 62.3906 36.9841 62.3906 40.3631C62.3906 43.742 65.1259 46.4812 68.5001 46.4812Z" fill="#FFB9B9"/>
<path opacity="0.1" d="M55.1816 65.5346L65.1514 79.4209L76.2955 86.6982L55.1816 65.5346Z" fill="black"/>
<path d="M65.2626 44.786C64.8376 43.9363 64.4004 43.0115 64.5629 42.0752C64.7253 41.1389 65.7982 40.3231 66.6262 40.7873C66.9698 39.5439 68.4907 38.9998 69.7709 39.1433C71.0511 39.2869 72.2299 39.9053 73.4906 40.1708C74.7512 40.4363 76.2822 40.2256 76.9635 39.1308L75.3333 39.1025L77.0309 37.1307L75.0631 36.9832C75.7447 36.2465 75.5636 34.9949 74.9037 34.2386C74.2439 33.4823 73.2425 33.1245 72.2654 32.8982C70.3148 32.4479 68.293 32.4014 66.3238 32.7614C65.3953 32.9048 64.5008 33.2165 63.684 33.6814C62.9149 34.1511 62.2794 34.8111 61.8386 35.5979C61.363 36.4855 61.106 37.4741 61.0888 38.4813C61.0597 39.8304 61.3693 41.1652 61.9891 42.3634C62.6089 43.5617 63.5191 44.5849 64.6362 45.3395" fill="#2F2E41"/>
<path d="M292.736 157.286H103.139C101.186 157.283 99.3146 156.506 97.9339 155.123C96.5533 153.741 95.7767 151.866 95.7744 149.911V7.3749C95.7767 5.41961 96.5533 3.54505 97.9339 2.16247C99.3146 0.779886 101.186 0.00219513 103.139 0H292.736C294.688 0.00222984 296.56 0.779939 297.941 2.16252C299.321 3.5451 300.098 5.41964 300.1 7.3749V149.911C300.098 151.866 299.321 153.741 297.941 155.123C296.56 156.506 294.688 157.283 292.736 157.286Z" fill="#E4E4E4"/>
<path d="M245.018 65.4446H215.75C214.304 65.4446 212.917 64.8692 211.894 63.845C210.871 62.8208 210.297 61.4317 210.297 59.9832C210.297 58.5348 210.871 57.1457 211.894 56.1215C212.917 55.0973 214.304 54.5219 215.75 54.5219H245.018C246.464 54.5219 247.851 55.0973 248.874 56.1215C249.897 57.1457 250.471 58.5348 250.471 59.9832C250.471 61.4317 249.897 62.8208 248.874 63.845C247.851 64.8692 246.464 65.4446 245.018 65.4446Z" fill="white"/>
<path d="M219.386 80.3721H212.478C211.948 80.3721 211.439 80.1612 211.064 79.7856C210.689 79.4101 210.479 78.9008 210.479 78.3697C210.479 77.8386 210.689 77.3292 211.064 76.9537C211.439 76.5782 211.948 76.3672 212.478 76.3672H219.386C219.916 76.3672 220.425 76.5782 220.8 76.9537C221.175 77.3292 221.386 77.8386 221.386 78.3697C221.386 78.9008 221.175 79.4101 220.8 79.7856C220.425 80.1612 219.916 80.3721 219.386 80.3721Z" fill="white"/>
<path d="M248.108 80.3721H241.2C240.669 80.3721 240.161 80.1612 239.786 79.7856C239.411 79.4101 239.2 78.9008 239.2 78.3697C239.2 77.8386 239.411 77.3292 239.786 76.9537C240.161 76.5782 240.669 76.3672 241.2 76.3672H248.108C248.638 76.3672 249.147 76.5782 249.522 76.9537C249.897 77.3292 250.107 77.8386 250.107 78.3697C250.107 78.9008 249.897 79.4101 249.522 79.7856C249.147 80.1612 248.638 80.3721 248.108 80.3721Z" fill="white"/>
<path d="M233.566 80.3721H226.658C226.127 80.3721 225.619 80.1612 225.244 79.7856C224.869 79.4101 224.658 78.9008 224.658 78.3697C224.658 77.8386 224.869 77.3292 225.244 76.9537C225.619 76.5782 226.127 76.3672 226.658 76.3672H233.566C234.096 76.3672 234.605 76.5782 234.98 76.9537C235.355 77.3292 235.565 77.8386 235.565 78.3697C235.565 78.9008 235.355 79.4101 234.98 79.7856C234.605 80.1612 234.096 80.3721 233.566 80.3721Z" fill="white"/>
<path d="M219.386 88.018H212.478C211.948 88.018 211.439 87.807 211.064 87.4315C210.689 87.0559 210.479 86.5466 210.479 86.0155C210.479 85.4844 210.689 84.9751 211.064 84.5996C211.439 84.224 211.948 84.013 212.478 84.013H219.386C219.916 84.013 220.425 84.224 220.8 84.5996C221.175 84.9751 221.386 85.4844 221.386 86.0155C221.386 86.5466 221.175 87.0559 220.8 87.4315C220.425 87.807 219.916 88.018 219.386 88.018Z" fill="white"/>
<path d="M248.108 88.018H241.2C240.669 88.018 240.161 87.807 239.786 87.4315C239.411 87.0559 239.2 86.5466 239.2 86.0155C239.2 85.4844 239.411 84.9751 239.786 84.5996C240.161 84.224 240.669 84.013 241.2 84.013H248.108C248.638 84.013 249.147 84.224 249.522 84.5996C249.897 84.9751 250.107 85.4844 250.107 86.0155C250.107 86.5466 249.897 87.0559 249.522 87.4315C249.147 87.807 248.638 88.018 248.108 88.018Z" fill="white"/>
<path d="M233.566 88.018H226.658C226.127 88.018 225.619 87.807 225.244 87.4315C224.869 87.0559 224.658 86.5466 224.658 86.0155C224.658 85.4844 224.869 84.9751 225.244 84.5996C225.619 84.224 226.127 84.013 226.658 84.013H233.566C234.096 84.013 234.605 84.224 234.98 84.5996C235.355 84.9751 235.565 85.4844 235.565 86.0155C235.565 86.5466 235.355 87.0559 234.98 87.4315C234.605 87.807 234.096 88.018 233.566 88.018Z" fill="white"/>
<path d="M219.386 95.6638H212.478C211.948 95.6638 211.439 95.4528 211.064 95.0773C210.689 94.7018 210.479 94.1924 210.479 93.6613C210.479 93.1302 210.689 92.6209 211.064 92.2454C211.439 91.8698 211.948 91.6588 212.478 91.6588H219.386C219.916 91.6588 220.425 91.8698 220.8 92.2454C221.175 92.6209 221.386 93.1302 221.386 93.6613C221.386 94.1924 221.175 94.7018 220.8 95.0773C220.425 95.4528 219.916 95.6638 219.386 95.6638Z" fill="white"/>
<path d="M248.108 95.6638H241.2C240.669 95.6638 240.161 95.4528 239.786 95.0773C239.411 94.7018 239.2 94.1924 239.2 93.6613C239.2 93.1302 239.411 92.6209 239.786 92.2454C240.161 91.8698 240.669 91.6588 241.2 91.6588H248.108C248.638 91.6588 249.147 91.8698 249.522 92.2454C249.897 92.6209 250.107 93.1302 250.107 93.6613C250.107 94.1924 249.897 94.7018 249.522 95.0773C249.147 95.4528 248.638 95.6638 248.108 95.6638Z" fill="white"/>
<path d="M233.566 95.6638H226.658C226.127 95.6638 225.619 95.4528 225.244 95.0773C224.869 94.7018 224.658 94.1924 224.658 93.6613C224.658 93.1302 224.869 92.6209 225.244 92.2454C225.619 91.8698 226.127 91.6588 226.658 91.6588H233.566C234.096 91.6588 234.605 91.8698 234.98 92.2454C235.355 92.6209 235.565 93.1302 235.565 93.6613C235.565 94.1924 235.355 94.7018 234.98 95.0773C234.605 95.4528 234.096 95.6638 233.566 95.6638Z" fill="white"/>
<path d="M219.386 103.31H212.478C211.948 103.31 211.439 103.099 211.064 102.723C210.689 102.348 210.479 101.838 210.479 101.307C210.479 100.776 210.689 100.267 211.064 99.8912C211.439 99.5157 211.948 99.3047 212.478 99.3047H219.386C219.916 99.3047 220.425 99.5157 220.8 99.8912C221.175 100.267 221.386 100.776 221.386 101.307C221.386 101.838 221.175 102.348 220.8 102.723C220.425 103.099 219.916 103.31 219.386 103.31Z" fill="white"/>
<path d="M248.108 103.31H241.2C240.669 103.31 240.161 103.099 239.786 102.723C239.411 102.348 239.2 101.838 239.2 101.307C239.2 100.776 239.411 100.267 239.786 99.8912C240.161 99.5157 240.669 99.3047 241.2 99.3047H248.108C248.638 99.3047 249.147 99.5157 249.522 99.8912C249.897 100.267 250.107 100.776 250.107 101.307C250.107 101.838 249.897 102.348 249.522 102.723C249.147 103.099 248.638 103.31 248.108 103.31Z" fill="white"/>
<path d="M233.566 103.31H226.658C226.127 103.31 225.619 103.099 225.244 102.723C224.869 102.348 224.658 101.838 224.658 101.307C224.658 100.776 224.869 100.267 225.244 99.8912C225.619 99.5157 226.127 99.3047 226.658 99.3047H233.566C234.096 99.3047 234.605 99.5157 234.98 99.8912C235.355 100.267 235.565 100.776 235.565 101.307C235.565 101.838 235.355 102.348 234.98 102.723C234.605 103.099 234.096 103.31 233.566 103.31Z" fill="white"/>
<path d="M172.668 95.2997C182.908 95.2997 191.21 86.9863 191.21 76.7313C191.21 66.4762 182.908 58.1628 172.668 58.1628C162.428 58.1628 154.126 66.4762 154.126 76.7313C154.126 86.9863 162.428 95.2997 172.668 95.2997Z" fill="#CACACA"/>
<path d="M172.667 99.4867C171.222 99.4851 169.835 98.9092 168.813 97.8853C167.791 96.8615 167.216 95.4733 167.214 94.0254V59.4371C167.213 58.7196 167.354 58.0089 167.628 57.3458C167.902 56.6827 168.303 56.0802 168.81 55.5726C169.316 55.065 169.917 54.6623 170.579 54.3875C171.241 54.1128 171.951 53.9714 172.667 53.9714C173.384 53.9714 174.093 54.1128 174.755 54.3875C175.417 54.6623 176.019 55.065 176.525 55.5726C177.032 56.0802 177.433 56.6827 177.707 57.3458C177.981 58.0089 178.121 58.7196 178.121 59.4371V94.0254C178.119 95.4733 177.544 96.8615 176.522 97.8853C175.499 98.9092 174.113 99.4851 172.667 99.4867Z" fill="white"/>
<path d="M221.108 63.0995H216.018C215.825 63.0995 215.64 63.0228 215.504 62.8862C215.368 62.7497 215.291 62.5645 215.291 62.3713C215.291 62.1782 215.368 61.993 215.504 61.8564C215.64 61.7199 215.825 61.6432 216.018 61.6432H221.108C221.301 61.6432 221.486 61.7199 221.622 61.8564C221.759 61.993 221.835 62.1782 221.835 62.3713C221.835 62.5645 221.759 62.7497 221.622 62.8862C221.486 63.0228 221.301 63.0995 221.108 63.0995Z" fill="#E4E4E4"/>
<path d="M229.106 63.2815H224.016C223.823 63.2815 223.638 63.2048 223.502 63.0683C223.366 62.9317 223.289 62.7465 223.289 62.5534C223.289 62.3602 223.366 62.175 223.502 62.0385C223.638 61.9019 223.823 61.8252 224.016 61.8252H229.106C229.299 61.8252 229.484 61.9019 229.62 62.0385C229.757 62.175 229.833 62.3602 229.833 62.5534C229.833 62.7465 229.757 62.9317 229.62 63.0683C229.484 63.2048 229.299 63.2815 229.106 63.2815Z" fill="#E4E4E4"/>
<path d="M237.105 63.4636H232.015C231.822 63.4636 231.637 63.3869 231.501 63.2503C231.365 63.1138 231.288 62.9286 231.288 62.7354C231.288 62.5423 231.365 62.3571 231.501 62.2205C231.637 62.084 231.822 62.0073 232.015 62.0073H237.105C237.298 62.0073 237.483 62.084 237.619 62.2205C237.756 62.3571 237.832 62.5423 237.832 62.7354C237.832 62.9286 237.756 63.1138 237.619 63.2503C237.483 63.3869 237.298 63.4636 237.105 63.4636Z" fill="#E4E4E4"/>
<path d="M245.103 63.6456H240.013C239.82 63.6456 239.635 63.5689 239.499 63.4324C239.363 63.2958 239.286 63.1106 239.286 62.9175C239.286 62.7244 239.363 62.5391 239.499 62.4026C239.635 62.266 239.82 62.1893 240.013 62.1893H245.103C245.296 62.1893 245.481 62.266 245.617 62.4026C245.754 62.5391 245.83 62.7244 245.83 62.9175C245.83 63.1106 245.754 63.2958 245.617 63.4324C245.481 63.5689 245.296 63.6456 245.103 63.6456Z" fill="#E4E4E4"/>
<path d="M119.95 134.803C119.95 135.704 120.128 136.597 120.475 137.429C120.822 138.261 121.331 139.015 121.972 139.649H118.968C118.082 139.649 117.205 139.474 116.386 139.134C115.567 138.795 114.824 138.297 114.197 137.67C113.57 137.042 113.073 136.297 112.734 135.478C112.395 134.658 112.221 133.779 112.221 132.892V23.3445C112.221 22.4572 112.395 21.5785 112.734 20.7587C113.073 19.9389 113.57 19.194 114.197 18.5665C114.824 17.9391 115.567 17.4413 116.386 17.1018C117.205 16.7622 118.082 16.5874 118.968 16.5874H123.339C122.308 17.1877 121.453 18.0484 120.858 19.0834C120.263 20.1184 119.95 21.2915 119.95 22.4856L119.95 134.803Z" fill="#CACACA"/>
<path d="M341.567 158H0.43262C0.318026 158 0.208242 157.954 0.127329 157.873C0.0464162 157.791 0.000976562 157.681 0.000976562 157.566C0.000976562 157.452 0.0464162 157.342 0.127329 157.26C0.208242 157.179 0.318026 157.133 0.43262 157.133H341.567C341.682 157.133 341.792 157.179 341.873 157.26C341.954 157.341 342 157.451 342 157.566C342 157.681 341.954 157.792 341.873 157.873C341.792 157.954 341.682 158 341.567 158Z" fill="#CACACA"/>
<path d="M119.223 48.5979C116.925 47.9535 114.619 47.3564 112.304 46.8066C104.389 44.9144 96.3641 43.5137 88.2762 42.6123C86.9052 42.2508 85.4472 42.4462 84.2194 43.1561C82.9917 43.8659 82.0937 45.0328 81.7209 46.4025L77.6817 61.3301C77.3109 62.706 77.5003 64.1731 78.2086 65.4093C78.9168 66.6455 80.0859 67.5498 81.4592 67.9237L81.5137 67.9346C86.8583 68.5426 92.2536 69.3873 97.6198 70.465C98.0998 70.5597 98.5761 70.658 99.0559 70.7599C100.776 71.1167 102.49 71.4978 104.2 71.9031C104.949 72.0779 105.695 72.26 106.444 72.4456C108.458 72.9481 110.473 73.4833 112.49 74.0513C114.733 74.6848 116.977 75.3608 119.223 76.0792C119.467 76.152 119.71 76.2285 119.95 76.3086V48.8055C119.71 48.7326 119.467 48.6635 119.223 48.5979Z" fill="white"/>
<path d="M119.223 48.5979C116.925 47.9535 114.619 47.3564 112.304 46.8066C104.389 44.9144 96.3641 43.5137 88.2762 42.6123C86.9052 42.2508 85.4472 42.4462 84.2194 43.1561C82.9917 43.8659 82.0937 45.0328 81.7209 46.4025L77.6817 61.3301C77.3109 62.706 77.5003 64.1731 78.2086 65.4093C78.9168 66.6455 80.0859 67.5498 81.4592 67.9237L81.5137 67.9346C86.8583 68.5426 92.2536 69.3873 97.6198 70.465C98.0998 70.5597 98.5761 70.658 99.0559 70.7599C100.776 71.1167 102.49 71.4978 104.2 71.9031C104.949 72.0779 105.695 72.26 106.444 72.4456C108.458 72.9481 110.473 73.4833 112.49 74.0513C114.733 74.6848 116.977 75.3608 119.223 76.0792C119.467 76.152 119.71 76.2285 119.95 76.3086V75.5404C119.707 75.4639 119.463 75.3874 119.223 75.311C117.158 74.652 115.095 74.0318 113.035 73.4505C112.264 73.2284 111.494 73.0136 110.723 72.8061C109.334 72.4311 107.949 72.0718 106.567 71.7284C105.833 71.5427 105.1 71.3643 104.368 71.1932C104.313 71.1786 104.255 71.1677 104.2 71.1531C102.953 70.8582 101.704 70.5766 100.452 70.3084C99.9721 70.2065 99.4923 70.1045 99.0122 70.0062C93.2242 68.8047 87.3926 67.869 81.6227 67.2137C80.4426 66.8846 79.44 66.1019 78.8333 65.0361C78.2267 63.9703 78.065 62.7076 78.3834 61.523L82.4226 46.5918C82.7457 45.4038 83.5263 44.3926 84.593 43.7804C85.6598 43.1681 86.9255 43.0046 88.1124 43.3259L88.1669 43.3332C96.1523 44.2212 104.076 45.5976 111.894 47.4547C111.973 47.4765 112.053 47.4947 112.133 47.5129C114.504 48.0809 116.867 48.695 119.223 49.3552C119.463 49.4208 119.707 49.4899 119.95 49.5627V48.8054C119.71 48.7326 119.467 48.6635 119.223 48.5979Z" fill="#FD7A33"/>
<path d="M119.95 49.1841V75.9226C119.707 75.8425 119.467 75.7661 119.223 75.6896C117.074 75.0015 114.918 74.3534 112.755 73.7454C110.679 73.1556 108.596 72.601 106.506 72.0815C105.764 71.8995 105.026 71.7211 104.284 71.5463C104.255 71.4153 104.226 71.2842 104.2 71.1531C104.066 70.5269 103.961 69.8934 103.88 69.2562C103.844 69.0123 103.819 68.7683 103.793 68.5208C103.411 64.6201 103.944 60.6839 105.35 57.0263C106.757 53.3687 108.997 50.091 111.894 47.4547C111.999 47.3527 112.108 47.2544 112.217 47.1598C114.566 47.7205 116.901 48.3273 119.223 48.9802C119.467 49.0421 119.71 49.1113 119.95 49.1841Z" fill="#FD7A33"/>
<path d="M95.8056 60.1322L85.6948 58.938C85.3391 58.8959 84.9786 58.9244 84.6339 59.0219C84.2892 59.1193 83.967 59.2838 83.6858 59.5059C83.4046 59.728 83.1698 60.0035 82.9949 60.3165C82.82 60.6294 82.7083 60.9739 82.6663 61.3301C82.6243 61.6863 82.6527 62.0473 82.75 62.3925C82.8474 62.7377 83.0116 63.0603 83.2334 63.3419C83.4552 63.6235 83.7303 63.8586 84.0428 64.0338C84.3553 64.209 84.6993 64.3208 85.055 64.3629L95.1657 65.5571C95.8831 65.6402 96.6041 65.4349 97.1707 64.9864C97.7372 64.5378 98.1029 63.8825 98.1877 63.1643C98.2724 62.446 98.0692 61.7235 97.6226 61.1551C97.1761 60.5866 96.5227 60.2188 95.8056 60.1322ZM97.4708 63.0813C97.4075 63.6083 97.138 64.0885 96.7216 64.4168C96.3051 64.7451 95.7756 64.8946 95.2493 64.8326L85.1384 63.6383C84.6134 63.5743 84.1351 63.3046 83.8083 62.8881C83.4815 62.4716 83.3328 61.9424 83.3948 61.4164C83.4569 60.8904 83.7246 60.4105 84.1393 60.0817C84.554 59.753 85.0819 59.6022 85.6074 59.6625L95.7183 60.8567C96.2446 60.9205 96.7243 61.1903 97.0526 61.6071C97.381 62.0239 97.5313 62.5539 97.4708 63.0813Z" fill="#FD7A33"/>
<path d="M119.95 55.4464V68.1275C119.717 68.2679 119.474 68.392 119.223 68.4989C117.918 69.0824 116.471 69.2712 115.061 69.0422C113.65 68.8132 112.337 68.1764 111.283 67.2101C111.181 67.119 111.079 67.0207 110.981 66.9188C110.883 66.8205 110.788 66.7149 110.697 66.6093C109.6 65.3469 108.966 63.7471 108.899 62.0746C108.833 60.4021 109.339 58.757 110.333 57.4115C111.327 56.066 112.75 55.1007 114.367 54.6751C115.983 54.2496 117.697 54.3894 119.223 55.0714C119.472 55.1832 119.715 55.3084 119.95 55.4464Z" fill="white"/>
<path d="M119.223 64.625C116.362 65.2221 113.52 65.8836 110.697 66.6093C109.643 66.8787 108.592 67.1579 107.545 67.4467C106.295 67.7926 105.044 68.1506 103.793 68.5208C102.197 68.9941 100.604 69.4892 99.0123 70.0062C98.5506 70.1591 98.0853 70.3121 97.6198 70.465C93.1952 71.9432 88.7997 73.5816 84.4768 75.3692C83.1012 75.7135 81.9171 76.5882 81.1823 77.8027C80.4476 79.0171 80.2217 80.4732 80.5539 81.8536L84.2006 96.8831C84.5381 98.2674 85.4101 99.4611 86.6254 100.202C87.8406 100.944 89.2998 101.172 90.6829 100.837L90.7339 100.819C97.8427 97.8989 105.118 95.4041 112.523 93.3479C114.733 92.7326 116.967 92.1525 119.223 91.6075C119.467 91.5493 119.707 91.491 119.95 91.4364V64.4758C119.707 64.5194 119.467 64.5704 119.223 64.625Z" fill="white"/>
<path d="M119.223 64.625C116.362 65.2221 113.52 65.8836 110.697 66.6093C109.643 66.8787 108.592 67.1579 107.545 67.4467C106.295 67.7926 105.044 68.1506 103.793 68.5208C102.197 68.9941 100.604 69.4892 99.0123 70.0062C98.5506 70.1591 98.0853 70.3121 97.6198 70.465C93.1952 71.9432 88.7997 73.5816 84.4768 75.3692C83.1012 75.7135 81.9171 76.5882 81.1823 77.8027C80.4476 79.0171 80.2217 80.4732 80.5539 81.8536L84.2006 96.8831C84.5381 98.2674 85.4101 99.4611 86.6254 100.202C87.8406 100.944 89.2998 101.172 90.6829 100.837L90.7339 100.819C97.8427 97.8989 105.118 95.4041 112.523 93.3479C114.733 92.7326 116.967 92.1525 119.223 91.6075C119.467 91.5493 119.707 91.491 119.95 91.4364V90.6864C119.707 90.7446 119.467 90.8029 119.223 90.8612C119.041 90.9049 118.856 90.9485 118.674 90.9922C116.536 91.5129 114.422 92.0639 112.33 92.6452C112.275 92.6597 112.217 92.678 112.163 92.6925C104.796 94.7442 97.5566 97.2304 90.483 100.138C89.2902 100.418 88.0352 100.215 86.9908 99.5737C85.9465 98.9322 85.1972 97.9038 84.9059 96.712L81.263 81.6825C80.9738 80.4857 81.1705 79.223 81.8098 78.1712C82.4491 77.1194 83.4788 76.3645 84.6732 76.0719L84.7277 76.0537C89.436 74.1022 94.2277 72.3328 99.056 70.7599C99.5213 70.607 99.9867 70.4577 100.452 70.3084C101.594 69.948 102.737 69.5973 103.881 69.2562C105.088 68.8958 106.293 68.5487 107.498 68.2149C107.578 68.1931 107.658 68.1713 107.738 68.1494C108.916 67.8254 110.098 67.5122 111.283 67.2101C113.911 66.5401 116.558 65.9248 119.223 65.3641C119.463 65.3132 119.707 65.2622 119.95 65.2149V64.4758C119.707 64.5194 119.467 64.5704 119.223 64.625Z" fill="#FD7A33"/>
<path d="M119.95 64.8435V91.0614C119.71 91.116 119.467 91.1706 119.223 91.2289C116.947 91.7823 114.681 92.3721 112.424 92.9983C112.333 92.8964 112.246 92.7945 112.162 92.6925C109.807 89.9309 108.076 86.6913 107.088 83.1963C106.101 79.7014 105.881 76.0338 106.443 72.4456C106.462 72.3255 106.484 72.2017 106.505 72.0815C106.523 71.965 106.545 71.8449 106.567 71.7284C106.792 70.5361 107.103 69.3618 107.498 68.2149C107.545 68.0766 107.592 67.9382 107.643 67.7999C108.752 67.494 109.865 67.2004 110.981 66.9188C113.711 66.2124 116.459 65.5704 119.223 64.9928C119.463 64.9381 119.706 64.8908 119.95 64.8435Z" fill="#FD7A33"/>
<path d="M103.056 88.5929C102.783 87.9223 102.256 87.3874 101.59 87.1056C100.924 86.8237 100.174 86.8178 99.5035 87.0892L90.0688 90.9194C89.3998 91.1925 88.8663 91.7203 88.5855 92.3869C88.3047 93.0536 88.2995 93.8046 88.5712 94.475C88.8428 95.1454 89.3691 95.6805 90.0343 95.9627C90.6996 96.2449 91.4495 96.2512 92.1194 95.9802L101.554 92.15C102.223 91.8764 102.757 91.3485 103.038 90.6819C103.319 90.0152 103.326 89.2641 103.056 88.5929ZM101.281 91.4728L91.8467 95.3067C91.3551 95.5057 90.8047 95.5012 90.3164 95.2942C89.8282 95.0871 89.4419 94.6945 89.2425 94.2025C89.043 93.7104 89.0468 93.1593 89.2528 92.67C89.4589 92.1807 89.8504 91.7934 90.3415 91.593L99.7762 87.7628C100.267 87.5629 100.818 87.5666 101.306 87.7732C101.795 87.9797 102.182 88.3721 102.381 88.8641C102.581 89.3561 102.577 89.9073 102.371 90.3966C102.165 90.8858 101.773 91.2729 101.281 91.4728Z" fill="#FD7A33"/>
<path d="M119.95 71.5391V85.8149C119.711 85.876 119.468 85.9247 119.223 85.9605C117.763 86.1654 116.276 85.9258 114.954 85.273C113.632 84.6201 112.537 83.5841 111.811 82.2997C111.085 81.0153 110.761 79.5418 110.882 78.0708C111.003 76.5998 111.564 75.1992 112.49 74.0513C112.574 73.9457 112.661 73.8437 112.755 73.7454C112.843 73.6435 112.937 73.5452 113.035 73.4505C113.839 72.6543 114.816 72.0547 115.889 71.6985C116.962 71.3423 118.103 71.2391 119.223 71.3971C119.468 71.43 119.711 71.4774 119.95 71.5391Z" fill="white"/>
<path d="M119.223 46.701V83.0406C119.466 82.9605 119.71 82.884 119.95 82.8112V47.0324C119.706 46.9195 119.466 46.8103 119.223 46.701ZM119.223 46.701V83.0406C119.466 82.9605 119.71 82.884 119.95 82.8112V47.0324C119.706 46.9195 119.466 46.8103 119.223 46.701ZM119.223 46.701V83.0406C119.466 82.9605 119.71 82.884 119.95 82.8112V47.0324C119.706 46.9195 119.466 46.8103 119.223 46.701ZM119.223 49.3552V91.2289C119.466 91.1706 119.71 91.116 119.95 91.0614V49.5628C119.706 49.4899 119.463 49.4208 119.223 49.3552ZM119.223 49.3552V91.2289C119.466 91.1706 119.71 91.116 119.95 91.0614V49.5628C119.706 49.4899 119.463 49.4208 119.223 49.3552ZM119.223 49.3552V91.2289C119.466 91.1706 119.71 91.116 119.95 91.0614V49.5628C119.706 49.4899 119.463 49.4208 119.223 49.3552ZM119.223 49.3552V91.2289C119.466 91.1706 119.71 91.116 119.95 91.0614V49.5628C119.706 49.4899 119.463 49.4208 119.223 49.3552ZM119.223 49.3552V91.6075C119.466 91.5493 119.706 91.491 119.95 91.4364V49.5628C119.706 49.4899 119.463 49.4208 119.223 49.3552ZM277.829 14.9272H126.77C124.77 14.9305 122.852 15.7279 121.437 17.1446C120.022 18.5614 119.226 20.482 119.223 22.4856V134.803C119.226 136.806 120.022 138.726 121.437 140.142C122.852 141.559 124.77 142.355 126.77 142.358H277.829C279.83 142.355 281.747 141.558 283.161 140.142C284.575 138.726 285.371 136.806 285.373 134.803V22.4856C285.372 20.4821 284.577 18.5611 283.162 17.1441C281.748 15.7271 279.83 14.9298 277.829 14.9272ZM284.646 134.803C284.644 136.613 283.926 138.348 282.648 139.628C281.37 140.908 279.637 141.628 277.829 141.629H126.77C124.963 141.628 123.229 140.908 121.951 139.628C120.672 138.349 119.952 136.613 119.95 134.803V22.4856C119.953 20.6749 120.672 18.9392 121.951 17.6589C123.229 16.3785 124.962 15.658 126.77 15.6553H277.829C279.637 15.6574 281.371 16.3778 282.649 17.6584C283.927 18.939 284.645 20.6751 284.646 22.4856V134.803ZM119.223 49.3552V90.8612C119.466 90.8029 119.706 90.7446 119.95 90.6864V49.5628C119.706 49.4899 119.463 49.4208 119.223 49.3552ZM119.223 49.3552V91.2289C119.466 91.1706 119.71 91.116 119.95 91.0614V49.5628C119.706 49.4899 119.463 49.4208 119.223 49.3552ZM119.223 49.3552V91.2289C119.466 91.1706 119.71 91.116 119.95 91.0614V49.5628C119.706 49.4899 119.463 49.4208 119.223 49.3552ZM119.223 49.3552V91.2289C119.466 91.1706 119.71 91.116 119.95 91.0614V49.5628C119.706 49.4899 119.463 49.4208 119.223 49.3552ZM119.223 46.701V83.0406C119.466 82.9605 119.71 82.884 119.95 82.8112V47.0324C119.706 46.9195 119.466 46.8103 119.223 46.701ZM119.223 46.701V83.0406C119.466 82.9605 119.71 82.884 119.95 82.8112V47.0324C119.706 46.9195 119.466 46.8103 119.223 46.701Z" fill="#2F2E41"/>
<path d="M86.8386 85.1505C86.6961 84.8177 86.4825 84.5202 86.2127 84.279C85.943 84.0378 85.6237 83.8588 85.2774 83.7546C84.9312 83.6503 84.5663 83.6234 84.2084 83.6756C83.8506 83.7279 83.5086 83.8581 83.2065 84.057L76.2366 78.6939L75.9072 83.2562L82.5764 87.6496C82.9438 88.1358 83.4765 88.4701 84.0736 88.5892C84.6707 88.7083 85.2906 88.6039 85.816 88.2959C86.3414 87.9878 86.7357 87.4975 86.9241 86.9178C87.1126 86.338 87.0822 85.7092 86.8386 85.1505Z" fill="#FFB6B6"/>
<path d="M58.7526 52.784L56.4591 51.6986C56.4591 51.6986 52.7643 52.7394 54.5593 57.6321L65.4225 77.8985L78.685 85.6745L82.8196 82.0054L69.5475 71.489L58.7526 52.784Z" fill="#3F3D56"/>
</g>
<defs>
<clipPath id="clip0_3741_2586">
<rect width="342" height="158" fill="white"/>
</clipPath>
</defs>
</svg>
