<svg width="263" height="179" viewBox="0 0 263 179" fill="none" xmlns="http://www.w3.org/2000/svg">
<g clip-path="url(#clip0_3741_2660)">
<path d="M174.915 48.5301L168.646 47.1398L162.242 68.7773L151.308 89.1724C150.539 89.1998 149.793 89.5139 149.166 90.0746C148.54 90.6352 148.061 91.417 147.791 92.32C147.521 93.223 147.472 94.2063 147.65 95.1443C147.829 96.0823 148.226 96.9324 148.793 97.586C149.359 98.2396 150.068 98.6672 150.829 98.8139C151.59 98.9607 152.369 98.8201 153.066 98.4101C153.763 98.0001 154.346 97.3392 154.742 96.5119C155.137 95.6847 155.327 94.7285 155.287 93.7656L168.641 74.4885L174.915 48.5301Z" fill="#FFB7B7"/>
<path d="M196.374 21.5695C196.374 29.3491 190.628 28.1724 183.541 28.1724C176.454 28.1724 170.709 29.3491 170.709 21.5695C170.709 13.7899 173.515 0 183.541 0C193.913 0 196.374 13.7899 196.374 21.5695Z" fill="#2F2E41"/>
<path d="M219.966 89.2551L208.641 64.8609L203.367 42.7507L197.039 43.6311L201.961 70.0427L214.568 90.8115C214.173 91.6251 213.979 92.5662 214.009 93.5172C214.04 94.4682 214.293 95.3869 214.738 96.1584C215.184 96.9299 215.801 97.5199 216.512 97.8546C217.224 98.1893 217.998 98.2539 218.739 98.0403C219.48 97.8268 220.154 97.3445 220.677 96.6538C221.2 95.963 221.549 95.0946 221.68 94.157C221.811 93.2195 221.718 92.2544 221.413 91.3825C221.108 90.5106 220.605 89.7706 219.966 89.2551Z" fill="#FFB7B7"/>
<path d="M208.729 128.096L221.738 172.556H227.088L217.909 126.502L208.729 128.096Z" fill="#FFB7B7"/>
<path d="M180.253 130.517L167.245 174.977H161.894L171.073 128.923L180.253 130.517Z" fill="#FFB7B7"/>
<path d="M193.612 33.8949C193.612 33.8949 198.885 31.6939 200.292 34.7753C201.698 37.8566 205.214 47.5409 205.214 47.5409L198.182 48.8615L204.51 68.6702C204.51 68.6702 213.3 77.0338 215.409 95.9621C217.519 114.89 219.628 130.297 219.628 130.297C219.628 130.297 183.065 137.78 169.002 134.699C169.002 134.699 170.057 125.455 172.869 125.015C170.76 122.374 173.539 120.173 173.539 120.173L179.901 91.5602L181.307 77.474C181.307 77.474 178.858 63.0698 175.682 60.3065C172.506 57.5432 173.572 49.7418 173.572 49.7418L167.244 50.182C167.244 50.182 167.947 36.0958 171.111 36.0958H174.979L193.612 33.8949Z" fill="#2F2E41"/>
<path d="M227.748 178.318L213.851 178.317V178.097C213.851 176.301 214.421 174.578 215.435 173.308C216.45 172.038 217.825 171.324 219.26 171.324L227.749 171.325L227.748 178.318Z" fill="#2F2E41"/>
<path d="M168.685 178.318L154.787 178.317V178.097C154.787 176.301 155.357 174.578 156.372 173.308C157.386 172.038 158.762 171.324 160.197 171.324L168.685 171.325L168.685 178.318Z" fill="#2F2E41"/>
<path d="M184.106 27.3726C188.875 27.3726 192.741 22.532 192.741 16.561C192.741 10.5899 188.875 5.74936 184.106 5.74936C179.337 5.74936 175.471 10.5899 175.471 16.561C175.471 22.532 179.337 27.3726 184.106 27.3726Z" fill="#FFB7B7"/>
<path d="M173.521 16.2871H176.937L178.443 11.0048L178.745 16.2871H180.377L181.256 13.2058L181.432 16.2871H193.561C193.561 13.2517 192.598 10.3406 190.884 8.19428C189.169 6.04792 186.844 4.8421 184.42 4.8421H182.662C180.238 4.8421 177.913 6.04792 176.199 8.19428C174.485 10.3406 173.521 13.2517 173.521 16.2871Z" fill="#2F2E41"/>
<path d="M262.648 179H128.7C128.607 179 128.518 178.954 128.452 178.871C128.386 178.789 128.349 178.677 128.349 178.56C128.349 178.443 128.386 178.331 128.452 178.249C128.518 178.166 128.607 178.12 128.7 178.12H262.648C262.741 178.12 262.831 178.166 262.897 178.249C262.963 178.331 263 178.443 263 178.56C263 178.677 262.963 178.789 262.897 178.871C262.831 178.954 262.741 179 262.648 179Z" fill="#CBCBCB"/>
<path d="M151.263 15.0068H0V94.5371H151.263V15.0068Z" fill="#CBCBCB"/>
<path d="M3.16406 90.5753H148.099V18.9685H3.16406V90.5753Z" fill="white"/>
<path d="M125.764 44.7315V75.2667C125.763 75.669 125.635 76.0545 125.408 76.339C125.181 76.6234 124.873 76.7836 124.551 76.7845H98.3099C97.9886 76.7836 97.6807 76.6234 97.4535 76.339C97.2263 76.0545 97.0984 75.6689 97.0977 75.2667V44.7315C97.0979 44.329 97.2257 43.9431 97.453 43.6585C97.6803 43.3739 97.9885 43.2139 98.3099 43.2137H124.551C124.873 43.2139 125.181 43.3739 125.408 43.6585C125.636 43.9431 125.763 44.329 125.764 44.7315Z" fill="#FD7A33"/>
<path d="M113.285 76.938H109.576C109.259 76.9427 108.954 76.7897 108.726 76.5125C108.499 76.2353 108.369 75.8566 108.364 75.4594V43.7845C108.369 43.3873 108.499 43.0086 108.726 42.7314C108.954 42.4542 109.259 42.3012 109.576 42.3058H113.285C113.602 42.3012 113.908 42.4542 114.135 42.7314C114.362 43.0086 114.492 43.3873 114.497 43.7845V75.4594C114.492 75.8566 114.362 76.2353 114.135 76.5125C113.908 76.7896 113.602 76.9427 113.285 76.938Z" fill="#3F3D56"/>
<path d="M110.667 33.6557C112.573 35.7211 111.971 40.5008 111.971 40.5008C111.971 40.5008 108.279 41.9319 106.374 39.8665C104.468 37.8012 105.07 33.0215 105.07 33.0215C105.07 33.0215 108.761 31.5904 110.667 33.6557Z" fill="#3F3D56"/>
<path d="M116.997 39.4707C115.354 41.8633 111.535 41.1248 111.535 41.1248C111.535 41.1248 110.38 36.507 112.024 34.1144C113.667 31.7218 117.486 32.4604 117.486 32.4604C117.486 32.4604 118.641 37.0781 116.997 39.4707Z" fill="#3F3D56"/>
<path opacity="0.2" d="M125.764 44.7315V49.8725L97.0977 49.7207V44.7315C97.0979 44.329 97.2257 43.9431 97.453 43.6585C97.6803 43.3739 97.9885 43.2139 98.3099 43.2137H124.551C124.873 43.2139 125.181 43.3739 125.408 43.6585C125.636 43.9431 125.763 44.329 125.764 44.7315Z" fill="black"/>
<path d="M128.851 47.857C128.738 48.0437 128.591 48.1949 128.423 48.2987C128.255 48.4024 128.07 48.4559 127.883 48.4549L95.9367 48.2871C95.7775 48.2863 95.62 48.2462 95.4732 48.1691C95.3263 48.0921 95.1931 47.9796 95.081 47.838C94.9689 47.6965 94.8801 47.5287 94.8198 47.3442C94.7595 47.1598 94.7288 46.9623 94.7295 46.7629L94.7445 42.2987C94.7458 41.8962 94.8748 41.5109 95.103 41.2275C95.3312 40.944 95.64 40.7857 95.9615 40.7874H95.9618L127.908 40.9551C128.067 40.9559 128.224 40.996 128.371 41.073C128.518 41.1501 128.651 41.2626 128.763 41.4041C128.876 41.5456 128.964 41.7134 129.025 41.8979C129.085 42.0824 129.116 42.2799 129.115 42.4792L129.1 46.9434C129.099 47.2738 129.012 47.5947 128.851 47.857Z" fill="#FD7A33"/>
<path d="M108.442 40.4964L108.416 48.5319L114.549 48.5627L114.574 40.5272L108.442 40.4964Z" fill="#3F3D56"/>
<path d="M57.7831 42.7715H22.3213V46.3164H57.7831V42.7715Z" fill="#E5E5E5"/>
<path d="M77.0822 55.7017H22.3213V59.2466H77.0822V55.7017Z" fill="#FD7A33"/>
<path d="M66.95 67.8832H22.3213V71.4281H66.95V67.8832Z" fill="#E5E5E5"/>
<path d="M44.3792 153.421C45.7584 154.028 47.2393 154.18 48.6792 153.862C50.119 153.545 51.4692 152.768 52.5998 151.607C55.4791 148.581 56.382 143.598 57.1163 138.982L59.2889 125.329L54.7404 129.25C51.4692 132.07 48.1245 134.981 45.8598 139.065C43.595 143.15 42.607 148.726 44.4261 153.146" fill="#E6E6E6"/>
<path d="M45.0821 170.901C44.5096 165.679 43.9205 160.389 44.3231 155.11C44.6798 150.423 45.8221 145.845 48.1476 142.09C49.3819 140.101 50.8839 138.397 52.586 137.054C53.0297 136.703 53.4382 137.584 52.9964 137.933C50.0512 140.263 47.7732 143.704 46.4908 147.76C45.0745 152.271 44.8471 157.187 45.091 161.979C45.2385 164.876 45.5518 167.755 45.8665 170.63C45.8914 170.76 45.8759 170.897 45.8231 171.013C45.7704 171.129 45.6844 171.216 45.5825 171.256C45.4785 171.291 45.3677 171.273 45.2741 171.207C45.1804 171.14 45.1115 171.03 45.0823 170.9L45.0821 170.901Z" fill="#F2F2F2"/>
<path d="M49.2021 162.521C49.7936 163.647 50.6067 164.563 51.5631 165.182C52.5194 165.8 53.5869 166.099 54.6625 166.051C57.4274 165.887 59.7315 163.471 61.8054 161.178L67.941 154.395L63.8804 154.152C60.9602 153.977 57.9646 153.812 55.1832 154.941C52.4018 156.07 49.8367 158.782 49.3282 162.387" fill="#E6E6E6"/>
<path d="M43.4636 173.903C46.2198 167.797 49.4165 161.01 55.129 158.841C56.7172 158.24 58.3825 158.025 60.0353 158.207C60.5563 158.263 60.4262 159.269 59.9063 159.213C57.1357 158.925 54.3706 159.841 52.0762 161.806C49.8684 163.688 48.1493 166.304 46.6945 169.078C45.8032 170.777 45.0049 172.549 44.2066 174.318C43.9516 174.883 43.2056 174.475 43.4636 173.903Z" fill="#F2F2F2"/>
<path d="M73.5038 175.038H25.6904C25.5972 175.038 25.5078 174.992 25.4418 174.909C25.3759 174.827 25.3389 174.715 25.3389 174.598C25.3389 174.481 25.3759 174.369 25.4418 174.287C25.5078 174.204 25.5972 174.158 25.6904 174.158H73.5038C73.5971 174.158 73.6865 174.204 73.7524 174.287C73.8184 174.369 73.8554 174.481 73.8554 174.598C73.8554 174.715 73.8184 174.827 73.7524 174.909C73.6865 174.992 73.5971 175.038 73.5038 175.038Z" fill="#CBCBCB"/>
</g>
<defs>
<clipPath id="clip0_3741_2660">
<rect width="263" height="179" fill="white"/>
</clipPath>
</defs>
</svg>
