<svg width="300" height="203" viewBox="0 0 300 203" fill="none" xmlns="http://www.w3.org/2000/svg">
<g clip-path="url(#clip0_3704_2825)">
<path d="M252.167 203C278.585 203 300 201.387 300 199.396C300 197.406 278.585 195.793 252.167 195.793C225.75 195.793 204.334 197.406 204.334 199.396C204.334 201.387 225.75 203 252.167 203Z" fill="#E6E6E6"/>
<path d="M48.7213 55.91C48.7366 52.2423 45.6142 49.2422 41.949 49.2422H7.93936C4.33219 49.2422 1.21562 52.1927 1.17339 55.8021C1.16031 56.828 1.38549 57.8429 1.83119 58.7668C2.27689 59.6907 2.93093 60.4984 3.74176 61.1262C3.94961 61.2812 4.11317 61.4881 4.2161 61.7261C4.31903 61.9642 4.35772 62.2251 4.32831 62.4828C4.28886 62.7753 4.26907 63.0701 4.2691 63.3652V86.9062C4.2691 87.7727 4.43965 88.6307 4.77102 89.4313C5.10239 90.2319 5.58808 90.9593 6.20036 91.572C6.81265 92.1847 7.53954 92.6707 8.33953 93.0023C9.13952 93.3339 9.99694 93.5046 10.8628 93.5046H38.8103C40.559 93.5046 42.2362 92.8094 43.4727 91.572C44.7093 90.3345 45.404 88.6562 45.404 86.9062V63.3653C45.404 63.107 45.389 62.8489 45.359 62.5924C45.3324 62.3385 45.3741 62.082 45.4799 61.8496C45.5858 61.6173 45.7517 61.4175 45.9607 61.2709C46.8117 60.6595 47.5056 59.8547 47.9855 58.9228C48.4654 57.9909 48.7175 56.9583 48.7213 55.91Z" fill="#3F3D56"/>
<path d="M47.2478 55.2641C47.0782 53.9872 46.4479 52.8163 45.4755 51.9721C44.5032 51.1279 43.256 50.6686 41.9688 50.6807H7.92857C6.72522 50.67 5.55418 51.0702 4.60886 51.8154C3.66354 52.5606 3.00049 53.6062 2.7292 54.7794C2.49692 55.8577 2.61268 56.982 3.0598 57.9902C3.50693 58.9985 4.26233 59.8386 5.21719 60.3897C5.49285 60.5475 5.70827 60.7924 5.82958 61.0861C5.95089 61.3798 5.9712 61.7054 5.88731 62.0119C5.76651 62.4532 5.70552 62.9088 5.70596 63.3663V86.9051C5.70612 88.108 6.12604 89.2732 6.89322 90.1993C7.66041 91.1254 8.72668 91.7543 9.90791 91.9775C10.223 92.0363 10.5428 92.066 10.8633 92.0661H38.8107C39.2825 92.0668 39.7522 92.002 40.2062 91.8735C41.2881 91.5689 42.2409 90.9188 42.9196 90.0223C43.5982 89.1258 43.9656 88.032 43.9658 86.9073V63.3641C43.9659 62.9357 43.9124 62.5089 43.8066 62.0938C43.7778 61.9787 43.7629 61.8606 43.7624 61.7419C43.7626 61.4817 43.8335 61.2265 43.9675 61.0035C44.1015 60.7805 44.2936 60.5982 44.5232 60.476L44.5254 60.4738C45.4515 59.9818 46.2072 59.2209 46.6931 58.291C47.1791 57.3612 47.3724 56.306 47.2478 55.2641Z" fill="#FD7A33"/>
<path opacity="0.2" d="M43.9659 65.6193V63.4062H40.2063V50.6808H37.9947V63.4062H26.1629V50.6808H23.9514V63.4062H12.1196V50.6808H9.90801V63.4062H5.70605V65.6193H9.90801V72.2587H5.70605V74.4718H9.90801V81.1112H5.70605V83.3243H9.90801V91.9776C10.2231 92.0363 10.5429 92.066 10.8634 92.0661H12.1196V83.3242H23.9514V92.0661H26.1629V83.3242H37.9947V92.0661H38.8108C39.2826 92.0668 39.7523 92.002 40.2063 91.8735V83.3242H43.9659V81.1111H40.2063V74.4718H43.9659V72.2587H40.2063V65.6193H43.9659ZM12.1196 65.6193H23.9514V72.2587H12.1196V65.6193ZM12.1196 81.1111V74.4718H23.9514V81.1111H12.1196ZM37.9948 81.1111H26.1629V74.4718H37.9948V81.1111ZM37.9948 72.2587H26.1629V65.6193H37.9948V72.2587Z" fill="black"/>
<path d="M48.5665 0C48.5665 3.10391 47.9556 6.17743 46.7686 9.04507C45.5816 11.9127 43.8419 14.5183 41.6486 16.7131C39.4554 18.9079 36.8516 20.6489 33.986 21.8367C31.1204 23.0245 28.049 23.6359 24.9473 23.6359C21.8456 23.6359 18.7743 23.0245 15.9086 21.8367C13.043 20.6489 10.4393 18.9079 8.24603 16.7131C6.05278 14.5183 4.31301 11.9127 3.12603 9.04507C1.93905 6.17743 1.32812 3.10391 1.32812 0H48.5665Z" fill="#FD7A33"/>
<path d="M9.99296 4.19574C9.99296 4.81367 9.77396 5.3146 9.5038 5.3146C9.23364 5.3146 9.01465 4.81367 9.01465 4.19574C9.04434 3.77761 9.21708 3.38248 9.5038 3.07687C9.79052 3.38248 9.96327 3.77761 9.99296 4.19574Z" fill="#3F3D56"/>
<path d="M34.7303 8.11175C34.7303 8.72968 34.5113 9.23061 34.2411 9.23061C33.971 9.23061 33.752 8.72968 33.752 8.11175C33.7816 7.69362 33.9544 7.29849 34.2411 6.99289C34.5278 7.29849 34.7006 7.69362 34.7303 8.11175Z" fill="#3F3D56"/>
<path d="M16.5613 5.87402C16.5613 6.49194 16.3423 6.99288 16.0722 6.99288C15.802 6.99288 15.583 6.49194 15.583 5.87402C15.6127 5.45589 15.7855 5.06076 16.0722 4.75516C16.3589 5.06076 16.5316 5.45589 16.5613 5.87402Z" fill="#3F3D56"/>
<path d="M26.3445 14.685C26.3445 15.3029 26.1255 15.8039 25.8554 15.8039C25.5852 15.8039 25.3662 15.3029 25.3662 14.685C25.3959 14.2669 25.5686 13.8718 25.8554 13.5662C26.1421 13.8718 26.3148 14.2669 26.3445 14.685Z" fill="#3F3D56"/>
<path d="M15.8631 13.5662C15.8631 14.1841 15.6441 14.685 15.3739 14.685C15.1038 14.685 14.8848 14.1841 14.8848 13.5662C14.9145 13.148 15.0872 12.7529 15.3739 12.4473C15.6606 12.7529 15.8334 13.148 15.8631 13.5662Z" fill="#3F3D56"/>
<path d="M40.3201 3.07687C40.3201 3.6948 40.1011 4.19573 39.8309 4.19573C39.5608 4.19573 39.3418 3.6948 39.3418 3.07687C39.3715 2.65874 39.5442 2.26361 39.8309 1.95801C40.1177 2.26361 40.2904 2.65874 40.3201 3.07687Z" fill="#3F3D56"/>
<path d="M31.3758 16.9228C31.3758 17.5407 31.1568 18.0416 30.8866 18.0416C30.6165 18.0416 30.3975 17.5407 30.3975 16.9228C30.4272 16.5046 30.5999 16.1095 30.8866 15.8039C31.1733 16.1095 31.3461 16.5046 31.3758 16.9228Z" fill="#3F3D56"/>
<path d="M24.9469 24.9646C18.3329 24.9571 11.9919 22.3245 7.31505 17.6443C2.63822 12.9642 0.00748649 6.61871 0 0H2.65539C2.65539 2.92943 3.23198 5.83018 4.35223 8.53662C5.47249 11.2431 7.11446 13.7022 9.18442 15.7736C11.2544 17.845 13.7118 19.4882 16.4163 20.6092C19.1208 21.7303 22.0195 22.3073 24.9469 22.3073C27.8743 22.3073 30.7729 21.7303 33.4775 20.6092C36.182 19.4882 38.6394 17.845 40.7094 15.7736C42.7793 13.7022 44.4213 11.2431 45.5415 8.53662C46.6618 5.83018 47.2384 2.92943 47.2384 0H49.8938C49.8863 6.6187 47.2556 12.9642 42.5787 17.6443C37.9019 22.3245 31.5609 24.9571 24.9469 24.9646Z" fill="#3F3D56"/>
<path d="M82.4098 8.5705H74.5918V16.3941H82.4098V8.5705Z" fill="#3F3D56"/>
<path d="M159.026 12.0911H96.0908V12.8735H159.026V12.0911Z" fill="#3F3D56"/>
<path d="M82.4098 67.4616H74.5918V75.2852H82.4098V67.4616Z" fill="#3F3D56"/>
<path d="M159.026 70.9822H96.0908V71.7646H159.026V70.9822Z" fill="#3F3D56"/>
<path d="M82.4098 125.943H74.5918V133.767H82.4098V125.943Z" fill="#3F3D56"/>
<path d="M159.026 129.464H96.0908V130.246H159.026V129.464Z" fill="#3F3D56"/>
<path d="M247.177 53.7261L237.19 61.6033L216.028 54.1608C216.028 54.1608 208.833 46.0621 204.765 52.0942C203.371 54.16 212.498 57.9766 213.359 58.3313C215.512 59.218 236.132 70.5388 238.153 69.0536C240.174 67.5684 251.543 60.0562 251.543 60.0562L247.177 53.7261Z" fill="#A0616A"/>
<path d="M281.267 40.2885C271.802 36.7493 262.798 35.0747 255.498 40.2885V23.4612C255.498 21.768 255.831 20.0914 256.479 18.5271C257.126 16.9627 258.075 15.5414 259.272 14.3441C260.468 13.1468 261.889 12.1971 263.452 11.5491C265.015 10.9011 266.691 10.5676 268.383 10.5676C270.075 10.5676 271.75 10.9011 273.313 11.5491C274.876 12.1971 276.297 13.1468 277.493 14.3441C278.69 15.5414 279.639 16.9628 280.286 18.5271C280.934 20.0914 281.267 21.7681 281.267 23.4613L281.267 40.2885Z" fill="#2F2E41"/>
<path d="M257.484 77.048L256.711 82.4659C256.711 82.4659 254.777 88.2707 256.711 99.1064L225.58 184.05L248.59 190.629L259.998 144.191L276.046 108.781L274.5 149.028L266.379 191.984L290.355 191.016L297.342 117.36C298.471 105.719 296.454 93.9888 291.5 83.3961C289.561 79.277 287.477 76.0306 285.586 75.5593C279.914 74.1456 257.484 77.048 257.484 77.048Z" fill="#2F2E41"/>
<path d="M228.481 183.47L220.553 191.984C220.553 191.984 205.278 199.917 216.106 200.884C226.934 201.852 230.608 197.595 230.608 197.595C230.608 197.595 244.143 196.628 243.95 194.693C243.756 192.758 242.789 186.372 242.789 186.372L228.481 183.47Z" fill="#2F2E41"/>
<path d="M271.503 185.523V191.521C271.503 191.521 271.696 194.037 271.503 194.617C271.309 195.198 268.409 202.357 278.077 200.809C287.745 199.261 283.878 193.263 283.878 193.263L281.557 184.555L271.503 185.523Z" fill="#2F2E41"/>
<path d="M268.264 35.2533C273.63 35.2533 277.98 30.9001 277.98 25.5302C277.98 20.1603 273.63 15.8071 268.264 15.8071C262.898 15.8071 258.548 20.1603 258.548 25.5302C258.548 30.9001 262.898 35.2533 268.264 35.2533Z" fill="#A0616A"/>
<path d="M274.983 30.8996C274.983 30.8996 273.63 43.6703 274.983 45.9922C276.337 48.3141 261.255 43.6703 261.255 43.6703C261.255 43.6703 264.542 34.963 263.382 31.4801C262.222 27.9972 274.983 30.8996 274.983 30.8996Z" fill="#A0616A"/>
<path d="M282.717 67.6636L285.811 76.1773L257.001 79.4667C257.001 79.4667 253.907 78.8863 253.907 76.3708C253.907 73.8554 250.62 64.9547 250.62 64.9547C250.62 64.9547 242.569 58.425 238.702 56.6835C237.3 56.0527 239.397 56.3132 240.577 53.6352C240.931 52.8303 241.354 51.9809 241.816 51.1198C242.193 50.4136 242.599 49.6976 243.015 48.9914C243.52 48.1303 244.04 47.2828 244.545 46.476C246.072 44.036 247.466 41.9849 247.913 41.1549C249.266 38.6394 261.991 38.415 261.991 38.415C265.63 40.706 276.143 41.1549 276.143 41.1549C276.143 41.1549 283.375 44.183 286.387 46.476C286.606 46.6404 282.717 67.6636 282.717 67.6636Z" fill="#E6E6E6"/>
<path d="M276.463 13.858V13.6271L276.189 13.6424C274.631 12.4553 272.823 11.6388 270.903 11.2548C268.983 10.8709 267.001 10.9295 265.107 11.4264C266.923 11.9065 268.611 12.7794 270.053 13.9835L260.739 14.5012L256.809 23.2427H259.469L261.613 19.309V23.2427H270.61L271.222 20.1832L272.92 23.2427H274.688C274.699 23.4608 274.716 23.6774 274.716 23.8983L272.969 40.7256L281.267 37.229V23.8983C281.269 21.9715 280.838 20.0691 280.006 18.3313C279.175 16.5935 277.964 15.0648 276.463 13.858Z" fill="#2F2E41"/>
<path d="M289.484 58.3759L288.904 73.6619L287.357 103.267C287.357 103.267 289.484 116.037 284.07 115.844C278.656 115.65 282.717 100.751 282.717 100.751L281.17 77.3383L282.717 60.8913L289.484 58.3759Z" fill="#A0616A"/>
<path d="M291.032 66.6961C291.032 68.4376 281.268 67.9538 281.268 67.9538L276.144 41.1548C276.144 41.1548 283.375 44.183 286.388 46.4759C287.097 47.2119 287.677 48.0623 288.103 48.9914C288.333 49.6125 288.551 50.3323 288.758 51.1198C288.963 51.9015 289.155 52.751 289.334 53.6352C290.178 57.9481 290.745 62.3107 291.032 66.6961Z" fill="#E6E6E6"/>
<path d="M24.6842 128.863L9.88389 127.33C9.99762 126.543 9.91031 125.741 9.63011 124.997C9.34991 124.254 8.88597 123.593 8.28161 123.078C7.67726 122.562 6.9522 122.209 6.17418 122.05C5.39615 121.891 4.59054 121.931 3.83258 122.168C3.07461 122.405 2.38903 122.831 1.83987 123.405C1.2907 123.979 0.89587 124.683 0.692249 125.451C0.488627 126.219 0.482864 127.026 0.675488 127.797C0.868112 128.568 1.25284 129.277 1.79375 129.859C1.24418 130.453 0.857088 131.179 0.669917 131.967C0.482746 132.754 0.501827 133.577 0.725317 134.355C0.948807 135.133 1.36914 135.84 1.94566 136.408C2.52218 136.975 3.23539 137.385 4.01628 137.596C4.79718 137.807 5.61934 137.813 6.40325 137.614C7.18717 137.414 7.90629 137.015 8.49108 136.456C9.07587 135.896 9.50653 135.195 9.7414 134.421C9.97628 133.646 10.0074 132.824 9.83182 132.034L24.6842 130.668V128.863Z" fill="#CCCCCC"/>
<path d="M39.7339 139.043C45.5522 140.474 51.4135 136.345 51.7168 130.357C51.7253 130.19 51.7295 130.023 51.7295 129.855C51.7295 129.687 51.7253 129.52 51.7168 129.354C51.4135 123.366 45.5522 119.236 39.7339 120.668L19.9955 125.525C19.4269 125.524 18.8638 125.636 18.3383 125.853C17.8128 126.071 17.3352 126.389 16.933 126.792C16.5307 127.194 16.2116 127.671 15.9939 128.197C15.7761 128.723 15.6641 129.286 15.6641 129.855C15.6641 130.424 15.7761 130.988 15.9939 131.513C16.2116 132.039 16.5307 132.516 16.933 132.919C17.3352 133.321 17.8128 133.64 18.3383 133.857C18.8638 134.074 19.4269 134.186 19.9955 134.186L39.7339 139.043Z" fill="#FD7A33"/>
</g>
<defs>
<clipPath id="clip0_3704_2825">
<rect width="300" height="203" fill="white"/>
</clipPath>
</defs>
</svg>
