<svg width="285" height="213" viewBox="0 0 285 213" fill="none" xmlns="http://www.w3.org/2000/svg">
<g clip-path="url(#clip0_3704_2642)">
<path d="M83.5115 178.028L83.4812 173.144L83.0323 100.691L83.0155 97.9799L82.7685 58.103C79.0604 55.8641 75.1889 53.8844 71.1841 52.1794C55.4943 45.5143 36.8387 42.7659 21.3912 49.9295C13.1443 53.9023 6.7641 60.7144 3.52576 69.0041C3.43457 69.2232 3.35045 69.4354 3.27345 69.6476C0.697177 76.6968 0.716142 84.3527 4.48766 90.9628C11.2393 102.842 26.3382 107.229 39.7487 111.422C53.1521 115.614 68.017 122.44 71.3591 135.582C68.5442 132.263 64.8589 129.723 60.6818 128.223C56.5047 126.722 51.9865 126.316 47.5915 127.045C43.1965 127.775 39.0833 129.614 35.6745 132.373C32.2658 135.133 29.6844 138.713 28.1958 142.747C27.9506 143.404 27.7269 144.067 27.5318 144.738C27.065 146.349 26.784 148.004 26.6938 149.674C26.0394 162.415 36.2197 173.831 48.2989 179.178C59.2215 184.005 71.4797 184.926 83.5571 185.39L83.5115 178.028Z" fill="#F0F0F0"/>
<path d="M83.481 173.144L83.5112 178.027C80.8066 171.377 76.7248 165.321 71.5123 160.225C66.2998 155.13 60.0647 151.101 53.1837 148.382C45.0514 145.246 36.2619 143.997 27.5312 144.738C27.7266 144.067 27.9502 143.404 28.1954 142.747C31.5873 142.515 34.9938 142.565 38.3769 142.894C50.4507 144.073 61.8084 148.948 70.7709 156.798C76.0253 161.446 80.335 166.988 83.481 173.144Z" fill="white"/>
<path d="M83.0157 97.98L83.0326 100.691C80.2015 98.0745 77.148 95.6887 73.9038 93.5585C63.8241 86.9024 52.4377 81.8724 40.8808 78.1068C29.0361 74.228 16.7411 71.7545 4.26995 70.7415C3.9892 70.7168 3.72911 70.5894 3.54359 70.3858C3.35807 70.1821 3.26135 69.9178 3.27348 69.6476C3.26573 69.4096 3.35639 69.1783 3.52569 69.0042C3.61432 68.923 3.72166 68.863 3.83899 68.8291C3.95633 68.7952 4.08035 68.7883 4.20097 68.8091C5.73962 68.9301 7.27108 69.0648 8.80967 69.2336C21.5757 70.6157 34.1131 73.5152 46.1333 77.8652C57.7356 82.0471 69.2098 87.4454 79.0159 94.7792C80.3964 95.7889 81.7344 96.8536 83.0157 97.98Z" fill="white"/>
<path d="M16.3106 37.7181C18.6698 37.7181 20.5822 35.8835 20.5822 33.6204C20.5822 31.3573 18.6698 29.5227 16.3106 29.5227C13.9515 29.5227 12.0391 31.3573 12.0391 33.6204C12.0391 35.8835 13.9515 37.7181 16.3106 37.7181Z" fill="#F0F0F0"/>
<path d="M191.426 50.6168H190.206V18.5559C190.206 16.1191 189.706 13.7062 188.734 11.4549C187.762 9.20358 186.337 7.15799 184.541 5.43491C182.745 3.71184 180.612 2.34502 178.265 1.41249C175.919 0.479967 173.403 2.10702e-06 170.863 0H100.056C94.926 -5.10637e-06 90.006 1.95498 86.3784 5.43489C82.7509 8.91479 80.7129 13.6345 80.7129 18.5559V194.444C80.7129 199.365 82.7508 204.085 86.3784 207.565C90.0059 211.045 94.9259 213 100.056 213H170.863C175.993 213 180.913 211.045 184.541 207.565C188.168 204.085 190.206 199.365 190.206 194.444V73.4382H191.426V50.6168Z" fill="#3F3D56"/>
<path d="M186.089 18.6856V194.317C186.089 194.573 186.083 194.827 186.066 195.08C185.863 198.618 184.255 201.947 181.572 204.382C178.889 206.818 175.336 208.174 171.642 208.173H100.496C96.7932 208.174 93.2319 206.81 90.5475 204.364C87.8631 201.918 86.2609 198.576 86.0718 195.029C86.0585 194.795 86.0518 194.557 86.0518 194.317V18.6856C86.0514 15.0103 87.5729 11.4854 90.2816 8.88629C92.9904 6.28717 96.6645 4.82673 100.496 4.82623H109.129C108.704 5.82585 108.542 6.9104 108.657 7.98437C108.771 9.05834 109.16 10.0888 109.787 10.985C110.415 11.8811 111.262 12.6155 112.255 13.1235C113.248 13.6314 114.356 13.8974 115.482 13.8979H156.047C157.173 13.8973 158.281 13.6313 159.274 13.1233C160.267 12.6153 161.114 11.8809 161.742 10.9848C162.369 10.0886 162.757 9.05823 162.872 7.9843C162.987 6.91036 162.825 5.82584 162.4 4.82623H171.642C175.474 4.8266 179.148 6.2869 181.857 8.88595C184.567 11.485 186.089 15.01 186.089 18.6856Z" fill="white"/>
<path d="M184.775 151.14H87.3631C87.0209 151.14 86.6928 151.01 86.4508 150.777C86.2088 150.545 86.0727 150.231 86.0723 149.902V35.256C86.0727 34.9278 86.2088 34.6131 86.4508 34.381C86.6928 34.1489 87.0209 34.0183 87.3631 34.018H184.775C185.117 34.0183 185.446 34.1489 185.688 34.381C185.93 34.6131 186.066 34.9278 186.066 35.256V149.902C186.066 150.231 185.93 150.545 185.688 150.777C185.446 151.01 185.117 151.14 184.775 151.14Z" fill="#F0F0F0"/>
<path d="M177.626 42.0177H94.712C94.3697 42.0179 94.0414 42.1485 93.7993 42.3807C93.5572 42.613 93.4211 42.9279 93.4209 43.2563V126.095C93.4218 126.423 93.5582 126.737 93.8003 126.969C94.0423 127.2 94.3702 127.33 94.712 127.33H177.626C177.968 127.33 178.296 127.2 178.538 126.969C178.78 126.737 178.917 126.423 178.918 126.095V43.2563C178.917 42.9279 178.781 42.6129 178.539 42.3807C178.297 42.1485 177.969 42.0179 177.626 42.0177Z" fill="white"/>
<path d="M93.2738 29.843C95.1212 29.843 96.6189 28.4063 96.6189 26.6341C96.6189 24.8619 95.1212 23.4252 93.2738 23.4252C91.4263 23.4252 89.9287 24.8619 89.9287 26.6341C89.9287 28.4063 91.4263 29.843 93.2738 29.843Z" fill="#FD7A33"/>
<path d="M109.184 131.415C103.472 122.59 105.44 111.315 106.402 100.968C107.838 85.4445 106.542 69.7996 102.568 54.6882C107.301 59.7584 110.424 66.0213 111.569 72.7381C112.512 78.3391 112.046 84.1015 113.114 89.6817C115.405 101.647 124.628 112.439 123.201 124.527C122.885 127.199 121.824 130.073 119.351 131.339C116.56 132.768 113.152 131.631 110.224 130.481" fill="#F0F0F0"/>
<path d="M99.5442 135.078C98.9187 134.475 98.069 134.135 97.1822 134.133C96.2954 134.131 95.444 134.467 94.8154 135.067C94.1867 135.667 93.8323 136.482 93.8301 137.333C93.8279 138.183 94.178 139 94.8035 139.603L94.815 139.614L99.5442 144.15L104.273 139.614C104.898 139.012 105.248 138.197 105.246 137.348C105.245 136.498 104.893 135.684 104.267 135.084C103.641 134.483 102.792 134.145 101.907 134.144C101.021 134.143 100.172 134.479 99.5442 135.078Z" fill="#FD7A33"/>
<path d="M114.263 135.078C113.637 134.475 112.788 134.135 111.901 134.133C111.014 134.131 110.163 134.467 109.534 135.067C108.905 135.667 108.551 136.482 108.549 137.333C108.547 138.183 108.897 139 109.522 139.603L109.534 139.614L114.263 144.15L118.992 139.614C119.616 139.012 119.966 138.197 119.965 137.348C119.964 136.498 119.612 135.684 118.985 135.084C118.359 134.483 117.511 134.145 116.625 134.144C115.74 134.143 114.89 134.479 114.263 135.078Z" fill="#FD7A33"/>
<path d="M128.981 135.078C128.355 134.475 127.506 134.135 126.619 134.133C125.732 134.131 124.881 134.467 124.252 135.067C123.623 135.667 123.269 136.482 123.267 137.333C123.264 138.183 123.615 139 124.24 139.603L124.252 139.614L128.981 144.15L133.71 139.614C134.334 139.012 134.684 138.197 134.683 137.348C134.682 136.498 134.329 135.684 133.703 135.084C133.077 134.483 132.228 134.145 131.343 134.144C130.458 134.143 129.608 134.479 128.981 135.078Z" fill="#FD7A33"/>
<path d="M154.979 29.1507H107.809C107.47 29.151 107.134 29.0873 106.82 28.963C106.507 28.8387 106.222 28.6564 105.982 28.4264C105.742 28.1965 105.551 27.9234 105.421 27.6228C105.291 27.3222 105.225 26.9999 105.225 26.6745C105.225 26.3491 105.291 26.0269 105.421 25.7263C105.551 25.4257 105.742 25.1526 105.982 24.9226C106.222 24.6927 106.507 24.5103 106.82 24.3861C107.134 24.2618 107.47 24.198 107.809 24.1984H154.979C155.318 24.198 155.654 24.2618 155.968 24.3861C156.281 24.5103 156.566 24.6927 156.806 24.9226C157.046 25.1526 157.237 25.4257 157.367 25.7263C157.496 26.0269 157.563 26.3491 157.563 26.6745C157.563 26.9999 157.496 27.3222 157.367 27.6228C157.237 27.9234 157.046 28.1965 156.806 28.4264C156.566 28.6564 156.281 28.8387 155.968 28.963C155.654 29.0873 155.318 29.151 154.979 29.1507Z" fill="#FD7A33"/>
<path d="M184.774 172.643H87.3624C87.0201 172.644 86.6918 172.774 86.4497 173.007C86.2076 173.239 86.0715 173.554 86.0713 173.882V195.029C86.2603 198.576 87.8626 201.918 90.547 204.364C93.2313 206.81 96.7927 208.174 100.495 208.173H171.642C175.335 208.174 178.889 206.818 181.572 204.382C184.255 201.947 185.863 198.618 186.065 195.08V173.882C186.065 173.554 185.929 173.239 185.687 173.007C185.445 172.774 185.117 172.644 184.774 172.643Z" fill="#F0F0F0"/>
<path d="M177.626 180.643H94.712C94.3697 180.644 94.0414 180.774 93.7993 181.006C93.5572 181.239 93.4211 181.554 93.4209 181.882V206.398C95.5802 207.565 98.0174 208.176 100.496 208.173H171.642C174.199 208.176 176.71 207.526 178.918 206.289V181.882C178.917 181.553 178.781 181.239 178.539 181.006C178.297 180.774 177.969 180.644 177.626 180.643Z" fill="white"/>
<path d="M93.2738 168.469C95.1212 168.469 96.6189 167.032 96.6189 165.26C96.6189 163.488 95.1212 162.051 93.2738 162.051C91.4263 162.051 89.9287 163.488 89.9287 165.26C89.9287 167.032 91.4263 168.469 93.2738 168.469Z" fill="#E4E4E4"/>
<path d="M154.979 167.776H107.809C107.47 167.777 107.134 167.713 106.82 167.589C106.507 167.464 106.222 167.282 105.982 167.052C105.742 166.822 105.551 166.549 105.421 166.248C105.291 165.948 105.225 165.626 105.225 165.3C105.225 164.975 105.291 164.653 105.421 164.352C105.551 164.051 105.742 163.778 105.982 163.548C106.222 163.318 106.507 163.136 106.82 163.012C107.134 162.887 107.47 162.824 107.809 162.824H154.979C155.318 162.824 155.654 162.887 155.968 163.012C156.281 163.136 156.566 163.318 156.806 163.548C157.046 163.778 157.237 164.051 157.367 164.352C157.496 164.653 157.563 164.975 157.563 165.3C157.563 165.626 157.496 165.948 157.367 166.248C157.237 166.549 157.046 166.822 156.806 167.052C156.566 167.282 156.281 167.464 155.968 167.589C155.654 167.713 155.318 167.777 154.979 167.776Z" fill="#E4E4E4"/>
<path d="M128.317 208.173H103.808C106.303 203.462 110.909 199.624 116.338 199.422C117.156 199.393 117.975 199.451 118.78 199.595C119.118 199.653 119.449 199.73 119.78 199.813C121.863 200.327 123.759 201.378 125.264 202.851C126.768 204.325 127.824 206.165 128.317 208.173Z" fill="#F2F2F2"/>
<path d="M167.517 208.173H134.237C134.749 206.708 135.183 205.219 135.539 203.712C137.034 197.516 138.556 190.559 144.072 187.036C147.143 185.072 150.879 184.751 154.421 185.617C154.529 185.643 154.639 185.672 154.746 185.704C158.924 186.816 162.511 189.4 164.788 192.94C167.608 197.477 168.237 202.875 167.517 208.173Z" fill="#F2F2F2"/>
<path d="M120.124 204.389C120.108 205.657 119.991 206.922 119.773 208.173H118.816C119.319 205.333 119.307 202.431 118.779 199.595C119.117 199.653 119.448 199.73 119.78 199.813C120.033 201.326 120.148 202.857 120.124 204.389Z" fill="white"/>
<path d="M154.87 185.999C154.873 186.692 154.87 187.389 154.85 188.085C154.702 193.874 153.803 199.622 152.174 205.198C151.886 206.193 151.575 207.184 151.24 208.173H150.257C150.859 206.414 151.384 204.633 151.839 202.849C153.246 197.373 153.947 191.752 153.926 186.111C153.927 185.984 153.979 185.861 154.071 185.769C154.163 185.677 154.289 185.623 154.421 185.617C154.537 185.605 154.653 185.636 154.746 185.704C154.789 185.74 154.823 185.786 154.844 185.837C154.866 185.889 154.874 185.944 154.87 185.999Z" fill="white"/>
<path d="M172.536 191.915C173.645 191.915 174.543 191.053 174.543 189.99C174.543 188.926 173.645 188.064 172.536 188.064C171.428 188.064 170.529 188.926 170.529 189.99C170.529 191.053 171.428 191.915 172.536 191.915Z" fill="#F2F2F2"/>
<path d="M124.428 51.4063C125.536 51.4063 126.435 50.5443 126.435 49.4809C126.435 48.4176 125.536 47.5556 124.428 47.5556C123.319 47.5556 122.421 48.4176 122.421 49.4809C122.421 50.5443 123.319 51.4063 124.428 51.4063Z" fill="#FD7A33"/>
<path d="M161.558 62.6375C162.666 62.6375 163.565 61.7755 163.565 60.7122C163.565 59.6488 162.666 58.7868 161.558 58.7868C160.449 58.7868 159.551 59.6488 159.551 60.7122C159.551 61.7755 160.449 62.6375 161.558 62.6375Z" fill="#E4E4E4"/>
<path d="M160.554 101.786C161.662 101.786 162.561 100.924 162.561 99.8611C162.561 98.7977 161.662 97.9357 160.554 97.9357C159.445 97.9357 158.547 98.7977 158.547 99.8611C158.547 100.924 159.445 101.786 160.554 101.786Z" fill="#E4E4E4"/>
<path d="M151.671 120.136L150.313 115.964C150.08 114.993 149.784 114.037 149.427 113.102C147.895 108.661 144.53 99.7046 140.566 90.3474L135.903 85.8741L134.612 85.0655L133.391 84.3049L132.865 84.7702L127.858 89.205L127.821 89.497L124.55 116.17C124.55 116.17 124.54 116.243 124.523 116.388C124.486 116.699 124.409 117.334 124.309 118.243C124.118 119.95 123.81 122.931 123.506 126.688H153.802L151.671 120.136Z" fill="#3F3D56"/>
<path opacity="0.2" d="M130.202 101.165L128.931 108.775L137.535 112.18L130.202 101.165Z" fill="black"/>
<path d="M145.607 67.1147C144.044 65.4766 142.001 64.33 139.746 63.8252C137.491 63.3204 135.13 63.4809 132.972 64.2858C130.814 65.0907 128.96 66.5023 127.653 68.3356C126.346 70.1689 125.647 72.3383 125.647 74.5594V82.7839C125.648 83.177 125.81 83.554 126.1 83.832C126.39 84.11 126.783 84.2663 127.193 84.2664H147.086C147.495 84.2656 147.887 84.109 148.177 83.8311C148.466 83.5532 148.628 83.1766 148.628 82.7839V74.5594C148.629 71.8024 147.551 69.1455 145.607 67.1147Z" fill="#2F2E41"/>
<path d="M139.334 83.7695C143.986 83.7695 147.758 80.1515 147.758 75.6884C147.758 71.2254 143.986 67.6074 139.334 67.6074C134.682 67.6074 130.91 71.2254 130.91 75.6884C130.91 80.1515 134.682 83.7695 139.334 83.7695Z" fill="#FFB8B8"/>
<path d="M145.607 67.1147C144.542 66.7065 143.406 66.4974 142.259 66.4986H140.543C139.098 66.4988 137.674 66.8299 136.389 67.4645C135.104 68.0991 133.996 69.0189 133.157 70.1472C133.1 70.2177 133.05 70.2916 132.999 70.3622C131.99 71.7958 131.451 73.4871 131.454 75.2173V75.3809H135.077L136.314 72.0597L136.562 75.3809H138.435L139.057 73.7059L139.181 75.3809C143.099 76.7697 147.163 76.6808 151.347 75.3809V75.2173C151.345 73.4708 150.797 71.7651 149.774 70.3206C148.751 68.8761 147.299 67.7594 145.607 67.1147Z" fill="#2F2E41"/>
<path d="M140.476 83.6952C140.469 83.6765 140.46 83.6583 140.449 83.6407C139.315 81.5677 137.894 78.3941 137.813 75.3809C137.767 73.5807 138.201 71.8351 139.466 70.4199L139.707 70.1472H129.902V84.2696L132.866 84.7702L134.612 85.0655L138.81 85.7778C138.901 85.7933 138.993 85.8008 139.085 85.8003C139.327 85.8001 139.567 85.7447 139.783 85.6387C139.999 85.5328 140.186 85.3792 140.329 85.1906C140.535 84.9243 140.639 84.5978 140.623 84.2664C140.617 84.0682 140.567 83.8735 140.476 83.6952Z" fill="#2F2E41"/>
<path opacity="0.2" d="M124.755 115.799C126.997 118.289 130.038 119.994 133.4 120.646C136.762 121.298 140.255 120.86 143.329 119.4L145.163 118.53L124.755 115.799Z" fill="black"/>
<path d="M219.756 140.131C219.783 139.576 219.937 139.034 220.206 138.543C220.476 138.051 220.855 137.622 221.316 137.286C221.776 136.95 222.309 136.715 222.874 136.598C223.44 136.48 224.026 136.483 224.591 136.607L229.828 129.527L235.089 131.53L227.547 141.429C227.268 142.325 226.656 143.092 225.828 143.584C224.999 144.076 224.011 144.26 223.05 144.1C222.09 143.94 221.224 143.448 220.617 142.716C220.01 141.985 219.703 141.065 219.756 140.131Z" fill="#A0616A"/>
<path d="M225.5 134.042L234.811 119.02L231.018 109.315L236.184 96.0975L236.375 96.1759C236.5 96.2272 239.436 97.484 239.871 101.985L245.808 119.886L229.962 139.607L225.5 134.042Z" fill="#3F3D56"/>
<path d="M174.93 78.8137C175.505 78.8828 176.056 79.0719 176.546 79.3677C177.037 79.6634 177.453 80.0586 177.767 80.5255C178.08 80.9924 178.283 81.5195 178.361 82.0698C178.44 82.6201 178.391 83.1802 178.219 83.7105L185.173 89.2668L182.684 94.1439L172.979 86.1651C172.069 85.8292 171.32 85.1848 170.872 84.3541C170.425 83.5235 170.31 82.5642 170.551 81.658C170.791 80.7518 171.37 79.9618 172.177 79.4376C172.984 78.9134 173.964 78.6914 174.93 78.8137Z" fill="#A0616A"/>
<path d="M180.814 84.7791L195.708 94.8462L206.087 91.9682L219.425 97.9317L219.328 98.1079C219.265 98.2234 217.732 100.934 213.021 101.002L193.957 105.297L174.687 88.6164L180.814 84.7791Z" fill="#3F3D56"/>
<path d="M208.067 207.199L202.889 207.199L200.426 188.041L208.068 188.041L208.067 207.199Z" fill="#A0616A"/>
<path d="M197.626 205.78H209.176V211.811H192.903V210.311C192.903 209.109 193.401 207.957 194.287 207.107C195.172 206.257 196.374 205.78 197.626 205.78Z" fill="#2F2E41"/>
<path d="M228.761 207.199L223.583 207.199L221.12 188.041L228.762 188.041L228.761 207.199Z" fill="#A0616A"/>
<path d="M218.321 205.78H229.87V211.811H213.598V210.311C213.598 209.109 214.095 207.957 214.981 207.107C215.867 206.257 217.068 205.78 218.321 205.78Z" fill="#2F2E41"/>
<path d="M230.602 137.27L230.18 165.63L229.757 202.903L220.466 202.092L215.82 150.639L209.908 202.092H200.316L199.35 150.234L202.728 138.89L230.602 137.27Z" fill="#2F2E41"/>
<path d="M201.802 139.063L200.387 139.005L206.961 104.26L204.269 93.7583C204.13 93.2119 204.203 92.6353 204.477 92.1377C204.751 91.6401 205.205 91.256 205.754 91.0584L210.598 89.3161L212.309 84.8018L225.81 86.1974L226.142 89.7254C227.605 90.1755 239.652 94.0245 238.821 98.4101C238.001 102.739 233.156 116.358 232.91 117.048L232.062 136.579L231.958 136.629C231.832 136.689 222.526 141.079 212.417 141.078C208.857 141.078 205.195 140.533 201.802 139.063Z" fill="#3F3D56"/>
<path d="M227.059 77.7156C229.634 73.1966 227.903 67.5307 223.193 65.0604C218.482 62.5901 212.576 64.2509 210 68.7699C207.425 73.2888 209.157 78.9547 213.867 81.425C218.578 83.8953 224.484 82.2345 227.059 77.7156Z" fill="#A0616A"/>
<path d="M226.404 82.2696C224.551 84.1627 221.111 83.1465 220.869 80.5603C220.85 80.3595 220.852 80.1575 220.874 79.9569C220.998 78.8114 221.688 77.7714 221.523 76.5618C221.485 76.2608 221.368 75.9739 221.183 75.7284C219.707 73.832 216.242 76.5765 214.848 74.8598C213.994 73.8072 214.998 72.1499 214.343 70.9734C213.477 69.4206 210.915 70.1866 209.308 69.3362C207.519 68.39 207.626 65.7581 208.803 64.1573C210.239 62.205 212.756 61.1633 215.241 61.0131C217.727 60.863 220.195 61.5076 222.516 62.3751C225.152 63.3607 227.767 64.7229 229.389 66.9469C231.362 69.6514 231.552 73.2875 230.565 76.4499C229.965 78.3737 227.916 80.7238 226.404 82.2696Z" fill="#2F2E41"/>
<path d="M284.665 212.431H0.334507C0.24579 212.431 0.160707 212.397 0.0979746 212.337C0.0352424 212.277 0 212.195 0 212.11C0 212.025 0.0352424 211.943 0.0979746 211.883C0.160707 211.823 0.24579 211.789 0.334507 211.789H284.665C284.754 211.789 284.839 211.823 284.902 211.883C284.965 211.943 285 212.025 285 212.11C285 212.195 284.965 212.277 284.902 212.337C284.839 212.397 284.754 212.431 284.665 212.431Z" fill="#3F3D56"/>
<path d="M155.882 119.385H150.673C150.506 119.386 150.344 119.326 150.221 119.219C150.097 119.111 150.019 118.963 150.004 118.803L148.961 108.55H157.594L156.551 118.803C156.536 118.963 156.458 119.111 156.335 119.219C156.211 119.326 156.049 119.386 155.882 119.385Z" fill="#FD7A33"/>
<path d="M157.581 109.84H148.975C148.797 109.84 148.626 109.772 148.5 109.651C148.374 109.53 148.303 109.366 148.303 109.195V107.647C148.303 107.476 148.374 107.312 148.5 107.191C148.626 107.07 148.797 107.002 148.975 107.002H157.581C157.759 107.002 157.93 107.07 158.056 107.191C158.182 107.312 158.253 107.476 158.253 107.647V109.195C158.253 109.366 158.182 109.53 158.056 109.651C157.93 109.772 157.759 109.84 157.581 109.84Z" fill="#3F3D56"/>
<path d="M154.067 113.938C153.691 113.533 153.228 113.212 152.708 112.998C152.189 112.783 151.628 112.681 151.063 112.697C150.498 112.713 149.944 112.848 149.439 113.093C148.934 113.337 148.492 113.684 148.142 114.11L139.636 111.819L136.925 116.438L148.983 119.511C149.768 120.027 150.723 120.249 151.667 120.135C152.611 120.02 153.479 119.578 154.106 118.891C154.732 118.204 155.074 117.32 155.067 116.408C155.06 115.495 154.704 114.616 154.067 113.938Z" fill="#FFB8B8"/>
<path d="M140.238 111.433L136.201 108.966L135.05 108.446L129.848 106.094C130.002 105.587 130.444 104.072 130.862 102.153C131.839 97.6637 132.672 90.9603 129.31 89.7858C128.833 89.613 128.331 89.5155 127.821 89.497C127.14 89.4731 126.464 89.6214 125.861 89.927C123.342 91.1881 122.342 94.7372 122.305 94.8687L119.191 103.068C118.903 103.446 115.943 107.38 116.421 110.294C116.481 110.713 116.631 111.115 116.862 111.475C117.092 111.835 117.398 112.145 117.759 112.386C119.915 113.868 122.175 115.205 124.523 116.388C125.068 116.657 125.601 116.907 126.122 117.135C129.039 118.413 131.611 119.064 133.772 119.064C134.479 119.069 135.183 118.991 135.869 118.83L144.262 118.647L144.316 118.416L144.336 118.326L145.45 113.384L145.764 111.985L140.238 111.433Z" fill="#3F3D56"/>
</g>
<defs>
<clipPath id="clip0_3704_2642">
<rect width="285" height="213" fill="white"/>
</clipPath>
</defs>
</svg>
