<svg width="181" height="232" viewBox="0 0 181 232" fill="none" xmlns="http://www.w3.org/2000/svg">
<g clip-path="url(#clip0_3741_2313)">
<path d="M2.00473 175.99C0.746475 177.285 0.0262776 179.049 0.000704905 180.898C-0.0248678 182.747 0.64625 184.531 1.86816 185.864L42.9357 229.864C43.5505 230.531 44.2858 231.064 45.0986 231.431C45.9115 231.797 46.7857 231.991 47.6705 232C48.5553 232.009 49.433 231.833 50.2524 231.483C51.0719 231.133 51.8168 230.615 52.4438 229.96L179.035 95.1932C179.74 94.4569 180.279 93.5646 180.612 92.5817C180.946 91.5988 181.066 90.55 180.964 89.5121C180.862 88.4742 180.54 87.4734 180.021 86.5829C179.503 85.6924 178.802 84.9346 177.968 84.3651L130.876 51.6084C129.607 50.7324 128.09 50.3397 126.579 50.4958C125.067 50.6519 123.652 51.3473 122.571 52.466L2.00473 175.99Z" fill="#3F3D56"/>
<path d="M171.614 89.9827L166.364 86.4708C166.917 87.5047 167.12 88.7045 166.94 89.8749C166.76 91.0453 166.208 92.1173 165.373 92.9163C164.538 93.7153 163.47 94.1942 162.343 94.275C161.215 94.3558 160.095 94.0338 159.164 93.3614L125.189 68.8565C124.417 68.3004 123.809 67.5278 123.435 66.6269C123.061 65.7259 122.936 64.7329 123.074 63.7608C123.211 62.7888 123.607 61.8769 124.214 61.1292C124.822 60.3814 125.618 59.8278 126.511 59.5315L123.806 57.7222C123.455 57.4874 123.038 57.386 122.625 57.4347C122.211 57.4835 121.826 57.6795 121.533 57.9902L7.23832 175.826C7.06779 176.007 6.9335 176.222 6.84332 176.459C6.75313 176.695 6.70888 176.948 6.71318 177.202C6.71747 177.457 6.77021 177.708 6.8683 177.941C6.9664 178.173 7.10786 178.383 7.28438 178.558L48.7934 220.99C49.1375 221.33 49.5944 221.517 50.0673 221.51C50.5402 221.503 50.992 221.303 51.3269 220.953L171.921 92.9452C172.114 92.7432 172.261 92.4983 172.352 92.2286C172.443 91.9589 172.475 91.6712 172.445 91.3868C172.416 91.1024 172.326 90.8286 172.182 90.5855C172.038 90.3425 171.844 90.1365 171.614 89.9827Z" fill="white"/>
<path d="M39.7002 149.807L74.7622 184.489L158.16 98.0468L115.835 69.1454L39.7002 149.807Z" fill="#E6E6E6"/>
<path d="M154.918 119.38C155.149 119.612 155.457 119.741 155.776 119.741C156.096 119.741 156.403 119.612 156.634 119.38L163.927 111.729C164.154 111.49 164.282 111.166 164.282 110.829C164.282 110.491 164.154 110.168 163.927 109.929C163.696 109.697 163.389 109.568 163.069 109.568C162.75 109.568 162.442 109.697 162.211 109.929L154.918 117.58C154.691 117.819 154.563 118.143 154.563 118.48C154.563 118.817 154.691 119.141 154.918 119.38Z" fill="#3F3D56"/>
<path d="M142.633 132.269C142.861 132.507 143.169 132.641 143.491 132.641C143.813 132.641 144.121 132.507 144.349 132.269L151.642 124.618C151.755 124.5 151.845 124.359 151.906 124.205C151.967 124.05 151.998 123.885 151.998 123.718C151.998 123.55 151.967 123.385 151.906 123.23C151.845 123.076 151.756 122.935 151.643 122.817C151.53 122.699 151.396 122.605 151.249 122.541C151.102 122.477 150.944 122.444 150.784 122.444C150.625 122.444 150.467 122.477 150.32 122.541C150.173 122.605 150.039 122.699 149.926 122.818L142.633 130.469C142.406 130.708 142.278 131.032 142.278 131.369C142.278 131.706 142.406 132.03 142.633 132.269Z" fill="#3F3D56"/>
<path d="M40.5098 188.169C45.0332 188.169 48.7002 184.322 48.7002 179.576C48.7002 174.831 45.0332 170.984 40.5098 170.984C35.9863 170.984 32.3193 174.831 32.3193 179.576C32.3193 184.322 35.9863 188.169 40.5098 188.169Z" fill="#FD7A33"/>
<path d="M86.7704 151.253C99.2518 151.253 109.37 145.482 109.37 138.364C109.37 131.245 99.2518 125.475 86.7704 125.475C74.289 125.475 64.1709 131.245 64.1709 138.364C64.1709 145.482 74.289 151.253 86.7704 151.253Z" fill="white"/>
<path d="M57.6382 26.6237L57.3681 29.1975L57.2091 30.7205L56.427 38.1699C56.427 38.1699 55.8308 39.3315 54.7646 40.96C52.9913 43.6665 49.9097 47.6622 46.0856 49.7651C39.9577 53.1337 37.541 28.9404 37.541 28.9404C37.541 28.9404 36.217 19.5603 39.4701 19.216C42.7231 18.8717 41.6042 22.9121 41.8515 29.5596C42.0987 36.2071 46.3477 41.8302 46.3477 41.8302C46.3477 41.8302 50.8701 35.2472 52.8572 30.8303C53.8922 28.5292 55.1475 27.4836 56.1106 27.0125L56.1135 27.0113C56.4312 26.8516 56.7677 26.7367 57.1142 26.6697C57.2867 26.6341 57.4625 26.6186 57.6382 26.6237Z" fill="#FFB8B8"/>
<path d="M47.5732 37.2103L57.5477 43.2938L62.979 33.1407L61.7522 28.5615C60.3331 27.3963 58.5616 26.806 56.7617 26.8986C54.9618 26.9911 53.2538 27.7604 51.9501 29.0656L47.5732 37.2103Z" fill="#FD7A33"/>
<path d="M51.2237 0.944259C45.4496 3.44838 42.9162 10.9281 45.5651 17.6507L48.9307 26.1919L51.4346 25.106L51.6373 21.3127L52.5218 24.6345L68.616 17.6547L68.8002 14.2063L69.6044 17.226L71.4164 16.4402L68.7738 9.73383C65.7256 1.99791 57.8681 -1.93733 51.2237 0.944259Z" fill="#2F2E41"/>
<path d="M56.9639 44.6919L57.9791 52.4284L73.947 44.7923L71.3845 39.1489C71.3845 39.1489 57.913 41.0806 56.9639 44.6919Z" fill="#A0616A"/>
<path d="M52.3428 79.4034L62.3375 89.2891L64.7455 80.7792L57.3438 74.0349L52.3428 79.4034Z" fill="#FFB8B8"/>
<path d="M82.9531 118.388L89.0353 132.104L95.4026 129.343L89.0307 115.752L82.9531 118.388Z" fill="#FFB8B8"/>
<path d="M52.8164 64.2662L59.6587 73.0307L83.1422 119.728C83.1422 119.728 87.6726 119.186 89.9685 116.412L87.9153 109.481L73.9984 70.7225C73.9984 70.7225 78.3008 65.3015 76.0471 61.3017C73.7933 57.302 70.073 52.1606 70.073 52.1606L52.8164 64.2662Z" fill="#2F2E41"/>
<path d="M88.5875 128.388L86.851 129.141C86.851 129.141 84.0844 136.74 82.5872 138.1C81.09 139.46 74.152 148.513 81.7463 146.286C89.3406 144.059 92.4159 138.104 92.4159 138.104C92.4159 138.104 95.3295 138.618 98.0345 136.022C100.739 133.427 97.5673 130.537 97.5673 130.537C97.5673 130.537 93.7631 125.685 93.7202 125.755C93.6773 125.825 93.0176 129.31 88.5875 128.388Z" fill="#2F2E41"/>
<path d="M56.6424 20.6564C60.3187 19.062 62.067 14.643 60.5472 10.7861C59.0275 6.92932 54.8153 5.09522 51.139 6.68958C47.4627 8.28393 45.7144 12.703 47.2341 16.5598C48.7539 20.4167 52.9661 22.2508 56.6424 20.6564Z" fill="#FFB8B8"/>
<path d="M67.3198 18.5143L65.313 22.5202L65.0432 23.0567L66.1895 26.8258L54.9023 31.7208C54.9023 31.7208 55.8905 29.6534 56.7495 27.585C56.7653 27.5391 56.7828 27.4888 56.8043 27.4404C56.9205 27.1589 57.0224 26.9014 57.114 26.6697C57.1621 26.5422 57.2096 26.4221 57.2508 26.3117C57.3181 26.1297 57.3848 25.955 57.4515 25.7803C57.4524 25.778 57.4526 25.7754 57.452 25.773C57.62 25.3193 57.7633 24.856 57.8811 24.3853L57.8828 24.381C57.9143 24.2542 57.9394 24.1258 57.9583 23.9963C58.2283 22.1016 55.006 19.944 55.006 19.944L60.0571 13.8428C61.5769 17.0374 65.097 18.0847 66.609 18.396C67.0508 18.4852 67.3198 18.5143 67.3198 18.5143Z" fill="#FFB8B8"/>
<path d="M103.048 62.7457C99.1852 65.8429 95.3066 56.8597 95.3066 56.8597L84.4828 46.9972C82.1956 44.9132 80.2264 42.4739 78.6436 39.7641L73.7418 31.3718L73.5325 32.0705L73.5337 32.0735L72.943 32.7847L65.4314 27.1546L63.3263 25.579L62.3691 23.15L65.8729 19.1419L67.6094 18.3888C67.6094 18.3888 67.6446 18.3664 67.7088 18.3314C68.4729 17.897 73.5272 15.2784 75.8907 20.4855C76.8187 22.529 77.4915 24.2636 77.9724 25.645C79.2879 29.4733 81.1103 33.0884 83.3859 36.384C84.2119 37.5699 84.9975 38.5702 85.5736 39.039C87.5687 40.6623 98.2007 55.6045 98.2007 55.6045C98.2007 55.6045 106.91 59.6485 103.048 62.7457Z" fill="#FFB8B8"/>
<path d="M57.8813 24.3853C57.8828 24.4237 57.8533 24.7529 57.251 26.3117C57.5002 25.6844 57.7107 25.0409 57.8813 24.3853Z" fill="#D0CDE1"/>
<path d="M73.6573 31.5864L73.5341 32.0735L73.4449 42.0945C73.4449 42.0945 69.6604 49.2781 65.3693 50.428C62.9297 51.0033 58.3562 48.4823 57.9472 51.0702L56.2463 42.8701L54.765 40.96C54.5921 40.7363 54.397 40.4903 54.1816 40.2104C52.117 37.5507 53.9845 32.8302 53.9845 32.8302L56.111 27.0125L56.1139 27.0113C56.4316 26.8515 56.7681 26.7367 57.1146 26.6697C57.0229 26.9015 56.921 27.159 56.8049 27.4404C56.7833 27.4889 56.7658 27.5391 56.7501 27.5851C56.1094 29.2529 56.8157 29.3341 57.3685 29.1975C57.5507 29.1508 57.7279 29.0846 57.8973 29.0002C59.1759 28.6589 61.3804 26.4017 62.9534 24.6317C64.0243 23.4278 64.8045 22.4495 64.8045 22.4495L66.374 18.9247L66.6095 18.396C67.0514 18.4852 67.3204 18.5143 67.3204 18.5143L67.6098 18.3888C67.6098 18.3888 67.645 18.3664 67.7092 18.3315L66.7956 19.9288C66.3407 20.7242 66.0827 21.6263 66.045 22.553C66.0073 23.4797 66.1911 24.4016 66.5797 25.2347L73.6573 31.5864Z" fill="#FD7A33"/>
<path d="M61.2939 47.0802L57.7457 50.6487C57.7457 50.6487 31.0979 51.288 30.6159 60.3848C30.134 69.4816 52.9407 80.9214 52.9407 80.9214L58.5706 74.5692L52.0873 66.7155C52.0873 66.7155 74.7357 74.3134 78.4514 63.1031C82.1671 51.8929 72.9689 42.3095 72.9689 42.3095C72.9689 42.3095 67.2132 40.6025 61.2939 47.0802Z" fill="#2F2E41"/>
<path d="M62.1794 85.4471L60.4121 88.7021C60.4121 88.7021 66.5559 97.4141 66.2859 99.3087C66.0158 101.203 65.9543 106.207 69.0182 104.523C72.0821 102.839 73.5212 96.1709 73.0928 94.2236C72.6643 92.2764 72.5367 85.9325 72.5367 85.9325C72.5367 85.9325 72.6598 75.9248 69.9354 76.7508C67.2111 77.5768 62.9824 79.1728 62.9824 79.1728L62.1794 85.4471Z" fill="#2F2E41"/>
<path d="M55.5178 3.00835C54.7354 2.51778 53.8558 2.2229 52.9473 2.14661C52.0387 2.07032 51.1256 2.21467 50.2788 2.56844L50.0736 2.65746C46.116 4.37379 44.3882 9.52212 46.2143 14.1566L47.5404 13.5815L47.0807 11.7785L48.0685 13.3525L55.9334 9.94164L56.0223 8.20907L56.4276 9.72732L57.9748 9.0563C60.1791 12.5049 60.6239 16.7165 59.3094 21.6911L61.9451 20.548L62.1227 17.0829L62.9335 20.1194L67.9577 17.9405L66.3237 10.8565C64.3598 5.87224 59.9339 2.84287 55.5178 3.00835Z" fill="#2F2E41"/>
<path d="M85.2648 29.2386L70.0572 35.8339L65.1797 23.4555L67.1792 18.4012C68.9525 17.2743 71.0531 16.8548 73.097 17.2193C75.1409 17.5839 76.9913 18.7081 78.31 20.3865L85.2648 29.2386Z" fill="#FD7A33"/>
</g>
<defs>
<clipPath id="clip0_3741_2313">
<rect width="181" height="232" fill="white"/>
</clipPath>
</defs>
</svg>
