<svg width="214" height="223" viewBox="0 0 214 223" fill="none" xmlns="http://www.w3.org/2000/svg">
<g clip-path="url(#clip0_3741_2429)">
<path d="M190.126 169.709L190.121 169.81L195.145 223H158.483L153.731 190.332L151.64 222.162L113.99 221.744L117.989 179.954L121.39 160.583V160.579L121.901 157.664H189.126L189.214 158.719L190.126 169.709Z" fill="#2F2E41"/>
<path d="M93.2375 200.544C97.1204 201.252 101.169 196.874 102.281 190.765C102.767 188.091 102.61 185.529 101.954 183.433L102.55 179.912L112.541 132.54C112.541 132.54 130.939 95.6938 130.938 89.2971C130.938 82.9006 125.616 79.7636 125.616 79.7636L118.415 79.831L95.8328 135.051L91.7657 175.857L91.1077 181.455C89.7559 183.184 88.7063 185.527 88.2199 188.201C87.1082 194.309 89.3547 199.836 93.2375 200.544Z" fill="#FFB6B6"/>
<path d="M166.49 56.9379L159.797 41.4416L138.044 45.2109L136.58 63.4428L166.49 56.9379Z" fill="#FFB6B6"/>
<path opacity="0.1" d="M166.49 56.9379L159.797 41.4416L138.044 45.2109L136.58 63.4428L166.49 56.9379Z" fill="black"/>
<path d="M213.761 89.187C213.761 89.187 198.283 60.2885 195.355 57.3567C194.051 56.0516 192.002 56.0334 190.128 56.4138L168.582 48.9803L161.279 44.872L160.797 52.6881L136.821 56.9967C136.954 52.2301 137.626 50.4171 137.626 50.4171L128.841 60.7073L111.689 69.0837L111.699 69.1591C110.44 69.599 109.247 70.3516 108.343 71.5966C104.996 76.2036 95.793 132.325 95.793 132.325L115.454 136.514L118.13 119.702L120.056 134.838L121.52 163.109C121.52 163.109 148.293 186.144 161.261 177.767C174.229 169.391 190.126 169.81 190.126 169.81L190.522 156.706C190.804 156.254 190.962 155.989 190.962 155.989L190.544 109.506V97.1378C193.731 101.583 197.577 105.406 202.048 107.196C216.689 113.06 213.761 89.187 213.761 89.187Z" fill="#E6E6E6"/>
<path d="M146.647 47.9374C157.699 47.9374 166.659 38.9672 166.659 27.9017C166.659 16.8363 157.699 7.86603 146.647 7.86603C135.594 7.86603 126.635 16.8363 126.635 27.9017C126.635 38.9672 135.594 47.9374 146.647 47.9374Z" fill="#FFB6B6"/>
<path d="M161.003 33.564C161.003 33.564 162.743 27.4662 166.658 27.9018C170.574 28.3373 171.444 24.8528 170.574 23.1106C169.704 21.3684 167.963 12.6572 167.963 12.6572C167.963 12.6572 168.834 6.55936 163.613 5.68825C158.392 4.81713 156.652 3.94601 155.782 2.20377C154.912 0.461537 141.861 -1.2807 137.51 1.33266C133.16 3.94601 129.679 8.96008 126.634 10.3731C123.589 11.7861 120.979 14.3994 122.719 18.755C124.459 23.1106 126.983 31.6292 126.983 31.6292C126.983 31.6292 131.42 30.0795 132.29 32.6929C133.16 35.3063 129.679 31.8218 134.03 24.8528C138.38 17.8839 138.38 10.915 145.341 13.5283C152.302 16.1417 160.133 15.2705 159.263 20.4972C158.392 25.724 161.003 33.564 161.003 33.564Z" fill="#2F2E41"/>
<path d="M159.779 192.399H7.79476C3.49665 192.399 0 188.898 0 184.595V103.766C0 99.4631 3.49665 95.962 7.79476 95.962H159.779C164.078 95.962 167.574 99.4631 167.574 103.766V184.595C167.574 188.898 164.078 192.399 159.779 192.399Z" fill="white"/>
<path d="M159.779 192.399H7.79476C3.49665 192.399 0 188.898 0 184.595V103.766C0 99.4631 3.49665 95.962 7.79476 95.962H159.779C164.078 95.962 167.574 99.4631 167.574 103.766V184.595C167.574 188.898 164.078 192.399 159.779 192.399ZM7.79476 97.2652C4.21454 97.2652 1.30167 100.182 1.30167 103.766V184.595C1.30167 188.18 4.21454 191.096 7.79476 191.096H159.779C163.36 191.096 166.273 188.18 166.273 184.595V103.766C166.273 100.182 163.36 97.2652 159.779 97.2652H7.79476Z" fill="#3F3D56"/>
<path d="M148.049 105.736C149.128 105.736 150.002 104.861 150.002 103.781C150.002 102.702 149.128 101.826 148.049 101.826C146.971 101.826 146.097 102.702 146.097 103.781C146.097 104.861 146.971 105.736 148.049 105.736Z" fill="#3F3D56"/>
<path d="M153.256 105.736C154.335 105.736 155.209 104.861 155.209 103.781C155.209 102.702 154.335 101.826 153.256 101.826C152.178 101.826 151.304 102.702 151.304 103.781C151.304 104.861 152.178 105.736 153.256 105.736Z" fill="#3F3D56"/>
<path d="M158.462 105.736C159.541 105.736 160.415 104.861 160.415 103.781C160.415 102.702 159.541 101.826 158.462 101.826C157.384 101.826 156.51 102.702 156.51 103.781C156.51 104.861 157.384 105.736 158.462 105.736Z" fill="#3F3D56"/>
<path d="M11.0641 135.384C10.5258 135.384 10.0879 135.822 10.0879 136.361C10.0879 136.624 10.1893 136.867 10.3733 137.047C10.5589 137.237 10.802 137.339 11.0641 137.339H157.161C157.699 137.339 158.137 136.9 158.137 136.361C158.137 136.099 158.036 135.856 157.852 135.676C157.666 135.486 157.423 135.384 157.161 135.384H11.0641Z" fill="#E6E6E6"/>
<path d="M138.938 135.058V137.665H11.0644C10.7064 137.665 10.381 137.521 10.1467 137.28C9.90586 137.046 9.7627 136.72 9.7627 136.361C9.7627 135.645 10.3485 135.058 11.0644 135.058H138.938Z" fill="#FD7A33"/>
<path d="M155.534 130.171H142.517C141.082 130.171 139.914 129.002 139.914 127.565C139.914 126.127 141.082 124.958 142.517 124.958H155.534C156.97 124.958 158.137 126.127 158.137 127.565C158.137 129.002 156.97 130.171 155.534 130.171Z" fill="#E6E6E6"/>
<path d="M70.2748 116.488H12.0408C10.6054 116.488 9.4375 115.319 9.4375 113.881C9.4375 112.444 10.6054 111.275 12.0408 111.275H70.2748C71.7103 111.275 72.8781 112.444 72.8781 113.881C72.8781 115.319 71.7103 116.488 70.2748 116.488Z" fill="#E6E6E6"/>
<path d="M11.0641 164.706C10.5258 164.706 10.0879 165.145 10.0879 165.684C10.0879 165.946 10.1893 166.189 10.3733 166.369C10.5589 166.559 10.802 166.661 11.0641 166.661H157.161C157.699 166.661 158.137 166.222 158.137 165.684C158.137 165.421 158.036 165.178 157.852 164.998C157.666 164.808 157.423 164.706 157.161 164.706H11.0641Z" fill="#E6E6E6"/>
<path d="M88.8234 164.38V166.987H11.0644C10.7064 166.987 10.381 166.843 10.1467 166.602C9.90586 166.368 9.7627 166.042 9.7627 165.684C9.7627 164.967 10.3485 164.38 11.0644 164.38H88.8234Z" fill="#FD7A33"/>
<path d="M155.534 159.493H142.517C141.082 159.493 139.914 158.324 139.914 156.887C139.914 155.449 141.082 154.281 142.517 154.281H155.534C156.97 154.281 158.137 155.449 158.137 156.887C158.137 158.324 156.97 159.493 155.534 159.493Z" fill="#E6E6E6"/>
<path d="M178.321 49.4796C189.579 49.4796 198.705 40.5354 198.705 29.502C198.705 18.4687 189.579 9.52441 178.321 9.52441C167.064 9.52441 157.938 18.4687 157.938 29.502C157.938 40.5354 167.064 49.4796 178.321 49.4796Z" fill="#FD7A33"/>
<path d="M185.24 19.4252C182.526 24.3724 179.812 29.3196 177.099 34.2667C175.369 31.2073 173.649 28.1424 171.915 25.0853C171.316 24.0295 169.688 24.9792 170.288 26.0376C172.298 29.5814 174.287 33.1371 176.297 36.6809C176.64 37.2868 177.584 37.3009 177.924 36.6809C180.905 31.2464 183.886 25.8119 186.867 20.3775C187.451 19.3126 185.824 18.3595 185.24 19.4252Z" fill="white"/>
<path d="M206.46 82.1607L186.151 72.4342C186.151 72.4342 185.336 65.9242 181.527 63.6022C180.88 62.0557 180.135 60.3567 179.458 59.0106C177.785 55.6814 180.295 49.3991 178.203 49.3991C176.112 49.3991 173.02 56.0062 173.183 57.7755C173.309 59.1337 174.43 61.505 174.662 63.5808C172.111 64.5438 170.054 66.1945 168.701 67.5089C167.53 68.6463 167.095 70.3433 167.553 71.911C168.879 76.4539 172.193 85.8365 176.948 85.8365C183.223 85.8365 184.897 84.58 184.897 84.58C184.897 84.58 197.865 100.914 207.486 102.17C217.108 103.427 206.46 82.1607 206.46 82.1607Z" fill="#FFB6B6"/>
</g>
<defs>
<clipPath id="clip0_3741_2429">
<rect width="214" height="223" fill="white"/>
</clipPath>
</defs>
</svg>
