<svg width="24" height="25" viewBox="0 0 24 25" fill="none" xmlns="http://www.w3.org/2000/svg">
<path d="M12 19.5768C9.5 19.5768 7.29 18.2968 6 16.3768C6.03 14.3768 10 13.2768 12 13.2768C14 13.2768 17.97 14.3768 18 16.3768C16.71 18.2968 14.5 19.5768 12 19.5768ZM12 5.37683C12.7956 5.37683 13.5587 5.6929 14.1213 6.25551C14.6839 6.81812 15 7.58118 15 8.37683C15 9.17248 14.6839 9.93554 14.1213 10.4982C13.5587 11.0608 12.7956 11.3768 12 11.3768C11.2044 11.3768 10.4413 11.0608 9.87868 10.4982C9.31607 9.93554 9 9.17248 9 8.37683C9 7.58118 9.31607 6.81812 9.87868 6.25551C10.4413 5.6929 11.2044 5.37683 12 5.37683ZM12 2.37683C10.6868 2.37683 9.38642 2.63549 8.17317 3.13804C6.95991 3.64058 5.85752 4.37718 4.92893 5.30576C3.05357 7.18113 2 9.72467 2 12.3768C2 15.029 3.05357 17.5725 4.92893 19.4479C5.85752 20.3765 6.95991 21.1131 8.17317 21.6156C9.38642 22.1182 10.6868 22.3768 12 22.3768C14.6522 22.3768 17.1957 21.3233 19.0711 19.4479C20.9464 17.5725 22 15.029 22 12.3768C22 6.84683 17.5 2.37683 12 2.37683Z" fill="black"/>
</svg>
