<svg width="16" height="14" viewBox="0 0 16 14" fill="none" xmlns="http://www.w3.org/2000/svg">
<path d="M14.2765 1.81097L14.2766 1.81113C14.6134 2.14777 14.8806 2.54746 15.0629 2.98738L15.5248 2.79598L15.0629 2.98738C15.2451 3.42729 15.339 3.89881 15.339 4.375C15.339 4.85118 15.2451 5.3227 15.0629 5.76262L15.5248 5.95401L15.0629 5.76262C14.8806 6.20253 14.6134 6.60223 14.2766 6.93886L14.2765 6.93894L13.4815 7.73394L8.00009 13.2154L2.51864 7.73394L1.72364 6.93894C1.04364 6.25894 0.661621 5.33666 0.661621 4.375C0.661621 3.41333 1.04364 2.49105 1.72364 1.81105C2.40364 1.13105 3.32592 0.749028 4.28759 0.749028C5.24926 0.749028 6.17154 1.13105 6.85154 1.81105L7.64654 2.60605C7.8418 2.80131 8.15838 2.80131 8.35364 2.60605L9.14864 1.81105L9.14873 1.81097C9.48536 1.47417 9.88505 1.20701 10.325 1.02473C10.7649 0.842447 11.2364 0.748627 11.7126 0.748627C12.1888 0.748627 12.6603 0.842446 13.1002 1.02473C13.5401 1.20701 13.9398 1.47417 14.2765 1.81097Z" stroke="white" stroke-linecap="round" stroke-linejoin="round"/>
</svg>
