<svg width="31" height="31" viewBox="0 0 31 31" fill="none" xmlns="http://www.w3.org/2000/svg">
<circle cx="15.5" cy="15.5" r="15.5" fill="white"/>
<circle cx="15.5002" cy="15.5" r="11.6486" fill="white" stroke="#FD7A33"/>
<g clip-path="url(#clip0_603_5431)">
<path d="M17.375 11.75C17.5975 11.75 17.815 11.684 18 11.5604C18.185 11.4368 18.3292 11.2611 18.4144 11.0555C18.4995 10.85 18.5218 10.6238 18.4784 10.4055C18.435 10.1873 18.3278 9.98684 18.1705 9.82951C18.0132 9.67217 17.8127 9.56503 17.5945 9.52162C17.3762 9.47821 17.15 9.50049 16.9445 9.58564C16.7389 9.67078 16.5632 9.81498 16.4396 9.99998C16.316 10.185 16.25 10.4025 16.25 10.625C16.25 10.9234 16.3685 11.2095 16.5795 11.4205C16.7905 11.6315 17.0766 11.75 17.375 11.75ZM17.2813 14.5859C17.4142 14.6924 17.5796 14.7503 17.75 14.75H19.25C19.4489 14.75 19.6397 14.671 19.7803 14.5303C19.921 14.3897 20 14.1989 20 14C20 13.8011 19.921 13.6103 19.7803 13.4697C19.6397 13.329 19.4489 13.25 19.25 13.25H18.013L16.3438 11.9141C16.2075 11.8047 16.0373 11.7464 15.8626 11.7493C15.6879 11.7522 15.5198 11.8161 15.3873 11.93L12.7623 14.18C12.6743 14.2554 12.6051 14.3501 12.5599 14.4568C12.5147 14.5634 12.4948 14.679 12.5018 14.7947C12.5088 14.9103 12.5425 15.0227 12.6002 15.1231C12.6579 15.2235 12.7381 15.3092 12.8345 15.3734L14.75 16.6513V19.25C14.75 19.4489 14.829 19.6397 14.9697 19.7803C15.1103 19.921 15.3011 20 15.5 20C15.6989 20 15.8897 19.921 16.0303 19.7803C16.171 19.6397 16.25 19.4489 16.25 19.25V16.25C16.25 16.1266 16.2195 16.005 16.1612 15.8962C16.103 15.7873 16.0187 15.6946 15.916 15.6261L14.9466 14.9799L16.3119 13.8099L17.2813 14.5859ZM20 15.5C19.4067 15.5 18.8266 15.6759 18.3333 16.0056C17.8399 16.3352 17.4554 16.8038 17.2284 17.352C17.0013 17.9001 16.9419 18.5033 17.0576 19.0853C17.1734 19.6672 17.4591 20.2018 17.8787 20.6213C18.2982 21.0409 18.8328 21.3266 19.4147 21.4424C19.9967 21.5581 20.5999 21.4987 21.1481 21.2716C21.6962 21.0446 22.1648 20.6601 22.4944 20.1667C22.8241 19.6734 23 19.0933 23 18.5C23 17.7044 22.6839 16.9413 22.1213 16.3787C21.5587 15.8161 20.7957 15.5 20 15.5ZM20 20C19.7033 20 19.4133 19.912 19.1666 19.7472C18.92 19.5824 18.7277 19.3481 18.6142 19.074C18.5007 18.7999 18.4709 18.4983 18.5288 18.2074C18.5867 17.9164 18.7296 17.6491 18.9393 17.4393C19.1491 17.2296 19.4164 17.0867 19.7074 17.0288C19.9983 16.9709 20.2999 17.0006 20.574 17.1142C20.8481 17.2277 21.0824 17.42 21.2472 17.6666C21.412 17.9133 21.5 18.2033 21.5 18.5C21.5 18.8978 21.342 19.2794 21.0607 19.5607C20.7794 19.842 20.3978 20 20 20ZM11 15.5C10.4067 15.5 9.82664 15.6759 9.33329 16.0056C8.83994 16.3352 8.45543 16.8038 8.22836 17.352C8.0013 17.9001 7.94189 18.5033 8.05765 19.0853C8.1734 19.6672 8.45912 20.2018 8.87868 20.6213C9.29824 21.0409 9.83279 21.3266 10.4147 21.4424C10.9967 21.5581 11.5999 21.4987 12.1481 21.2716C12.6962 21.0446 13.1648 20.6601 13.4944 20.1667C13.8241 19.6734 14 19.0933 14 18.5C14 17.7044 13.6839 16.9413 13.1213 16.3787C12.5587 15.8161 11.7957 15.5 11 15.5ZM11 20C10.7033 20 10.4133 19.912 10.1666 19.7472C9.91997 19.5824 9.72771 19.3481 9.61418 19.074C9.50065 18.7999 9.47095 18.4983 9.52882 18.2074C9.5867 17.9164 9.72956 17.6491 9.93934 17.4393C10.1491 17.2296 10.4164 17.0867 10.7074 17.0288C10.9983 16.9709 11.2999 17.0006 11.574 17.1142C11.8481 17.2277 12.0824 17.42 12.2472 17.6666C12.412 17.9133 12.5 18.2033 12.5 18.5C12.5 18.8978 12.342 19.2794 12.0607 19.5607C11.7794 19.842 11.3978 20 11 20Z" fill="#FD7A33"/>
</g>
<defs>
<clipPath id="clip0_603_5431">
<rect width="15" height="15" fill="white" transform="translate(8 8)"/>
</clipPath>
</defs>
</svg>
