<svg width="20" height="21" viewBox="0 0 24 25" fill="none" xmlns="http://www.w3.org/2000/svg">
<g id="352510_local_phone_icon(1) 1" clip-path="url(#clip0_9886_6315)">
<path id="Vector" d="M7.16243 11.0863C8.54243 13.9163 10.761 16.2313 13.4779 17.6713L15.5862 15.4663C15.8497 15.1913 16.2283 15.1113 16.5589 15.2213C17.6322 15.5913 18.787 15.7913 19.9801 15.7913C20.512 15.7913 20.9385 16.2363 20.9385 16.7913V20.2913C20.9385 20.8463 20.512 21.2913 19.9801 21.2913C10.9814 21.2913 3.68848 13.6813 3.68848 4.29126C3.68848 3.73626 4.11973 3.29126 4.64681 3.29126H8.00098C8.53285 3.29126 8.95931 3.73626 8.95931 4.29126C8.95931 5.53626 9.15098 6.74126 9.50556 7.86126C9.61098 8.20626 9.53431 8.60126 9.27077 8.87626L7.16243 11.0863Z" fill="#3D3D3D"/>
</g>
<defs>
<clipPath id="clip0_9886_6315">
<rect width="23" height="24" fill="white" transform="translate(0.813477 0.29126)"/>
</clipPath>
</defs>
</svg>
