<svg width="22" height="21" viewBox="0 0 22 21" fill="none" xmlns="http://www.w3.org/2000/svg">
<path d="M0.509639 9.33683C0.00963885 9.05683 -0.140361 8.44683 0.139639 7.96683L1.63964 5.37683C1.74964 5.17683 1.91964 5.03683 2.10964 4.95683L9.93964 0.556831C10.0996 0.436831 10.2996 0.376831 10.5096 0.376831C10.7196 0.376831 10.9196 0.436831 11.0796 0.556831L18.9796 4.99683C19.1696 5.09683 19.3296 5.25683 19.4196 5.45683L20.8696 7.97683C21.1496 8.45683 20.9796 9.06683 20.5096 9.33683L19.5096 9.91683V14.8768C19.5096 15.2568 19.2996 15.5868 18.9796 15.7568L11.0796 20.1968C10.9196 20.3168 10.7196 20.3768 10.5096 20.3768C10.2996 20.3768 10.0996 20.3168 9.93964 20.1968L2.03964 15.7568C1.71964 15.5868 1.50964 15.2568 1.50964 14.8768V9.33683C1.20964 9.50683 0.829639 9.51683 0.509639 9.33683ZM10.5096 2.52683V9.22683L16.4696 5.87683L10.5096 2.52683ZM3.50964 14.2868L9.50964 17.6668V10.9568L3.50964 7.58683V14.2868ZM17.5096 14.2868V11.0668L12.5096 13.9668C12.1796 14.1468 11.8096 14.1368 11.5096 13.9768V17.6668L17.5096 14.2868ZM12.3596 11.7368L18.6396 8.10683L18.0596 7.09683L11.7796 10.7268L12.3596 11.7368Z" fill="#4A4A4A"/>
</svg>
