<svg width="38" height="39" viewBox="0 0 38 39" fill="none" xmlns="http://www.w3.org/2000/svg">
<g clip-path="url(#clip0_8954_3943)">
<path d="M18.9282 2.40967C15.4963 2.40967 12.1416 3.42732 9.28812 5.33394C6.43466 7.24056 4.21066 9.95052 2.89736 13.1211C1.58406 16.2917 1.24044 19.7805 1.90995 23.1464C2.57947 26.5123 4.23205 29.6041 6.65872 32.0307C9.08538 34.4574 12.1771 36.11 15.543 36.7795C18.9089 37.449 22.3977 37.1054 25.5683 35.7921C28.7389 34.4788 31.4489 32.2548 33.3555 29.4013C35.2621 26.5479 36.2798 23.1931 36.2798 19.7613C36.2798 15.1594 34.4517 10.7459 31.1976 7.49184C27.9436 4.23778 23.5301 2.40967 18.9282 2.40967Z" fill="#E1740F"/>
<path d="M18.9282 1.93604C15.4963 1.93604 12.1416 2.95369 9.28812 4.86031C6.43466 6.76693 4.21066 9.47688 2.89736 12.6475C1.58406 15.8181 1.24044 19.3069 1.90995 22.6728C2.57947 26.0387 4.23205 29.1304 6.65872 31.5571C9.08538 33.9838 12.1771 35.6363 15.543 36.3059C18.9089 36.9754 22.3977 36.6318 25.5683 35.3185C28.7389 34.0052 31.4489 31.7812 33.3555 28.9277C35.2621 26.0742 36.2798 22.7195 36.2798 19.2877C36.2798 14.6857 34.4517 10.2723 31.1976 7.01821C27.9436 3.76415 23.5301 1.93604 18.9282 1.93604ZM27.9305 15.6706L16.8886 26.7126C16.5927 27.0083 16.1916 27.1744 15.7733 27.1744C15.355 27.1744 14.9539 27.0083 14.6581 26.7126L9.92583 21.9803C9.63849 21.6828 9.47949 21.2843 9.48309 20.8708C9.48668 20.4572 9.65258 20.0615 9.94504 19.7691C10.2375 19.4766 10.6331 19.3107 11.0467 19.3071C11.4603 19.3035 11.8588 19.4625 12.1563 19.7498L15.7733 23.3669L25.7 13.4402C25.9975 13.1528 26.396 12.9938 26.8096 12.9974C27.2232 13.001 27.6188 13.1669 27.9113 13.4594C28.2038 13.7518 28.3696 14.1475 28.3732 14.5611C28.3768 14.9747 28.2178 15.3731 27.9305 15.6706Z" fill="#E1740F"/>
<path d="M18.9282 30.4876C16.8067 30.4876 14.7329 29.8585 12.9689 28.6798C11.205 27.5012 9.83015 25.826 9.01829 23.866C8.20643 21.906 7.99401 19.7492 8.40789 17.6685C8.82178 15.5878 9.84337 13.6765 11.3435 12.1764C12.8436 10.6763 14.7549 9.65466 16.8356 9.24078C18.9163 8.8269 21.0731 9.03932 23.0331 9.85118C24.9931 10.663 26.6683 12.0379 27.847 13.8018C29.0256 15.5658 29.6547 17.6396 29.6547 19.7611C29.6547 22.606 28.5246 25.3343 26.513 27.3459C24.5014 29.3575 21.7731 30.4876 18.9282 30.4876ZM18.9282 10.4649C17.0896 10.4649 15.2923 11.0101 13.7635 12.0316C12.2348 13.0531 11.0432 14.5049 10.3396 16.2036C9.636 17.9023 9.45191 19.7714 9.81061 21.5747C10.1693 23.378 11.0547 25.0345 12.3548 26.3346C13.6549 27.6347 15.3113 28.5201 17.1146 28.8788C18.9179 29.2375 20.7871 29.0534 22.4858 28.3498C24.1844 27.6461 25.6363 26.4546 26.6578 24.9259C27.6793 23.3971 28.2245 21.5998 28.2245 19.7611C28.2245 17.2956 27.2451 14.9311 25.5017 13.1877C23.7583 11.4443 21.3938 10.4649 18.9282 10.4649Z" fill="white"/>
<path d="M21.9603 23.8088L18.4205 20.269C18.3542 20.2022 18.3018 20.123 18.2662 20.0358C18.2306 19.9487 18.2126 19.8554 18.2131 19.7613V14.0405H19.6433V19.4681L22.9757 22.7933L21.9603 23.8088Z" fill="white"/>
</g>
<defs>
<clipPath id="clip0_8954_3943">
<rect width="37.8581" height="37.8581" fill="white" transform="translate(-0.000854492 0.832031)"/>
</clipPath>
</defs>
</svg>
