<svg width="39" height="39" viewBox="0 0 39 39" fill="none" xmlns="http://www.w3.org/2000/svg">
<g clip-path="url(#clip0_8954_3953)">
<path d="M19.3923 1.93555C15.9604 1.93555 12.6057 2.9532 9.75223 4.85982C6.89877 6.76644 4.67477 9.47639 3.36147 12.647C2.04817 15.8176 1.70455 19.3064 2.37406 22.6723C3.04358 26.0382 4.69616 29.1299 7.12283 31.5566C9.5495 33.9833 12.6413 35.6359 16.0071 36.3054C19.373 36.9749 22.8619 36.6313 26.0325 35.318C29.203 34.0047 31.913 31.7807 33.8196 28.9272C35.7262 26.0737 36.7439 22.719 36.7439 19.2872C36.7439 14.6852 34.9158 10.2718 31.6617 7.01772C28.4077 3.76366 23.9942 1.93555 19.3923 1.93555Z" fill="#3D3D3D"/>
<path d="M19.3923 1.93555C15.9604 1.93555 12.6057 2.9532 9.75223 4.85982C6.89877 6.76644 4.67477 9.47639 3.36147 12.647C2.04817 15.8176 1.70455 19.3064 2.37406 22.6723C3.04358 26.0382 4.69616 29.1299 7.12283 31.5566C9.5495 33.9833 12.6413 35.6359 16.0071 36.3054C19.373 36.9749 22.8619 36.6313 26.0325 35.318C29.203 34.0047 31.913 31.7807 33.8196 28.9272C35.7262 26.0737 36.7439 22.719 36.7439 19.2872C36.7439 14.6852 34.9158 10.2718 31.6617 7.01772C28.4077 3.76366 23.9942 1.93555 19.3923 1.93555ZM28.3946 15.6701L17.3527 26.7121C17.0569 27.0078 16.6557 27.1739 16.2374 27.1739C15.8192 27.1739 15.418 27.0078 15.1222 26.7121L10.3899 21.9798C10.1026 21.6823 9.9436 21.2839 9.9472 20.8703C9.95079 20.4567 10.1167 20.061 10.4092 19.7686C10.7016 19.4761 11.0973 19.3102 11.5109 19.3066C11.9244 19.303 12.3229 19.462 12.6204 19.7493L16.2374 23.3664L26.1641 13.4397C26.4616 13.1523 26.8601 12.9933 27.2737 12.9969C27.6873 13.0005 28.0829 13.1664 28.3754 13.4589C28.6679 13.7514 28.8338 14.147 28.8374 14.5606C28.8409 14.9742 28.682 15.3726 28.3946 15.6701Z" fill="#3D3D3D"/>
<path d="M19.4512 30.4866C17.3297 30.4866 15.2558 29.8575 13.4919 28.6789C11.7279 27.5002 10.3531 25.825 9.54124 23.865C8.72938 21.905 8.51696 19.7483 8.93084 17.6675C9.34472 15.5868 10.3663 13.6755 11.8664 12.1754C13.3666 10.6753 15.2778 9.65368 17.3586 9.2398C19.4393 8.82592 21.596 9.03834 23.556 9.8502C25.516 10.6621 27.1913 12.0369 28.3699 13.8009C29.5485 15.5648 30.1776 17.6387 30.1776 19.7601C30.1776 22.605 29.0475 25.3333 27.0359 27.3449C25.0243 29.3565 22.296 30.4866 19.4512 30.4866ZM19.4512 10.4639C17.6126 10.4639 15.8152 11.0091 14.2865 12.0306C12.7577 13.0521 11.5662 14.504 10.8626 16.2026C10.159 17.9013 9.97486 19.7705 10.3336 21.5738C10.6923 23.3771 11.5776 25.0335 12.8777 26.3336C14.1778 27.6337 15.8343 28.5191 17.6376 28.8778C19.4409 29.2365 21.31 29.0524 23.0087 28.3488C24.7074 27.6452 26.1593 26.4536 27.1807 24.9249C28.2022 23.3961 28.7474 21.5988 28.7474 19.7601C28.7474 17.2946 27.768 14.9301 26.0246 13.1867C24.2813 11.4433 21.9167 10.4639 19.4512 10.4639Z" fill="white"/>
<path d="M22.4832 23.8078L18.9435 20.268C18.8772 20.2012 18.8248 20.122 18.7892 20.0349C18.7536 19.9477 18.7356 19.8544 18.7361 19.7603V14.0396H20.1663V19.4671L23.4986 22.7923L22.4832 23.8078Z" fill="white"/>
</g>
<defs>
<clipPath id="clip0_8954_3953">
<rect width="37.8581" height="37.8581" fill="white" transform="translate(0.463257 0.35791)"/>
</clipPath>
</defs>
</svg>
