<svg width="21" height="21" viewBox="0 0 21 21" fill="none" xmlns="http://www.w3.org/2000/svg">
<path d="M19.7547 16.1549L14.1203 10.3639L19.9112 4.72948C20.6218 4.03809 20.6373 2.9011 19.9459 2.19051L18.6938 0.903635C18.0024 0.193041 16.8655 0.177471 16.1549 0.868866L10.3639 6.50333L4.72949 0.712405C4.03809 0.00181118 2.90111 -0.0137588 2.19051 0.677637L0.90364 1.92974C0.193046 2.62113 0.177476 3.75812 0.868871 4.46871L6.50333 10.2596L0.71241 15.8941C0.00181615 16.5855 -0.0137539 17.7225 0.677641 18.4331L1.92974 19.7199C2.62114 20.4305 3.75812 20.4461 4.46872 19.7547L10.2596 14.1202L15.8941 19.9112C16.5855 20.6218 17.7225 20.6373 18.4331 19.9459L19.7199 18.6938C20.4305 18.0024 20.4461 16.8655 19.7547 16.1549Z" fill="#FD7A33"/>
</svg>
