<svg version="1.1" id="Layer_1" xmlns="http://www.w3.org/2000/svg" xmlns:xlink="http://www.w3.org/1999/xlink" x="0px" y="0px"
	 width="100%" viewBox="0 0 132 108" enable-background="new 0 0 132 108" xml:space="preserve">
<path fill="#FD7A33" opacity="1.000000" stroke="none" 
	d="
M93.000000,109.000000 
	C62.000000,109.000000 31.500000,109.000000 1.000000,109.000000 
	C1.000000,73.000000 1.000000,37.000000 1.000000,1.000000 
	C45.000000,1.000000 89.000000,1.000000 133.000000,1.000000 
	C133.000000,37.000000 133.000000,73.000000 133.000000,109.000000 
	C119.833336,109.000000 106.666664,109.000000 93.000000,109.000000 
M97.951988,38.453293 
	C97.644730,38.347511 97.337479,38.241726 96.102287,37.968601 
	C83.726852,38.024616 71.351410,38.080631 58.437237,38.075153 
	C58.256363,38.374516 58.075489,38.673882 56.970844,38.999733 
	C45.639214,38.999733 34.307579,38.999733 22.251638,38.999733 
	C22.187368,40.088009 21.974945,41.655983 22.022184,43.216099 
	C22.316774,52.944561 22.741327,62.669735 22.948494,72.399712 
	C22.995790,74.621086 21.782158,76.953033 22.134462,79.070076 
	C23.898176,89.668457 28.759546,95.075134 40.047112,97.547691 
	C40.354794,97.653748 40.662476,97.759796 41.898098,98.032890 
	C53.273258,97.977211 64.648422,97.921532 76.563492,97.926689 
	C76.747719,97.627747 76.931946,97.328804 77.878471,97.006363 
	C86.697197,94.630737 92.185852,89.342972 93.027542,79.877281 
	C93.221420,77.696915 93.750244,75.806114 96.792320,75.950645 
	C106.181023,76.396721 115.246262,66.910728 114.724480,58.490532 
	C114.061890,47.798073 110.744347,41.045429 97.951988,38.453293 
M39.021011,10.604650 
	C36.597614,17.183537 38.037331,24.950432 43.258373,27.004156 
	C43.521156,22.456968 43.679230,18.323015 44.023575,14.204635 
	C44.300137,10.897014 42.908531,9.565781 39.021011,10.604650 
M56.567890,10.036138 
	C56.348137,14.869540 55.999123,19.704714 56.065346,24.534195 
	C56.074032,25.167881 58.209667,25.772402 59.535175,26.484432 
	C60.027222,21.572430 60.708145,17.516855 60.666351,13.468740 
	C60.654305,12.302094 58.561367,11.156934 56.567890,10.036138 
M72.411491,17.926245 
	C72.537300,19.501682 72.483986,21.119198 72.841301,22.640249 
	C73.172089,24.048384 73.942223,25.353312 74.518867,26.703691 
	C75.345657,25.448114 76.596985,24.285192 76.896141,22.914461 
	C77.307785,21.028322 77.263924,18.939198 76.931793,17.020727 
	C76.523788,14.663994 80.103577,10.590467 75.270355,10.190666 
	C69.900131,9.746443 72.772972,14.601542 72.411491,17.926245 
z"/>
<path fill="#E7E7E7" opacity="1.000000" stroke="none" 
	d="
M39.895889,97.029305 
	C28.759546,95.075134 23.898176,89.668457 22.134462,79.070076 
	C21.782158,76.953033 22.995790,74.621086 22.948494,72.399712 
	C22.741327,62.669735 22.316774,52.944561 22.022184,43.216099 
	C21.974945,41.655983 22.187368,40.088009 22.251638,38.999733 
	C34.307579,38.999733 45.639214,38.999733 57.651939,38.897713 
	C58.647728,38.673935 58.862041,38.454254 58.975975,38.136642 
	C71.351410,38.080631 83.726852,38.024616 96.686462,38.254436 
	C97.519699,38.738533 97.797066,38.882156 98.102730,38.971138 
	C110.744347,41.045429 114.061890,47.798073 114.724480,58.490532 
	C115.246262,66.910728 106.181023,76.396721 96.792320,75.950645 
	C93.750244,75.806114 93.221420,77.696915 93.027542,79.877281 
	C92.185852,89.342972 86.697197,94.630737 77.275894,97.105904 
	C76.354370,97.324867 76.137794,97.545006 76.023582,97.865845 
	C64.648422,97.921532 53.273258,97.977211 41.314293,97.746353 
	C40.480900,97.260841 40.202702,97.117340 39.895889,97.029305 
M88.539322,48.732136 
	C88.737823,48.481590 88.881447,48.202766 88.998566,47.103745 
	C88.786064,43.611046 86.541771,42.965038 83.555000,42.973816 
	C66.237755,43.024727 48.919342,43.094009 31.603609,42.924118 
	C27.745068,42.886261 26.480339,44.328373 27.204386,48.335579 
	C27.326197,48.649975 27.546085,48.863262 28.031403,49.902657 
	C28.035980,59.555786 28.041258,69.208916 28.044910,78.862045 
	C28.047777,86.442039 33.979195,92.796875 41.732704,92.948936 
	C52.546719,93.161018 63.370712,93.150108 74.185280,92.952606 
	C81.985435,92.810165 87.930733,86.278618 87.959221,78.419823 
	C87.994789,68.605179 88.074303,58.790695 88.539322,48.732136 
M92.997490,59.478630 
	C92.997993,62.469227 93.071716,65.462090 92.979393,68.449821 
	C92.877174,71.757904 94.703033,72.525703 97.422272,71.813728 
	C102.903252,70.378639 108.632210,64.074188 109.018761,59.456417 
	C109.629585,52.159378 108.266762,48.070465 99.301102,43.885437 
	C94.993530,41.874733 93.212181,42.937771 93.028198,47.528362 
	C92.881935,51.177689 92.998039,54.837532 92.997490,59.478630 
z"/>
<path fill="#E7E7E7" opacity="1.000000" stroke="none" 
	d="
M39.349651,10.313865 
	C42.908531,9.565781 44.300137,10.897014 44.023575,14.204635 
	C43.679230,18.323015 43.521156,22.456968 43.258373,27.004156 
	C38.037331,24.950432 36.597614,17.183537 39.349651,10.313865 
z"/>
<path fill="#E7E7E7" opacity="1.000000" stroke="none" 
	d="
M56.995178,10.019030 
	C58.561367,11.156934 60.654305,12.302094 60.666351,13.468740 
	C60.708145,17.516855 60.027222,21.572430 59.535175,26.484432 
	C58.209667,25.772402 56.074032,25.167881 56.065346,24.534195 
	C55.999123,19.704714 56.348137,14.869540 56.995178,10.019030 
z"/>
<path fill="#E7E7E7" opacity="1.000000" stroke="none" 
	d="
M72.223694,17.533047 
	C72.772972,14.601542 69.900131,9.746443 75.270355,10.190666 
	C80.103577,10.590467 76.523788,14.663994 76.931793,17.020727 
	C77.263924,18.939198 77.307785,21.028322 76.896141,22.914461 
	C76.596985,24.285192 75.345657,25.448114 74.518867,26.703690 
	C73.942223,25.353312 73.172089,24.048384 72.841301,22.640249 
	C72.483986,21.119198 72.537300,19.501682 72.223694,17.533047 
z"/>
<path fill="#FEFEFE" opacity="1.000000" stroke="none" 
	d="
M58.706604,38.105896 
	C58.862041,38.454254 58.647728,38.673935 58.113823,38.884468 
	C58.075489,38.673882 58.256363,38.374516 58.706604,38.105896 
z"/>
<path fill="#FEFEFE" opacity="1.000000" stroke="none" 
	d="
M98.027359,38.712215 
	C97.797066,38.882156 97.519699,38.738533 97.150429,38.338108 
	C97.337479,38.241726 97.644730,38.347511 98.027359,38.712215 
z"/>
<path fill="#FEFEFE" opacity="1.000000" stroke="none" 
	d="
M39.971500,97.288498 
	C40.202702,97.117340 40.480900,97.260841 40.850323,97.662827 
	C40.662476,97.759796 40.354794,97.653748 39.971500,97.288498 
z"/>
<path fill="#FEFEFE" opacity="1.000000" stroke="none" 
	d="
M76.293533,97.896271 
	C76.137794,97.545006 76.354370,97.324867 76.894737,97.117653 
	C76.931946,97.328804 76.747719,97.627747 76.293533,97.896271 
z"/>
<path fill="#FD7A33" opacity="1.000000" stroke="none" 
	d="
M27.029032,47.897072 
	C26.480339,44.328373 27.745068,42.886261 31.603609,42.924118 
	C48.919342,43.094009 66.237755,43.024727 83.555000,42.973816 
	C86.541771,42.965038 88.786064,43.611046 88.724518,47.576336 
	C88.345253,48.357998 88.240051,48.667072 88.134842,48.976143 
	C88.074303,58.790695 87.994789,68.605179 87.959221,78.419823 
	C87.930733,86.278618 81.985435,92.810165 74.185280,92.952606 
	C63.370712,93.150108 52.546719,93.161018 41.732704,92.948936 
	C33.979195,92.796875 28.047777,86.442039 28.044910,78.862045 
	C28.041258,69.208916 28.035980,59.555786 27.978615,49.170120 
	C27.626896,48.257412 27.327965,48.077244 27.029032,47.897072 
z"/>
<path fill="#FD7A33" opacity="1.000000" stroke="none" 
	d="
M92.997574,58.985668 
	C92.998039,54.837532 92.881935,51.177689 93.028198,47.528362 
	C93.212181,42.937771 94.993530,41.874733 99.301102,43.885437 
	C108.266762,48.070465 109.629585,52.159378 109.018761,59.456417 
	C108.632210,64.074188 102.903252,70.378639 97.422272,71.813728 
	C94.703033,72.525703 92.877174,71.757904 92.979393,68.449821 
	C93.071716,65.462090 92.997993,62.469227 92.997574,58.985668 
z"/>
<path fill="#FEFEFE" opacity="1.000000" stroke="none" 
	d="
M27.116709,48.116325 
	C27.327965,48.077244 27.626896,48.257412 27.894939,48.706512 
	C27.546085,48.863262 27.326197,48.649975 27.116709,48.116325 
z"/>
<path fill="#FEFEFE" opacity="1.000000" stroke="none" 
	d="
M88.337082,48.854141 
	C88.240051,48.667072 88.345253,48.357998 88.710327,47.972298 
	C88.881447,48.202766 88.737823,48.481590 88.337082,48.854141 
z"/>
</svg>