<svg width="17" height="17" viewBox="0 0 17 17" fill="none" xmlns="http://www.w3.org/2000/svg">
<path d="M16.375 8.06253C16.378 9.21741 16.1082 10.3567 15.5875 11.3875C14.9701 12.6228 14.021 13.6618 12.8465 14.3881C11.672 15.1145 10.3185 15.4995 8.9375 15.5C7.78262 15.503 6.64335 15.2332 5.6125 14.7125L0.625 16.375L2.2875 11.3875C1.76681 10.3567 1.49699 9.21741 1.5 8.06253C1.50053 6.68156 1.88554 5.32802 2.61188 4.15351C3.33822 2.97899 4.37722 2.0299 5.6125 1.41253C6.64335 0.89184 7.78262 0.622014 8.9375 0.625025H9.375C11.1988 0.725643 12.9214 1.49544 14.213 2.78703C15.5046 4.07861 16.2744 5.80122 16.375 7.62503V8.06253Z" stroke="black" stroke-linecap="round" stroke-linejoin="round"/>
</svg>
