<svg width="36" height="35" viewBox="0 0 36 35" fill="none" xmlns="http://www.w3.org/2000/svg">
<g clip-path="url(#clip0_7403_3113)">
<path fill-rule="evenodd" clip-rule="evenodd" d="M17.5449 35C14.0838 35 10.7003 33.9737 7.82245 32.0507C4.94459 30.1278 2.70159 27.3947 1.37706 24.197C0.0525225 20.9993 -0.29406 17.4806 0.381181 14.0859C1.05642 10.6913 2.72316 7.57306 5.17057 5.12564C7.61799 2.67822 10.7362 1.01151 14.1308 0.336268C17.5255 -0.338973 21.0442 0.00757432 24.2419 1.33211C27.4396 2.65664 30.1727 4.89966 32.0957 7.77752C34.0186 10.6554 35.0449 14.0388 35.0449 17.5C35.0449 22.1413 33.2012 26.5925 29.9193 29.8744C26.6374 33.1563 22.1862 35 17.5449 35Z" fill="white"/>
<path fill-rule="evenodd" clip-rule="evenodd" d="M17.5449 35C14.0838 35 10.7003 33.9737 7.82245 32.0507C4.94459 30.1278 2.70159 27.3947 1.37706 24.197C0.0525225 20.9993 -0.29406 17.4806 0.381181 14.0859C1.05642 10.6913 2.72316 7.57306 5.17057 5.12564C7.61799 2.67822 10.7362 1.01151 14.1308 0.336268C17.5255 -0.338973 21.0442 0.0075743 24.2419 1.33211C27.4396 2.65664 30.1727 4.89966 32.0957 7.77752C34.0186 10.6554 35.0449 14.0388 35.0449 17.5C35.0449 22.1413 33.2012 26.5925 29.9193 29.8744C26.6374 33.1563 22.1862 35 17.5449 35ZM7.63643 21.4463C7.2601 21.0658 7.04903 20.5522 7.04903 20.0171C7.04903 19.4819 7.2601 18.9684 7.63643 18.5879L8.66662 17.5636C8.84181 17.3868 9.05071 17.247 9.28097 17.1525C9.51122 17.0581 9.75813 17.0108 10.007 17.0136C10.2559 17.0164 10.5016 17.0691 10.7297 17.1687C10.9578 17.2683 11.1636 17.4127 11.3348 17.5933L13.1548 19.4816C13.2415 19.5732 13.3461 19.6461 13.462 19.6959C13.5778 19.7457 13.7027 19.7714 13.8288 19.7714C13.955 19.7714 14.0798 19.7457 14.1957 19.6959C14.3116 19.6461 14.4161 19.5732 14.5028 19.4816L23.7779 9.92075C23.9503 9.73883 24.1578 9.59367 24.3877 9.49399C24.6177 9.3943 24.8655 9.34216 25.1162 9.34069C25.3668 9.33922 25.6152 9.38844 25.8463 9.48542C26.0775 9.5824 26.2866 9.72513 26.4612 9.90501L27.4616 10.9165C27.8287 11.2954 28.034 11.8023 28.034 12.3299C28.034 12.8575 27.8287 13.3644 27.4616 13.7433L15.148 26.2564C14.9762 26.4343 14.7706 26.5761 14.5432 26.6734C14.3159 26.7708 14.0713 26.8218 13.824 26.8234C13.5767 26.8251 13.3315 26.7773 13.1029 26.6829C12.8743 26.5886 12.6669 26.4495 12.4927 26.2739L7.63643 21.4463Z" fill="#FFBD12"/>
</g>
<defs>
<clipPath id="clip0_7403_3113">
<rect width="35" height="35" fill="white" transform="translate(0.0449219)"/>
</clipPath>
</defs>
</svg>
