<svg width="36" height="37" viewBox="0 0 36 37" fill="none" xmlns="http://www.w3.org/2000/svg">
<path d="M6.24121 29.6364V1H34.3048V29.6364C34.3048 33.1507 31.5125 36 28.0685 36" stroke="#3D3D3D" stroke-width="2" stroke-miterlimit="10" stroke-linecap="round" stroke-linejoin="round"/>
<path d="M21.8317 29.6365H1.56348C1.56348 33.1508 4.35581 36.0001 7.79984 36.0001H28.068C24.624 36.0001 21.8317 33.1508 21.8317 29.6365Z" stroke="#3D3D3D" stroke-width="2" stroke-miterlimit="10" stroke-linecap="round" stroke-linejoin="round"/>
<path d="M18.7136 15.3181H28.0682" stroke="#3D3D3D" stroke-width="2" stroke-miterlimit="10" stroke-linejoin="round"/>
<path d="M12.4773 15.3181H15.5955" stroke="#3D3D3D" stroke-width="2" stroke-miterlimit="10" stroke-linejoin="round"/>
<path d="M18.7136 21.6812H28.0682" stroke="#3D3D3D" stroke-width="2" stroke-miterlimit="10" stroke-linejoin="round"/>
<path d="M12.4773 21.6812H15.5955" stroke="#3D3D3D" stroke-width="2" stroke-miterlimit="10" stroke-linejoin="round"/>
<path d="M18.7136 8.95435H28.0682" stroke="#3D3D3D" stroke-width="2" stroke-miterlimit="10" stroke-linejoin="round"/>
<path d="M12.4773 8.95435H15.5955" stroke="#3D3D3D" stroke-width="2" stroke-miterlimit="10" stroke-linejoin="round"/>
<path d="M21.8317 29.6365H1.56348C1.56348 33.1508 4.35581 36.0001 7.79984 36.0001H28.068C24.624 36.0001 21.8317 33.1508 21.8317 29.6365Z" fill="#3D3D3D"/>
</svg>
