<svg width="36" height="35" viewBox="0 0 36 35" fill="none" xmlns="http://www.w3.org/2000/svg">
<path d="M17.9356 0C14.4744 0 11.0909 1.02636 8.21307 2.94928C5.33521 4.87221 3.0922 7.60533 1.76766 10.803C0.443129 14.0007 0.096571 17.5194 0.771812 20.9141C1.44705 24.3087 3.11377 27.4269 5.56119 29.8744C8.0086 32.3218 11.1268 33.9885 14.5215 34.6637C17.9161 35.339 21.4348 34.9924 24.6325 33.6679C27.8302 32.3434 30.5633 30.1003 32.4863 27.2225C34.4092 24.3446 35.4356 20.9612 35.4356 17.5C35.4356 12.8587 33.5918 8.40752 30.3099 5.12563C27.028 1.84374 22.5768 0 17.9356 0ZM27.0149 13.852L15.8785 24.9884C15.5802 25.2867 15.1756 25.4542 14.7537 25.4542C14.3319 25.4542 13.9273 25.2867 13.629 24.9884L8.85624 20.2157C8.56644 19.9156 8.40608 19.5138 8.40971 19.0966C8.41333 18.6795 8.58065 18.2805 8.87561 17.9855C9.17058 17.6905 9.5696 17.5232 9.98673 17.5196C10.4039 17.516 10.8057 17.6763 11.1058 17.9661L14.7537 21.6141L24.7653 11.6025C25.0654 11.3127 25.4672 11.1523 25.8844 11.156C26.3015 11.1596 26.7005 11.3269 26.9955 11.6219C27.2905 11.9168 27.4578 12.3159 27.4614 12.733C27.465 13.1501 27.3047 13.552 27.0149 13.852Z" fill="#F68013"/>
</svg>
