<svg width="35" height="35" viewBox="0 0 35 35" fill="none" xmlns="http://www.w3.org/2000/svg">
<path d="M29.8379 12.5781C29.8378 12.1209 29.6786 11.6788 29.389 11.3312C29.0994 10.9836 28.6983 10.7535 28.258 10.6821L19.707 9.29688H15.4414L6.89043 10.6816C6.45003 10.7529 6.04892 10.9832 5.7593 11.3309C5.46967 11.6785 5.31054 12.1208 5.31055 12.5781" stroke="#3D3D3D" stroke-width="1.3" stroke-linejoin="round"/>
<path d="M13.8418 0.546875C13.8418 1.27586 12.7754 1.27586 12.7754 2.00539C12.7754 2.73492 13.8418 2.73438 13.8418 3.46336C13.8418 4.19234 12.7754 4.19289 12.7754 4.92188" stroke="#3D3D3D" stroke-width="1.3" stroke-linejoin="round"/>
<path d="M18.1074 0.546875C18.1074 1.27586 17.041 1.27586 17.041 2.00539C17.041 2.73492 18.1074 2.73438 18.1074 3.46336C18.1074 4.19234 17.041 4.19289 17.041 4.92188" stroke="#3D3D3D" stroke-width="1.3" stroke-linejoin="round"/>
<path d="M22.373 0.546875C22.373 1.27586 21.3066 1.27586 21.3066 2.00539C21.3066 2.73492 22.373 2.73438 22.373 3.46336C22.373 4.19234 21.3066 4.19289 21.3066 4.92188" stroke="#3D3D3D" stroke-width="1.3" stroke-linejoin="round"/>
<path d="M32.5039 32.8125H34.1035V34.4531H1.04492V32.8125H2.64453" stroke="#3D3D3D" stroke-width="1.3" stroke-linejoin="round"/>
<path d="M3.71094 32.8125H31.4375" stroke="#3D3D3D" stroke-width="1.3" stroke-linejoin="round"/>
<path d="M19.707 30.0781C19.707 30.6583 19.4823 31.2147 19.0823 31.6249C18.6824 32.0352 18.1399 32.2656 17.5742 32.2656C17.0086 32.2656 16.4661 32.0352 16.0661 31.6249C15.6661 31.2147 15.4414 30.6583 15.4414 30.0781C15.4414 28.8701 17.041 25.7031 17.5742 25.7031C18.1074 25.7031 19.707 28.8701 19.707 30.0781Z" stroke="#3D3D3D" stroke-width="1.3" stroke-linejoin="round"/>
<path d="M28.2383 30.0781C28.2383 30.6583 28.0136 31.2147 27.6136 31.6249C27.2136 32.0352 26.6711 32.2656 26.1055 32.2656C24.9276 32.2656 23.9727 31.833 23.9727 30.625C23.9727 29.417 26.6387 25.7031 27.1719 25.7031C27.7051 25.7031 28.2383 28.8701 28.2383 30.0781Z" stroke="#3D3D3D" stroke-width="1.3" stroke-linejoin="round"/>
<path d="M6.91016 30.0781C6.91016 30.6583 7.13486 31.2147 7.53484 31.6249C7.93482 32.0352 8.47731 32.2656 9.04297 32.2656C10.2208 32.2656 11.1758 31.833 11.1758 30.625C11.1758 29.417 8.50977 25.7031 7.97656 25.7031C7.44336 25.7031 6.91016 28.8701 6.91016 30.0781Z" stroke="#3D3D3D" stroke-width="1.3" stroke-linejoin="round"/>
<path d="M27.7051 31.1719C28.2707 31.1719 28.8132 30.9414 29.2132 30.5312C29.6132 30.1209 29.8379 29.5645 29.8379 28.9844V12.5781H5.31055V28.9844C5.31055 29.5645 5.53525 30.1209 5.93523 30.5312C6.33521 30.9414 6.8777 31.1719 7.44336 31.1719" stroke="#3D3D3D" stroke-width="1.3" stroke-linejoin="round"/>
<path d="M19.1738 31.1719H23.9727" stroke="#3D3D3D" stroke-width="1.3" stroke-linejoin="round"/>
<path d="M11.1758 31.1719H15.9746" stroke="#3D3D3D" stroke-width="1.3" stroke-linejoin="round"/>
<path d="M31.4375 14.7656H33.5703C33.7117 14.7656 33.8473 14.8232 33.9473 14.9258C34.0473 15.0284 34.1035 15.1675 34.1035 15.3125V16.4062C34.1035 16.5513 34.0473 16.6904 33.9473 16.7929C33.8473 16.8955 33.7117 16.9531 33.5703 16.9531H29.8379V14.7656" stroke="#3D3D3D" stroke-width="1.3" stroke-linejoin="round"/>
<path d="M32.5039 16.9531L31.7324 18.5358C31.6438 18.7175 31.5077 18.8704 31.3392 18.9772C31.1707 19.084 30.9765 19.1406 30.7785 19.1406H29.8379" stroke="#3D3D3D" stroke-width="1.3" stroke-linejoin="round"/>
<path d="M3.71094 14.7656H1.57812C1.43671 14.7656 1.30109 14.8232 1.20109 14.9258C1.1011 15.0284 1.04492 15.1675 1.04492 15.3125V16.4062C1.04492 16.5513 1.1011 16.6904 1.20109 16.7929C1.30109 16.8955 1.43671 16.9531 1.57812 16.9531H5.31055V14.7656" stroke="#3D3D3D" stroke-width="1.3" stroke-linejoin="round"/>
<path d="M2.64453 16.9531L3.41608 18.5358C3.50462 18.7175 3.64076 18.8704 3.80925 18.9772C3.97773 19.084 4.1719 19.1406 4.36998 19.1406H5.31055" stroke="#3D3D3D" stroke-width="1.3" stroke-linejoin="round"/>
<path d="M6.91016 14.7656H5.31055" stroke="#3D3D3D" stroke-width="1.3" stroke-linejoin="round"/>
<path d="M9.04297 14.7656H7.97656" stroke="#3D3D3D" stroke-width="1.3" stroke-linejoin="round"/>
<path d="M29.8379 14.7656H10.1094" stroke="#3D3D3D" stroke-width="1.3" stroke-linejoin="round"/>
<path d="M17.5742 6.01562C18.1399 6.01563 18.6824 6.24609 19.0823 6.65633C19.4823 7.06656 19.707 7.62296 19.707 8.20312V9.29688H15.4414V8.20312C15.4414 7.62296 15.6661 7.06656 16.0661 6.65633C16.4661 6.24609 17.0086 6.01563 17.5742 6.01562Z" stroke="#3D3D3D" stroke-width="1.3" stroke-linejoin="round"/>
</svg>
