<svg width="284" height="224" viewBox="0 0 284 224" fill="none" xmlns="http://www.w3.org/2000/svg">
<g clip-path="url(#clip0_1420_6151)">
<path d="M68.183 121.45C65.9164 109.303 69.4849 95.4835 79.4033 88.1309C78.8412 101.557 83.0399 114.75 91.2567 125.374C94.4404 129.46 98.4063 133.673 98.2831 138.854C98.2065 142.078 96.4654 145.081 94.1708 147.344C91.8761 149.606 89.0496 151.238 86.2568 152.844L85.8221 153.521C77.6353 144.274 70.4496 133.596 68.183 121.45Z" fill="#F0F0F0"/>
<path d="M79.5843 88.3166C75.4173 97.655 74.2947 108.071 76.376 118.084C76.7859 120.248 77.5338 122.333 78.5921 124.264C79.6838 126.111 81.2496 127.632 83.1268 128.668C84.8576 129.67 86.744 130.493 88.2016 131.899C88.937 132.629 89.51 133.507 89.8829 134.475C90.2557 135.442 90.4201 136.478 90.3651 137.514C90.2954 140.098 89.3023 142.503 88.2496 144.822C87.0807 147.396 85.8259 150.051 85.9017 152.945C85.9109 153.295 85.367 153.289 85.3578 152.939C85.2259 147.904 88.8612 143.861 89.6712 139.029C90.0492 136.775 89.751 134.393 88.1682 132.646C86.7841 131.118 84.8397 130.266 83.0783 129.268C81.2323 128.284 79.655 126.862 78.4842 125.127C77.3311 123.256 76.5042 121.203 76.039 119.055C74.9146 114.236 74.554 109.27 74.9703 104.338C75.4143 98.7074 76.8169 93.194 79.1176 88.0368C79.2601 87.7177 79.7259 87.9996 79.5843 88.3166Z" fill="white"/>
<path d="M75.516 114.899C73.7907 115.021 72.0785 114.525 70.6851 113.499C69.2916 112.473 68.3077 110.985 67.909 109.299C67.8295 108.958 68.3554 108.818 68.435 109.16C68.8033 110.73 69.72 112.116 71.0195 113.069C72.3191 114.022 73.9158 114.478 75.5217 114.355C75.8707 114.329 75.863 114.873 75.516 114.899Z" fill="white"/>
<path d="M82.1822 128.276C84.5242 125.624 85.782 122.186 85.7047 118.646C85.6968 118.296 86.2407 118.302 86.2486 118.652C86.3222 122.335 85.006 125.911 82.5627 128.665C82.3297 128.928 81.9504 128.537 82.1822 128.276Z" fill="white"/>
<path d="M76.0512 99.0455C76.7285 99.1378 77.4181 99.0601 78.058 98.8195C78.698 98.5789 79.2682 98.183 79.7176 97.6672C79.9472 97.402 80.3263 97.7928 80.0981 98.0563C79.599 98.6239 78.9687 99.0604 78.2623 99.3278C77.5558 99.5951 76.7947 99.6852 76.0455 99.5901C75.9741 99.5871 75.9066 99.5569 75.8566 99.5058C75.8066 99.4547 75.7779 99.3865 75.7764 99.315C75.7775 99.2429 75.807 99.1741 75.8584 99.1237C75.9099 99.0732 75.9792 99.0451 76.0512 99.0455Z" fill="white"/>
<path d="M119.964 98.1783C119.825 98.3479 119.687 98.5176 119.549 98.6917C117.697 100.983 116.033 103.42 114.575 105.981C114.459 106.177 114.344 106.378 114.234 106.577C110.786 112.783 108.519 119.577 107.548 126.612C107.164 129.412 106.994 132.237 107.038 135.063C107.099 138.966 107.476 143.192 106.281 146.781C106.161 147.157 106.017 147.525 105.851 147.883L86.6808 153.999C86.6303 153.991 86.5809 153.988 86.5302 153.98L85.7759 154.259C85.7635 154.113 85.7537 153.962 85.7412 153.817C85.7337 153.732 85.7304 153.646 85.7228 153.562C85.7191 153.505 85.7156 153.448 85.709 153.398C85.7077 153.379 85.7066 153.36 85.7067 153.345C85.7002 153.294 85.6995 153.246 85.6943 153.2C85.6373 152.354 85.5845 151.508 85.5407 150.658C85.5394 150.654 85.5394 150.654 85.5422 150.648C85.2132 144.178 85.4207 137.623 86.6152 131.308C86.6512 131.118 86.6856 130.924 86.7303 130.731C87.2845 127.887 88.0699 125.094 89.0786 122.379C89.6357 120.894 90.2675 119.438 90.9716 118.017C92.798 114.349 95.1893 110.991 98.0577 108.066C103.777 102.238 111.294 98.3055 119.349 98.1817C119.555 98.1787 119.757 98.1769 119.964 98.1783Z" fill="#F0F0F0"/>
<path d="M119.998 98.4356C111.056 103.38 103.897 111.019 99.5382 120.269C98.5644 122.244 97.9076 124.36 97.592 126.539C97.353 128.672 97.6888 130.831 98.5645 132.79C99.3443 134.633 100.355 136.428 100.674 138.428C100.822 139.455 100.752 140.501 100.468 141.499C100.183 142.496 99.6918 143.422 99.0252 144.216C97.4155 146.238 95.1765 147.559 92.942 148.776C90.461 150.126 87.8627 151.49 86.1832 153.846C85.9797 154.132 85.5492 153.799 85.7524 153.514C88.6744 149.414 94.0083 148.377 97.5599 145.008C99.2172 143.436 100.411 141.354 100.198 139.005C100.012 136.95 98.9711 135.098 98.1653 133.239C97.2831 131.341 96.8785 129.254 96.987 127.163C97.1909 124.975 97.7652 122.837 98.6853 120.841C100.685 116.316 103.383 112.133 106.681 108.446C110.421 104.218 114.856 100.662 119.794 97.9308C120.1 97.7619 120.302 98.2678 119.998 98.4356Z" fill="white"/>
<path d="M100.767 117.208C99.3162 116.265 98.2476 114.836 97.7518 113.177C97.256 111.518 97.3654 109.737 98.0603 108.151C98.202 107.83 98.7059 108.036 98.564 108.357C97.9141 109.832 97.8125 111.492 98.2773 113.036C98.7421 114.58 99.7428 115.907 101.099 116.777C101.393 116.966 101.06 117.396 100.767 117.208Z" fill="white"/>
<path d="M98.0461 131.907C101.511 131.202 104.582 129.215 106.649 126.342C106.853 126.057 107.284 126.39 107.08 126.675C104.924 129.66 101.723 131.721 98.116 132.447C97.7722 132.516 97.7041 131.976 98.0461 131.907Z" fill="white"/>
<path d="M110.727 104.872C111.212 105.354 111.81 105.708 112.465 105.902C113.121 106.095 113.814 106.123 114.483 105.982C114.826 105.909 114.894 106.449 114.553 106.522C113.813 106.674 113.048 106.643 112.323 106.431C111.598 106.218 110.936 105.831 110.395 105.304C110.34 105.258 110.304 105.193 110.295 105.122C110.286 105.052 110.304 104.98 110.346 104.922C110.39 104.865 110.455 104.828 110.526 104.818C110.597 104.809 110.67 104.829 110.727 104.872Z" fill="white"/>
<path d="M150.077 31.7545C150.141 32.0371 150.183 32.3245 150.202 32.6138L172.679 45.5977L178.142 42.4484L183.966 50.0832L174.835 56.5995C174.098 57.126 173.21 57.3986 172.304 57.3765C171.398 57.3544 170.525 57.0388 169.813 56.477L146.636 38.168C145.59 38.5557 144.451 38.6154 143.37 38.339C142.29 38.0627 141.318 37.4634 140.586 36.621C139.854 35.7785 139.395 34.7328 139.271 33.623C139.147 32.5131 139.363 31.3916 139.891 30.4078C140.419 29.4239 141.233 28.6242 142.226 28.1152C143.218 27.6061 144.342 27.4118 145.448 27.558C146.554 27.7041 147.589 28.184 148.416 28.9336C149.243 29.6832 149.822 30.6671 150.077 31.7545Z" fill="#FFB6B6"/>
<path d="M172.991 44.1642C173.062 43.833 173.204 43.5211 173.407 43.2498C173.609 42.9785 173.868 42.7541 174.165 42.5921L184.542 36.9306C185.924 35.8862 187.663 35.4332 189.378 35.671C191.093 35.9087 192.644 36.8177 193.691 38.1987C194.737 39.5798 195.194 41.32 194.961 43.0378C194.728 44.7557 193.824 46.3109 192.448 47.3625L184.131 55.8227C183.893 56.0642 183.607 56.2515 183.291 56.3721C182.974 56.4926 182.636 56.5435 182.298 56.5213C181.961 56.499 181.632 56.4042 181.334 56.2432C181.036 56.0822 180.777 55.8589 180.573 55.5884L173.412 46.0817C173.208 45.8113 173.065 45.5 172.993 45.169C172.92 44.8381 172.919 44.4953 172.991 44.1642Z" fill="#3F3D56"/>
<path d="M191.53 11.2503C193.023 6.48568 196.418 2.11575 201.114 0.505046C205.81 -1.10565 212.686 1.34797 216.216 4.8709C222.673 11.3151 224.249 33.453 219.813 40.4489C218.93 40.4021 215.885 40.3675 214.992 40.334L213.729 36.1175V40.2925C206.758 40.0768 199.5 40.2118 192.238 40.3515C191.587 35.3984 190.037 16.0149 191.53 11.2503Z" fill="#2F2E41"/>
<path d="M189.532 211.244H183.174L180.149 186.686L189.533 186.686L189.532 211.244Z" fill="#FFB6B6"/>
<path d="M245.193 207.285L239.041 208.89L229.927 185.891L239.008 183.521L245.193 207.285Z" fill="#FFB6B6"/>
<path d="M210.153 60.4135L211.594 64.1642L211.306 67.915L183.109 77.6941L184.509 61.279L187.678 57.5278L210.153 60.4135Z" fill="#FFB6B6"/>
<path d="M201.238 26.6597C206.8 26.6597 211.309 22.1449 211.309 16.5757C211.309 11.0064 206.8 6.49164 201.238 6.49164C195.676 6.49164 191.167 11.0064 191.167 16.5757C191.167 22.1449 195.676 26.6597 201.238 26.6597Z" fill="#FFB7B7"/>
<path d="M194.318 3.44447C196.253 2.26325 198.47 1.62428 200.736 1.59436C203.002 1.56445 205.234 2.14469 207.2 3.27442C209.165 4.40415 210.791 6.04188 211.908 8.01635C213.025 9.99082 213.592 12.2295 213.549 14.4984C208.06 15.9033 202.21 16.4909 196.011 14.8367L194.593 11.3639L193.758 14.8393C191.861 16.1752 190.031 16.1728 188.266 14.8321C188.192 12.5696 188.711 10.3272 189.773 8.3288C190.835 6.33044 192.402 4.64621 194.318 3.44447Z" fill="#2F2E41"/>
<path d="M192.377 223.333H187.865L187.059 219.068L184.997 223.333H173.03C172.457 223.333 171.898 223.15 171.436 222.809C170.974 222.469 170.633 221.989 170.462 221.441C170.291 220.893 170.3 220.304 170.487 219.761C170.674 219.218 171.03 218.749 171.502 218.423L181.058 211.815V207.502L191.109 208.103L192.377 223.333Z" fill="#2F2E41"/>
<path d="M251.548 218.119L247.182 219.259L245.329 215.335L244.407 219.983L232.828 223.005C232.273 223.15 231.686 223.114 231.153 222.901C230.62 222.688 230.169 222.311 229.866 221.823C229.563 221.336 229.423 220.764 229.467 220.191C229.511 219.619 229.737 219.075 230.112 218.64L237.694 209.832L236.608 205.659L246.485 203.702L251.548 218.119Z" fill="#2F2E41"/>
<path d="M244.413 191.841L225.775 153.484L219.924 106.799C223.958 99.2974 216.466 84.033 216.466 84.033V77.6241L187.445 83.1063C181.51 99.3173 178.631 116.491 178.957 133.754L180.126 195.812H179.759C179.15 195.812 178.567 196.054 178.136 196.485C177.706 196.916 177.464 197.501 177.464 198.11C177.464 198.72 177.706 199.304 178.136 199.735C178.567 200.166 179.15 200.408 179.759 200.408H191.235C191.844 200.408 192.428 200.166 192.858 199.735C193.289 199.304 193.53 198.72 193.53 198.11C193.53 197.501 193.289 196.916 192.858 196.485C192.428 196.054 191.844 195.812 191.235 195.812H190.939L199.178 116.864L208.757 155.823L231.907 191.694C231.316 191.74 230.766 192.013 230.373 192.456C229.98 192.9 229.773 193.478 229.797 194.071C229.821 194.664 230.073 195.224 230.501 195.634C230.928 196.045 231.498 196.273 232.09 196.272H243.566C244.1 196.272 244.617 196.086 245.029 195.746C245.44 195.405 245.721 194.932 245.821 194.407C245.921 193.882 245.835 193.339 245.578 192.87C245.321 192.402 244.909 192.038 244.413 191.841Z" fill="#2F2E41"/>
<path d="M219.091 87.9622C218.995 87.5871 218.784 87.252 218.486 87.0047C218.189 86.7574 217.821 86.6107 217.436 86.5856C217.053 82.2064 214.526 54.121 214.429 53.297L214.426 53.2622L213.694 37.6074C213.667 37.0389 213.432 36.5001 213.034 36.0939C212.636 35.6877 212.102 35.4427 211.535 35.4056L207.67 35.1526C207.617 35.1508 207.566 35.1284 207.529 35.0902C207.493 35.052 207.472 35.001 207.472 34.9479C207.472 34.5204 207.388 34.0971 207.225 33.7022C207.061 33.3073 206.822 32.9485 206.52 32.6462C206.218 32.344 205.86 32.1042 205.465 31.9407C205.071 31.7771 204.648 31.6929 204.221 31.6929H192.777C192.036 31.6932 191.32 31.9644 190.764 32.4556C190.208 32.9467 189.851 33.6241 189.758 34.3606C189.753 34.4113 189.729 34.4582 189.691 34.492C189.653 34.5258 189.604 34.5439 189.553 34.5427L189.551 34.5427C188.251 34.5158 186.984 34.9567 185.98 35.7852C184.977 36.6138 184.303 37.7751 184.082 39.0584C182.517 48.1738 179.381 68.8622 180.932 80.3638C181.471 84.3677 181.226 90.3895 181.022 93.7396C181.002 94.0633 181.045 94.3879 181.151 94.6947C181.256 95.0015 181.42 95.2845 181.635 95.5274C181.179 95.6592 180.791 95.9633 180.554 96.3755C180.317 96.7878 180.25 97.276 180.365 97.7373C180.484 98.2101 180.786 98.6163 181.204 98.8663C181.622 99.1164 182.122 99.1899 182.594 99.0707L217.759 90.1944C218.231 90.0752 218.637 89.7731 218.886 89.3545C219.136 88.9358 219.21 88.435 219.091 87.9622Z" fill="#3F3D56"/>
<path d="M160.973 153.777C160.966 152.749 160.596 151.756 159.929 150.975C159.261 150.194 158.339 149.675 157.325 149.51L94.9804 139.259C94.3825 139.16 93.7706 139.187 93.1839 139.339L78.573 143.122L70.1897 145.295L54.7186 149.3C53.7847 149.542 52.9577 150.089 52.3672 150.853C51.7768 151.617 51.4563 152.556 51.4561 153.522V218.937C51.4607 219.935 51.8048 220.9 52.4317 221.675C53.0585 222.45 53.9305 222.988 54.9037 223.2L118.407 222.48C118.705 222.544 119.009 222.576 119.314 222.574C119.758 222.575 120.2 222.508 120.624 222.374L158.352 223.315C159.243 223.036 160.02 222.478 160.568 221.723C161.117 220.967 161.408 220.055 161.397 219.121L160.973 153.777Z" fill="white"/>
<path d="M160.973 153.777C160.966 152.749 160.596 151.756 159.929 150.975C159.261 150.194 158.339 149.675 157.325 149.51L94.9804 139.259C94.3825 139.16 93.7706 139.187 93.1839 139.339L78.573 143.122L70.1897 145.295L54.7186 149.3C53.7847 149.542 52.9577 150.089 52.3672 150.853C51.7768 151.617 51.4563 152.556 51.4561 153.522V218.937C51.4607 219.935 51.8048 220.9 52.4317 221.675C53.0585 222.45 53.9305 222.988 54.9037 223.2L118.407 222.48C118.705 222.544 119.009 222.576 119.314 222.574C119.758 222.575 120.2 222.508 120.624 222.374L158.352 223.315C159.243 223.036 160.02 222.478 160.568 221.723C161.117 220.967 161.408 220.055 161.397 219.121L160.973 153.777ZM158.026 222.275L120.297 223.174C119.759 223.342 119.187 223.369 118.635 223.254L55.1288 222.135C54.3991 221.976 53.7454 221.572 53.2756 220.991C52.8059 220.409 52.5481 219.685 52.5448 218.937V153.522C52.5453 152.853 52.7508 152.199 53.1337 151.65C53.5165 151.101 54.0583 150.683 54.686 150.451C54.7857 150.414 54.8875 150.382 54.9908 150.357L71.3583 146.12L81.0372 143.612L93.4561 140.396C93.7224 140.325 93.997 140.29 94.2727 140.291C94.4502 140.291 94.6274 140.306 94.8025 140.335L157.148 150.586C157.649 150.668 158.125 150.867 158.537 151.165C158.949 151.463 159.286 151.854 159.521 152.305C159.757 152.762 159.881 153.269 159.884 153.784L160.309 219.128C160.316 219.829 160.099 220.513 159.687 221.08C159.276 221.647 158.694 222.066 158.026 222.275Z" fill="#CCCCCC"/>
<path d="M159.521 152.305C159.479 152.333 159.432 152.354 159.383 152.367L141.045 157.331L135.337 158.875L119.1 163.268C119.053 163.28 119.006 163.286 118.958 163.287C118.925 163.286 118.893 163.284 118.86 163.279L53.3905 151.327L53.1727 151.287C53.0309 151.261 52.9054 151.179 52.8236 151.06C52.7419 150.941 52.7105 150.794 52.7364 150.652C52.7623 150.51 52.8434 150.384 52.9618 150.301C53.0803 150.219 53.2266 150.186 53.3687 150.212L54.6861 150.451L118.936 162.182L132.93 158.395L140.758 156.277L158.813 151.389L159.1 151.313C159.224 151.28 159.356 151.292 159.472 151.346C159.588 151.401 159.681 151.494 159.735 151.611C159.749 151.638 159.76 151.668 159.768 151.698C159.798 151.812 159.79 151.933 159.745 152.042C159.701 152.152 159.622 152.244 159.521 152.305Z" fill="#CCCCCC"/>
<path d="M119.502 222.702C119.204 222.702 118.961 222.461 118.958 224L118.414 164.585C118.411 162.446 118.652 162.199 118.953 162.196H118.958C119.256 162.196 119.5 162.437 119.502 164.575L120.047 223.99C120.05 222.452 119.808 222.699 119.507 222.702H119.502Z" fill="#CCCCCC"/>
<path d="M141.199 223.391L135.336 223.453L132.93 158.395L71.5359 146.163C71.4757 146.153 71.4163 146.138 71.3581 146.12C70.8864 145.985 70.4744 145.695 70.1895 145.295L78.5728 143.122L81.037 143.612L139.292 155.216C139.598 155.276 139.888 155.402 140.141 155.585C140.394 155.769 140.605 156.004 140.758 156.277C140.94 156.593 141.196 223.013 141.199 223.391Z" fill="#CCCCCC"/>
<path d="M188.161 34.6989C188.156 33.9242 187.877 33.1762 187.374 32.5876C186.871 31.9991 186.176 31.608 185.412 31.4836L138.426 23.7577C137.975 23.683 137.514 23.7035 137.072 23.818L126.06 26.669L119.742 28.3067L108.082 31.3248C107.379 31.5079 106.755 31.9196 106.31 32.4956C105.865 33.0715 105.624 33.779 105.624 34.5072V73.0685C105.627 73.8201 105.886 74.548 106.359 75.1321C106.831 75.7162 107.488 76.1214 108.222 76.281L156.081 86.4774C156.306 86.5257 156.535 86.5496 156.765 86.5486C157.1 86.5492 157.433 86.4984 157.752 86.398L186.186 77.4067C186.857 77.197 187.443 76.7763 187.856 76.207C188.27 75.6376 188.489 74.9501 188.481 74.2462L188.161 34.6989Z" fill="white"/>
<path d="M137.893 26.5895C137.859 26.5894 137.825 26.5939 137.792 26.6026L108.802 34.1095C108.714 34.1323 108.636 34.1837 108.581 34.2555C108.525 34.3274 108.495 34.4158 108.495 34.5067V73.0674C108.495 73.1613 108.528 73.2523 108.587 73.3253C108.646 73.3983 108.728 73.4489 108.82 73.4689L156.679 83.665C156.748 83.6796 156.82 83.6761 156.887 83.6549L185.322 74.6638C185.406 74.6377 185.479 74.5851 185.531 74.514C185.582 74.4429 185.609 74.357 185.608 74.2691L185.29 34.722C185.289 34.6252 185.254 34.5318 185.191 34.4583C185.128 34.3849 185.041 34.336 184.946 34.3205L137.96 26.5948C137.938 26.5913 137.916 26.5895 137.893 26.5895Z" fill="#FD7A33"/>
<path d="M188.161 34.6989C188.156 33.9242 187.877 33.1762 187.374 32.5876C186.871 31.9991 186.176 31.608 185.412 31.4836L138.426 23.7577C137.975 23.683 137.514 23.7035 137.072 23.818L126.06 26.669L119.742 28.3067L108.082 31.3248C107.379 31.5079 106.755 31.9196 106.31 32.4956C105.865 33.0715 105.624 33.779 105.624 34.5072V73.0685C105.627 73.8201 105.886 74.548 106.359 75.1321C106.831 75.7162 107.488 76.1214 108.222 76.281L156.081 86.4774C156.306 86.5257 156.535 86.5496 156.765 86.5486C157.1 86.5492 157.433 86.4984 157.752 86.398L186.186 77.4067C186.857 77.197 187.443 76.7763 187.856 76.207C188.27 75.6376 188.489 74.9501 188.481 74.2462L188.161 34.6989ZM185.94 76.6234L157.506 85.6147C157.1 85.7412 156.669 85.7619 156.253 85.6749L108.391 75.4786C107.842 75.3586 107.349 75.0544 106.995 74.6162C106.641 74.1781 106.447 73.6322 106.444 73.0686V34.5072C106.444 34.0025 106.599 33.5101 106.888 33.0963C107.176 32.6825 107.585 32.3672 108.058 32.193C108.133 32.1648 108.21 32.141 108.288 32.1218L120.623 28.9284L127.917 27.0387L137.277 24.6149C137.478 24.5613 137.685 24.5346 137.892 24.5355C138.026 24.5355 138.16 24.5464 138.292 24.5684L185.278 32.2944C185.656 32.3565 186.015 32.5059 186.325 32.7307C186.636 32.9555 186.89 33.2497 187.067 33.5898C187.245 33.9346 187.338 34.3165 187.341 34.7044L187.661 74.2517C187.666 74.7797 187.502 75.2955 187.192 75.7227C186.883 76.1499 186.443 76.4658 185.94 76.6234Z" fill="#3F3D56"/>
<path d="M187.067 33.5898C187.035 33.6108 187 33.6265 186.963 33.6363L173.142 37.3774L168.84 38.5414L156.603 41.8525C156.568 41.8611 156.532 41.8657 156.496 41.8662C156.472 41.8657 156.447 41.8639 156.423 41.8607L107.081 32.853L106.917 32.8229C106.81 32.8029 106.715 32.7412 106.654 32.6515C106.592 32.5617 106.568 32.4511 106.588 32.3439C106.607 32.2367 106.668 32.1417 106.758 32.0795C106.847 32.0173 106.957 31.9931 107.065 32.0122L108.057 32.193L156.48 41.0336L167.027 38.1798L172.926 36.5831L186.533 32.8996L186.749 32.8421C186.843 32.8174 186.942 32.8264 187.029 32.8674C187.117 32.9085 187.187 32.979 187.228 33.0666C187.239 33.0876 187.247 33.1096 187.253 33.1324C187.275 33.2185 187.269 33.3096 187.236 33.3921C187.202 33.4745 187.143 33.5439 187.067 33.5898Z" fill="#3F3D56"/>
<path d="M156.907 86.6444C156.799 86.6444 156.695 86.6017 156.618 86.5254C156.541 86.4492 156.498 86.3457 156.497 86.2374L156.086 41.4591C156.085 41.3502 156.128 41.2453 156.204 41.1676C156.28 41.0898 156.384 41.0456 156.493 41.0446H156.497C156.605 41.0446 156.709 41.0873 156.785 41.1636C156.862 41.2398 156.906 41.3433 156.907 41.4516L157.317 86.2299C157.318 86.3388 157.276 86.4437 157.2 86.5214C157.123 86.5992 157.02 86.6434 156.911 86.6444H156.907Z" fill="#3F3D56"/>
<path d="M173.143 81.1971L168.84 82.3611L167.027 38.1799L120.757 28.9613C120.712 28.9533 120.667 28.9423 120.623 28.9284C120.268 28.8271 119.957 28.6079 119.742 28.3067L126.06 26.669L127.917 27.0387L171.822 35.7835C172.052 35.8292 172.271 35.9243 172.461 36.0623C172.652 36.2003 172.811 36.378 172.927 36.5832C173.063 36.8215 173.14 80.9123 173.143 81.1971Z" fill="#3F3D56"/>
<path d="M171.215 56.0068C171.435 56.1952 171.64 56.4008 171.828 56.6215L197.601 53.6074L200.108 47.8156L209.332 50.4611L205.889 61.1461C205.611 62.0094 205.061 62.7589 204.321 63.2824C203.582 63.8058 202.692 64.0748 201.787 64.049L172.277 63.209C171.669 64.1452 170.79 64.8738 169.759 65.2979C168.727 65.7219 167.59 65.8214 166.501 65.583C165.411 65.3447 164.42 64.7798 163.659 63.9635C162.897 63.1472 162.402 62.1181 162.24 61.0133C162.077 59.9084 162.254 58.7801 162.747 57.7784C163.24 56.7766 164.026 55.949 165 55.4055C165.975 54.862 167.091 54.6284 168.201 54.7358C169.312 54.8433 170.363 55.2866 171.215 56.0068Z" fill="#FFB6B6"/>
<path d="M196.997 52.2707C196.857 51.9623 196.785 51.6273 196.786 51.2885C196.787 50.9497 196.86 50.6151 197.002 50.3075L201.954 39.5634C202.441 37.8998 203.566 36.4972 205.084 35.6632C206.602 34.8292 208.388 34.6319 210.051 35.1145C211.713 35.5971 213.117 36.7203 213.954 38.2378C214.791 39.7553 214.993 41.5432 214.515 43.2094L212.884 54.968C212.838 55.3036 212.72 55.6252 212.538 55.9109C212.356 56.1966 212.115 56.4397 211.83 56.6236C211.546 56.8075 211.226 56.9279 210.891 56.9767C210.556 57.0254 210.215 57.0014 209.89 56.9061L198.478 53.5573C198.153 53.4622 197.853 53.298 197.597 53.0759C197.342 52.8539 197.137 52.5792 196.997 52.2707Z" fill="#3F3D56"/>
<path d="M283.453 223.869H0.546455C0.401768 223.869 0.263146 223.811 0.160985 223.709C0.0588234 223.606 0.00146484 223.467 0.00146484 223.322C0.00146484 223.177 0.0588234 223.038 0.160985 222.936C0.263146 222.833 0.401768 222.775 0.546455 222.775H283.453C283.598 222.775 283.737 222.833 283.84 222.935C283.942 223.038 284 223.177 284 223.322C284 223.467 283.942 223.607 283.84 223.709C283.737 223.812 283.598 223.869 283.453 223.869Z" fill="#CACACA"/>
<path d="M55.1371 165.716C64.2161 165.716 71.576 158.346 71.576 149.255C71.576 140.164 64.2161 132.794 55.1371 132.794C46.0582 132.794 38.6982 140.164 38.6982 149.255C38.6982 158.346 46.0582 165.716 55.1371 165.716Z" fill="#FD7A33"/>
<path d="M52.8947 157.822C52.6109 157.822 52.3309 157.756 52.077 157.629C51.8231 157.501 51.6023 157.317 51.432 157.089L46.9472 151.102C46.6563 150.713 46.5313 150.225 46.5999 149.744C46.6685 149.263 46.925 148.83 47.313 148.538C47.701 148.247 48.1887 148.122 48.6688 148.191C49.1489 148.259 49.582 148.516 49.873 148.905L52.8071 152.822L60.3429 141.503C60.4758 141.302 60.6469 141.129 60.8465 140.995C61.0461 140.86 61.2703 140.767 61.5062 140.719C61.742 140.671 61.985 140.671 62.2211 140.717C62.4571 140.764 62.6817 140.857 62.8819 140.99C63.0821 141.124 63.254 141.296 63.3878 141.496C63.5215 141.697 63.6145 141.921 63.6613 142.158C63.7081 142.394 63.7079 142.637 63.6606 142.873C63.6134 143.11 63.52 143.334 63.3859 143.534L54.4164 157.006C54.2541 157.25 54.0359 157.451 53.78 157.593C53.5241 157.735 53.238 157.813 52.9456 157.821C52.9287 157.822 52.9117 157.822 52.8947 157.822Z" fill="white"/>
<path d="M125.133 61.8235C125.082 61.8234 125.031 61.8177 124.981 61.8064L110.751 58.5889C110.573 58.5484 110.418 58.4389 110.321 58.2844C110.224 58.1298 110.192 57.9429 110.232 57.7647C110.272 57.5864 110.381 57.4315 110.535 57.3337C110.689 57.236 110.876 57.2036 111.054 57.2436L125.285 60.4611C125.45 60.4985 125.595 60.5955 125.694 60.7337C125.792 60.8718 125.836 61.0414 125.817 61.2099C125.799 61.3785 125.718 61.5343 125.592 61.6474C125.466 61.7606 125.303 61.8233 125.133 61.8235Z" fill="white"/>
<path d="M70.3663 191.324C70.3163 191.334 70.2652 191.339 70.2141 191.338L55.6274 191.092C55.4451 191.089 55.2715 191.013 55.1448 190.882C55.0182 190.75 54.9487 190.574 54.9518 190.391C54.9548 190.209 55.03 190.035 55.161 189.908C55.292 189.781 55.4679 189.711 55.6503 189.713L70.2369 189.959C70.4063 189.962 70.5686 190.028 70.693 190.143C70.8173 190.258 70.8949 190.415 70.9109 190.584C70.9269 190.753 70.8802 190.921 70.7797 191.058C70.6793 191.195 70.5321 191.289 70.3663 191.324Z" fill="#E6E6E6"/>
<path d="M75.4156 199.138C75.3656 199.148 75.3145 199.153 75.2634 199.152L60.6768 198.906C60.4944 198.903 60.3208 198.827 60.1942 198.696C60.0675 198.565 59.998 198.388 60.0011 198.206C60.0041 198.023 60.0794 197.849 60.2103 197.722C60.3413 197.595 60.5173 197.525 60.6996 197.528L75.2863 197.773C75.4556 197.776 75.6179 197.842 75.7423 197.957C75.8666 198.072 75.9442 198.229 75.9602 198.398C75.9762 198.567 75.9295 198.736 75.8291 198.872C75.7286 199.009 75.5814 199.103 75.4156 199.138Z" fill="#E6E6E6"/>
</g>
<defs>
<clipPath id="clip0_1420_6151">
<rect width="284" height="224" fill="white"/>
</clipPath>
</defs>
</svg>
