<svg width="42" height="35" viewBox="0 0 42 35" fill="none" xmlns="http://www.w3.org/2000/svg">
<path d="M27.7668 6.05769C29.4327 6.05769 30.7957 4.70312 30.7957 3.02885C30.7957 1.35457 29.4327 0 27.7668 0C26.0926 0 24.738 1.35457 24.738 3.02885C24.738 4.70312 26.0926 6.05769 27.7668 6.05769ZM32.8149 18.1731C28.1707 18.1731 24.4014 21.9423 24.4014 26.5865C24.4014 31.2308 28.1707 35 32.8149 35C37.4591 35 41.2284 31.2308 41.2284 26.5865C41.2284 21.9423 37.4591 18.1731 32.8149 18.1731ZM32.8149 32.476C29.5589 32.476 26.9255 29.8426 26.9255 26.5865C26.9255 23.3305 29.5589 20.6971 32.8149 20.6971C36.0709 20.6971 38.7043 23.3305 38.7043 26.5865C38.7043 29.8426 36.0709 32.476 32.8149 32.476ZM25.7476 14.8077H32.8149V11.7788H27.4303L24.1743 6.28486C23.6779 5.44351 22.7608 4.87981 21.7091 4.87981C20.9183 4.87981 20.2031 5.19952 19.6899 5.72115L13.4639 11.9387C12.9423 12.4603 12.6226 13.1755 12.6226 13.9663C12.6226 15.0264 13.1863 15.9183 14.0529 16.4399L19.6899 19.8558V28.2692H22.7188V17.3654L18.9327 14.5553L22.8365 10.6346L25.7476 14.8077ZM9.25721 18.1731C4.61298 18.1731 0.84375 21.9423 0.84375 26.5865C0.84375 31.2308 4.61298 35 9.25721 35C13.9014 35 17.6707 31.2308 17.6707 26.5865C17.6707 21.9423 13.9014 18.1731 9.25721 18.1731ZM9.25721 32.476C6.0012 32.476 3.36779 29.8426 3.36779 26.5865C3.36779 23.3305 6.0012 20.6971 9.25721 20.6971C12.5132 20.6971 15.1466 23.3305 15.1466 26.5865C15.1466 29.8426 12.5132 32.476 9.25721 32.476Z" fill="#3D3D3D"/>
</svg>
