<svg width="22" height="22" viewBox="0 0 22 22" fill="none" xmlns="http://www.w3.org/2000/svg">
<g id="753929_restaurant_cooking_eating_food_kitchen_icon 1" clip-path="url(#clip0_9886_6295)">
<g id="Group">
<path id="Vector" d="M18.6661 12.2036H2.75727C2.03343 12.2036 1.91333 12.6656 1.90283 12.9349C2.26147 17.741 6.1025 21.5292 10.797 21.5292C15.4186 21.5292 19.2206 17.8614 19.6806 13.163C19.6816 13.1554 19.6816 13.1486 19.6826 13.141C19.6879 13.0819 19.6869 13.0216 19.6908 12.9618C19.6633 12.2866 18.9187 12.2098 18.6661 12.2036Z" fill="#3D3D3D"/>
<path id="Vector_2" d="M7.88294 6.09781C8.02043 6.1326 8.16316 6.15589 8.31016 6.16442V6.17361L8.40565 6.17394C8.41812 6.17394 8.42927 6.17788 8.44141 6.17788C8.45388 6.17788 8.46602 6.1746 8.47849 6.17394L8.74854 6.17525V6.17722L13.4932 6.17656C14.1304 6.17656 14.4048 6.34752 14.5199 6.46203C14.5888 6.60575 14.6308 6.76522 14.6308 6.93519C14.6308 7.31155 14.4409 7.64328 14.1534 7.84147C14.1472 7.84672 14.139 7.84967 14.1337 7.85427C14.096 7.87888 14.056 7.89856 14.0146 7.91858C13.758 8.02161 13.3577 8.02063 13.3577 8.02063H11.263L8.19237 8.0203C8.19237 8.0203 7.8229 8.01505 7.46655 8.12431C7.45737 8.12759 7.44818 8.13055 7.43801 8.13416C7.40093 8.14564 7.36418 8.1591 7.3271 8.17386C7.1381 8.25261 6.94516 8.37041 6.77684 8.54989C6.77257 8.55416 6.76863 8.55744 6.76437 8.56138C6.75912 8.56663 6.7542 8.56925 6.74993 8.5745C6.74468 8.58041 6.7437 8.58303 6.73976 8.58894C6.39785 8.92264 6.18391 9.38464 6.18391 9.90078C6.18391 10.0212 6.19966 10.137 6.22493 10.2493C6.2538 10.3529 6.35519 10.5915 6.70137 10.5928H6.86051C7.24671 10.5843 7.34515 9.87486 7.34515 9.87486L7.3481 9.87519C7.37074 9.79217 7.40454 9.71375 7.4508 9.6432C7.45277 9.64025 7.45376 9.63763 7.45704 9.63402C7.46229 9.62713 7.4682 9.62122 7.47345 9.614C7.56795 9.50244 7.83405 9.29835 8.52902 9.29835L13.2747 9.29867V9.2967L13.5438 9.29572C13.5569 9.29605 13.5684 9.29933 13.5805 9.29933C13.5926 9.29933 13.6051 9.29572 13.6173 9.29572L13.7118 9.29506V9.28588C13.8584 9.27735 14.0025 9.25405 14.14 9.21927C15.1545 9.01583 15.9194 8.12103 15.9194 7.04675C15.9194 6.71535 15.8416 6.40428 15.711 6.12374C15.6146 5.87567 15.4708 5.65156 15.2828 5.46814C15.2786 5.46224 15.2776 5.45961 15.2726 5.4537C15.2684 5.44845 15.2635 5.4455 15.2582 5.44025C15.2539 5.43664 15.25 5.43336 15.2457 5.4291C15.1729 5.35166 15.0948 5.2903 15.0147 5.23386C14.9905 5.21581 14.9658 5.19875 14.9399 5.18267C14.8812 5.14625 14.8218 5.11639 14.7631 5.08916C14.1902 4.83978 13.4168 4.89983 13.4168 4.89983H9.65843H9.48288H8.66552C8.66552 4.89983 8.26488 4.90081 8.0073 4.79745C7.96727 4.77744 7.92593 4.75808 7.88918 4.73347C7.88295 4.72888 7.87474 4.72592 7.86949 4.72067C7.58107 4.52249 7.39207 4.19108 7.39207 3.81439C7.39207 3.20638 7.88491 2.71386 8.4926 2.71386H10.7596H11.0224H11.2279C12.1735 2.71386 12.3438 2.0248 12.3737 1.70914V0.958064C12.3737 0.668985 12.163 0.623048 12.1315 0.617798C11.8234 0.626985 11.3306 0.704095 11.3306 1.11425C11.3306 1.21138 11.3306 1.28717 11.3306 1.35509C11.3207 1.4788 11.2456 1.70881 10.8298 1.70881H8.33576C8.33182 1.70914 8.32657 1.70914 8.3223 1.70914C8.32132 1.70914 8.32034 1.70881 8.31935 1.70881C8.3141 1.70881 8.31016 1.71045 8.30491 1.71045C8.14971 1.71833 8.00205 1.73211 7.87671 1.75344C7.87474 1.75409 7.87244 1.75409 7.87048 1.75442C7.78221 1.76984 7.70641 1.78855 7.64965 1.81217C7.63029 1.82005 7.61782 1.82858 7.60666 1.83678C6.73385 2.13439 6.10254 2.95208 6.10254 3.92497C6.10254 4.99958 6.8674 5.89438 7.88294 6.09781Z" fill="#3D3D3D"/>
</g>
</g>
<defs>
<clipPath id="clip0_9886_6295">
<rect width="21" height="21" fill="white" transform="translate(0.296875 0.573486)"/>
</clipPath>
</defs>
</svg>
