<svg width="40" height="38" viewBox="0 0 40 38" fill="none" xmlns="http://www.w3.org/2000/svg">
<path d="M39.125 18.603C39.125 28.8772 30.3946 37.206 19.625 37.206C8.85545 37.206 0.125 28.8772 0.125 18.603C0.125 8.32885 8.85545 0 19.625 0C30.3946 0 39.125 8.32885 39.125 18.603ZM2.80626 18.603C2.80626 27.4645 10.3363 34.6481 19.625 34.6481C28.9137 34.6481 36.4437 27.4645 36.4437 18.603C36.4437 9.74155 28.9137 2.55792 19.625 2.55792C10.3363 2.55792 2.80626 9.74155 2.80626 18.603Z" fill="#E1740F"/>
<path d="M12.7718 18.1886C9.54073 21.6606 12.9276 27.6955 16.8941 33.0137L18.0082 28.0536C14.9576 25.3832 13.9415 22.5975 15.5014 20.6686C17.0613 18.7397 21.4063 22.5975 21.4063 22.5975L23.8016 19.7868C23.8016 19.7868 16.0029 14.7165 12.7718 18.1886Z" fill="#E1740F"/>
<ellipse cx="17.1168" cy="9.37066" rx="2.50678" ry="2.48004" fill="#E1740F"/>
<path d="M10.6023 13.9445C7.78563 16.0939 8.30876 17.3433 9.15391 20.0068C10.272 17.9141 11.3199 16.8103 14.2756 16.0939C16.9495 15.4457 18.2337 16.0652 20.7652 16.8103C22.9111 17.261 24.3027 17.637 26.8372 16.8103C29.8733 15.4325 30.2781 14.4114 30.7679 12.4014C26.4575 13.1341 24.0425 13.2714 19.7381 13.0627C16.0667 12.6582 13.6071 12.0707 10.6023 13.9445Z" fill="#E1740F"/>
</svg>
