<svg width="30" height="28" viewBox="0 0 30 28" fill="none" xmlns="http://www.w3.org/2000/svg">
<path d="M29.4255 14C29.4255 21.732 22.8553 28 14.7505 28C6.64568 28 0.0754395 21.732 0.0754395 14C0.0754395 6.26801 6.64568 0 14.7505 0C22.8553 0 29.4255 6.26801 29.4255 14ZM2.09327 14C2.09327 20.6688 7.7601 26.075 14.7505 26.075C21.7409 26.075 27.4077 20.6688 27.4077 14C27.4077 7.33117 21.7409 1.92501 14.7505 1.92501C7.7601 1.92501 2.09327 7.33117 2.09327 14Z" fill="currentColor" fill-opacity="0.65"/>
<path d="M9.59297 13.6877C7.16137 16.3006 9.71022 20.8423 12.6952 24.8446L13.5337 21.1118C11.2379 19.1021 10.4733 17.0057 11.6472 15.5541C12.8211 14.1024 16.091 17.0057 16.091 17.0057L17.8936 14.8905C17.8936 14.8905 12.0246 11.0747 9.59297 13.6877Z" fill="currentColor" fill-opacity="0.65"/>
<ellipse cx="12.8628" cy="7.05158" rx="1.88652" ry="1.86639" fill="currentColor" fill-opacity="0.65"/>
<path d="M7.96026 10.494C5.84055 12.1116 6.23424 13.0519 6.87027 15.0563C7.71168 13.4814 8.50035 12.6508 10.7247 12.1116C12.737 11.6238 13.7034 12.09 15.6085 12.6508C17.2235 12.99 18.2708 13.2729 20.1781 12.6508C22.463 11.6139 22.7676 10.8454 23.1362 9.33273C19.8924 9.88416 18.075 9.98746 14.8356 9.83044C12.0726 9.52604 10.2216 9.08388 7.96026 10.494Z" fill="currentColor" fill-opacity="0.65"/>
</svg>
