<svg width="12" height="10" viewBox="0 0 12 10" fill="none" xmlns="http://www.w3.org/2000/svg">
<path d="M10.0664 1.65847L10.0666 1.65863C10.2756 1.86758 10.4415 2.11566 10.5546 2.38872C10.6677 2.66177 10.726 2.95444 10.726 3.25C10.726 3.54556 10.6677 3.83823 10.5546 4.11128C10.4415 4.38433 10.2756 4.63242 10.0666 4.84136L10.0665 4.84144L9.53651 5.37144L6.00006 8.90789L2.46361 5.37144L1.93361 4.84144C1.51153 4.41937 1.27441 3.84691 1.27441 3.25C1.27441 2.65309 1.51153 2.08063 1.93361 1.65855C2.35569 1.23647 2.92815 0.999352 3.52506 0.999352C4.12197 0.999352 4.69443 1.23647 5.11651 1.65855L5.64651 2.18855C5.84177 2.38381 6.15835 2.38381 6.35361 2.18855L6.88361 1.65855L6.8837 1.65847C7.09264 1.44942 7.34073 1.2836 7.61378 1.17046C7.88683 1.05732 8.1795 0.999084 8.47506 0.999084C8.77062 0.999084 9.06329 1.05732 9.33634 1.17046C9.60939 1.2836 9.85748 1.44942 10.0664 1.65847Z" stroke="white" stroke-linecap="round" stroke-linejoin="round"/>
</svg>
