<svg width="34" height="34" viewBox="0 0 49 49" fill="none" xmlns="http://www.w3.org/2000/svg">
<g id="Group 626197">
<circle id="Ellipse 90" cx="24.752" cy="24.5039" r="24" fill="white"/>
<g id="Group 626164">
<path id="Vector" d="M24.4186 14.5039C24.4186 14.5039 17.2016 20.7339 13.1685 24.1079C12.9316 24.3226 12.752 24.6352 12.752 25.0039C12.752 25.6491 13.2735 26.1706 13.9186 26.1706H16.252V34.3372C16.252 34.9824 16.7735 35.5039 17.4186 35.5039H20.9186C21.5638 35.5039 22.0853 34.9812 22.0853 34.3372V29.6706H26.752V34.3372C26.752 34.9812 27.2735 35.5039 27.9186 35.5039H31.4186C32.0638 35.5039 32.5853 34.9824 32.5853 34.3372V26.1706H34.9186C35.5638 26.1706 36.0853 25.6491 36.0853 25.0039C36.0853 24.6352 35.9056 24.3226 35.6385 24.1079C31.6333 20.7339 24.4186 14.5039 24.4186 14.5039Z" fill="#E1740F"/>
</g>
</g>
</svg>
