<svg width="25" height="24" viewBox="0 0 25 24" fill="none" xmlns="http://www.w3.org/2000/svg">
<path d="M12.5801 3C12.5801 3 6.39408 8.34 2.93708 11.232C2.73408 11.416 2.58008 11.684 2.58008 12C2.58008 12.553 3.02708 13 3.58008 13H5.58008V20C5.58008 20.553 6.02708 21 6.58008 21H9.58008C10.1331 21 10.5801 20.552 10.5801 20V16H14.5801V20C14.5801 20.552 15.0271 21 15.5801 21H18.5801C19.1331 21 19.5801 20.553 19.5801 20V13H21.5801C22.1331 13 22.5801 12.553 22.5801 12C22.5801 11.684 22.4261 11.416 22.1971 11.232C18.7641 8.34 12.5801 3 12.5801 3Z" fill="#3D3D3D"/>
</svg>
