<svg width="162" height="162" viewBox="0 0 162 162" fill="none" xmlns="http://www.w3.org/2000/svg">
<path d="M98.2935 61.5094L67.6755 65.3467L66.582 70.4295L72.6064 71.523C76.5247 72.4646 77.3044 73.872 76.4539 77.7904L66.582 124.133C64.0001 136.11 67.9995 141.75 77.3854 141.75C84.6754 141.75 93.1196 138.389 96.957 133.761L98.1315 128.203C95.4686 130.552 91.5502 131.493 88.9684 131.493C85.293 131.493 83.9666 128.911 84.8981 124.365L98.2935 61.5094ZM99.2149 33.615C99.2149 37.1596 97.8068 40.5591 95.3003 43.0655C92.7939 45.5719 89.3945 46.98 85.8499 46.98C82.3052 46.98 78.9058 45.5719 76.3994 43.0655C73.8929 40.5591 72.4849 37.1596 72.4849 33.615C72.4849 30.0704 73.8929 26.6709 76.3994 24.1645C78.9058 21.6581 82.3052 20.25 85.8499 20.25C89.3945 20.25 92.7939 21.6581 95.3003 24.1645C97.8068 26.6709 99.2149 30.0704 99.2149 33.615Z" fill="#F26D02"/>
</svg>
