<svg width="21" height="19" viewBox="0 0 21 19" fill="none" xmlns="http://www.w3.org/2000/svg">
<path d="M18.618 2.77143L18.6182 2.77159C19.0615 3.21464 19.4131 3.74067 19.653 4.31964C19.8929 4.89861 20.0163 5.51917 20.0163 6.14587C20.0163 6.77258 19.8929 7.39314 19.653 7.97211C19.4131 8.55108 19.0615 9.07711 18.6182 9.52015L18.6181 9.52024L17.6023 10.5361L10.5 17.6383L3.39773 10.5361L2.3819 9.52024C1.48696 8.6253 0.984192 7.41151 0.984192 6.14587C0.984192 4.88024 1.48696 3.66645 2.3819 2.77151C3.27684 1.87657 4.49063 1.3738 5.75626 1.3738C7.02189 1.3738 8.23569 1.87657 9.13062 2.77151L9.48418 2.41796L9.13063 2.77151L10.1465 3.78734C10.3417 3.98261 10.6583 3.98261 10.8536 3.78734L11.8694 2.77151L11.8695 2.77143C12.3125 2.32818 12.8386 1.97656 13.4175 1.73666C13.9965 1.49677 14.6171 1.37329 15.2438 1.37329C15.8705 1.37329 16.491 1.49677 17.07 1.73666C17.649 1.97656 18.175 2.32818 18.618 2.77143Z" stroke="black" stroke-linecap="round" stroke-linejoin="round"/>
</svg>
