<svg width="22" height="30" viewBox="0 0 22 30" fill="none" xmlns="http://www.w3.org/2000/svg">
<g id="Layer 21">
<path id="Vector" d="M11.2495 29.3758C10.8841 29.3723 10.5233 29.2851 10.1903 29.1197C9.85734 28.9543 9.5595 28.7143 9.31587 28.4152C6.12229 24.5729 0.75008 17.2628 0.75008 12.431C0.710329 9.32857 1.79371 6.33568 3.76231 4.10956C5.73091 1.88344 8.42377 0.60609 11.2495 0.558037C14.0753 0.60609 16.7681 1.88344 18.7367 4.10956C20.7053 6.33568 21.7887 9.32857 21.7489 12.431C21.7489 17.2339 16.3767 24.5248 13.1832 28.4248C12.9387 28.7222 12.6406 28.9603 12.3076 29.1241C11.9747 29.2878 11.6143 29.3735 11.2495 29.3758ZM11.2495 2.47922C8.88861 2.52973 6.64216 3.60543 5.00221 5.47071C3.36226 7.336 2.4625 9.83881 2.49999 12.431C2.49999 15.4472 5.53607 20.9418 10.6195 27.1376C10.7012 27.2306 10.799 27.3046 10.9073 27.3551C11.0155 27.4056 11.1319 27.4316 11.2495 27.4316C11.3671 27.4316 11.4835 27.4056 11.5918 27.3551C11.7 27.3046 11.7979 27.2306 11.8795 27.1376C16.963 20.9418 19.999 15.4472 19.999 12.431C20.0365 9.83881 19.1368 7.336 17.4968 5.47071C15.8569 3.60543 13.6104 2.52973 11.2495 2.47922Z" fill="#101820"/>
<path id="Vector_2" d="M11.2497 17.8487C10.2114 17.8487 9.19644 17.5107 8.33313 16.8773C7.46982 16.244 6.79695 15.3439 6.39961 14.2907C6.00227 13.2376 5.89831 12.0787 6.10087 10.9607C6.30344 9.84269 6.80342 8.81572 7.53761 8.00967C8.27179 7.20363 9.2072 6.6547 10.2255 6.43231C11.2439 6.20992 12.2994 6.32406 13.2587 6.76029C14.218 7.19652 15.0379 7.93525 15.6147 8.88306C16.1915 9.83088 16.4994 10.9452 16.4994 12.0851C16.4994 13.6137 15.9463 15.0797 14.9618 16.1606C13.9773 17.2415 12.642 17.8487 11.2497 17.8487ZM11.2497 8.24275C10.5575 8.24275 9.88087 8.4681 9.30533 8.89031C8.72979 9.31251 8.28121 9.91261 8.01631 10.6147C7.75142 11.3168 7.68211 12.0894 7.81716 12.8347C7.9522 13.5801 8.28552 14.2647 8.77498 14.8021C9.26444 15.3395 9.88804 15.7054 10.5669 15.8537C11.2458 16.0019 11.9495 15.9258 12.589 15.635C13.2285 15.3442 13.7751 14.8517 14.1597 14.2198C14.5443 13.588 14.7495 12.8451 14.7495 12.0851C14.7495 11.0661 14.3808 10.0887 13.7245 9.36816C13.0681 8.64757 12.1779 8.24275 11.2497 8.24275Z" fill="#101820"/>
</g>
</svg>
