<svg width="35" height="35" viewBox="0 0 35 35" fill="none" xmlns="http://www.w3.org/2000/svg">
<g clip-path="url(#clip0_121_4523)">
<g filter="url(#filter0_d_121_4523)">
<path d="M30.625 14.5833C30.625 24.7917 17.5 33.5417 17.5 33.5417C17.5 33.5417 4.375 24.7917 4.375 14.5833C4.375 11.1024 5.75781 7.76398 8.21922 5.30257C10.6806 2.84115 14.019 1.45834 17.5 1.45834C20.981 1.45834 24.3194 2.84115 26.7808 5.30257C29.2422 7.76398 30.625 11.1024 30.625 14.5833Z" stroke="#FD7A33" stroke-width="2" stroke-linecap="round" stroke-linejoin="round" shape-rendering="crispEdges"/>
</g>
<path d="M17.5 18.9583C19.9162 18.9583 21.875 16.9996 21.875 14.5833C21.875 12.1671 19.9162 10.2083 17.5 10.2083C15.0838 10.2083 13.125 12.1671 13.125 14.5833C13.125 16.9996 15.0838 18.9583 17.5 18.9583Z" stroke="#FD7A33" stroke-width="2" stroke-linecap="round" stroke-linejoin="round"/>
</g>
<defs>
<filter id="filter0_d_121_4523" x="-0.625" y="0.458344" width="36.25" height="42.0833" filterUnits="userSpaceOnUse" color-interpolation-filters="sRGB">
<feFlood flood-opacity="0" result="BackgroundImageFix"/>
<feColorMatrix in="SourceAlpha" type="matrix" values="0 0 0 0 0 0 0 0 0 0 0 0 0 0 0 0 0 0 127 0" result="hardAlpha"/>
<feOffset dy="4"/>
<feGaussianBlur stdDeviation="2"/>
<feComposite in2="hardAlpha" operator="out"/>
<feColorMatrix type="matrix" values="0 0 0 0 0 0 0 0 0 0 0 0 0 0 0 0 0 0 0.25 0"/>
<feBlend mode="normal" in2="BackgroundImageFix" result="effect1_dropShadow_121_4523"/>
<feBlend mode="normal" in="SourceGraphic" in2="effect1_dropShadow_121_4523" result="shape"/>
</filter>
<clipPath id="clip0_121_4523">
<rect width="35" height="35" fill="white"/>
</clipPath>
</defs>
</svg>
