<svg width="26" height="26" viewBox="0 0 26 26" fill="none" xmlns="http://www.w3.org/2000/svg">
<path d="M14.1232 22.7335L17.769 24.6481C18.1358 24.84 18.549 24.9255 18.9619 24.895C19.3747 24.8645 19.7708 24.7191 20.1054 24.4753C20.4399 24.2315 20.6997 23.8991 20.8553 23.5154C21.0108 23.1318 21.056 22.7123 20.9857 22.3043L20.2909 18.2491C20.2298 17.8943 20.256 17.5299 20.3672 17.1874C20.4785 16.8449 20.6714 16.5347 20.9295 16.2835L23.8753 13.4116C24.1719 13.1225 24.3818 12.7562 24.4811 12.354C24.5804 11.9519 24.5652 11.53 24.4372 11.136C24.3092 10.742 24.0735 10.3918 23.7568 10.1248C23.4401 9.85776 23.055 9.68471 22.6451 9.62517L18.5732 9.0335C18.2179 8.98084 17.8807 8.84282 17.5904 8.63129C17.3002 8.41975 17.0655 8.141 16.9065 7.81892L15.0805 4.1335C14.8972 3.76204 14.6136 3.44928 14.2618 3.23059C13.9101 3.0119 13.5041 2.896 13.0899 2.896C12.6757 2.896 12.2697 3.0119 11.9179 3.23059C11.5661 3.44928 11.2826 3.76204 11.0993 4.1335L9.27842 7.82517C9.11947 8.14725 8.88481 8.426 8.59454 8.63754C8.30427 8.84907 7.96704 8.98709 7.61175 9.03975L3.53988 9.63142C3.12995 9.69096 2.74486 9.86401 2.42816 10.131C2.11146 10.398 1.87579 10.7483 1.74779 11.1422C1.61979 11.5362 1.60458 11.9581 1.70388 12.3603C1.80318 12.7624 2.01302 13.1288 2.30967 13.4179L5.2555 16.2898C5.51352 16.5409 5.70649 16.8512 5.81775 17.1936C5.929 17.5361 5.95519 17.9005 5.89405 18.2554L5.19405 22.3043C5.12319 22.7129 5.16817 23.1331 5.32389 23.5173C5.4796 23.9016 5.73983 24.2346 6.07509 24.4785C6.41034 24.7225 6.80722 24.8677 7.22076 24.8976C7.63429 24.9276 8.04796 24.8412 8.41488 24.6481L12.0607 22.7335C12.3789 22.5669 12.7328 22.48 13.092 22.48C13.4511 22.48 13.805 22.5669 14.1232 22.7335Z" fill="url(#paint0_linear_7403_3125)"/>
<defs>
<linearGradient id="paint0_linear_7403_3125" x1="13.0899" y1="2.77829" x2="13.0899" y2="24.9877" gradientUnits="userSpaceOnUse">
<stop stop-color="#FFF650"/>
<stop offset="1" stop-color="#FFAB17"/>
</linearGradient>
</defs>
</svg>
