<?xml version="1.0" encoding="utf-8"?>
<!-- Generator: Adobe Illustrator 24.3.0, SVG Export Plug-In . SVG Version: 6.00 Build 0)  -->
<svg version="1.1" xmlns="http://www.w3.org/2000/svg" xmlns:xlink="http://www.w3.org/1999/xlink" x="0px" y="0px"
	 viewBox="0 0 500 500" style="enable-background:new 0 0 500 500;" xml:space="preserve">
<style type="text/css">
	.st0{fill:url(#SVGID_1_);}
	.st1{fill:#3FDDC7;}
	.st2{fill:none;stroke:#4D61BC;stroke-miterlimit:10;}
	.st3{fill:#4D61BC;}
	.st4{fill:none;stroke:#3FDDC7;stroke-miterlimit:10;}
	.st5{fill:url(#SVGID_2_);}
	.st6{fill:#493243;}
	.st7{font-family:'Montserrat-SemiBold';}
	.st8{font-size:27.1293px;}
	.st9{fill:none;stroke:#FFFFFF;stroke-width:10;stroke-linecap:round;stroke-linejoin:round;stroke-miterlimit:10;}
	.st10{opacity:0.75;fill:#D4D5D5;}
	.st11{fill:#C9C9DA;}
	.st12{fill:#FDFFFE;}
	.st13{fill:#FFFFFC;}
	.st14{fill:#FDBF98;}
	.st15{fill:#D85744;}
	.st16{fill:#EA7E31;}
	.st17{fill:#D6D6D4;}
	.st18{fill:#250055;}
	.st19{fill:#4D4D4D;}
	.st20{fill:none;}
	.st21{fill:#C1272D;}
	.st22{fill:#F7931E;}
	.st23{fill:#D2D4D3;}
	.st24{fill:#FBFDFC;}
	.st25{fill:#CFD3D6;}
	.st26{fill-rule:evenodd;clip-rule:evenodd;fill:#2B203F;}
	.st27{fill:#2B203F;}
	.st28{fill:#9189FF;}
	.st29{fill:#1E00B4;}
	.st30{fill:url(#SVGID_3_);}
	.st31{fill:url(#SVGID_4_);}
</style>
<g id="BACKGROUND">
</g>
<g id="OBJECTS">
	<linearGradient id="SVGID_1_" gradientUnits="userSpaceOnUse" x1="41.5214" y1="283.7656" x2="435.977" y2="283.7656">
		<stop  offset="0" style="stop-color:#FFFFFF"/>
		<stop  offset="1" style="stop-color:#C3CAF4"/>
	</linearGradient>
	<path class="st0" d="M41.52,381.86h394.24c0,0,5.06-105.78-33.28-126.04c-54.54-28.82-84.74,1.58-97.79-30.63
		c-13.06-32.22-44.95-44.47-76.85-37.71c-43.9,9.31-25.38,63.36-59.68,76.97c-24.9,9.88-73.78-21.91-91.36,15.24
		S41.52,381.86,41.52,381.86z"/>
	<path class="st1" d="M445.49,381.92c-3.66-16.09-7.24-73.16-33.28-78.3c-28.98-5.73-26.81,52.06-46.01,38
		c-31.27-22.91-40.16,17.31-52.09,14.06c-48.94-13.33-89.75,26.25-89.75,26.25H445.49z"/>
	<path class="st2" d="M382.11,381.92c0,0-3-22.35-18.61-25.23s-6.88-37.48-30.62-35.32c-23.73,2.16-31.77,49.54-79.28,60.55"/>
	<g>
		<path class="st3" d="M328.49,369.64c0,0-2.16-22.7,8.45-22.78c8.45-0.06,12.68,17.3,12.68,17.3s6.76-4.74,13.18-2.25
			c6.36,2.46,7.1,7.74,7.1,7.74H328.49z"/>
		<line class="st4" x1="336.6" y1="352.1" x2="341.67" y2="369.64"/>
	</g>
	<path class="st3" d="M416.44,381.86c0,0,4.28-6.45,12.46-10.3c9.21-4.34,5.34-22.82,15.93-21.04c8.25,1.39,10.68,31.34,10.68,31.34
		H416.44z"/>
	<path class="st3" d="M194.99,381.92H41.52c0,0,5.67-33.47,39.52-26.25c12.1,2.58,8.26-51.39,41.65-47.46
		c23.63,2.78,17.58,44.9,35.17,49.76C175.45,362.84,191.33,365.83,194.99,381.92"/>
	<path class="st4" d="M220.43,381.92c0,0,1.85-20.26-18.59-24.03c-20.44-3.77-16.67-44.75-47.76-41.93s-54.18,57.47-91.39,65.95"/>
	<linearGradient id="SVGID_2_" gradientUnits="userSpaceOnUse" x1="232.1353" y1="102.8401" x2="334.9294" y2="102.8401">
		<stop  offset="0" style="stop-color:#FFFFFF"/>
		<stop  offset="1" style="stop-color:#C3CAF4"/>
	</linearGradient>
	<path class="st5" d="M232.17,119.52h102.76c0,0-3.15-14.42-19.38-14.42c0,0-0.5-18.74-23.55-18.94
		c-13.93-0.12-19.65,16.62-19.65,16.62s-11.52-5.95-19.44-3.5c-7.92,2.45-6.61,12.38-6.61,12.38S231.27,109.61,232.17,119.52z"/>
	<text transform="matrix(1 0 0 1 135.6168 207.9707)" class="st6 st7 st8">NOT FOUND</text>
	<line class="st9" x1="254.48" y1="322.68" x2="258.29" y2="322.68"/>
	<g>
		<g>
			<g>
				<path d="M326.45,299.69c-0.26-1.44,0.41-3.28,1.15-4.54c0.06-0.01,1.19-1.5,6.76-0.12c1.74,0.43,5.56,1.64,6.42,3.22
					c0.54,0.98,0.53,2.19-0.02,3.32c-0.91,1.86-3.04,3.2-5.85,3.67C330.11,306.03,327,302.79,326.45,299.69z"/>
				<path class="st10" d="M328,295.5c0,0-1.36,2.3-1.04,4.1c0.44,2.45,2.97,5.92,7.85,5.11c4.88-0.81,6.62-4.15,5.49-6.21
					C339.18,296.43,330.07,293.86,328,295.5z"/>
				<path class="st11" d="M339.84,298.2c-1.13-2.07-9.77-4.35-11.84-2.7c0,0-1.36,2.3-1.04,4.1c0.2,1.1,0.82,2.41,1.89,3.44
					c0.75,0.94,1.99-0.49,2.67-1.34C333.32,299.45,339.85,298.21,339.84,298.2z"/>
				<path d="M327.79,298.47c-0.68-0.85-1.31-1.94-1.87-3.22c-1.34-3.07-0.59-4.87,0.08-6.47c0.68-1.64,1.27-3.06-0.53-5.85
					c-5.69-8.82,2.09-10.54,5.18-6.65c0.97,1.22,1.45,2.77,1.68,3.79c0.83-0.86,2.27-2.29,3.93-3.68c1.18-0.99,2.41-1.12,3.45-2.28
					c1.42-1.58,3.34-3.63,5.41-4.38c0.73-0.69,2.71-1.54,3.33-1.79c1.71-0.71,2.85-0.13,3.32,0.45c0.29,0.36,0.67,0.99,0.24,1.61
					c5.68-2.6,8.12,0.23,7.73,2.24c-0.39,1.96-3.12,3.3-5.25,4.71c1.13-0.08,2.26,0.18,2.71,1.23c1.11,2.57-5.87,5.39-9.08,10.06
					c-3.06,4.46-5.6,10.26-10.55,12.07C334.56,301.4,330.74,302.18,327.79,298.47z"/>
				<path class="st12" d="M331.98,281.2c0,0,2.03-2.25,4.61-4.41c1.11-0.93,2.38-1.08,3.5-2.33c1.66-1.85,2.65-2.81,4.42-3.91
					c0.23-0.14,0.88-0.35,0.9-0.37c0.41-0.45,1.84-1.18,3.23-1.75c1.81-0.75,2.6,0.05,2.92,0.89c0.3,0.8-2.17,2.78-2.17,2.78
					s7.26-4.61,9.35-1.7c1.85,2.58-1.86,4.31-4.15,5.84c-2.15,1.43-2.99,1.98-2.99,1.98s4.24-1.8,5.1,0.17s-5.95,5.07-9.03,9.56
					c-3.08,4.49-5.54,10.13-10.3,11.87c-4.76,1.74-8.34,1.22-10.96-4.78c-2.62-5.99,3.24-6.61-0.49-12.39
					c-4.68-7.25,0.05-8.74,2.85-7.28C331.56,276.82,331.98,281.2,331.98,281.2z"/>
				<path class="st10" d="M337.62,299.72c-2.7,0.79-6.16,0.18-9.73-5.19c-2.83-4.25,0.19-9.28,0.19-9.28s0.62-1.37-1.96-4.62
					c-0.8-1-2.05-2.52-2.07-3.95c-0.34,1.24,0.07,3.18,1.87,5.96c3.73,5.78-2.13,6.39,0.49,12.39c2.62,5.99,6.21,6.52,10.96,4.78
					C337.45,299.78,337.54,299.75,337.62,299.72L337.62,299.72z"/>
				<g>
					<path d="M351.31,275.89c0.12-1.67-1.07-2.66-2.4-3.43c0-0.04,0.12-0.32,0.12-0.32C349.21,271.41,351.86,273.58,351.31,275.89z"
						/>
				</g>
				<g>
					<path d="M345.3,280.27c-0.83-2.72-3.12-2.46-2.65-2.45c-0.35,0.03,0.31-0.69,0.65-0.62
						C344.43,277.43,345.13,278.44,345.3,280.27z"/>
				</g>
				<g>
					<path d="M342.23,277.17c0.2-0.58-1.17-2.28-2.84-2.33c-0.15-0.07-0.02-0.18-0.01-0.23c0.02-0.13,0.13-0.18,0.28-0.18
						C341.19,274.47,342.59,276.47,342.23,277.17z"/>
				</g>
				<g>
					<path d="M346.53,271.83c0.02-0.56-0.99-1.4-1.48-1.52c-0.39-0.1,0.14-0.55,0.5-0.33C345.96,270.25,346.73,271.23,346.53,271.83
						z"/>
				</g>
				<g>
					<path d="M348.76,284.23c-0.04,0.17-0.11,0.33-0.23,0.46c0.07-0.45-0.1-0.9-0.27-1.33c-0.7-1.54-1.89-1.15-1.68-1.71
						C346.81,281.04,349.26,282.2,348.76,284.23z"/>
				</g>
				<path class="st10" d="M329.33,287.43c0,0-1.71,3.83-1.06,5.43c0.65,1.6,5.04-2.66,5.68-4.52
					C334.58,286.49,330.24,286.35,329.33,287.43z"/>
				<path class="st10" d="M335.91,292.1c-1.4,0.47-4.58,2.86-4,4.32c0.57,1.46,5.51,2.25,8.08-0.59
					C342.55,293,337.45,291.58,335.91,292.1z"/>
				<path class="st10" d="M329.44,276.63c0,0-3.36-0.67-3.61,1.52C325.58,280.33,333.37,278.91,329.44,276.63z"/>
				<path class="st10" d="M348.53,274.43c-0.53-0.32-1.35-0.46-1.99,0.05c-0.65,0.51-2.61,2-1.64,2.83
					C345.87,278.14,349.87,275.25,348.53,274.43z"/>
				<path class="st10" d="M356.61,270.12c0,0-1.14-0.59-2.69-0.2c-1.55,0.39-1.26,3.17-0.26,3.29
					C354.66,273.33,359.92,271.52,356.61,270.12z"/>
				<path class="st10" d="M354.59,278.67c0,0-1.16-0.43-2.12,0.03s-2.91,1.61-2.96,1.98c-0.04,0.37,0.49,1.98,1.9,0.86
					C352.81,280.43,355.42,279.25,354.59,278.67z"/>
				<path class="st10" d="M346.81,282.71c0,0-2.29,1.8-2.97,3.5c-0.68,1.7,1.05,3.76,1.79,2.25c0.75-1.51,2.89-3.6,2.39-4.23
					C347.51,283.6,346.81,282.71,346.81,282.71z"/>
				<g>
					<path d="M341.96,285.99c0.03-0.05,0.62-1.06,1.91-2.36c0.81-0.82,2.1-1.38,2.65-2.1c1.56-2.05,6.91-4.49,7.13-4.59
						c0.32-0.14,0.54,0.34,0.22,0.48c-0.05,0.02-5.45,2.49-6.93,4.43c-0.62,0.81-1.93,1.38-2.7,2.15c-1.23,1.24-1.92,2.56-1.93,2.57
						C342.25,286.7,341.91,286.08,341.96,285.99z"/>
				</g>
				<g>
					<path d="M338.04,281.79c1.33-2.06,0.87-2.03,4.87-4.6c2.29-3.85,5.4-4.97,5.85-5.11c0,0,2.05-1.37,2.58-1.99
						c0.41-0.48,0.53,0.22,0.33,0.38l-2.66,2.09c-1.72,0.53-4.11,2.29-5.68,4.96l-0.03,0.05c-0.74,0.47-2.82,1.83-3.44,2.45
						c-0.33,0.33-1.18,1.51-1.45,1.93C338.34,282.06,337.98,281.88,338.04,281.79z"/>
				</g>
				<g>
					<path d="M338.31,290.54c-0.75,0.21-1.47,0.46-2.18,0.75c-0.7,0.29-1.39,0.61-2.04,0.98c-0.66,0.37-1.28,0.79-1.87,1.27
						c-0.59,0.47-1.12,1.01-1.65,1.59c0.34-0.7,0.81-1.35,1.37-1.9c0.56-0.56,1.2-1.03,1.88-1.42c0.69-0.39,1.42-0.69,2.17-0.91
						C336.76,290.68,337.53,290.53,338.31,290.54z"/>
				</g>
				<g>
					<path d="M337.55,281.73c0.53-0.12,1.32,0.24,1.54,0.85C338.18,282.07,339.45,282.71,337.55,281.73z"/>
				</g>
				<g>
					<path d="M341.54,285.56c0.71,0.46,1.38,1.57,1.29,2.62C342.53,287.36,342.47,287.01,341.54,285.56z"/>
				</g>
			</g>
			<path d="M366.94,270.17c0.18,2.09-1.77,5.62-5.63,7.24c4.35-2.08,6.16-6.66,4.68-8.28c-0.24-0.26,0.17-0.62,0.4-0.35
				C366.4,268.8,366.87,269.31,366.94,270.17z"/>
			<path d="M357.55,287.39c-1.49,0.81-3.05,1.26-5,1.29c1.15-0.06,2.3-0.28,3.37-0.7c0.53-0.21,1.05-0.47,1.54-0.76
				c2.55-1.57,4.35-4.4,4.99-6.69c0.01-0.01,0.08-0.26,0.33-0.19c0.14,0.04,0.22,0.19,0.18,0.33
				C362.36,282.78,360.3,285.84,357.55,287.39z"/>
		</g>
		<g>
			<g>
				<path d="M186.58,299.69c0.26-1.44-0.41-3.28-1.15-4.54c-0.06-0.01-1.19-1.5-6.76-0.12c-1.74,0.43-5.56,1.64-6.42,3.22
					c-0.54,0.98-0.53,2.19,0.02,3.32c0.91,1.86,3.04,3.2,5.85,3.67C182.92,306.03,186.02,302.79,186.58,299.69z"/>
				<path class="st10" d="M185.02,295.5c0,0,1.36,2.3,1.04,4.1c-0.44,2.45-2.97,5.92-7.85,5.11c-4.88-0.81-6.62-4.15-5.49-6.21
					C173.85,296.43,182.95,293.86,185.02,295.5z"/>
				<path class="st11" d="M173.18,298.2c1.13-2.07,9.77-4.35,11.84-2.7c0,0,1.36,2.3,1.04,4.1c-0.2,1.1-0.82,2.41-1.89,3.44
					c-0.75,0.94-1.99-0.49-2.67-1.34C179.71,299.45,173.18,298.21,173.18,298.2z"/>
				<path d="M185.24,298.47c0.68-0.85,1.31-1.94,1.87-3.22c1.34-3.07,0.59-4.87-0.08-6.47c-0.68-1.64-1.27-3.06,0.53-5.85
					c5.69-8.82-2.09-10.54-5.18-6.65c-0.97,1.22-1.45,2.77-1.68,3.79c-0.83-0.86-2.27-2.29-3.93-3.68
					c-1.18-0.99-2.41-1.12-3.45-2.28c-1.42-1.58-3.34-3.63-5.41-4.38c-0.73-0.69-2.71-1.54-3.33-1.79
					c-1.71-0.71-2.85-0.13-3.32,0.45c-0.29,0.36-0.67,0.99-0.24,1.61c-5.68-2.6-8.12,0.23-7.73,2.24c0.39,1.96,3.12,3.3,5.25,4.71
					c-1.13-0.08-2.26,0.18-2.71,1.23c-1.11,2.57,5.87,5.39,9.08,10.06c3.06,4.46,5.6,10.26,10.55,12.07
					C178.47,301.4,182.28,302.18,185.24,298.47z"/>
				<path class="st12" d="M181.04,281.2c0,0-2.03-2.25-4.61-4.41c-1.11-0.93-2.38-1.08-3.5-2.33c-1.66-1.85-2.65-2.81-4.42-3.91
					c-0.23-0.14-0.88-0.35-0.9-0.37c-0.41-0.45-1.84-1.18-3.23-1.75c-1.81-0.75-2.6,0.05-2.92,0.89c-0.3,0.8,2.17,2.78,2.17,2.78
					s-7.26-4.61-9.35-1.7c-1.85,2.58,1.86,4.31,4.15,5.84c2.15,1.43,2.99,1.98,2.99,1.98s-4.24-1.8-5.1,0.17
					c-0.85,1.97,5.95,5.07,9.03,9.56c3.08,4.49,5.54,10.13,10.3,11.87c4.76,1.74,8.34,1.22,10.96-4.78
					c2.62-5.99-3.24-6.61,0.49-12.39c4.68-7.25-0.05-8.74-2.85-7.28C181.46,276.82,181.04,281.2,181.04,281.2z"/>
				<path class="st10" d="M175.4,299.72c2.7,0.79,6.16,0.18,9.73-5.19c2.83-4.25-0.19-9.28-0.19-9.28s-0.62-1.37,1.96-4.62
					c0.8-1,2.05-2.52,2.07-3.95c0.34,1.24-0.07,3.18-1.87,5.96c-3.73,5.78,2.13,6.39-0.49,12.39c-2.62,5.99-6.21,6.52-10.96,4.78
					C175.57,299.78,175.49,299.75,175.4,299.72L175.4,299.72z"/>
				<g>
					<path d="M161.72,275.89c-0.12-1.67,1.07-2.66,2.4-3.43c0-0.04-0.12-0.32-0.12-0.32C163.81,271.41,161.16,273.58,161.72,275.89z
						"/>
				</g>
				<g>
					<path d="M167.73,280.27c0.83-2.72,3.12-2.46,2.65-2.45c0.35,0.03-0.31-0.69-0.65-0.62
						C168.59,277.43,167.89,278.44,167.73,280.27z"/>
				</g>
				<g>
					<path d="M170.8,277.17c-0.2-0.58,1.17-2.28,2.84-2.33c0.15-0.07,0.02-0.18,0.01-0.23c-0.02-0.13-0.13-0.18-0.28-0.18
						C171.83,274.47,170.43,276.47,170.8,277.17z"/>
				</g>
				<g>
					<path d="M166.5,271.83c-0.02-0.56,0.99-1.4,1.48-1.52c0.39-0.1-0.14-0.55-0.5-0.33C167.06,270.25,166.29,271.23,166.5,271.83z"
						/>
				</g>
				<g>
					<path d="M164.26,284.23c0.04,0.17,0.11,0.33,0.23,0.46c-0.07-0.45,0.1-0.9,0.27-1.33c0.7-1.54,1.89-1.15,1.68-1.71
						C166.21,281.04,163.76,282.2,164.26,284.23z"/>
				</g>
				<path class="st10" d="M183.7,287.43c0,0,1.71,3.83,1.06,5.43c-0.65,1.6-5.04-2.66-5.68-4.52
					C178.44,286.49,182.78,286.35,183.7,287.43z"/>
				<path class="st10" d="M177.11,292.1c1.4,0.47,4.58,2.86,4,4.32c-0.57,1.46-5.51,2.25-8.08-0.59
					C170.47,293,175.57,291.58,177.11,292.1z"/>
				<path class="st10" d="M183.58,276.63c0,0,3.36-0.67,3.61,1.52C187.44,280.33,179.65,278.91,183.58,276.63z"/>
				<path class="st10" d="M164.5,274.43c0.53-0.32,1.35-0.46,1.99,0.05c0.65,0.51,2.61,2,1.64,2.83
					C167.15,278.14,163.15,275.25,164.5,274.43z"/>
				<path class="st10" d="M156.41,270.12c0,0,1.14-0.59,2.69-0.2c1.55,0.39,1.26,3.17,0.26,3.29
					C158.36,273.33,153.1,271.52,156.41,270.12z"/>
				<path class="st10" d="M158.44,278.67c0,0,1.16-0.43,2.12,0.03c0.96,0.47,2.91,1.61,2.96,1.98c0.04,0.37-0.49,1.98-1.9,0.86
					S157.61,279.25,158.44,278.67z"/>
				<path class="st10" d="M166.22,282.71c0,0,2.29,1.8,2.97,3.5c0.68,1.7-1.05,3.76-1.79,2.25c-0.75-1.51-2.89-3.6-2.39-4.23
					C165.51,283.6,166.22,282.71,166.22,282.71z"/>
				<g>
					<path d="M171.06,285.99c-0.03-0.05-0.62-1.06-1.91-2.36c-0.81-0.82-2.1-1.38-2.65-2.1c-1.56-2.05-6.91-4.49-7.13-4.59
						c-0.32-0.14-0.54,0.34-0.22,0.48c0.05,0.02,5.45,2.49,6.93,4.43c0.62,0.81,1.93,1.38,2.7,2.15c1.23,1.24,1.92,2.56,1.93,2.57
						C170.77,286.7,171.11,286.08,171.06,285.99z"/>
				</g>
				<g>
					<path d="M174.98,281.79c-1.33-2.06-0.87-2.03-4.87-4.6c-2.29-3.85-5.4-4.97-5.85-5.11c0,0-2.05-1.37-2.58-1.99
						c-0.41-0.48-0.53,0.22-0.33,0.38l2.66,2.09c1.72,0.53,4.11,2.29,5.68,4.96l0.03,0.05c0.74,0.47,2.82,1.83,3.44,2.45
						c0.33,0.33,1.18,1.51,1.45,1.93C174.68,282.06,175.04,281.88,174.98,281.79z"/>
				</g>
				<g>
					<path d="M174.71,290.54c0.75,0.21,1.47,0.46,2.18,0.75c0.7,0.29,1.39,0.61,2.04,0.98c0.66,0.37,1.28,0.79,1.87,1.27
						c0.59,0.47,1.12,1.01,1.65,1.59c-0.34-0.7-0.81-1.35-1.37-1.9c-0.56-0.56-1.2-1.03-1.88-1.42c-0.69-0.39-1.42-0.69-2.17-0.91
						C176.27,290.68,175.49,290.53,174.71,290.54z"/>
				</g>
				<g>
					<path d="M175.48,281.73c-0.53-0.12-1.32,0.24-1.54,0.85C174.84,282.07,173.58,282.71,175.48,281.73z"/>
				</g>
				<g>
					<path d="M171.48,285.56c-0.71,0.46-1.38,1.57-1.29,2.62C170.49,287.36,170.56,287.01,171.48,285.56z"/>
				</g>
			</g>
			<path d="M146.08,270.17c-0.18,2.09,1.77,5.62,5.63,7.24c-4.35-2.08-6.16-6.66-4.68-8.28c0.24-0.26-0.17-0.62-0.4-0.35
				C146.62,268.8,146.16,269.31,146.08,270.17z"/>
			<path d="M155.47,287.39c1.49,0.81,3.05,1.26,5,1.29c-1.15-0.06-2.3-0.28-3.37-0.7c-0.53-0.21-1.05-0.47-1.54-0.76
				c-2.55-1.57-4.35-4.4-4.99-6.69c-0.01-0.01-0.08-0.26-0.33-0.19c-0.14,0.04-0.22,0.19-0.18,0.33
				C150.66,282.78,152.73,285.84,155.47,287.39z"/>
		</g>
		<g>
			<g>
				<path class="st13" d="M295.96,365.15h-78.41l3.36-50.16c0-5.08,4.33-9.2,9.66-9.2h51.42c5.33,0,9.66,4.12,9.66,9.2
					L295.96,365.15z"/>
				<path class="st14" d="M242.57,297.67c-0.01,0.32-0.02,0.64-0.02,0.96c0,9.69,6.15,17.54,13.74,17.54
					c7.59,0,13.74-7.86,13.74-17.54c0-0.2-0.01-0.4-0.01-0.6c-3.19-1.55-7.76-2.64-14.28-2.64
					C249.9,295.4,245.66,296.31,242.57,297.67z"/>
				<g>
					<path class="st15" d="M240.22,303.4l5.93,69.8l-30.68-0.05l4.57-59.54C220.04,313.61,219.89,303.4,240.22,303.4z"/>
					<path class="st16" d="M233.4,303.86c0,0-13.01-0.61-24.05,13.51c-9.79,12.52-26.78,3.42-21.66-13.93l-15.51-4.14
						c0,0-7.26,31.06,13.2,38.45c18.81,6.79,33.4-9.5,33.4-9.5L233.4,303.86z"/>
					<polygon class="st13" points="173.02,299.52 173.59,295.97 188.08,300.45 186.98,303.25 					"/>
					<path class="st17" d="M174.48,303.44c0,0.51-0.41,0.92-0.92,0.92c-0.51,0-0.92-0.41-0.92-0.92c0-0.51,0.41-0.92,0.92-0.92
						C174.07,302.52,174.48,302.93,174.48,303.44z"/>
					<path class="st17" d="M173.94,306.49c0,0.51-0.41,0.92-0.92,0.92c-0.51,0-0.92-0.41-0.92-0.92c0-0.51,0.41-0.92,0.92-0.92
						C173.53,305.57,173.94,305.98,173.94,306.49z"/>
					<path class="st17" d="M173.78,309.78c0,0.51-0.41,0.92-0.92,0.92c-0.51,0-0.92-0.41-0.92-0.92c0-0.51,0.41-0.92,0.92-0.92
						C173.36,308.86,173.78,309.27,173.78,309.78z"/>
				</g>
				<g>
					<path class="st15" d="M273.2,303.4l-5.36,69.8h29.46l-3.93-59.59C293.37,313.61,293.52,303.4,273.2,303.4z"/>
					<polyline class="st13" points="291.64,314.99 295.96,373.15 217.54,373.15 220.91,314.99 					"/>
					<path class="st17" d="M255.02,321.88v48.73c0,0.65,0.52,1.17,1.17,1.17c0.64,0,1.17-0.52,1.17-1.17v-48.57"/>
					<polyline class="st16" points="240.22,303.4 245.58,373.2 216.11,373.2 220.04,313.61 					"/>
					<polyline class="st16" points="273.2,303.4 267.84,373.2 297.3,373.2 293.37,313.61 					"/>
					<path class="st16" d="M280.02,303.86c0,0,13.01-0.61,24.05,13.51c9.79,12.52,26.78,3.42,21.66-13.93l15.51-4.14
						c0,0,7.26,31.06-13.2,38.45c-18.81,6.79-33.39-9.5-33.39-9.5L280.02,303.86z"/>
					<polygon class="st13" points="340.39,299.52 339.83,295.97 325.34,300.45 326.44,303.25 					"/>
					<path class="st17" d="M338.94,303.44c0,0.51,0.41,0.92,0.92,0.92c0.51,0,0.92-0.41,0.92-0.92c0-0.51-0.41-0.92-0.92-0.92
						C339.35,302.52,338.94,302.93,338.94,303.44z"/>
					<path class="st17" d="M339.47,306.49c0,0.51,0.41,0.92,0.92,0.92c0.51,0,0.92-0.41,0.92-0.92c0-0.51-0.41-0.92-0.92-0.92
						C339.89,305.57,339.47,305.98,339.47,306.49z"/>
					<path class="st17" d="M339.64,309.78c0,0.51,0.41,0.92,0.92,0.92c0.51,0,0.92-0.41,0.92-0.92c0-0.51-0.41-0.92-0.92-0.92
						C340.05,308.86,339.64,309.27,339.64,309.78z"/>
				</g>
				<g>
					<path class="st17" d="M266.34,317.97l16.75,1.8l-6.98-13.28l-4.83-3.76l-14.94,11.49l-14.36-11.49l-3.01,3.06l-8.33,13.98
						l16.1-1.8l8.29,3.91v40.73c0,0.65,0.52,1.17,1.17,1.17c0.64,0,1.17-0.52,1.17-1.17v-40.57L266.34,317.97z"/>
					<path class="st17" d="M276.36,327.75h-10.77c-0.43,0-0.77,0.34-0.77,0.77c0,0.42,0.34,0.77,0.77,0.77h10.77
						c0.42,0,0.77-0.34,0.77-0.77C277.13,328.1,276.78,327.75,276.36,327.75z"/>
				</g>
				<path class="st15" d="M240.22,303.4l-13.34,11.34c0,0,5.25,15.35,11.54,27.89c6.29,12.54,6.11,16.85,6.11,16.85L240.22,303.4z"
					/>
				<path class="st15" d="M273.19,303.4l13.34,11.34c0,0-5.25,15.35-11.54,27.89c-6.29,12.54-6.1,16.85-6.1,16.85L273.19,303.4z"/>
			</g>
		</g>
		<polygon class="st15" points="243.48,303.18 243.48,309.43 249.88,318.71 255.99,314.11 262.46,318.71 269.28,309 269.28,303.18 
			255.99,314.11 		"/>
		<polygon class="st16" points="249.3,340.92 256.38,350.19 262.81,340.92 258.29,322.3 260.41,317.25 255.99,314.11 252.07,317.05 
			254.48,322.3 		"/>
		<g>
			<g>
				<g>
					<path class="st18" d="M289,279.19c0.02,0.06,0.05,0.13,0.07,0.19l-0.1,0.02c0-0.07,0-0.14,0-0.21
						C288.98,279.19,288.99,279.19,289,279.19z"/>
					<path class="st18" d="M277.36,284.58l0.33,0.28C277.69,284.42,277.52,284.62,277.36,284.58z"/>
					<path class="st18" d="M282.81,292.72l0-0.02C282.74,292.77,282.76,292.76,282.81,292.72z"/>
					<path class="st18" d="M276.21,300.49c-0.01,0.01-0.02,0.02-0.03,0.03C276.33,300.65,276.3,300.59,276.21,300.49z"/>
					<path class="st18" d="M277.3,284.53l0,0.03c0.02,0.01,0.04,0.02,0.07,0.03L277.3,284.53z"/>
					<path class="st18" d="M281.37,289.69c0.05-0.16,0.12-0.24,0.19-0.3C281.47,289.38,281.39,289.45,281.37,289.69z"/>
					<path class="st18" d="M281.06,281.67c0.18,0.16,0.19-0.52,0.35-0.35c-0.19-0.43-0.08-0.65-0.59-0.45
						C280.62,281.57,281.29,281.03,281.06,281.67z"/>
					<path class="st18" d="M281.4,281.31c0.03,0.07,0.07,0.14,0.12,0.22C281.47,281.41,281.43,281.35,281.4,281.31z"/>
					<path class="st18" d="M278.06,280.84c0.02-0.21-0.08-0.46-0.06-0.67C278.08,280.62,277.5,280.89,278.06,280.84z"/>
					<path class="st19" d="M284.2,255.54c-0.32-0.19-0.62-0.48-0.91-0.85c-0.4,0.65-1.05,1.05-1.76,1.02l-7-0.31
						c-1.24-0.06-2.17-1.4-1.98-2.87c0.3-2.33,0.85-5.96,1.74-10.2h-34.37c0.55,3.28,1.05,6.81,1.48,10.62
						c0.18,1.59-0.85,3.01-2.2,3.01h-6.95c-0.62,0-1.19-0.31-1.6-0.82 M227.28,257.45c0-1.65,1.34-2.99,2.98-2.99h53.17
						c0.82,0,1.57,0.33,2.11,0.87c0.54,0.54,0.87,1.29,0.87,2.11H227.28z"/>
					<path class="st20" d="M286.42,257.81h-59.14c0-1.65,1.34-2.99,2.98-2.99h53.17c0.82,0,1.57,0.33,2.11,0.87
						C286.09,256.24,286.42,256.98,286.42,257.81z"/>
					<rect x="238.06" y="242.28" class="st21" width="38.09" height="2.78"/>
					<g>
						<path class="st22" d="M286.42,258.29h-59.14c0-2.3,1.34-4.16,2.98-4.16h53.17c0.82,0,1.57,0.47,2.11,1.22
							C286.09,256.1,286.42,257.14,286.42,258.29z"/>
						<g>
							<path class="st16" d="M279.11,242.32h-44.48l0.46-1.33l2.56-7.36l0.94-2.72c1.33-3.83,4.61-6.65,8.6-7.39
								c7.46-1.38,18.21-0.39,23.4,1.19c2.75,0.84,4.6,4.58,6.1,9.1c0.6,1.81,1.14,3.75,1.66,5.68
								C278.61,240.45,278.86,241.39,279.11,242.32z"/>
							<g>
								<path class="st12" d="M231.48,258.43c0,0-18.12,37.69,16.24,44.98c34.36,7.29,37.9-21.57,37.6-25.28
									c-0.35-4.3-4.62-19.84-4.62-19.84L231.48,258.43z"/>
								<path class="st10" d="M232.06,258.73c0,0,0.41,4.56,6.2,4.35l34.66,0.39c1.06,0.01,1.98,0.74,2.22,1.77
									c1.41,5.87,4.81,24.81-8.02,30.36c-14.53,6.29-26.04,4.85-34.39-2.6c-0.41-0.37-1.05,0.07-0.84,0.58
									c0.85,2.08,5.39,6.28,12.36,8.34c16.86,5,28.84,0.61,34.87-7.38c3.62-4.79,6.29-13.53,5.7-16.81
									c-1.46-8.11-1.52-8.14-3.21-14.41c-0.33-1.23-0.82-2.69-1.27-4.52c-0.04-0.16-0.19-0.28-0.36-0.28L232.06,258.73z"/>
							</g>
							<g>
								<g>
									<path class="st12" d="M296.45,230.89c-9.87,12.16-12.51,18.96-13.21,21.82c-0.07,0.27-0.18,0.51-0.34,0.72
										c-0.4,0.55-1.05,0.88-1.76,0.85l-7-0.26c-1.24-0.05-2.48,0.57-1.98-2.4c0.33-1.94,0.85-4.98,1.74-8.52
										c0.66-2.63,1.51-5.54,2.58-8.5c3.43-9.42,9.18-19.3,18.59-22c1.88-0.54,3.93-0.2,5.48,1
										C303.17,215.63,305.04,220.31,296.45,230.89z"/>
									<path class="st15" d="M274.47,254.04c0,0,3.13-22.84,16.26-30.8c0.53-0.32,1.21,0.04,1.26,0.65
										c0.11,1.58,0.02,4.38-1.51,6.95c-2.29,3.85-11.85,19.39-11.85,23.34L274.47,254.04z"/>
									<path class="st23" d="M299.65,213.49c-0.25-0.12,0.72,5.7-7.97,15.1c-0.11,0.12-0.21,0.25-0.28,0.39l-8.07,14.37
										c0,0-2.83,5.02-4.06,8.46c-0.22,0.6-0.42,1.11-0.61,2.08c-0.02,0.09-0.02,0.31,0.09,0.32c0.88,0.02,1.86,0.09,2.51,0.09
										c0.11,0,0.63-0.1,0.65-0.13c0.05-0.08,0.95-0.23,1.14-1.22c0.14-0.74,0.61-2.04,0.93-2.83c0.94-2.36,3.35-6.63,3.98-7.65
										c0.66-1.07,5.23-7.63,8.16-11.41c3-3.87,6.62-8.94,6.37-12.75C302.43,217.53,302.39,214.8,299.65,213.49z"/>
								</g>
								<g>
									<path class="st24" d="M239.62,254.11h-6.95c-0.62,0-1.19-0.26-1.6-0.69c-0.19-0.2-0.34-0.43-0.44-0.69
										c-1.76-4.28-7.27-17.09-10.27-17.09c-0.53,0-0.98,0.15-1.39,0.36c-2.39,1.24-3.16,4.53-7.08-8.28
										c-3.03-9.9,2.3-15.14,6.27-17.56c2.33-1.42,5.32-1.2,7.41,0.57c3.48,2.94,8.73,9.43,12.69,23.3
										c0.75,2.62,1.45,5.51,2.09,8.69c0.55,2.74,1.36,5.66,1.48,8.87C241.94,254.82,241.67,254.02,239.62,254.11z"/>
									<path class="st15" d="M234,254.13c0,0-5.05-16.81-11.15-22.91c0,0,0.82-1.26,1.73-3.36c0.56-1.29,1.21-2.8,1.43-4.84
										c0,0,10.49,11.46,11.84,31.11H234z"/>
									<path class="st20" d="M218.86,236.11c0,0,10.55-11.75,5.74-18.7"/>
									<path class="st25" d="M215.29,234.68c1.22-0.11,4.82-1.45,7.23-13.38c0,0,2.65-8.55-2.98-10.25
										c-0.24-0.07-0.57-0.75-0.05-1.07c0.98-0.62,3.96-0.96,6.46,1.54c0.82,0.82,1.5,1.4,2.61,2.73
										c2.96,3.58,9.28,15.77,10.53,22.95c0,0,2.62,10.2,2.74,14.86c0.01,0.39,0.09,1.41-0.25,1.99c0,0-0.6,0.22-2.93,0
										c-0.18-0.02-0.6,0.03-0.77-0.14c-0.1-0.11-0.08-0.75-0.09-0.87c-0.13-3.18-1.93-12.44-4.22-17.3
										c-2.29-4.86-3.98-13.62-7.24-16.89c-0.39-0.39-0.72-0.84-1.13-1.21c-0.34-0.31-0.87-0.8-1.02-0.31
										c-0.25,0.8,0.73,0.2,1.15,3.53c0.15,1.17,0.02,2.79-0.56,4.58c-1,3.13-3.4,6.64-5.95,9.63c-0.43,0.5-0.93,0.83-1.49,1.18
										c-0.5,0.31-0.64,0.52-0.97,0.32c-0.48-0.29-0.89-1.14-1.15-1.69C215.14,234.73,215.09,234.7,215.29,234.68z"/>
								</g>
							</g>
						</g>
					</g>
				</g>
			</g>
		</g>
		<g transform="matrix(1,0,0,1,299.536,1.8875)">
			<g transform="matrix(1,0,0,1,-0.97629,0)">
				<path class="st26" d="M-58.99,276.69c0.09-2.27,1.02-5.9,3.53-5.98c2.65-0.09,3.3,3.43,3.54,6.33c0.25,3.05-0.23,6.78-3.04,6.8
					C-58.01,283.86-59.11,279.66-58.99,276.69z"/>
			</g>
			<g transform="matrix(-0.998068,0.0621283,0.0621283,0.998068,221.009,-5.64877)">
				<path class="st26" d="M267.66,266.01c0.09-2.27,1.02-5.9,3.53-5.98c2.65-0.09,3.3,3.43,3.54,6.33c0.25,3.05-0.23,6.78-3.04,6.8
					C268.64,273.18,267.54,268.97,267.66,266.01z"/>
			</g>
			<path class="st27" d="M-63.72,277.68c-0.17,0-0.32-0.1-0.38-0.27c-0.07-0.21,0.03-0.43,0.23-0.51c0.08-0.04,1.4-0.68,5.48-5.88
				c1.69-2.15,4.05-3.42,6.02-3.23c1.06,0.1,1.89,0.64,2.33,1.51c0.1,0.2,0.02,0.44-0.18,0.54c-0.2,0.1-0.44,0.02-0.54-0.18
				c-0.4-0.79-1.14-1.01-1.69-1.07c-1.39-0.14-3.57,0.72-5.3,2.92c-4.31,5.48-5.69,6.08-5.84,6.13
				C-63.63,277.67-63.68,277.68-63.72,277.68z"/>
			<g transform="matrix(-1,0,0,1,230.527,0)">
				<path class="st27" d="M254.04,278.37c0.27-0.06,1.8-0.66,5.14-6.68c1.12-2.02,2.58-3.17,4.1-3.24c1.03-0.05,2,0.42,2.58,1.26
					c0.13,0.18,0.38,0.23,0.56,0.1c0.18-0.13,0.23-0.38,0.1-0.56c-0.74-1.07-1.97-1.67-3.28-1.61c-1.05,0.05-3.07,0.59-4.77,3.66
					c-3.19,5.73-4.62,6.28-4.63,6.29c0.02-0.01,0.03-0.01,0.03-0.01L254.04,278.37z"/>
			</g>
			<g transform="matrix(0.60066,-0.799505,-0.799505,-0.60066,67.3807,141.841)">
				<path class="st26" d="M-178.79,30.19c0,0,2.38-3.14,6.1-4.93c3.14-1.51,6.54-0.96,6.54-0.96s-2.4-2.91-7.26-0.88
					C-179.42,25.92-178.72,31.13-178.79,30.19z"/>
			</g>
			<g transform="matrix(-0.518602,-0.855016,0.855016,-0.518602,153.001,143.776)">
				<path class="st26" d="M-14.64-214.2c0,0,2.38-3.14,6.1-4.93c3.14-1.51,6.54-0.96,6.54-0.96s-2.4-2.91-7.26-0.88
					C-15.27-218.47-14.57-213.26-14.64-214.2z"/>
			</g>
			<g transform="matrix(1,0,0,1,-0.992592,-5.63609)">
				<path class="st27" d="M-44.37,288.52c-0.04,0-0.08-0.01-0.13-0.02c-0.21-0.07-0.33-0.3-0.26-0.51c0.12-0.36,1.21-3.49,3.18-3.5
					c0,0,0.01,0,0.01,0c1.98,0,3.23,2.86,3.29,2.99c0.09,0.2-0.01,0.44-0.21,0.53c-0.2,0.09-0.44-0.01-0.53-0.21
					c-0.3-0.7-1.34-2.5-2.54-2.5c0,0,0,0-0.01,0c-1.18,0.01-2.14,2.13-2.41,2.95C-44.05,288.41-44.2,288.52-44.37,288.52z"/>
			</g>
			<g transform="matrix(1,0,0,-1,-3.36244,186.691)">
				<path class="st27" d="M-44.68-105.71c-0.08,0-0.15,0.02-0.22,0.07c-0.19,0.12-0.24,0.37-0.11,0.56c0.13,0.2,3.31,4.93,7.05,5.27
					c1.24,0.11,2.23-0.19,2.94-0.89c1.33-1.31,1.17-3.54,1.17-3.64c-0.02-0.22-0.21-0.39-0.43-0.37c-0.22,0.02-0.39,0.21-0.37,0.43
					c0,0.02,0.13,1.95-0.93,3c-0.54,0.53-1.31,0.75-2.3,0.66c-3.36-0.31-6.42-4.87-6.45-4.91
					C-44.42-105.65-44.55-105.71-44.68-105.71z"/>
			</g>
		</g>
	</g>
	<g>
		<g>
			<g>
				<path class="st28" d="M384.45,158.99H104.62c-6.86,0-12.47,5.61-12.47,12.47v198.02c0,6.86,5.61,12.47,12.47,12.47h279.83
					c6.86,0,12.47-5.61,12.47-12.47V171.47C396.93,164.61,391.31,158.99,384.45,158.99z M374.16,369.12H114.92V171.83h259.24V369.12
					z"/>
			</g>
		</g>
		<circle class="st29" cx="384.87" cy="270.48" r="6.03"/>
		<g>
			<line class="st29" x1="104.53" y1="290.12" x2="104.53" y2="257.79"/>
			<g>
				<path class="st29" d="M106.16,252.35v0.21c0,0.83-0.68,1.52-1.52,1.52h-0.21c-0.83,0-1.52-0.68-1.52-1.52v-0.21
					c0-0.83,0.68-1.52,1.52-1.52h0.21C105.47,250.84,106.16,251.52,106.16,252.35z"/>
			</g>
		</g>
	</g>
	<linearGradient id="SVGID_3_" gradientUnits="userSpaceOnUse" x1="50.4487" y1="202.3461" x2="143.1439" y2="202.3461">
		<stop  offset="0" style="stop-color:#FFFFFF"/>
		<stop  offset="1" style="stop-color:#C3CAF4"/>
	</linearGradient>
	<path class="st30" d="M50.45,217.22h92.7c0,0-10.87-19.18-27.17-13.77c0,0,0.34-11.92-8.96-13.27c-7.04-1.02-10.22,9.46-10.22,9.46
		s-2.14-12.18-13.58-12.17c-8.38,0.01-11.01,14.38-11.01,14.38S52.05,205.3,50.45,217.22z"/>
	<linearGradient id="SVGID_4_" gradientUnits="userSpaceOnUse" x1="352.6364" y1="224.5627" x2="451.1732" y2="224.5627">
		<stop  offset="0" style="stop-color:#FFFFFF"/>
		<stop  offset="1" style="stop-color:#C3CAF4"/>
	</linearGradient>
	<path class="st31" d="M352.64,237.31h98.54c0,0-6.7-16.74-25.59-9.33c0,0,1.43-11.48-9.57-13.39c-8.8-1.53-11.72,6.22-11.72,6.22
		s-8.16-12.61-16.98-7.98c-6.7,3.52-6.74,12.46-6.74,12.46S355.75,227.75,352.64,237.31z"/>
</g>
<g id="DESIGNED_BY_FREEPIK">
</g>
</svg>
