<svg width="389" height="171" viewBox="0 0 389 171" fill="none" xmlns="http://www.w3.org/2000/svg">
<g clip-path="url(#clip0_1345_6733)">
<path d="M115.729 140.796C114.391 151.262 109.474 160.838 104.227 170.063C104.054 170.377 103.875 170.686 103.693 171H49.1669C48.0641 170.714 46.9756 170.4 45.8916 170.063C39.7331 168.19 33.9189 165.333 28.6752 161.602C8.61517 147.166 0.896082 119.887 4.38262 95.4435C6.55057 80.2572 13.223 64.7522 26.2163 56.5731C33.0766 52.2469 41.8888 50.8408 49.7862 52.4485C49.9929 52.486 50.1993 52.5328 50.4103 52.575C57.2049 54.103 63.2581 57.8996 66.7024 64.0163C72.8963 75.0076 69.2081 88.6237 66.1629 100.857C63.1268 113.09 61.4796 127.733 70.2921 136.756C67.3827 128.202 70.2545 117.998 77.204 112.214C82.4547 107.85 89.7655 106.214 96.4334 107.569C97.0715 107.705 97.7005 107.86 98.3198 108.047C99.8167 108.485 101.26 109.089 102.623 109.847C113.016 115.645 117.225 128.999 115.729 140.796Z" fill="#F2F2F2"/>
<path d="M83.398 170.063C84.9088 170.414 86.4245 170.723 87.9495 171H79.705C78.6256 170.709 77.5511 170.4 76.4861 170.063C74.1445 169.331 71.8389 168.492 69.5694 167.546C60.4662 163.73 52.0808 158.003 45.7367 150.381C42.634 146.689 40.1004 142.555 38.2195 138.115C36.1799 133.097 34.8837 127.809 34.3718 122.418C33.2221 111.356 34.3952 99.99 36.5865 89.1252C38.8479 77.8645 42.4984 66.9272 47.4542 56.5638C48.0501 55.3217 48.6664 54.0874 49.303 52.8609C49.3468 52.76 49.4131 52.6703 49.4968 52.5988C49.5805 52.5274 49.6795 52.4759 49.7862 52.4485C50.0028 52.4065 50.2272 52.452 50.4103 52.575C50.6301 52.7009 50.793 52.9064 50.8655 53.1488C50.938 53.3913 50.9145 53.6524 50.7998 53.878C45.6901 63.8315 41.8167 74.3713 39.2659 85.263C36.7696 95.8887 35.3525 107.007 35.8357 117.932C36.2956 128.141 38.9657 138.181 45.0235 146.528C50.5558 154.15 58.1949 160.159 66.6461 164.25C71.9951 166.807 77.6142 168.756 83.398 170.063Z" fill="white"/>
<path d="M101.492 171H99.061C98.7888 170.691 98.526 170.377 98.2681 170.063C92.7315 163.343 88.9808 155.338 87.3628 146.786C85.3979 136.115 86.9264 125.095 91.722 115.359C93.06 112.629 94.6365 110.022 96.4332 107.569C97.0713 107.705 97.7003 107.86 98.3196 108.047C93.5936 114.302 90.4149 121.583 89.0427 129.299C87.8186 136.528 88.2256 143.939 90.234 150.991C92.2424 158.044 95.8016 164.559 100.652 170.063C100.924 170.377 101.205 170.691 101.492 171Z" fill="white"/>
<path d="M320.458 163.029C320.811 165.791 322.109 168.318 323.493 170.753C323.539 170.835 323.586 170.917 323.634 171H338.025C338.316 170.925 338.603 170.842 338.889 170.753C340.514 170.258 342.049 169.504 343.433 168.52C348.727 164.71 350.764 157.51 349.844 151.059C349.272 147.051 347.511 142.959 344.082 140.801C342.22 139.668 339.998 139.279 337.861 139.712C337.807 139.722 337.752 139.734 337.697 139.745C336.807 139.917 335.964 140.275 335.223 140.796C334.482 141.316 333.86 141.987 333.397 142.765C331.762 145.666 332.735 149.259 333.539 152.488C334.34 155.717 334.775 159.581 332.449 161.962C332.79 160.966 332.859 159.898 332.65 158.867C332.44 157.835 331.96 156.878 331.257 156.094C330.555 155.309 329.656 154.726 328.653 154.404C327.65 154.081 326.579 154.031 325.55 154.259C325.382 154.295 325.216 154.336 325.052 154.386C324.657 154.501 324.276 154.661 323.917 154.861C321.174 156.391 320.063 159.915 320.458 163.029Z" fill="#F2F2F2"/>
<path d="M328.99 170.753C328.592 170.845 328.192 170.927 327.789 171H329.965C330.25 170.923 330.533 170.842 330.814 170.753C331.432 170.56 332.041 170.338 332.64 170.088C335.069 169.103 337.226 167.55 338.93 165.558C339.749 164.584 340.417 163.493 340.914 162.321C341.452 160.997 341.794 159.601 341.929 158.178C342.176 155.237 341.979 152.275 341.345 149.392C340.748 146.42 339.784 143.533 338.477 140.798C338.319 140.47 338.157 140.145 337.989 139.821C337.977 139.794 337.96 139.771 337.937 139.752C337.915 139.733 337.889 139.719 337.861 139.712C337.804 139.701 337.745 139.713 337.696 139.745C337.638 139.779 337.595 139.833 337.576 139.897C337.557 139.961 337.563 140.03 337.594 140.089C338.942 142.716 339.964 145.498 340.638 148.372C341.331 151.192 341.636 154.093 341.543 156.994C341.493 159.693 340.65 162.318 339.118 164.542C337.628 166.544 335.669 168.15 333.411 169.219C332 169.893 330.517 170.408 328.99 170.753Z" fill="white"/>
<path d="M324.215 171H324.857C324.929 170.918 324.998 170.835 325.066 170.753C326.527 168.979 327.517 166.866 327.944 164.61C328.463 161.793 328.059 158.885 326.794 156.315C326.441 155.595 326.025 154.907 325.55 154.259C325.382 154.295 325.216 154.336 325.052 154.386C326.3 156.036 327.139 157.958 327.501 159.994C327.824 161.902 327.716 163.858 327.186 165.719C326.656 167.581 325.717 169.3 324.437 170.753C324.365 170.835 324.291 170.918 324.215 171Z" fill="white"/>
<path d="M190.75 99.6053H145.712L145.235 85.7733C145.214 85.1737 145.324 84.5767 145.556 84.0235C145.789 83.4703 146.138 82.9739 146.581 82.5686C147.024 82.1633 147.55 81.8587 148.122 81.6757C148.694 81.4927 149.299 81.4357 149.895 81.5086L176.104 84.7143H176.107C179.993 84.7248 183.716 86.2732 186.461 89.0205C189.205 91.7677 190.748 95.4897 190.75 99.3709V99.6053Z" fill="#FD7A33"/>
<path d="M170.677 50.5408H139.265C138.847 50.5407 138.433 50.6228 138.048 50.7825C137.662 50.9421 137.311 51.1762 137.015 51.4712C136.72 51.7663 136.486 52.1166 136.326 52.5022C136.166 52.8877 136.084 53.3009 136.084 53.7182V85.0948C136.084 85.5121 136.166 85.9253 136.326 86.3109C136.486 86.6964 136.72 87.0468 137.015 87.3418C137.311 87.6369 137.662 87.8709 138.048 88.0306C138.433 88.1902 138.847 88.2723 139.265 88.2722H170.677C171.095 88.2723 171.508 88.1902 171.894 88.0306C172.28 87.8709 172.631 87.6369 172.926 87.3418C173.222 87.0468 173.456 86.6964 173.616 86.3109C173.776 85.9254 173.858 85.5121 173.858 85.0948V53.7182C173.858 53.3009 173.776 52.8877 173.616 52.5022C173.456 52.1166 173.222 51.7663 172.926 51.4712C172.631 51.1761 172.28 50.9421 171.894 50.7825C171.508 50.6228 171.095 50.5407 170.677 50.5408Z" fill="#CCCCCC"/>
<path d="M163.603 74.0031L148.772 76.888C147.892 77.0581 146.981 76.8727 146.238 76.3724C145.494 75.8722 144.98 75.0979 144.808 74.2196L143.668 68.3718C143.498 67.4931 143.683 66.5827 144.184 65.8405C144.685 65.0983 145.46 64.5849 146.34 64.4128L161.17 61.5279C162.05 61.3578 162.962 61.5432 163.705 62.0435C164.448 62.5437 164.962 63.318 165.134 64.1963L166.274 70.0441C166.444 70.9228 166.259 71.8331 165.758 72.5754C165.257 73.3176 164.482 73.831 163.603 74.0031Z" fill="#3F3D56"/>
<path d="M160.635 67.0946L149.317 69.2962C149.11 69.3365 148.895 69.2929 148.72 69.1752C148.546 69.0574 148.425 68.8751 148.384 68.6683C148.344 68.4615 148.388 68.2472 148.505 68.0725C148.623 67.8978 148.806 67.7771 149.013 67.7368L160.331 65.5352C160.538 65.4949 160.753 65.5384 160.928 65.6562C161.103 65.7739 161.223 65.9562 161.264 66.163C161.304 66.3698 161.261 66.5841 161.143 66.7588C161.025 66.9335 160.842 67.0543 160.635 67.0946Z" fill="white"/>
<path d="M158.435 70.3549L152.581 71.4937C152.374 71.534 152.159 71.4904 151.985 71.3727C151.81 71.2549 151.689 71.0726 151.648 70.8658C151.608 70.659 151.652 70.4447 151.77 70.27C151.887 70.0953 152.07 69.9746 152.277 69.9343L158.131 68.7955C158.234 68.7756 158.339 68.776 158.442 68.7968C158.544 68.8175 158.641 68.8582 158.728 68.9165C158.814 68.9748 158.889 69.0496 158.946 69.1366C159.004 69.2235 159.044 69.321 159.064 69.4234C159.084 69.5258 159.083 69.6311 159.063 69.7333C159.042 69.8356 159.001 69.9327 158.943 70.0192C158.884 70.1057 158.81 70.1799 158.722 70.2375C158.635 70.2951 158.538 70.335 158.435 70.3549Z" fill="white"/>
<path d="M173.858 53.7182V57.8885H136.084V53.7182C136.084 53.3009 136.166 52.8877 136.326 52.5022C136.486 52.1166 136.72 51.7663 137.015 51.4712C137.311 51.1762 137.662 50.9421 138.048 50.7825C138.433 50.6228 138.847 50.5407 139.265 50.5408H170.677C171.095 50.5407 171.508 50.6228 171.894 50.7825C172.28 50.9421 172.631 51.1762 172.926 51.4712C173.222 51.7663 173.456 52.1166 173.616 52.5022C173.776 52.8877 173.858 53.3009 173.858 53.7182Z" fill="#B3B3B3"/>
<path d="M249.289 59.1944C249.071 58.4913 248.701 57.8445 248.205 57.2995C247.71 56.7545 247.101 56.3247 246.421 56.0403C245.742 55.7558 245.008 55.6237 244.271 55.6533C243.535 55.6828 242.814 55.8732 242.159 56.2112L198.944 40.7236L197.041 51.5074L240.118 63.3403C240.76 64.4012 241.768 65.1904 242.953 65.5582C244.138 65.926 245.417 65.8469 246.547 65.3359C247.677 64.8249 248.581 63.9174 249.086 62.7855C249.591 61.6536 249.663 60.3759 249.289 59.1944Z" fill="#FFB8B8"/>
<path opacity="0.2" d="M249.289 59.1944C249.071 58.4913 248.701 57.8445 248.205 57.2995C247.71 56.7545 247.101 56.3247 246.421 56.0403C245.742 55.7558 245.008 55.6237 244.271 55.6533C243.535 55.6828 242.814 55.8732 242.159 56.2112L198.944 40.7236L197.041 51.5074L240.118 63.3403C240.76 64.4012 241.768 65.1904 242.953 65.5582C244.138 65.926 245.417 65.8469 246.547 65.3359C247.677 64.8249 248.581 63.9174 249.086 62.7855C249.591 61.6536 249.663 60.3759 249.289 59.1944Z" fill="black"/>
<path d="M206.615 42.6887L202.534 53.3379C202.418 53.6409 202.238 53.9154 202.006 54.1426C201.774 54.3697 201.496 54.5444 201.19 54.6545C200.885 54.7646 200.559 54.8077 200.235 54.7807C199.912 54.7538 199.597 54.6575 199.314 54.4984L189.396 48.9224C187.848 48.3201 186.602 47.1291 185.931 45.6105C185.26 44.0918 185.22 42.3695 185.818 40.821C186.417 39.2726 187.606 38.0244 189.124 37.3502C190.643 36.6759 192.367 36.6305 193.919 37.224L204.994 39.6776C205.311 39.7479 205.609 39.8857 205.868 40.0816C206.127 40.2774 206.341 40.5267 206.494 40.8124C206.648 41.0982 206.739 41.4137 206.759 41.7375C206.78 42.0612 206.731 42.3857 206.615 42.6887Z" fill="#FD7A33"/>
<path d="M252.69 69.055L237.206 76.0857L239.239 83.7309C243.165 98.4942 244.206 113.875 242.307 129.032L253.629 131.394L263.014 107.489L259.729 80.3041L252.69 69.055Z" fill="#FD7A33"/>
<path d="M283.074 104.443C272.9 104.443 264.608 111.831 264.206 121.082H301.941C301.539 111.831 293.248 104.443 283.074 104.443Z" fill="#3F3D56"/>
<path d="M275.153 106.037C274.624 64.2756 250.813 68.1176 250.813 68.1176C250.813 68.1176 251.259 81.1165 251.473 81.5208C266.646 110.196 241.604 143.814 209.729 137.63C209.128 137.513 208.551 137.395 207.997 137.275C203.958 136.433 200.392 134.085 198.024 130.71C195.657 127.335 194.665 123.186 195.251 119.106C198.391 93.9198 182.773 94.3655 182.773 94.3655H159.937L148.078 83.7042C147.659 83.3279 147.155 83.0597 146.608 82.9232C146.062 82.7866 145.491 82.7859 144.944 82.9209C144.397 83.056 143.892 83.3228 143.472 83.698C143.053 84.0732 142.732 84.5454 142.537 85.0733L141.011 89.2097C141.011 89.2097 118.488 91.5532 120.365 113.583H127.328C127.311 114.209 127.336 114.835 127.403 115.458L179.372 115.036C182.418 115.011 185.107 117.476 185.12 120.519C185.123 121.26 184.976 121.994 184.689 122.677C184.402 123.36 183.979 123.978 183.447 124.494C182.915 125.01 182.284 125.414 181.593 125.681C180.901 125.948 180.162 126.073 179.421 126.048L171.042 125.769C168.462 137.253 174.796 144.986 181.776 149.849C188.348 154.362 196.146 156.754 204.12 156.704H226.882C256.444 156.704 261.606 131.863 261.606 131.863C277.091 125.301 275.153 106.037 275.153 106.037Z" fill="#3F3D56"/>
<path d="M281.666 170.297C296.243 170.297 308.061 158.493 308.061 143.932C308.061 129.371 296.243 117.567 281.666 117.567C267.088 117.567 255.271 129.371 255.271 143.932C255.271 158.493 267.088 170.297 281.666 170.297Z" fill="#3F3D56"/>
<path d="M281.666 150.394C285.239 150.394 288.135 147.501 288.135 143.932C288.135 140.363 285.239 137.47 281.666 137.47C278.093 137.47 275.197 140.363 275.197 143.932C275.197 147.501 278.093 150.394 281.666 150.394Z" fill="white"/>
<path d="M148.402 170.297C165.182 170.297 178.785 156.709 178.785 139.948C178.785 123.186 165.182 109.599 148.402 109.599C131.622 109.599 118.019 123.186 118.019 139.948C118.019 156.709 131.622 170.297 148.402 170.297Z" fill="#3F3D56"/>
<path d="M148.402 147.386C152.515 147.386 155.849 144.056 155.849 139.948C155.849 135.84 152.515 132.509 148.402 132.509C144.289 132.509 140.955 135.84 140.955 139.948C140.955 144.056 144.289 147.386 148.402 147.386Z" fill="white"/>
<path d="M237.249 78.163L231.678 63.0473C231.387 62.2595 231.255 61.4223 231.289 60.5835C231.322 59.7446 231.521 58.9206 231.873 58.1585C232.226 57.3963 232.725 56.711 233.342 56.1416C233.96 55.5722 234.684 55.1298 235.472 54.8398L251.445 48.9662C252.833 48.4558 254.308 48.2234 255.785 48.2823C257.263 48.3411 258.715 48.6901 260.057 49.3094C261.4 49.9286 262.607 50.8059 263.61 51.8912C264.613 52.9765 265.393 54.2485 265.904 55.6346C266.364 56.8788 266.6 58.1949 266.599 59.5214C266.593 61.2058 266.211 62.8676 265.481 64.3862C264.752 65.9048 263.693 67.2419 262.381 68.3004C261.434 69.0597 260.369 69.6595 259.228 70.0764L237.249 78.163Z" fill="#3F3D56"/>
<path d="M266.364 59.5213C266.363 61.1714 265.991 62.8001 265.277 64.2878C264.562 65.7754 263.522 67.0841 262.235 68.1175C260.259 67.5969 258.42 66.6528 256.847 65.3508C255.273 64.0488 254.002 62.42 253.123 60.5778C252.243 58.7357 251.776 56.7242 251.753 54.6833C251.73 52.6424 252.152 50.621 252.991 48.7597C254.6 48.4101 256.268 48.425 257.871 48.8033C259.474 49.1816 260.971 49.9137 262.254 50.9458C263.537 51.978 264.572 53.284 265.283 54.7679C265.994 56.2518 266.364 57.8761 266.364 59.5213Z" fill="#FD7A33"/>
<path d="M124.353 116.629C127.981 116.629 130.922 113.062 130.922 108.661C130.922 104.261 127.981 100.693 124.353 100.693C120.725 100.693 117.784 104.261 117.784 108.661C117.784 113.062 120.725 116.629 124.353 116.629Z" fill="#FD7A33"/>
<path d="M211.191 136.866H216.944L219.681 121.963L211.19 121.963L211.191 136.866Z" fill="#FFB8B8"/>
<path d="M209.724 134.99L221.053 134.99H221.053C222.001 134.99 222.94 135.176 223.816 135.539C224.692 135.901 225.488 136.432 226.159 137.102C226.829 137.772 227.361 138.567 227.724 139.442C228.087 140.317 228.273 141.255 228.273 142.202V142.436L209.724 142.437L209.724 134.99Z" fill="#2F2E41"/>
<path d="M217.869 130.749C217.802 130.749 217.734 130.746 217.667 130.74L209.705 130.161C209.383 130.131 209.073 130.028 208.797 129.859C208.521 129.69 208.288 129.46 208.115 129.187C207.943 128.914 207.835 128.605 207.801 128.284C207.767 127.963 207.807 127.638 207.918 127.335L218.573 103.424C218.649 103.21 218.68 102.984 218.664 102.758C218.648 102.532 218.586 102.312 218.481 102.112C218.376 101.909 218.229 101.731 218.05 101.588C217.871 101.446 217.665 101.344 217.443 101.287C212.433 99.9788 199.578 96.4955 188.45 92.4199C183.683 90.6736 180.68 88.1502 179.526 84.9196C178.004 80.6604 180.256 76.7761 180.352 76.6132L180.428 76.4855L190.899 77.4362L202.25 78.4006L227.126 91.725C229.211 92.851 230.794 94.7199 231.561 96.9596C232.328 99.1992 232.222 101.645 231.264 103.81L219.795 129.499C219.63 129.871 219.359 130.188 219.017 130.409C218.675 130.631 218.276 130.749 217.869 130.749Z" fill="#2F2E41"/>
<path d="M192.719 30.1294C199.084 30.1294 204.244 24.9753 204.244 18.6174C204.244 12.2594 199.084 7.10529 192.719 7.10529C186.354 7.10529 181.194 12.2594 181.194 18.6174C181.194 24.9753 186.354 30.1294 192.719 30.1294Z" fill="#FFB8B8"/>
<path d="M207.907 138.273H213.66L216.397 123.369L207.906 123.369L207.907 138.273Z" fill="#FFB8B8"/>
<path d="M206.439 136.397L217.768 136.396H217.769C218.717 136.396 219.656 136.583 220.532 136.945C221.408 137.307 222.204 137.839 222.874 138.508C223.544 139.178 224.076 139.973 224.439 140.848C224.802 141.723 224.989 142.661 224.989 143.608V143.842L206.439 143.843L206.439 136.397Z" fill="#2F2E41"/>
<path d="M214.584 132.156C214.517 132.156 214.45 132.152 214.382 132.146L206.421 131.567C206.099 131.537 205.788 131.434 205.512 131.265C205.237 131.096 205.003 130.866 204.831 130.593C204.658 130.32 204.55 130.011 204.516 129.69C204.482 129.369 204.522 129.044 204.633 128.741L215.288 104.83C215.364 104.617 215.395 104.39 215.379 104.164C215.364 103.938 215.301 103.718 215.196 103.518C215.091 103.315 214.944 103.137 214.766 102.995C214.587 102.852 214.38 102.75 214.158 102.693C209.148 101.385 196.293 97.9016 185.166 93.826C180.398 92.0798 177.396 89.5563 176.241 86.3257C174.72 82.0665 176.971 78.1823 177.067 78.0193L177.143 77.8916L187.614 78.8423L198.965 79.8067L223.841 93.1312C225.926 94.2571 227.509 96.126 228.276 98.3657C229.043 100.605 228.937 103.051 227.979 105.217L216.511 130.906C216.345 131.278 216.075 131.594 215.733 131.815C215.391 132.037 214.992 132.155 214.584 132.156Z" fill="#2F2E41"/>
<path d="M196.274 36.6573L184.073 32.4388C184.073 32.4388 176.415 38.3165 180.094 52.8975C182.015 60.4218 181.455 68.3643 178.498 75.5458C178.142 76.4343 177.732 77.3001 177.27 78.1383C177.27 78.1383 190.877 94.5433 203.547 82.3567L198.62 58.6868C198.62 58.6868 206.362 42.9849 196.274 36.6573Z" fill="#FD7A33"/>
<path d="M194.15 30.5209C192.51 28.0685 191.215 24.6679 193.021 22.3345C194.804 20.0311 198.32 20.3705 201.05 19.3513C204.853 17.9317 207.058 13.4692 206.371 9.47284C205.683 5.47643 202.471 2.16353 198.645 0.808003C194.819 -0.547528 190.504 -0.106677 186.758 1.4543C182.145 3.37588 178.189 7.09305 176.53 11.8017C174.871 16.5104 175.758 22.1641 179.199 25.7832C182.889 29.6634 188.681 30.6975 194.038 30.6347" fill="#2F2E41"/>
<path d="M183.429 9.60111C181.362 11.2818 178.209 10.5353 175.99 9.06027C173.772 7.58521 171.971 5.48481 169.571 4.3283C165.338 2.28943 160.222 3.64481 156.103 5.90323C151.984 8.16164 148.332 11.2817 143.982 13.054C139.631 14.8263 134.079 14.9139 130.784 11.5674C129.974 13.9137 129.907 16.4527 130.594 18.838C131.282 21.2233 132.689 23.3388 134.624 24.8957C136.56 26.4526 138.929 27.3752 141.408 27.5375C143.888 27.6999 146.357 27.0941 148.479 25.8029C153.247 22.9023 155.88 16.8206 161.227 15.2197C164.185 14.3338 167.363 15.0473 170.353 15.8201C173.343 16.5929 176.462 17.428 179.479 16.7701C182.497 16.1122 185.32 13.4033 184.936 10.3418L183.429 9.60111Z" fill="#2F2E41"/>
<path d="M248.715 58.7256C248.412 58.0547 247.965 57.4584 247.406 56.9786C246.847 56.4989 246.19 56.1474 245.48 55.9489C244.771 55.7504 244.026 55.7098 243.299 55.8298C242.572 55.9499 241.88 56.2277 241.272 56.6438L196.474 46.6006L195.917 57.5366L240.127 63.9699C240.895 64.9438 241.993 65.6026 243.214 65.8216C244.436 66.0405 245.695 65.8044 246.753 65.158C247.812 64.5116 248.596 63.4997 248.958 62.3142C249.32 61.1287 249.233 59.8518 248.715 58.7256Z" fill="#FFB8B8"/>
<path d="M204.328 47.6052L201.594 58.676C201.516 58.991 201.371 59.2856 201.169 59.5396C200.967 59.7936 200.713 60.0012 200.423 60.1481C200.134 60.2951 199.816 60.3779 199.491 60.3911C199.167 60.4042 198.843 60.3474 198.542 60.2244L188.012 55.9134C186.399 55.5075 185.014 54.4794 184.16 53.0546C183.306 51.6299 183.053 49.9249 183.456 48.3137C183.859 46.7026 184.885 45.3169 186.31 44.4608C187.734 43.6046 189.44 43.3479 191.054 43.747L202.348 44.8168C202.671 44.8476 202.984 44.9476 203.265 45.11C203.546 45.2724 203.789 45.4934 203.977 45.758C204.165 46.0227 204.294 46.3246 204.354 46.6434C204.415 46.9621 204.406 47.2902 204.328 47.6052Z" fill="#FD7A33"/>
<path d="M243.54 67.4145C245.354 67.4145 246.825 65.9456 246.825 64.1335C246.825 62.3215 245.354 60.8525 243.54 60.8525C241.726 60.8525 240.255 62.3215 240.255 64.1335C240.255 65.9456 241.726 67.4145 243.54 67.4145Z" fill="#FD7A33"/>
<path d="M389 170.531C389 170.655 388.95 170.774 388.862 170.862C388.774 170.95 388.655 171 388.531 171H0.46924C0.34479 171 0.225436 170.951 0.137437 170.863C0.0494373 170.775 0 170.656 0 170.531C0 170.407 0.0494373 170.288 0.137437 170.2C0.225436 170.112 0.34479 170.063 0.46924 170.063H388.531C388.655 170.063 388.774 170.112 388.862 170.2C388.95 170.288 389 170.407 389 170.531Z" fill="#3F3D56"/>
</g>
<defs>
<clipPath id="clip0_1345_6733">
<rect width="389" height="171" fill="white"/>
</clipPath>
</defs>
</svg>
