<svg width="8" height="10" viewBox="0 0 8 10" fill="none" xmlns="http://www.w3.org/2000/svg">
<path d="M7.25598 1.57138C7.40177 1.57138 7.51998 1.45624 7.51998 1.31424V0.457094C7.51998 0.315087 7.40177 0.199951 7.25598 0.199951H0.74398C0.598186 0.199951 0.47998 0.315087 0.47998 0.457094V1.41598C0.47998 1.55799 0.598186 1.67312 0.74398 1.67312H2.62014C3.22092 1.67312 3.68188 1.88651 3.96148 2.25709H0.74398C0.598186 2.25709 0.47998 2.37223 0.47998 2.51424V3.37138C0.47998 3.51339 0.598186 3.62852 0.74398 3.62852H4.23663C4.09986 4.40179 3.51149 4.88492 2.59198 4.88492H0.74398C0.598186 4.88492 0.47998 5.00006 0.47998 5.14207V6.27804C0.47998 6.3498 0.51078 6.41831 0.564922 6.46699L4.19607 9.73176C4.24483 9.7756 4.30876 9.79995 4.37512 9.79995H6.19149C6.43182 9.79995 6.54714 9.51264 6.37055 9.35385L3.05114 6.36937C4.73412 6.31922 5.93631 5.22519 6.09414 3.62852H7.25598C7.40177 3.62852 7.51998 3.51339 7.51998 3.37138V2.51424C7.51998 2.37223 7.40177 2.25709 7.25598 2.25709H5.9648C5.88811 2.00979 5.78264 1.78039 5.65126 1.57138H7.25598Z" fill="#FD7A33"/>
</svg>
