<svg width="25" height="24" viewBox="0 0 25 24" fill="none" xmlns="http://www.w3.org/2000/svg">
<path d="M12.2097 19C8.30972 19 5.20972 15.9 5.20972 12C5.20972 8.1 8.30972 5 12.2097 5C14.2097 5 16.1097 5.9 17.4097 7.3L15.6097 7.6C15.1097 7.7 14.7097 8.2 14.8097 8.8C14.9097 9.3 15.3097 9.6 15.8097 9.6C15.9097 9.6 15.9097 9.6 16.0097 9.6L20.2097 8.8C20.7097 8.7 21.1097 8.2 21.0097 7.6L20.2097 3.5C20.1097 3 19.6097 2.6 19.0097 2.7C18.5097 2.8 18.1097 3.3 18.2097 3.9L18.5097 5.6C16.8097 4 14.6097 3 12.2097 3C8.90972 3 6.00972 4.8 4.40972 7.5C3.60972 8.9 3.20972 10.4 3.20972 12C3.20972 13.6 3.60972 15.1 4.40972 16.5C5.20972 17.9 6.30972 19 7.70972 19.8C9.10972 20.6 10.6097 21 12.2097 21C12.6097 21 13.0097 20.7 13.1097 20.4C13.2097 20.3 13.2097 20.1 13.2097 20C13.2097 19.9 13.2097 19.7 13.1097 19.6C13.0097 19.3 12.6097 19 12.2097 19Z" fill="#3D3D3D"/>
<path d="M20.2097 13C20.762 13 21.2097 12.5523 21.2097 12C21.2097 11.4477 20.762 11 20.2097 11C19.6574 11 19.2097 11.4477 19.2097 12C19.2097 12.5523 19.6574 13 20.2097 13Z" fill="#3D3D3D"/>
<path d="M19.9894 16.5251C20.2656 16.0468 20.1017 15.4353 19.6234 15.1591C19.1452 14.883 18.5336 15.0468 18.2574 15.5251C17.9813 16.0034 18.1452 16.615 18.6234 16.8911C19.1017 17.1673 19.7133 17.0034 19.9894 16.5251Z" fill="#3D3D3D"/>
<path d="M16.6952 19.7691C17.1735 19.493 17.3374 18.8814 17.0612 18.4031C16.7851 17.9248 16.1735 17.761 15.6952 18.0371C15.2169 18.3133 15.0531 18.9248 15.3292 19.4031C15.6054 19.8814 16.2169 20.0453 16.6952 19.7691Z" fill="#3D3D3D"/>
<path d="M13.2097 11.6V9C13.2097 8.4 12.8097 8 12.2097 8C11.6097 8 11.2097 8.4 11.2097 9V12C11.2097 12.3 11.3097 12.5 11.5097 12.7L13.5097 14.7C13.7097 14.9 14.0097 15 14.2097 15C14.4097 15 14.7097 14.9 14.9097 14.7C15.3097 14.3 15.3097 13.7 14.9097 13.3L13.2097 11.6Z" fill="#3D3D3D"/>
</svg>
