<svg width="36" height="36" viewBox="0 0 36 36" fill="none" xmlns="http://www.w3.org/2000/svg">
<path d="M18.0001 0.936035C14.5682 0.936035 11.2135 1.95369 8.36002 3.86031C5.50656 5.76693 3.28256 8.47688 1.96926 11.6475C0.655956 14.8181 0.312336 18.3069 0.981852 21.6728C1.65137 25.0387 3.30395 28.1304 5.73062 30.5571C8.15728 32.9838 11.249 34.6363 14.6149 35.3059C17.9808 35.9754 21.4696 35.6318 24.6402 34.3185C27.8108 33.0052 30.5208 30.7812 32.4274 27.9277C34.334 25.0742 35.3517 21.7195 35.3517 18.2877C35.3517 13.6857 33.5236 9.27227 30.2695 6.01821C27.0155 2.76415 22.602 0.936035 18.0001 0.936035ZM27.0024 14.6706L15.9605 25.7126C15.6646 26.0083 15.2635 26.1744 14.8452 26.1744C14.4269 26.1744 14.0258 26.0083 13.73 25.7126L8.99773 20.9803C8.71039 20.6828 8.55139 20.2843 8.55499 19.8708C8.55858 19.4572 8.72448 19.0615 9.01694 18.7691C9.30941 18.4766 9.70505 18.3107 10.1186 18.3071C10.5322 18.3035 10.9307 18.4625 11.2282 18.7498L14.8452 22.3669L24.7719 12.4402C25.0694 12.1528 25.4679 11.9938 25.8815 11.9974C26.2951 12.001 26.6907 12.1669 26.9832 12.4594C27.2757 12.7518 27.4415 13.1475 27.4451 13.5611C27.4487 13.9747 27.2897 14.3731 27.0024 14.6706Z" fill="#00B16A"/>
</svg>
