<svg width="16" height="16" viewBox="0 0 16 16" fill="none" xmlns="http://www.w3.org/2000/svg">
<path d="M3.11816 12.5562V0.839844H14.8345V12.5562C14.8345 13.9941 13.6688 15.1598 12.2309 15.1598" stroke="#E1740F" stroke-width="1.2" stroke-miterlimit="10" stroke-linecap="round" stroke-linejoin="round"/>
<path d="M9.62722 12.5562H1.16541C1.16541 13.994 2.33118 15.1598 3.76904 15.1598H12.2309C10.793 15.1598 9.62722 13.994 9.62722 12.5562Z" stroke="#E1740F" stroke-width="1.2" stroke-miterlimit="10" stroke-linecap="round" stroke-linejoin="round"/>
<path d="M8.32544 6.69775H12.2309" stroke="#E1740F" stroke-width="1.2" stroke-miterlimit="10" stroke-linejoin="round"/>
<path d="M5.72168 6.69775H7.0235" stroke="#E1740F" stroke-width="1.2" stroke-miterlimit="10" stroke-linejoin="round"/>
<path d="M8.32544 9.30176H12.2309" stroke="#E1740F" stroke-width="1.2" stroke-miterlimit="10" stroke-linejoin="round"/>
<path d="M5.72168 9.30176H7.0235" stroke="#E1740F" stroke-width="1.2" stroke-miterlimit="10" stroke-linejoin="round"/>
<path d="M8.32544 4.09424H12.2309" stroke="#E1740F" stroke-width="1.2" stroke-miterlimit="10" stroke-linejoin="round"/>
<path d="M5.72168 4.09424H7.0235" stroke="#E1740F" stroke-width="1.2" stroke-miterlimit="10" stroke-linejoin="round"/>
<path d="M9.62722 12.5562H1.16541C1.16541 13.994 2.33118 15.1598 3.76904 15.1598H12.2309C10.793 15.1598 9.62722 13.994 9.62722 12.5562Z" fill="#E1740F"/>
</svg>
