<svg width="26" height="26" viewBox="0 0 26 26" fill="none" xmlns="http://www.w3.org/2000/svg">
<g clip-path="url(#clip0_7403_3118)">
<path fill-rule="evenodd" clip-rule="evenodd" d="M13.3174 25.9502C10.8451 25.9502 8.42838 25.2171 6.37276 23.8436C4.31715 22.4701 2.715 20.5178 1.76891 18.2337C0.822812 15.9497 0.575253 13.4363 1.05757 11.0116C1.53988 8.5868 2.73041 6.35953 4.47856 4.61137C6.22672 2.86321 8.454 1.6727 10.8788 1.19039C13.3035 0.708072 15.8169 0.955606 18.1009 1.9017C20.385 2.8478 22.3372 4.44996 23.7108 6.50557C25.0843 8.56118 25.8174 10.9779 25.8174 13.4502C25.8174 16.7654 24.5004 19.9448 22.1562 22.289C19.812 24.6332 16.6326 25.9502 13.3174 25.9502Z" fill="#3D3D3D"/>
<path fill-rule="evenodd" clip-rule="evenodd" d="M13.3174 25.9502C10.8451 25.9502 8.42838 25.2171 6.37276 23.8436C4.31715 22.4701 2.715 20.5178 1.76891 18.2337C0.822812 15.9497 0.575253 13.4363 1.05757 11.0116C1.53988 8.5868 2.73041 6.35953 4.47856 4.61137C6.22672 2.86321 8.454 1.6727 10.8788 1.19039C13.3035 0.708072 15.8169 0.955606 18.1009 1.9017C20.385 2.8478 22.3372 4.44996 23.7108 6.50557C25.0843 8.56118 25.8174 10.9779 25.8174 13.4502C25.8174 16.7654 24.5004 19.9448 22.1562 22.289C19.812 24.6332 16.6326 25.9502 13.3174 25.9502ZM6.23988 16.269C5.97108 15.9972 5.82032 15.6304 5.82032 15.2481C5.82032 14.8659 5.97108 14.499 6.23988 14.2273L6.97574 13.4956C7.10088 13.3693 7.25009 13.2695 7.41456 13.202C7.57902 13.1345 7.75539 13.1008 7.93315 13.1028C8.11092 13.1047 8.28646 13.1424 8.44938 13.2135C8.6123 13.2847 8.75927 13.3878 8.88156 13.5169L10.1816 14.8656C10.2435 14.931 10.3182 14.9831 10.401 15.0187C10.4838 15.0543 10.5729 15.0727 10.663 15.0727C10.7531 15.0727 10.8423 15.0543 10.9251 15.0187C11.0078 14.9831 11.0825 14.931 11.1445 14.8656L17.7695 8.03645C17.8927 7.90651 18.0408 7.80282 18.2051 7.73161C18.3694 7.66041 18.5464 7.62317 18.7254 7.62212C18.9045 7.62107 19.0819 7.65623 19.247 7.7255C19.4121 7.79477 19.5614 7.89672 19.6861 8.02521L20.4007 8.7477C20.663 9.01835 20.8096 9.38042 20.8096 9.75728C20.8096 10.1341 20.663 10.4962 20.4007 10.7669L11.6053 19.7048C11.4826 19.8318 11.3357 19.9331 11.1733 20.0027C11.0109 20.0722 10.8362 20.1086 10.6596 20.1098C10.4829 20.1109 10.3078 20.0768 10.1445 20.0094C9.98124 19.942 9.83305 19.8427 9.70864 19.7173L6.23988 16.269Z" fill="#3D3D3D"/>
</g>
<defs>
<clipPath id="clip0_7403_3118">
<rect width="25" height="25" fill="white" transform="translate(0.817383 0.950195)"/>
</clipPath>
</defs>
</svg>
