<svg width="260" height="223" viewBox="0 0 260 223" fill="none" xmlns="http://www.w3.org/2000/svg">
<g clip-path="url(#clip0_1420_5981)">
<path d="M126.761 164.127C132.95 166.052 136.971 170.795 135.741 174.72C134.512 178.646 128.498 180.268 122.307 178.342C119.823 177.606 117.553 176.288 115.684 174.499L89.5635 166.014L93.8193 153.881L119.118 163.534C121.677 163.12 124.297 163.324 126.761 164.127Z" fill="#FFB6B6"/>
<path d="M70.8025 75.1045C64.5741 74.3692 58.8393 78.565 57.679 84.7084C53.5405 106.621 44.7508 154.005 45.9083 155.159C47.4153 156.661 103.675 173.183 103.675 173.183L110.205 159.164L73.0335 141.14L81.1857 88.731C82.2206 82.0777 77.5106 75.8964 70.8025 75.1045Z" fill="#E6E6E6"/>
<path d="M138.581 186.92C132.542 189.271 126.429 188.071 124.929 184.24C123.428 180.409 127.108 175.399 133.149 173.048C135.55 172.075 138.149 171.69 140.729 171.925L166.443 162.285L170.725 174.409L144.921 182.625C143.182 184.54 141.008 186.013 138.581 186.92Z" fill="#A0616A"/>
<path d="M175.664 82.8611C181.828 81.7103 187.833 85.5124 189.405 91.5642C195.011 113.15 206.976 159.839 205.899 161.067C204.497 162.667 149.478 182.92 149.478 182.92L142.018 169.37L177.89 148.897L166.223 97.1523C164.741 90.5833 169.024 84.1005 175.664 82.8611Z" fill="#E6E6E6"/>
<path d="M66.3903 78.2522L69.4541 59.1665L48.7737 50.7689L45.71 79.779L66.3903 78.2522Z" fill="#FFB6B6"/>
<path d="M187.173 81.2562L184.109 62.1706L204.789 53.7729L207.853 82.7831L187.173 81.2562Z" fill="#A0616A"/>
<path d="M61.1642 65.3019C72.8113 65.3019 82.2532 55.891 82.2532 44.2821C82.2532 32.6732 72.8113 23.2623 61.1642 23.2623C49.5171 23.2623 40.0752 32.6732 40.0752 44.2821C40.0752 55.891 49.5171 65.3019 61.1642 65.3019Z" fill="#FFB6B6"/>
<path d="M59.4812 16.0224C60.0914 16.3775 60.9088 15.8403 61.1045 15.1635C61.3001 14.4868 61.0722 13.7683 60.8462 13.101L59.7083 9.7419C58.9013 7.35952 58.0448 4.8939 56.297 3.08061C53.6591 0.343737 49.4668 -0.352513 45.6928 0.151895C40.8464 0.799652 36.0645 3.41536 33.8111 7.74077C31.5576 12.0662 32.517 18.1017 36.5889 20.8003C30.7856 27.43 28.7626 34.8186 29.082 43.6112C29.4014 52.4038 39.0148 60.4959 45.2839 66.6899C46.684 65.844 47.9567 61.8799 47.1868 60.4397C46.417 58.9996 47.52 57.3312 46.5666 56.0047C45.6131 54.6783 44.8154 56.7904 45.7793 55.4715C46.3876 54.6392 44.0136 52.7244 44.9177 52.2263C49.2909 49.8169 50.7454 44.3838 53.492 40.2233C56.805 35.2049 62.4751 31.8064 68.4756 31.2426C71.7811 30.932 75.2724 31.4945 77.9817 33.4072C80.6911 35.3199 82.4451 38.7379 81.8169 41.9873C83.444 40.3406 84.2539 37.9273 83.9485 35.6362C83.643 33.3451 82.2287 31.2265 80.2266 30.0606C81.444 26.0479 80.401 21.4321 77.5754 18.327C74.7497 15.2218 63.2874 15.7507 59.1621 16.5679" fill="#2F2E41"/>
<path d="M58.8405 31.3644C53.3767 31.9523 49.4318 36.6696 46.1005 41.026C44.1805 43.5369 42.1693 46.3098 42.2175 49.4665C42.2662 52.6581 44.4071 55.3955 45.4303 58.4201C47.1027 63.3639 45.4727 69.2459 41.4917 72.6333C45.4254 73.3774 49.6779 70.4375 50.357 66.5046C51.1475 61.9261 47.6654 57.5072 48.0778 52.8797C48.4411 48.8028 51.6645 45.6651 54.4048 42.6168C57.1451 39.5685 59.7188 35.5235 58.4581 31.6282" fill="#2F2E41"/>
<path d="M68.7795 75.0519L44.9035 68.5432L20.2899 78.5566L9.74121 161.668L70.0194 163.671V150.265C70.0194 150.265 80.5681 137.135 78.5589 118.11L76.5496 99.084L68.7795 75.0519Z" fill="#E6E6E6"/>
<path d="M79.8147 108.847L32.5967 106.344L19.7876 142.642C19.7876 142.642 3.96458 164.422 1.45299 180.443C-1.0586 196.464 0.44835 218.995 0.44835 218.995H76.0414L70.0195 150.265C70.0195 150.265 84.0785 119.862 82.4489 114.605C80.8193 109.348 79.8147 108.847 79.8147 108.847Z" fill="#3F3D56"/>
<path d="M43.6476 68.7935H32.0942V111.35H43.6476V68.7935Z" fill="#3F3D56"/>
<path d="M79.3121 78.3062H67.7588V113.353H79.3121V78.3062Z" fill="#3F3D56"/>
<path d="M183.779 79.0572L207.655 72.5485L232.268 82.5619L242.817 165.673L182.539 167.676V154.27C182.539 154.27 176.373 140.565 182.288 122.365C188.064 104.591 176.009 103.089 176.009 103.089L183.779 79.0572Z" fill="#E6E6E6"/>
<path d="M172.744 112.852L219.962 110.349L232.771 146.648C232.771 146.648 240.557 171.431 243.068 187.452C245.58 203.474 252.11 223 252.11 223H176.517L174.251 156.911L172.744 112.852Z" fill="#3F3D56"/>
<path d="M220.464 72.7988H208.911V115.356H220.464V72.7988Z" fill="#3F3D56"/>
<path d="M184.799 82.3116H173.246V117.359H184.799V82.3116Z" fill="#3F3D56"/>
<path d="M191.843 68.2231C206.431 68.2231 218.256 56.4363 218.256 41.8965C218.256 27.3568 206.431 15.5699 191.843 15.5699C177.255 15.5699 165.43 27.3568 165.43 41.8965C165.43 56.4363 177.255 68.2231 191.843 68.2231Z" fill="#A0616A"/>
<path d="M217.824 56.178C217.824 56.178 205.045 40.8936 199.933 42.1673C194.821 43.441 198.016 45.3515 198.016 45.3515L185.237 31.3408C185.237 31.3408 175.014 27.5197 165.43 39.6199C165.43 39.6199 159.679 29.4302 165.43 23.6985C171.18 17.9669 173.097 18.6037 174.375 15.4195C175.653 12.2352 184.598 9.68779 184.598 9.68779C184.598 9.68779 184.085 5.10446 186.897 7.39612C189.71 9.68779 196.733 9.68779 196.733 9.68779C196.733 9.68779 196.774 7.14038 199.631 9.68779C202.489 12.2352 205.684 10.9615 205.684 10.9615C205.684 10.9615 205.684 15.3693 207.92 15.3944C210.156 15.4195 213.99 12.2352 214.629 14.7826C215.268 17.33 219.741 18.6037 220.379 26.246C221.018 33.8882 217.824 56.178 217.824 56.178Z" fill="#2F2E41"/>
<path d="M119.863 95.4718L140.313 134.005L137.509 135.483L117.059 96.9498C116.763 96.3905 116.977 95.6962 117.538 95.4003L118.308 94.9945C118.869 94.6986 119.566 94.9125 119.863 95.4718Z" fill="#3F3D56"/>
<path d="M153.932 148.567C148.729 147.23 143.286 149.598 140.676 154.278C137.406 160.139 133.672 164.947 134.922 153.488C136.299 140.873 128.874 130.683 134.709 127.607C140.545 124.53 146.57 133.881 156.054 142.346C164.844 150.193 159.775 150.069 153.932 148.567Z" fill="#3F3D56"/>
<path d="M123.817 103.267C129.715 100.583 135.885 101.44 137.598 105.182C139.312 108.923 135.919 114.131 130.019 116.815C127.677 117.919 125.103 118.449 122.514 118.359L97.3807 129.417L92.4258 117.55L117.729 107.909C119.357 105.899 121.445 104.307 123.817 103.267Z" fill="#FFB6B6"/>
<path d="M22.5355 74.1974C17.405 77.7931 15.9438 84.7326 19.1934 90.0794C30.7843 109.15 55.9677 150.284 57.6022 150.373C59.7302 150.49 112.69 125.368 112.69 125.368L108.165 110.585L68.415 121.89L39.3923 77.4378C35.7078 71.7947 28.0612 70.3248 22.5355 74.1974Z" fill="#E6E6E6"/>
<path d="M126.331 162.444L194.267 126.626L202.606 142.34C209.8 155.895 204.599 172.721 191 179.891L172.345 189.726C158.746 196.896 141.864 191.713 134.671 178.158L126.331 162.444Z" fill="#FD7A33"/>
<path d="M183.888 186.521C177.991 189.206 171.82 188.349 170.107 184.608C168.393 180.867 171.785 175.659 177.684 172.974C180.026 171.869 182.6 171.339 185.189 171.429L210.321 160.367L215.278 172.233L189.976 181.878C188.348 183.888 186.26 185.48 183.888 186.521Z" fill="#A0616A"/>
<path d="M235.002 80.6119C241.23 79.8766 246.965 84.0724 248.125 90.2158C252.264 112.128 261.053 159.513 259.896 160.667C258.389 162.169 202.129 178.691 202.129 178.691L195.599 164.672L232.771 146.648L224.618 94.2384C223.584 87.5851 228.294 81.4038 235.002 80.6119Z" fill="#E6E6E6"/>
</g>
<defs>
<clipPath id="clip0_1420_5981">
<rect width="260" height="223" fill="white"/>
</clipPath>
</defs>
</svg>
