<svg width="30" height="28" viewBox="0 0 30 28" fill="none" xmlns="http://www.w3.org/2000/svg">
<path d="M20.1667 19.875V18.4583C20.1667 17.7069 19.8682 16.9862 19.3368 16.4549C18.8055 15.9235 18.0848 15.625 17.3334 15.625H11.6667C10.9153 15.625 10.1946 15.9235 9.66324 16.4549C9.13188 16.9862 8.83337 17.7069 8.83337 18.4583V19.875" stroke="black" stroke-opacity="0.65" stroke-linecap="round" stroke-linejoin="round"/>
<path d="M14.5 12.7917C16.0648 12.7917 17.3333 11.5231 17.3333 9.95833C17.3333 8.39353 16.0648 7.125 14.5 7.125C12.9352 7.125 11.6666 8.39353 11.6666 9.95833C11.6666 11.5231 12.9352 12.7917 14.5 12.7917Z" stroke="black" stroke-opacity="0.65" stroke-linecap="round" stroke-linejoin="round"/>
<path d="M29.3501 14C29.3501 21.732 22.7799 28 14.6751 28C6.57024 28 0 21.732 0 14C0 6.26801 6.57024 0 14.6751 0C22.7799 0 29.3501 6.26801 29.3501 14ZM2.01783 14C2.01783 20.6688 7.68466 26.075 14.6751 26.075C21.6654 26.075 27.3323 20.6688 27.3323 14C27.3323 7.33117 21.6654 1.92501 14.6751 1.92501C7.68466 1.92501 2.01783 7.33117 2.01783 14Z" fill="black" fill-opacity="0.65"/>
</svg>
