<svg width="8" height="10" viewBox="0 0 8 10" fill="none" xmlns="http://www.w3.org/2000/svg">
<path d="M7.25598 1.57144C7.40177 1.57144 7.51998 1.45631 7.51998 1.3143V0.457155C7.51998 0.315148 7.40177 0.200012 7.25598 0.200012H0.74398C0.598186 0.200012 0.47998 0.315148 0.47998 0.457155V1.41604C0.47998 1.55805 0.598186 1.67318 0.74398 1.67318H2.62014C3.22092 1.67318 3.68188 1.88657 3.96148 2.25715H0.74398C0.598186 2.25715 0.47998 2.37229 0.47998 2.5143V3.37144C0.47998 3.51345 0.598186 3.62858 0.74398 3.62858H4.23663C4.09986 4.40185 3.51149 4.88498 2.59198 4.88498H0.74398C0.598186 4.88498 0.47998 5.00012 0.47998 5.14213V6.2781C0.47998 6.34986 0.51078 6.41837 0.564922 6.46705L4.19607 9.73183C4.24483 9.77567 4.30876 9.80001 4.37512 9.80001H6.19149C6.43182 9.80001 6.54714 9.5127 6.37055 9.35391L3.05114 6.36943C4.73412 6.31928 5.93631 5.22525 6.09414 3.62858H7.25598C7.40177 3.62858 7.51998 3.51345 7.51998 3.37144V2.5143C7.51998 2.37229 7.40177 2.25715 7.25598 2.25715H5.9648C5.88811 2.00985 5.78264 1.78045 5.65126 1.57144H7.25598Z" fill="black"/>
</svg>
