<svg width="25" height="26" viewBox="0 0 25 26" fill="none" xmlns="http://www.w3.org/2000/svg">
<path d="M17.5875 7.51969C17.8153 7.51969 18 7.33979 18 7.1179V5.77862C18 5.55673 17.8153 5.37683 17.5875 5.37683H7.4125C7.1847 5.37683 7 5.55673 7 5.77862V7.27688C7 7.49876 7.1847 7.67866 7.4125 7.67866H10.344C11.2827 7.67866 12.003 8.01208 12.4398 8.59112H7.4125C7.1847 8.59112 7 8.77102 7 8.9929V10.3322C7 10.5541 7.1847 10.734 7.4125 10.734H12.8698C12.6561 11.9422 11.7367 12.6971 10.3 12.6971H7.4125C7.1847 12.6971 7 12.877 7 13.0989V14.8738C7 14.986 7.04813 15.093 7.13272 15.1691L12.8064 20.2703C12.8826 20.3388 12.9825 20.3768 13.0862 20.3768H15.9242C16.2997 20.3768 16.4799 19.9279 16.204 19.6798L11.0174 15.0165C13.6471 14.9382 15.5255 13.2288 15.7721 10.734H17.5875C17.8153 10.734 18 10.5541 18 10.3322V8.9929C18 8.77102 17.8153 8.59112 17.5875 8.59112H15.57C15.4502 8.2047 15.2854 7.84627 15.0801 7.51969H17.5875Z" fill="black"/>
</svg>
