<svg width="7" height="7" viewBox="0 0 7 7" fill="none" xmlns="http://www.w3.org/2000/svg">
<path d="M3.23023 6.85877C1.24373 3.97894 0.875 3.68338 0.875 2.625C0.875 1.17525 2.05025 0 3.5 0C4.94975 0 6.125 1.17525 6.125 2.625C6.125 3.68338 5.75627 3.97894 3.76977 6.85877C3.63941 7.04709 3.36057 7.04707 3.23023 6.85877ZM3.5 3.71875C4.10406 3.71875 4.59375 3.22906 4.59375 2.625C4.59375 2.02094 4.10406 1.53125 3.5 1.53125C2.89594 1.53125 2.40625 2.02094 2.40625 2.625C2.40625 3.22906 2.89594 3.71875 3.5 3.71875Z" fill="#FD7A33"/>
</svg>
