<?xml version="1.0" encoding="utf-8"?>
<!-- Generator: Adobe Illustrator 24.3.0, SVG Export Plug-In . SVG Version: 6.00 Build 0)  -->
<svg version="1.1" xmlns="http://www.w3.org/2000/svg" xmlns:xlink="http://www.w3.org/1999/xlink" x="0px" y="0px"
	 viewBox="0 0 3000 3000" style="enable-background:new 0 0 3000 3000;" xml:space="preserve">
<style type="text/css">
	.st0{fill:#809FE2;}
	.st1{clip-path:url(#bgcolor_2_);}
	.st2{fill:#BCBCD1;}
	.st3{fill:#C9C9DA;}
	.st4{fill:#F2F2F2;}
	.st5{fill:#FFFFFF;}
	.st6{fill:#6B3F3D;}
	.st7{fill:#E84F55;}
	.st8{fill:none;stroke:#FFFFFF;stroke-width:10;stroke-linecap:round;stroke-linejoin:round;stroke-miterlimit:10;}
	.st9{fill:#FFFFFC;}
	.st10{fill:#FDBF98;}
	.st11{fill:#D85744;}
	.st12{fill:#EA7E31;}
	.st13{fill:#D6D6D4;}
	.st14{fill:#250055;}
	.st15{fill:#4D4D4D;}
	.st16{fill:none;}
	.st17{fill:#C1272D;}
	.st18{fill:#F7931E;}
	.st19{fill:#FDFFFE;}
	.st20{opacity:0.75;fill:#D4D5D5;}
	.st21{fill:#D2D4D3;}
	.st22{fill:#FBFDFC;}
	.st23{fill:#CFD3D6;}
	.st24{fill-rule:evenodd;clip-rule:evenodd;fill:#2B203F;}
	.st25{fill:#2B203F;}
	.st26{clip-path:url(#SVGID_2_);}
	.st27{fill-rule:evenodd;clip-rule:evenodd;fill:#FFFFFF;}
	.st28{font-family:'DelaGothicOne-Regular';}
	.st29{font-size:117px;}
</style>
<g id="Student_show_ignore_symbol">
	<circle id="bgcolor" class="st0" cx="1500" cy="1479.09" r="1221.29"/>
	<path d="M895.64,1867.26c0,0,39.41-6.98,56.2-5.21l-0.64,3.81c0,0-38.74-0.54-56.17,5.07L895.64,1867.26z"/>
</g>
<g id="Layer_2">
</g>
<g id="Layer_3">
	<g>
		<defs>
			<circle id="bgcolor_1_" cx="1500" cy="1479.09" r="1221.29"/>
		</defs>
		<clipPath id="bgcolor_2_">
			<use xlink:href="#bgcolor_1_"  style="overflow:visible;"/>
		</clipPath>
		<g class="st1">
			<g>
				<g>
					<g>
						<g>
							<path class="st2" d="M948.22,1909.55c0,0,31.73,31.36,10.16,61.28c-21.57,29.91-93.23,59.11-119.36,6.44
								C808.77,1916.3,928.42,1889.62,948.22,1909.55z"/>
							<path class="st3" d="M961.7,1929.68c-5.23-11.97-13.48-20.13-13.48-20.13c-19.8-19.93-139.45,6.75-109.2,67.71
								c5.67,11.43,13.49,19.01,22.47,23.55c27.11,1.49,59.3-13.34,79.29-33.46C951.97,1956.1,958.21,1942.05,961.7,1929.68z"/>
							<path d="M963.47,1928.02c-10.24-22.63-21.23-31.02-56.09-26.1c-45.43,6.4-90.94,34.99-70.41,76.37
								C869.75,2044.35,991.41,1989.82,963.47,1928.02z M841.06,1976.24c-28.88-58.19,87.35-83.37,105.57-65.03
								C1009.4,1974.38,874.57,2043.76,841.06,1976.24z"/>
						</g>
						<path class="st4" d="M871.06,1965.32c0,0-53.8,24.87-71.84-43.78l-25.83-54.53l114.29-75.29c0,0,57.15,23.01,69.61,56.47
							c12.47,33.46-5.19,76.34-17.66,95.16C927.17,1962.19,883.53,1977.87,871.06,1965.32z"/>
						<path class="st4" d="M832.62,1892.47c0,0-22.93,42.6-45.4,33.85c-22.48-8.75-53.97-30.77-53.97-71.17
							c0-40.41,43.61-21.58,43.61-21.58S827.42,1874.69,832.62,1892.47z"/>
						<path class="st5" d="M776.86,1833.56c0,0-27.6-11.91-38.88,3.56c0,0,0,0,0,0c-4.09,19.58,32.34,77.35,57.06,90.31
							c19.68-1.7,37.58-34.96,37.58-34.96C827.42,1874.69,776.86,1833.56,776.86,1833.56z"/>
						<path class="st4" d="M800.06,1784.41c-2.08,0-28.05-3.83-39.48,7.67c-11.43,11.5-22.56,51.29,1.36,71.83
							c23.92,20.54,61.33,49.12,73.1,18.45C846.82,1851.69,800.06,1784.41,800.06,1784.41z"/>
						<path class="st5" d="M771.67,1822.57c14.62,26.71,29.37,61.86,50.95,72.58c5.26-1.45,9.58-5.4,12.42-12.79
							c11.78-30.67-34.98-97.95-34.98-97.95c-1.79,0-21.35-2.85-34.04,3.74C764.19,1798.36,764.93,1810.26,771.67,1822.57z"/>
						<path class="st5" d="M961.07,1883.05c0,0,7.66-52.28-11.04-90.63c-18.7-38.34-110.46-42.15-136.27-31.88
							c-25.82,10.27-19.23,43.39-7.11,73.02c12.12,29.63,27.09,41.34,49.39,41.34c22.3,0,26.8-60.87,17.8-69.93l44.68,41.48
							L961.07,1883.05z"/>
						<g>
							<path d="M941.17,1944.39c29.43-44.43,29.12-114.63,10.51-152.78c-18.91-38.77-110.97-43.78-138.6-32.79
								c-10.3,4.1-16.46,11.94-18.34,23.32c-16.59-1.02-28.83,1.95-35.47,8.63c-6.35,6.39-13.06,21.82-13.35,38.22
								c-27.02,9.99-18.92,75.88,40.62,99.06c4.04,1.57,8.34,1.73,12.79,0.46c12.84,39.74,42.74,50.53,71.36,38.99
								C885.56,1979.83,928.95,1962.84,941.17,1944.39z M872.36,1964.01l-0.91-0.91c-12.02,5.44-27.64,6.72-40.23,1.05
								c-22.1-9.97-27.62-36.41-29.51-40.39c-0.66,0.15-6.73,3.6-13.85,0.83c-12.38-4.82-52.79-24.08-52.79-69.45
								c0-21.92,13.76-22.88,14.52-23.44l-0.01-1.38c-0.22-56.19,45.53-43.18,47.33-44.23c0.43-1.25,0.89-17.21,17.5-23.82
								c26.36-10.49,116.14-5.53,133.94,30.98c17.51,35.9,11.64,83.89,10.91,89.32c-2.27,23.94-12.82,47.16-21.18,59.77
								C925.89,1960.77,883.6,1975.32,872.36,1964.01z"/>
						</g>
						<path d="M870.71,1718.22c-40.19,1.41-50.62,13.14-50.53,13.08c-8.15,6.8-13.38,14.03-16.24,21.34
							C795.72,1761.12,801.58,1712.51,870.71,1718.22z"/>
						<path d="M770.39,1762.57c-16.63,12.27-30.76,26.47-25.98,47.9C743.02,1818.37,729.57,1785.87,770.39,1762.57z"/>
						<g>
							<path d="M759.28,1790.77c10.54-10.61,26.47-8.53,37.04-8.51c2.12,0,1.97,3.6-1.52,3.6c-15.55,0-26.56,1.14-32.92,7.54
								c-11.07,11.14-21.51,49.59,1.25,69.11c23.26,19.97,59.23,47.75,70.19,19.19c1.15-2.99,1.74-6.53,1.78-10.51
								c0.02-2.46,3.7-2.42,3.68,0.03c-0.03,4.43-0.72,8.41-2.03,11.82c-12.33,32.13-49.86,4.75-76.02-17.71
								C737.03,1844.95,745.86,1804.27,759.28,1790.77z"/>
						</g>
						<g>
							<path d="M804.94,1834.27c-25.79-63.03-8.05-91.61,79.9-77.84c20.09,3.14,55.48,11.9,66.84,35.19
								c16.65,34.14,12.37,93.28,9.12,93.28c-3.59,0,8.69-48.34-12.43-91.64c-10.62-21.78-44.72-30.12-64.1-33.16
								c-86.13-13.48-100.47,12.78-75.93,72.77c11.53,28.18,25.79,40.2,47.69,40.2c19.92,0,24.86-58.35,16.5-66.76
								c-1.72-1.73,0.88-4.36,2.6-2.62c9.83,9.89,5.42,73.09-19.1,73.09C829.14,1876.76,815.3,1859.58,804.94,1834.27z"/>
						</g>
						<g>
							<path d="M731.4,1855.14c0-21.89,14.92-29,16.49-24.94c1.75,4.55-12.8,1.25-12.8,24.94c0,45.37,40.41,64.62,52.79,69.45
								c11.95,4.65,35.43-9.3,28.07-28.1c-0.89-2.28,2.54-3.64,3.43-1.36c8.54,21.82-17.88,38.73-32.83,32.91
								C755.56,1915.98,731.4,1890.42,731.4,1855.14z"/>
						</g>
						<path class="st5" d="M920.24,1832.16c0,0-66.5-18.13-84.51-11.85c-18.01,6.27-48.83,58.21-41.22,73.55
							c7.62,15.34,24.79,33.19,51.8,22.03c27.01-11.16,24.86-46.9,24.86-46.9l35.68,44.96
							C906.86,1913.95,960.82,1867.32,920.24,1832.16z"/>
						<path d="M906.92,1913.91c-12.45-16.72-24.98-33.55-37.64-50.55c-0.18,0.72,4.58,54.68-39.51,54.17
							c-15.18-0.13-26.8-10.87-33.62-24.52c-5.45-11.99,12.1-42.47,22.98-56.06c14.79-18.36,19.77-23.18,100.65-2.98l0,0
							c2.35,0.63,3.3-2.96,0.94-3.58c-16.62-4.42-37-9.04-53.94-11.49c-26.64-3.72-30.5-0.39-31.55-0.36
							c-18.51,6.41-45.28,52.89-43.65,71l0.12,1.27c1.6,8.93,21.61,41.86,56.54,26.25c20.73-9.24,24.22-32.69,24.73-43.08
							L906.8,1914c0.03,0.03,0.07,0.04,0.11,0.01C906.94,1913.99,906.95,1913.94,906.92,1913.91z"/>
						<path d="M874.96,1965.9c4.8,5.8-10.9,10.56-14.45-38.51c-0.04-0.58,0.82-0.67,0.9-0.1
							C862.61,1935.91,867.25,1962.02,874.96,1965.9z"/>
					</g>
					<path class="st3" d="M923.36,1780.49c0,0-85.08-25.58-99.54-11.02c-14.47,14.56,113.31,43.65,113.31,31.84
						C937.13,1789.5,923.36,1780.49,923.36,1780.49z"/>
				</g>
				<g>
					<g>
						<g>
							<g>
								<g>
									<path class="st6" d="M812.94,1914.69L812.94,1914.69l103.14-613.55l53.77,9.16l-94.04,559.43
										C870.79,1899.61,842.64,1919.75,812.94,1914.69z"/>
									<ellipse class="st6" cx="990.53" cy="1022.76" rx="412.82" ry="415.5"/>
									<ellipse class="st5" cx="990.53" cy="1022.76" rx="391.4" ry="393.94"/>
									<ellipse class="st7" cx="990.53" cy="1022.76" rx="329.29" ry="331.43"/>
									<polygon class="st5" points="798.26,798.27 853.79,760.26 1001.5,978.89 1234.41,856.63 1265.46,916.55 1039.52,1035.16 
										1182.81,1247.24 1127.28,1285.25 979.57,1066.62 746.66,1188.88 715.61,1128.96 941.55,1010.35 									"/>
								</g>
							</g>
						</g>
					</g>
				</g>
				<g>
					<line class="st8" x1="1636.95" y1="2205.34" x2="1674.04" y2="2205.34"/>
					<g>
						<g>
							<path class="st9" d="M2040.76,2621.47H1277.4l32.74-491.48c0-49.79,42.11-90.15,94.04-90.15h500.58
								c51.93,0,94.04,40.36,94.04,90.15L2040.76,2621.47z"/>
							<path class="st10" d="M1520.99,1960.28c-0.12,3.11-0.2,6.26-0.2,9.45c0,94.94,59.89,171.91,133.78,171.91
								c73.9,0,133.79-76.98,133.79-171.91c0-1.97-0.07-3.92-0.12-5.87c-31.08-15.16-75.5-25.82-139.05-25.82
								C1592.43,1938.03,1551.11,1946.97,1520.99,1960.28z"/>
							<g>
								<path class="st11" d="M1498.18,2016.46l57.7,683.91l-298.63-0.49l44.5-583.37
									C1301.74,2116.52,1300.28,2016.46,1498.18,2016.46z"/>
								<path class="st12" d="M1431.76,2020.94c0,0-126.69-5.95-234.13,132.42c-95.28,122.7-260.75,33.47-210.84-136.49
									l-150.99-40.6c0,0-70.71,304.37,128.53,376.79c183.11,66.57,325.11-93.06,325.11-93.06L1431.76,2020.94z"/>
								<polygon class="st9" points="843.99,1978.47 849.52,1943.61 990.53,1987.57 979.82,2014.99 								"/>
								<path class="st13" d="M858.16,2016.87c0,4.98-4.01,9.01-8.96,9.01c-4.94,0-8.95-4.03-8.95-9.01c0-4.98,4.01-9.01,8.95-9.01
									C854.16,2007.85,858.16,2011.89,858.16,2016.87z"/>
								<path class="st13" d="M852.94,2046.7c0,4.98-4.01,9.01-8.95,9.01c-4.95,0-8.96-4.03-8.96-9.01c0-4.98,4.01-9.01,8.96-9.01
									C848.93,2037.69,852.94,2041.72,852.94,2046.7z"/>
								<path class="st13" d="M851.3,2078.94c0,4.98-4.01,9.01-8.96,9.01c-4.95,0-8.96-4.03-8.96-9.01c0-4.98,4.01-9.01,8.96-9.01
									C847.29,2069.93,851.3,2073.97,851.3,2078.94z"/>
							</g>
							<g>
								<path class="st11" d="M1819.19,2016.46l-52.14,683.91h286.84l-38.27-583.86
									C2015.62,2116.52,2017.08,2016.46,1819.19,2016.46z"/>
								<polyline class="st9" points="1998.79,2129.99 2040.76,2699.89 1277.4,2699.89 1310.14,2129.99 								"/>
								<path class="st13" d="M1642.26,2197.49v477.51c0,6.32,5.09,11.44,11.37,11.44c6.28,0,11.37-5.12,11.37-11.44V2199.1"/>
								<polyline class="st12" points="1498.18,2016.46 1550.31,2700.37 1263.48,2700.37 1301.74,2116.52 								"/>
								<polyline class="st12" points="1819.19,2016.46 1767.05,2700.37 2053.89,2700.37 2015.62,2116.52 								"/>
								<path class="st12" d="M1885.6,2020.94c0,0,126.69-5.95,234.13,132.42c95.28,122.7,269.2,536.19,219.29,366.23l311.66-133.58
									c0,0-149.19,207.32-337.69,251.45c-189.62,44.4-285.08-377.45-285.08-377.45L1885.6,2020.94z"/>
							</g>
							<g>
								<path class="st13" d="M1752.46,2159.22l163.05,17.59l-67.96-130.11l-46.98-36.87l-145.45,112.56l-139.77-112.56
									l-29.33,30.02l-81.12,136.97l156.69-17.59l80.67,38.27v399.09c0,6.32,5.09,11.44,11.37,11.44c6.28,0,11.37-5.12,11.37-11.44
									V2199.1L1752.46,2159.22z"/>
								<path class="st13" d="M1849.98,2255.1h-104.82c-4.14,0-7.49,3.37-7.49,7.54c0,4.16,3.35,7.54,7.49,7.54h104.82
									c4.14,0,7.49-3.38,7.49-7.54C1857.46,2258.47,1854.11,2255.1,1849.98,2255.1z"/>
							</g>
							<path class="st11" d="M1498.18,2016.46l-129.88,111.08c0,0,51.07,150.39,112.31,273.25
								c61.24,122.86,59.46,165.12,59.46,165.12L1498.18,2016.46z"/>
							<path class="st11" d="M1819.16,2016.46l129.88,111.08c0,0-51.07,150.39-112.31,273.25
								c-61.24,122.86-59.43,165.12-59.43,165.12L1819.16,2016.46z"/>
						</g>
					</g>
					<polygon class="st11" points="1529.89,2014.3 1529.89,2075.58 1592.17,2166.43 1651.65,2121.35 1714.62,2166.43 
						1781.1,2071.35 1781.1,2014.3 1651.65,2121.35 					"/>
					<polygon class="st12" points="1586.57,2384.05 1655.49,2474.9 1718.12,2384.05 1674.04,2201.64 1694.67,2152.15 
						1651.65,2121.35 1613.52,2150.24 1636.95,2201.64 					"/>
					<g>
						<g>
							<g>
								<path class="st14" d="M1973.08,1779.21c0.24,0.63,0.45,1.28,0.68,1.91l-0.99,0.19c0-0.69,0-1.38,0-2.07
									C1972.87,1779.23,1972.98,1779.22,1973.08,1779.21z"/>
								<path class="st14" d="M1859.71,1832.05l3.25,2.74C1862.96,1830.5,1861.31,1832.39,1859.71,1832.05z"/>
								<path class="st14" d="M1912.75,1911.84l0.01-0.2C1912.14,1912.3,1912.26,1912.19,1912.75,1911.84z"/>
								<path class="st14" d="M1848.5,1987.9c-0.09,0.1-0.17,0.2-0.28,0.33C1849.73,1989.48,1849.42,1988.96,1848.5,1987.9z"/>
								<path class="st14" d="M1859.11,1831.55l-0.04,0.25c0.21,0.14,0.43,0.21,0.64,0.25L1859.11,1831.55z"/>
								<path class="st14" d="M1898.72,1882.1c0.52-1.53,1.16-2.39,1.84-2.96C1899.69,1879.06,1898.95,1879.76,1898.72,1882.1z"/>
								<path class="st14" d="M1895.7,1803.49c1.78,1.62,1.84-5.11,3.37-3.44c-1.88-4.17-0.82-6.36-5.76-4.45
									C1891.51,1802.51,1897.95,1797.24,1895.7,1803.49z"/>
								<path class="st14" d="M1899.07,1800.05c0.3,0.67,0.65,1.38,1.14,2.13C1899.74,1800.97,1899.38,1800.39,1899.07,1800.05z"/>
								<path class="st14" d="M1866.52,1795.36c0.19-2.07-0.78-4.49-0.59-6.57C1866.71,1793.29,1861.13,1795.92,1866.52,1795.36z"/>
								<path class="st15" d="M1926.31,1547.47c-3.12-1.84-6.08-4.67-8.89-8.37c-3.88,6.4-10.24,10.32-17.14,10.01l-68.14-3.07
									c-12.11-0.54-21.14-13.72-19.26-28.16c2.96-22.85,8.28-58.41,16.91-99.93h-334.64c5.35,32.11,10.2,66.75,14.43,104.11
									c1.76,15.6-8.32,29.49-21.39,29.49h-67.67c-6.02,0-11.63-3.02-15.62-8.07 M1372.17,1566.17c0-16.15,13-29.25,29.05-29.25
									h517.65c8.03,0,15.29,3.28,20.55,8.57c5.25,5.29,8.51,12.61,8.51,20.68H1372.17z"/>
								<path class="st16" d="M1947.93,1569.72h-575.76c0-16.15,13-29.25,29.05-29.25h517.65c8.03,0,15.29,3.28,20.55,8.57
									C1944.68,1554.33,1947.93,1561.65,1947.93,1569.72z"/>
								<rect x="1477.14" y="1417.54" class="st17" width="370.78" height="27.21"/>
								<g>
									<path class="st18" d="M1947.93,1574.42h-575.76c0-22.51,13-40.76,29.05-40.76h517.65c8.03,0,15.29,4.57,20.55,11.94
										C1944.68,1552.98,1947.93,1563.18,1947.93,1574.42z"/>
									<g>
										<path class="st12" d="M1876.72,1417.95h-433.02l4.51-13.06l24.88-72.08l9.18-26.62c12.94-37.52,44.91-65.13,83.7-72.36
											c72.63-13.53,177.27-3.85,227.85,11.7c26.76,8.23,44.8,44.85,59.37,89.15c5.84,17.78,11.13,36.79,16.2,55.7
											C1871.88,1399.65,1874.31,1408.89,1876.72,1417.95z"/>
										<g>
											<path class="st19" d="M1413.05,1575.78c0,0-176.38,369.33,158.13,440.75s368.93-211.36,366.01-247.69
												c-3.38-42.17-45.02-194.41-45.02-194.41L1413.05,1575.78z"/>
											<path class="st20" d="M1418.76,1578.77c0,0,3.98,44.66,60.31,42.66l337.43,3.81c10.31,0.12,19.24,7.26,21.64,17.36
												c13.68,57.55,46.85,243.05-78.04,297.44c-141.5,61.62-253.49,47.56-334.84-25.44c-4.02-3.61-10.19,0.66-8.15,5.69
												c8.24,20.37,52.46,61.5,120.3,81.74c164.09,48.98,280.72,5.95,339.51-72.27c35.25-46.9,61.21-132.6,55.46-164.74
												c-14.2-79.43-14.84-79.77-31.25-141.2c-3.23-12.08-7.94-26.38-12.38-44.32c-0.4-1.62-1.84-2.75-3.5-2.74L1418.76,1578.77
												z"/>
										</g>
										<g>
											<g>
												<path class="st19" d="M2045.59,1306c-96.08,119.17-121.78,185.73-128.63,213.79c-0.64,2.62-1.76,5.01-3.26,7.08
													c-3.88,5.35-10.24,8.61-17.14,8.36l-68.14-2.57c-12.11-0.45-24.12,5.55-19.26-23.51c3.19-19.05,8.28-48.77,16.91-83.44
													c6.41-25.78,14.65-54.3,25.13-83.27c33.38-92.3,89.4-189.09,180.98-215.53c18.32-5.29,38.22-1.93,53.31,9.79
													C2110.95,1156.47,2129.22,1202.28,2045.59,1306z"/>
												<path class="st11" d="M1831.64,1532.84c0,0,30.43-223.82,158.29-301.76c5.16-3.14,11.81,0.36,12.22,6.41
													c1.06,15.48,0.17,42.95-14.71,68.15c-22.3,37.75-115.32,189.95-115.32,228.72L1831.64,1532.84z"/>
												<path class="st21" d="M2076.68,1135.47c-2.42-1.17,7.05,55.86-77.61,147.97c-1.06,1.16-2,2.44-2.77,3.81l-78.59,140.76
													c0,0-27.58,49.17-39.54,82.9c-2.09,5.91-4.08,10.92-5.97,20.42c-0.17,0.85-0.24,3.07,0.86,3.09
													c8.6,0.22,18.11,0.86,24.45,0.88c1.07,0,6.14-1.02,6.3-1.26c0.52-0.79,9.22-2.29,11.08-11.97
													c1.4-7.29,5.99-19.96,9.03-27.7c9.12-23.16,32.61-64.93,38.8-74.95c6.44-10.44,50.95-74.72,79.49-111.83
													c29.17-37.94,64.46-87.56,62.03-124.97C2103.75,1175.04,2103.39,1148.33,2076.68,1135.47z"/>
											</g>
											<g>
												<path class="st22" d="M1492.32,1533.52h-67.67c-6.02,0-11.63-2.52-15.62-6.74c-1.82-1.92-3.3-4.19-4.33-6.73
													c-17.11-41.94-70.76-167.46-100.02-167.46c-5.13,0-9.57,1.48-13.55,3.55c-23.27,12.1-30.81,44.37-68.9-81.09
													c-29.45-97.01,22.43-148.35,61.06-172.03c22.71-13.92,51.8-11.76,72.09,5.54c33.83,28.84,84.99,92.4,123.56,228.27
													c7.3,25.71,14.14,54,20.34,85.14c5.35,26.81,13.22,55.46,14.43,86.93C1514.92,1540.47,1512.28,1532.59,1492.32,1533.52z
													"/>
												<path class="st11" d="M1437.62,1533.66c0,0-49.2-164.75-108.57-224.47c0,0,7.96-12.33,16.83-32.96
													c5.44-12.64,11.83-27.4,13.96-47.42c0,0,102.11,112.31,115.29,304.85H1437.62z"/>
												<path class="st16" d="M1290.25,1357.13c0,0,102.72-115.17,55.86-183.19"/>
												<path class="st23" d="M1255.41,1343.07c11.89-1.12,46.92-14.16,70.41-131.06c0,0,25.79-83.8-28.97-100.44
													c-2.37-0.72-5.52-7.3-0.5-10.46c9.59-6.03,38.57-9.39,62.92,15.12c7.99,8.04,14.61,13.7,25.38,26.78
													c28.83,35.03,90.39,154.5,102.55,224.9c0,0,25.53,99.97,26.65,145.56c0.09,3.79,0.87,13.86-2.45,19.52
													c0,0-5.8,2.12-28.48,0c-1.78-0.17-5.88,0.34-7.46-1.35c-0.99-1.06-0.8-7.38-0.84-8.51
													c-1.27-31.12-18.77-121.9-41.07-169.51c-22.3-47.62-38.71-133.47-70.51-165.45c-3.75-3.77-7.02-8.27-10.99-11.81
													c-3.36-3-8.45-7.82-9.97-3c-2.48,7.86,7.15,1.93,11.21,34.58c1.42,11.46,0.16,27.38-5.41,44.89
													c-9.73,30.64-33.15,65.08-57.97,94.37c-4.16,4.91-9.07,8.17-14.53,11.59c-4.84,3.03-6.23,5.05-9.4,3.14
													c-4.67-2.82-8.62-11.18-11.16-16.54C1254.01,1343.64,1253.5,1343.25,1255.41,1343.07z"/>
											</g>
										</g>
									</g>
								</g>
							</g>
						</g>
					</g>
				</g>
				<g transform="matrix(1,0,0,1,193.501,274.88)">
					<g transform="matrix(0.768439,0,0,0.768439,24.6571,17.4298)">
						<path class="st24" d="M1678.1,1975.03c0.93-22.67,10.11-58.94,35.08-59.78c26.34-0.89,32.75,34.28,35.1,63.21
							c2.48,30.52-5.3,67.72-33.19,67.97C1684.82,2046.69,1676.89,2004.68,1678.1,1975.03z"/>
					</g>
					<g transform="matrix(-0.768439,0,0,0.768439,207.503,17.4298)">
						<path class="st24" d="M-1807.69,1975.03c0.93-22.67,10.11-58.94,35.08-59.78c26.34-0.89,32.75,34.28,35.1,63.21
							c2.48,30.52-10.77,67.72-38.65,67.96C-1806.44,2046.69-1808.91,2004.68-1807.69,1975.03z"/>
					</g>
					<g transform="matrix(1,0,0,1,1.10523,0)">
						<path class="st25" d="M1275.83,1515.11c-0.83,0-1.36-0.02-1.55-0.03c-2.21-0.1-3.93-1.99-3.82-4.22
							c0.1-2.23,1.99-3.96,4.19-3.85c0.65,0.02,58.32,1.72,96.51-60.27c1.17-1.89,3.64-2.48,5.52-1.3c1.88,1.17,2.46,3.66,1.3,5.56
							C1340.29,1512.17,1285.9,1515.11,1275.83,1515.11z"/>
					</g>
					<g transform="matrix(-1,0,0,1,231.055,0)">
						<path class="st25" d="M-1402.79,1515.11c10.07,0,64.45-2.93,102.14-64.11c1.17-1.9,0.59-4.39-1.3-5.56
							c-1.88-1.18-4.36-0.59-5.52,1.3c-38.22,62.03-95.94,60.3-96.51,60.27c-2.22-0.13-4.08,1.63-4.18,3.86
							c-0.1,2.23,1.61,4.11,3.82,4.21C-1404.15,1515.09-1403.62,1515.11-1402.79,1515.11z"/>
					</g>
					<g transform="matrix(0.60066,-0.799505,-0.799505,-0.60066,68.4859,141.841)">
						<path class="st24" d="M-318.2-1713.68c0,0,22.3-34.31,60.69-48.87c37.3-14.16,83.08,10.67,83.08,10.67
							s-41.92-49.01-90.33-29.03C-324.65-1756.2-317.45-1704.3-318.2-1713.68z"/>
					</g>
					<g transform="matrix(-0.60066,-0.799505,0.799505,-0.60066,162.058,141.841)">
						<path class="st24" d="M-1922.55,421.77c0,0,22.3-34.31,60.69-48.87c37.3-14.16,83.08,10.67,83.08,10.67
							s-41.92-49.01-90.33-29.03C-1928.99,379.26-1921.8,431.15-1922.55,421.77z"/>
					</g>
					<g transform="matrix(1,0,0,1,-0.992592,-5.63609)">
						<path class="st25" d="M1428.53,1593.4c-0.42,0-0.84-0.07-1.26-0.2c-2.1-0.7-3.25-2.98-2.56-5.1
							c1.17-3.57,11.98-34.91,31.55-34.99c0.03,0,0.06,0,0.09,0c19.63,0,32.1,28.61,32.62,29.83c0.88,2.05-0.06,4.42-2.1,5.31
							c-2.04,0.88-4.4-0.06-5.27-2.11c-2.98-6.94-13.34-24.95-25.25-24.95c-0.02,0-0.03,0-0.05,0
							c-11.75,0.05-21.28,21.27-23.96,29.44C1431.78,1592.33,1430.22,1593.4,1428.53,1593.4z"/>
					</g>
					<g transform="matrix(1,0,0,1,-249.113,-281.968)">
						<g>
							<defs>
								<path id="SVGID_1_" d="M1648.65,1897.82c19.38-11.1,78.45-13.9,101.6,1.79c15.63,10.6,33.92,58.31,16.87,61.91
									c-17.05,3.6-131.26,7.33-139.68-1.4C1619,1951.39,1631.92,1907.4,1648.65,1897.82z"/>
							</defs>
							<use xlink:href="#SVGID_1_"  style="overflow:visible;fill-rule:evenodd;clip-rule:evenodd;fill:#B02F10;"/>
							<clipPath id="SVGID_2_">
								<use xlink:href="#SVGID_1_"  style="overflow:visible;"/>
							</clipPath>
							<g class="st26">
								<g>
									<path class="st27" d="M1611.22,1974.91c0,0,24.85-46.38,41.21-47.83c16.36-1.45,89.49-3.59,100.63,0
										c11.14,3.58,28.09,48.21,28.09,48.21L1611.22,1974.91z"/>
									<path class="st25" d="M1781.15,1979.32C1781.15,1979.32,1781.14,1979.32,1781.15,1979.32l-169.94-0.38
										c-1.41,0-2.72-0.75-3.44-1.97c-0.72-1.22-0.75-2.73-0.08-3.98c4.32-8.06,26.77-48.37,44.39-49.94
										c15.13-1.34,90.07-3.73,102.21,0.18c12.04,3.87,26.48,39.72,30.61,50.61c0.47,1.24,0.31,2.64-0.44,3.74
										C1783.7,1978.67,1782.47,1979.32,1781.15,1979.32z M1618.07,1970.88l157.17,0.35c-7.73-19.05-18.17-38.62-23.4-40.31
										c-9.84-3.17-80.05-1.51-99.06,0.18C1643.57,1931.92,1627.89,1953.93,1618.07,1970.88z"/>
								</g>
								<g>
									<path class="st27" d="M1640.37,1888.66c0,0,2.79,32.16,12.06,38.41c9.26,6.25,94.28,2.76,100.63,0
										c6.35-2.77,7.97-42.9,7.97-42.9C1721.73,1879.15,1681.49,1880.74,1640.37,1888.66z"/>
									<path class="st25" d="M1691.92,1934.65c-19.5,0-37.1-1.09-41.73-4.22c-10.33-6.98-13.32-35.73-13.82-41.42
										c-0.18-2.06,1.22-3.93,3.24-4.32c41.66-8.02,82.68-9.54,121.92-4.53c2.07,0.26,3.59,2.08,3.5,4.17
										c-1.14,28.31-4.64,43.94-10.39,46.45C1750.77,1932.47,1719.45,1934.65,1691.92,1934.65z M1644.75,1891.95
										c1.46,12.35,5.13,28.54,9.92,31.78c7.87,5.08,87.71,2.21,96.55-0.28c2.47-3.14,4.78-20.09,5.64-35.72
										C1720.7,1883.51,1683.03,1884.92,1644.75,1891.95z M1751.05,1923.63L1751.05,1923.63L1751.05,1923.63z"/>
								</g>
							</g>
						</g>
						<path class="st25" d="M1684.73,1969.53c-53.81,0-58.39-4.74-60.18-6.59c-3.51-3.64-4.59-10.45-3.21-20.24
							c2.56-18.12,12.73-41.18,25.32-48.39c0,0,0,0,0,0c20-11.46,81.02-14.87,105.82,1.95c14.12,9.58,28.16,42.35,25.03,58.44
							c-1.14,5.88-4.54,9.71-9.58,10.78c-9.1,1.92-42.23,3.72-73.86,4.01C1690.81,1969.51,1687.69,1969.53,1684.73,1969.53z
							 M1650.63,1901.33L1650.63,1901.33c-9.84,5.64-19.15,26.93-21.35,42.51c-1.21,8.55,0.07,12.49,1.02,13.47
							c8.63,6.54,115.87,4.5,135.98,0.26c0.78-0.16,2.6-0.55,3.35-4.42c2.5-12.91-10.24-42.46-21.64-50.19
							C1726.42,1888.33,1668.53,1891.08,1650.63,1901.33z"/>
					</g>
				</g>
			</g>
			<polygon class="st5" points="883.59,1832.27 827.41,1837.37 814.12,1861.24 810.36,1910.06 837.54,1916.82 860.94,1899.36 
				859.26,1873.07 871.69,1883.17 882.36,1862.11 			"/>
			<path class="st3" d="M822.1,1840.91c0,0-22.75,43.1-11.72,55.81c11.03,12.71,22.36,24.28,34.89,0.77
				C857.81,1873.98,843.34,1825.59,822.1,1840.91z"/>
			<path class="st5" d="M883.25,1825.47c0,0-38.49-7.91-55.67,2.13c-17.18,10.03,14.53,11.87,14.53,11.87l31.23,0.33l18.06-3.89
				L883.25,1825.47z"/>
			<path class="st5" d="M871.69,1883.17c0,0-8.69,16.78-10.75,16.2c-2.06-0.59-5.82-17.03-5.82-17.03l1.01-19.54l9.83,1.93
				L871.69,1883.17z"/>
			<polygon class="st5" points="845.14,1905.91 849.93,1909.83 858.3,1903.72 860.84,1897.71 852.99,1900.08 			"/>
			<polygon class="st5" points="812.76,1912.4 821.04,1916.21 830.11,1916.21 831.9,1912.4 817.1,1909.83 811.46,1909.83 			"/>
			<polygon class="st5" points="827.94,1833.15 823.75,1837.97 825.84,1838.83 827.94,1838.2 829.96,1836.93 			"/>
			<path d="M828.43,1822.51c0,0,11.59-10.84,55.43-0.69l-0.61,3.64c0,0-37.09-7.93-55.67,2.13L828.43,1822.51z"/>
		</g>
	</g>
	<text transform="matrix(1 0 0 1 1472.1508 835.0983)"><tspan x="0" y="0" class="st5 st28 st29">SOMETHING </tspan><tspan x="-23.28" y="140.4" class="st5 st28 st29">WENT WRONG</tspan></text>
</g>
</svg>
