<svg width="17" height="19" viewBox="0 0 17 19" fill="none" xmlns="http://www.w3.org/2000/svg">
<g id="Group">
<path id="Vector" d="M15.3146 10.156H1.62073C0.997666 10.156 0.894292 10.5537 0.885254 10.7856C1.19396 14.9225 4.50022 18.1833 8.54111 18.1833C12.5193 18.1833 15.792 15.0261 16.1879 10.9819C16.1888 10.9754 16.1888 10.9694 16.1896 10.9629C16.1941 10.9121 16.1933 10.8601 16.1967 10.8087C16.173 10.2275 15.5321 10.1614 15.3146 10.156Z" fill="white"/>
<path id="Vector_2" d="M6.03277 4.90041C6.15111 4.93034 6.27398 4.9504 6.40051 4.95774V4.96565L6.4827 4.96593C6.49343 4.96593 6.50304 4.96932 6.51349 4.96932C6.52422 4.96932 6.53467 4.9665 6.5454 4.96593L6.77785 4.96706V4.96876L10.862 4.96819C11.4105 4.96819 11.6466 5.11534 11.7457 5.21392C11.805 5.33762 11.8412 5.47489 11.8412 5.6212C11.8412 5.94516 11.6776 6.2307 11.4302 6.4013C11.4249 6.40582 11.4178 6.40836 11.4133 6.41231C11.3808 6.4335 11.3463 6.45044 11.3108 6.46767C11.0899 6.55636 10.7453 6.55551 10.7453 6.55551H8.9422L6.29911 6.55523C6.29911 6.55523 5.98108 6.55071 5.67435 6.64476C5.66645 6.64759 5.65854 6.65013 5.64978 6.65324C5.61787 6.66312 5.58623 6.6747 5.55432 6.68741C5.39163 6.7552 5.22555 6.8566 5.08066 7.01109C5.07699 7.01476 5.0736 7.01759 5.06993 7.02098C5.06541 7.0255 5.06117 7.02776 5.0575 7.03227C5.05298 7.03736 5.05213 7.03962 5.04875 7.0447C4.75444 7.33194 4.57029 7.72962 4.57029 8.1739C4.57029 8.27756 4.58385 8.37726 4.60559 8.47386C4.63045 8.56311 4.71772 8.76844 5.0157 8.76957H5.15268C5.48512 8.76223 5.56985 8.15159 5.56985 8.15159L5.57239 8.15187C5.59188 8.08041 5.62097 8.01291 5.6608 7.95219C5.66249 7.94964 5.66334 7.94738 5.66616 7.94428C5.67068 7.93835 5.67577 7.93326 5.68028 7.92705C5.76163 7.83102 5.99069 7.65534 6.5889 7.65534L10.6739 7.65562V7.65393L10.9055 7.65308C10.9167 7.65336 10.9266 7.65619 10.9371 7.65619C10.9475 7.65619 10.9583 7.65308 10.9687 7.65308L11.0501 7.65252V7.64461C11.1763 7.63726 11.3003 7.61721 11.4186 7.58727C12.292 7.41216 12.9503 6.64194 12.9503 5.71723C12.9503 5.43196 12.8834 5.16421 12.771 4.92272C12.6879 4.70919 12.5642 4.51628 12.4024 4.3584C12.3987 4.35332 12.3979 4.35106 12.3936 4.34597C12.39 4.34145 12.3857 4.33891 12.3812 4.33439C12.3775 4.33129 12.3741 4.32846 12.3705 4.32479C12.3078 4.25813 12.2406 4.20532 12.1716 4.15674C12.1507 4.1412 12.1296 4.12652 12.1072 4.11268C12.0567 4.08133 12.0056 4.05562 11.955 4.03218C11.4619 3.81752 10.7961 3.86921 10.7961 3.86921H7.56106H7.40996H6.70639C6.70639 3.86921 6.36153 3.87006 6.13982 3.78109C6.10536 3.76386 6.06977 3.7472 6.03814 3.72601C6.03277 3.72206 6.02571 3.71952 6.02119 3.715C5.77293 3.5444 5.61024 3.25914 5.61024 2.93489C5.61024 2.41153 6.03447 1.98759 6.55755 1.98759H8.50894H8.73517H8.91198C9.72598 1.98759 9.87256 1.39446 9.89827 1.12275V0.476241C9.89827 0.227411 9.71694 0.187869 9.68983 0.18335C9.42461 0.191258 9.00038 0.257632 9.00038 0.610684C9.00038 0.694286 9.00038 0.75953 9.00038 0.817996C8.99191 0.924476 8.92723 1.12247 8.56938 1.12247H6.42254C6.41915 1.12275 6.41463 1.12275 6.41096 1.12275C6.41011 1.12275 6.40927 1.12247 6.40842 1.12247C6.4039 1.12247 6.40051 1.12388 6.39599 1.12388C6.2624 1.13066 6.1353 1.14252 6.02741 1.16088C6.02571 1.16144 6.02373 1.16144 6.02204 1.16173C5.94606 1.175 5.88082 1.1911 5.83196 1.21144C5.81529 1.21822 5.80456 1.22556 5.79496 1.23262C5.04366 1.48879 4.50024 2.19264 4.50024 3.03008C4.50024 3.95507 5.15861 4.72529 6.03277 4.90041Z" fill="white"/>
</g>
</svg>
