<svg width="36" height="35" viewBox="0 0 36 35" fill="none" xmlns="http://www.w3.org/2000/svg">
<g clip-path="url(#clip0_7403_3103)">
<path fill-rule="evenodd" clip-rule="evenodd" d="M18 35C14.5388 35 11.1554 33.9737 8.27753 32.0507C5.39967 30.1278 3.15667 27.3947 1.83213 24.197C0.507601 20.9993 0.161018 17.4806 0.836259 14.0859C1.5115 10.6913 3.17823 7.57306 5.62565 5.12564C8.07307 2.67822 11.1913 1.01151 14.5859 0.336268C17.9806 -0.338973 21.4993 0.00757432 24.697 1.33211C27.8947 2.65664 30.6278 4.89966 32.5507 7.77752C34.4737 10.6554 35.5 14.0388 35.5 17.5C35.5 22.1413 33.6563 26.5925 30.3744 29.8744C27.0925 33.1563 22.6413 35 18 35Z" fill="white"/>
<path fill-rule="evenodd" clip-rule="evenodd" d="M18 35C14.5388 35 11.1554 33.9737 8.27753 32.0507C5.39967 30.1278 3.15667 27.3947 1.83213 24.197C0.507601 20.9993 0.161018 17.4806 0.836259 14.0859C1.5115 10.6913 3.17823 7.57306 5.62565 5.12564C8.07307 2.67822 11.1913 1.01151 14.5859 0.336268C17.9806 -0.338973 21.4993 0.0075743 24.697 1.33211C27.8947 2.65664 30.6278 4.89966 32.5507 7.77752C34.4737 10.6554 35.5 14.0388 35.5 17.5C35.5 22.1413 33.6563 26.5925 30.3744 29.8744C27.0925 33.1563 22.6413 35 18 35ZM8.0915 21.4463C7.71518 21.0658 7.50411 20.5522 7.50411 20.0171C7.50411 19.4819 7.71518 18.9684 8.0915 18.5879L9.1217 17.5636C9.29689 17.3868 9.50579 17.247 9.73604 17.1525C9.9663 17.0581 10.2132 17.0108 10.4621 17.0136C10.7109 17.0164 10.9567 17.0691 11.1848 17.1687C11.4129 17.2683 11.6186 17.4127 11.7899 17.5933L13.6098 19.4816C13.6966 19.5732 13.8012 19.6461 13.917 19.6959C14.0329 19.7457 14.1578 19.7714 14.2839 19.7714C14.41 19.7714 14.5349 19.7457 14.6508 19.6959C14.7667 19.6461 14.8711 19.5732 14.9579 19.4816L24.2329 9.92075C24.4054 9.73883 24.6128 9.59367 24.8428 9.49399C25.0728 9.3943 25.3206 9.34216 25.5712 9.34069C25.8219 9.33922 26.0703 9.38844 26.3014 9.48542C26.5325 9.5824 26.7417 9.72513 26.9162 9.90501L27.9167 10.9165C28.2838 11.2954 28.4891 11.8023 28.4891 12.3299C28.4891 12.8575 28.2838 13.3644 27.9167 13.7433L15.6031 26.2564C15.4313 26.4343 15.2256 26.5761 14.9983 26.6734C14.7709 26.7708 14.5264 26.8218 14.2791 26.8234C14.0318 26.8251 13.7866 26.7773 13.558 26.6829C13.3294 26.5886 13.1219 26.4495 12.9478 26.2739L8.0915 21.4463Z" fill="#50A224"/>
</g>
<defs>
<clipPath id="clip0_7403_3103">
<rect width="35" height="35" fill="white" transform="translate(0.5)"/>
</clipPath>
</defs>
</svg>
