<svg width="20" height="21" viewBox="0 0 24 25" fill="none" xmlns="http://www.w3.org/2000/svg">
<g id="1564513_comment_message_voice_icon(1) 1" clip-path="url(#clip0_9886_6312)">
<g id="icons">
<path id="message" d="M19.8696 1.29126H4.30205C2.16151 1.29126 0.410156 3.09126 0.410156 5.29126V15.2913C0.410156 17.4913 2.16151 19.2913 4.30205 19.2913V22.2913C4.30205 23.1913 5.37232 23.5913 5.9561 22.9913L9.5561 19.2913H19.8696C22.0102 19.2913 23.7615 17.4913 23.7615 15.2913V5.29126C23.7615 3.09126 22.0102 1.29126 19.8696 1.29126ZM14.0318 13.2913H8.19394C7.61016 13.2913 7.22097 12.8913 7.22097 12.2913C7.22097 11.6913 7.61016 11.2913 8.19394 11.2913H14.0318C14.6156 11.2913 15.0048 11.6913 15.0048 12.2913C15.0048 12.8913 14.6156 13.2913 14.0318 13.2913ZM15.9777 9.29126H8.19394C7.61016 9.29126 7.22097 8.89126 7.22097 8.29126C7.22097 7.69126 7.61016 7.29126 8.19394 7.29126H15.9777C16.5615 7.29126 16.9507 7.69126 16.9507 8.29126C16.9507 8.89126 16.5615 9.29126 15.9777 9.29126Z" fill="#3D3D3D"/>
</g>
</g>
<defs>
<clipPath id="clip0_9886_6312">
<rect width="23.3514" height="24" fill="white" transform="translate(0.410156 0.29126)"/>
</clipPath>
</defs>
</svg>
