<svg width="22" height="23" viewBox="0 0 32 33" fill="none" xmlns="http://www.w3.org/2000/svg">
<path d="M13 16.5039C13 18.1579 14.346 19.5039 16 19.5039C17.654 19.5039 19 18.1579 19 16.5039C19 14.8499 17.654 13.5039 16 13.5039C14.346 13.5039 13 14.8499 13 16.5039Z" fill="#E1740F"/>
<path d="M13 26.5039C13 28.1579 14.346 29.5039 16 29.5039C17.654 29.5039 19 28.1579 19 26.5039C19 24.8499 17.654 23.5039 16 23.5039C14.346 23.5039 13 24.8499 13 26.5039Z" fill="#E1740F"/>
<path d="M13 6.50391C13 8.15791 14.346 9.50391 16 9.50391C17.654 9.50391 19 8.15791 19 6.50391C19 4.84991 17.654 3.50391 16 3.50391C14.346 3.50391 13 4.84991 13 6.50391Z" fill="#E1740F"/>
</svg>
