<svg width="56" height="56" viewBox="0 0 56 56" fill="none" xmlns="http://www.w3.org/2000/svg">
<path d="M28 0.875C13.0156 0.875 0.875 13.0156 0.875 28C0.875 42.9844 13.0156 55.125 28 55.125C42.9844 55.125 55.125 42.9844 55.125 28C55.125 13.0156 42.9844 0.875 28 0.875ZM28 11.375C33.3156 11.375 37.625 15.6844 37.625 21C37.625 26.3156 33.3156 30.625 28 30.625C22.6844 30.625 18.375 26.3156 18.375 21C18.375 15.6844 22.6844 11.375 28 11.375ZM28 49C21.5797 49 15.8266 46.0906 11.9766 41.5406C14.0328 37.6687 18.0578 35 22.75 35C23.0125 35 23.275 35.0438 23.5266 35.1203C24.9484 35.5797 26.4359 35.875 28 35.875C29.5641 35.875 31.0625 35.5797 32.4734 35.1203C32.725 35.0438 32.9875 35 33.25 35C37.9422 35 41.9672 37.6687 44.0234 41.5406C40.1734 46.0906 34.4203 49 28 49Z" fill="black"/>
</svg>
