<svg width="6" height="10" viewBox="0 0 6 10" fill="none" xmlns="http://www.w3.org/2000/svg">
<path d="M2.69169 9.2305C0.421406 5.42096 0 5.02998 0 3.62992C0 1.71214 1.34314 0.157478 3 0.157478C4.65686 0.157478 6 1.71214 6 3.62992C6 5.02998 5.57859 5.42096 3.30831 9.2305C3.15933 9.47961 2.84066 9.47959 2.69169 9.2305ZM3 5.07677C3.69036 5.07677 4.25 4.429 4.25 3.62992C4.25 2.83084 3.69036 2.18307 3 2.18307C2.30964 2.18307 1.75 2.83084 1.75 3.62992C1.75 4.429 2.30964 5.07677 3 5.07677Z" fill="#FD7A33"/>
</svg>
