<?xml version="1.0" standalone="no"?>
<!DOCTYPE svg PUBLIC "-//W3C//DTD SVG 20010904//EN"
 "http://www.w3.org/TR/2001/REC-SVG-20010904/DTD/svg10.dtd">
<svg version="1.0" xmlns="http://www.w3.org/2000/svg"
 width="277.000000pt" height="280.000000pt" viewBox="0 0 277.000000 280.000000"
 preserveAspectRatio="xMidYMid meet">

<g transform="translate(0.000000,280.000000) scale(0.100000,-0.100000)"
fill="#000000" stroke="none">
<path d="M250 2678 c-19 -5 -52 -26 -72 -45 -72 -70 -68 -2 -68 -1237 0 -1095
1 -1112 21 -1156 27 -59 44 -77 104 -108 l50 -25 1100 1 c1088 0 1100 1 1145
21 55 25 84 55 110 112 19 43 20 70 20 1159 l0 1115 -24 50 c-23 50 -64 89
-119 113 -36 15 -2212 16 -2267 0z m2281 -84 c21 -14 42 -40 48 -56 8 -21 11
-381 11 -1142 0 -1038 -1 -1113 -18 -1146 -37 -75 42 -70 -1183 -70 -750 0
-1106 3 -1127 11 -16 6 -42 27 -56 48 l-26 37 0 1124 0 1124 22 32 c47 68 -44
63 1182 64 l1110 0 37 -26z"/>
<path d="M1295 2190 c-249 -31 -471 -196 -578 -430 -14 -30 -28 -71 -32 -90
-4 -19 -12 -40 -17 -47 -14 -18 -21 -220 -10 -283 17 -90 42 -169 70 -224 15
-28 30 -53 33 -56 3 -3 13 -18 22 -35 19 -39 153 -172 192 -192 17 -9 32 -19
35 -22 11 -13 118 -60 175 -77 82 -25 316 -26 395 -2 51 16 169 67 180 78 3 3
23 17 45 31 160 104 283 309 307 511 35 301 -86 563 -337 730 -129 86 -318
128 -480 108z"/>
</g>
</svg>
